<?xml version="1.0" standalone="no"?>
<!DOCTYPE svg PUBLIC "-//W3C//DTD SVG 20010904//EN"
 "http://www.w3.org/TR/2001/REC-SVG-20010904/DTD/svg10.dtd">
<svg version="1.0" xmlns="http://www.w3.org/2000/svg"
 width="260.000000pt" height="260.000000pt" viewBox="0 0 260.000000 260.000000"
 preserveAspectRatio="xMidYMid meet">
<metadata>
Created by potrace 1.14, written by Peter Selinger 2001-2017
</metadata>
<g transform="translate(0.000000,260.000000) scale(0.100000,-0.100000)"
fill="#000000" stroke="none">
<path d="M1916 2005 c3 -16 10 -46 15 -65 17 -68 11 -103 -23 -135 l-31 -30
-47 23 c-99 49 -236 48 -346 -2 -70 -32 -169 -101 -189 -132 -8 -13 -20 -24
-25 -24 -5 0 -34 -18 -66 -40 -65 -46 -153 -78 -163 -61 -4 6 -32 18 -62 27
-70 20 -189 74 -189 86 0 31 81 72 183 93 19 4 25 10 20 18 -12 20 -14 47 -3
66 8 16 4 19 -29 25 -48 7 -142 -9 -198 -36 -23 -11 -58 -38 -78 -59 -19 -21
-35 -34 -35 -29 0 6 -11 21 -25 33 -25 21 -25 24 -15 82 6 33 12 72 15 88 9
53 -14 26 -25 -30 -7 -32 -15 -65 -17 -73 -7 -18 -7 -20 -23 -125 -11 -76 -8
-221 7 -305 3 -19 6 -43 7 -52 0 -10 3 -18 6 -18 3 0 12 -28 19 -62 21 -103
34 -123 99 -147 31 -12 100 -32 152 -45 l96 -24 83 24 c173 50 331 52 505 8
67 -17 101 -12 246 39 121 42 180 74 180 96 0 10 6 34 14 53 8 19 18 59 22 89
4 30 10 59 13 64 14 20 12 204 -3 318 -11 81 -26 141 -46 190 -37 88 -53 115
-44 72z m-140 -273 c22 -11 47 -29 54 -39 14 -17 14 -17 -5 -1 -19 16 -23 15
-83 -23 -60 -38 -176 -90 -234 -104 -42 -11 -34 -22 30 -41 72 -22 80 -29 75
-58 -5 -22 -9 -24 -42 -19 -55 9 -138 42 -169 68 -25 21 -34 22 -94 16 -36 -4
-72 -11 -80 -16 -16 -12 9 12 50 47 15 13 31 31 35 41 4 10 15 21 24 24 10 4
38 22 62 41 46 35 108 69 151 83 46 15 181 4 226 -19z m-106 -152 c-8 -5 -19
-10 -25 -10 -5 0 -3 5 5 10 8 5 20 10 25 10 6 0 3 -5 -5 -10z m-65 -20 c3 -5
1 -10 -4 -10 -6 0 -11 5 -11 10 0 6 2 10 4 10 3 0 8 -4 11 -10z m-35 -10 c0
-5 -7 -10 -16 -10 -8 0 -12 5 -9 10 3 6 10 10 16 10 5 0 9 -4 9 -10z m-196
-49 c6 -9 -49 -21 -101 -21 -25 0 -31 4 -27 15 5 11 22 15 64 15 33 0 61 -4
64 -9z"/>
<path d="M695 868 c8 -68 25 -125 42 -139 7 -6 13 -17 13 -23 0 -20 88 -104
127 -122 21 -10 41 -22 44 -26 3 -5 19 -11 35 -13 16 -2 29 -4 29 -5 0 -1 23
-4 50 -6 28 -3 71 -8 98 -13 26 -5 50 -5 53 0 8 13 72 11 110 -3 27 -9 38 -9
59 2 17 9 29 10 36 3 7 -7 27 -7 60 -1 28 5 65 7 82 5 24 -3 20 -4 -15 -5 -27
-1 -48 -6 -48 -12 0 -5 7 -10 15 -10 12 0 15 -13 15 -56 0 -73 24 -70 28 4 2
36 7 52 17 52 7 0 17 9 20 20 4 12 14 20 23 19 17 -3 84 22 112 41 8 6 26 16
40 22 25 13 75 57 79 70 1 4 15 37 32 73 26 58 50 175 36 175 -3 0 -31 -25
-63 -56 -135 -129 -315 -194 -540 -194 -218 0 -389 63 -530 195 -33 30 -60 55
-62 55 -2 0 0 -24 3 -52z"/>
<path d="M1910 555 c0 -9 9 -15 25 -15 16 0 25 6 25 15 0 9 -9 15 -25 15 -16
0 -25 -6 -25 -15z"/>
<path d="M730 461 c0 -34 4 -61 10 -61 6 0 10 24 10 54 0 30 -4 58 -10 61 -6
4 -10 -17 -10 -54z"/>
<path d="M850 460 c0 -63 16 -84 22 -27 l3 32 23 -38 c12 -21 27 -35 32 -32
15 10 13 128 -2 123 -7 -3 -14 -17 -16 -33 l-4 -28 -19 32 c-28 46 -39 38 -39
-29z"/>
<path d="M1043 513 c-24 -9 -14 -47 18 -65 31 -18 31 -41 0 -36 -10 2 -20 -1
-22 -7 -6 -15 40 -18 57 -5 22 19 17 49 -11 62 -14 6 -25 17 -25 25 0 7 11 13
25 13 14 0 25 5 25 10 0 10 -45 12 -67 3z"/>
<path d="M1190 510 c0 -5 7 -10 15 -10 12 0 15 -13 15 -56 0 -73 24 -70 28 4
2 37 7 52 18 52 7 0 14 5 14 10 0 6 -20 10 -45 10 -25 0 -45 -4 -45 -10z"/>
<path d="M1360 454 c0 -48 3 -65 13 -62 7 3 13 28 15 66 2 51 0 62 -13 62 -12
0 -15 -13 -15 -66z"/>
<path d="M1642 465 c4 -68 21 -86 62 -67 23 10 26 17 26 68 0 40 -3 54 -12 51
-7 -2 -12 -17 -10 -33 3 -43 -6 -74 -23 -74 -8 0 -15 6 -16 13 0 6 -1 30 -2
51 -1 22 -8 41 -15 44 -10 3 -12 -10 -10 -53z"/>
<path d="M1820 510 c0 -5 7 -10 15 -10 11 0 15 -12 15 -50 0 -27 5 -50 10 -50
6 0 10 23 10 50 0 39 4 50 16 50 8 0 12 5 9 10 -3 6 -22 10 -41 10 -19 0 -34
-4 -34 -10z"/>
<path d="M730 185 l0 -105 55 0 c30 0 55 5 55 10 0 6 -20 10 -45 10 l-45 0 0
40 0 40 45 0 c25 0 45 5 45 10 0 6 -20 10 -45 10 -45 0 -45 0 -45 35 0 35 0
35 45 35 25 0 45 5 45 10 0 6 -25 10 -55 10 l-55 0 0 -105z"/>
<path d="M870 280 c0 -5 11 -10 25 -10 24 0 24 -2 27 -92 2 -54 7 -93 13 -93
6 0 11 39 13 93 2 83 5 92 22 92 10 0 22 5 25 10 4 6 -18 10 -59 10 -37 0 -66
-4 -66 -10z"/>
<path d="M1032 188 l3 -103 58 -3 c35 -2 57 1 57 8 0 5 -20 10 -45 10 l-45 0
0 40 0 40 46 0 c27 0 43 4 39 10 -3 6 -24 10 -46 10 -38 0 -39 1 -39 35 0 34
1 35 39 35 22 0 43 5 46 10 4 6 -17 10 -55 10 l-61 0 3 -102z"/>
<path d="M1192 188 c3 -103 20 -143 26 -60 4 58 31 57 60 -3 19 -40 52 -62 52
-35 0 6 -4 10 -8 10 -5 0 -16 16 -25 35 -16 34 -16 36 3 55 47 47 13 100 -64
100 l-47 0 3 -102z m93 42 c0 -32 -3 -35 -32 -38 -32 -3 -33 -3 -33 38 0 41 1
41 33 38 29 -3 32 -6 32 -38z"/>
<path d="M1362 188 c4 -121 21 -138 28 -28 l5 75 43 -78 c24 -43 49 -76 55
-74 8 2 13 40 15 105 2 86 0 102 -13 102 -12 0 -15 -15 -15 -77 l0 -78 -46 78
c-63 108 -75 104 -72 -25z"/>
<path d="M1562 188 c4 -133 22 -132 26 2 2 85 0 100 -13 100 -13 0 -15 -15
-13 -102z"/>
<path d="M1625 280 c3 -5 15 -10 25 -10 17 0 20 -9 22 -92 2 -54 7 -93 13 -93
6 0 11 39 13 93 3 90 3 92 27 92 14 0 25 5 25 10 0 6 -29 10 -66 10 -41 0 -63
-4 -59 -10z"/>
<path d="M1790 230 c18 -36 30 -75 30 -99 0 -22 5 -43 10 -46 6 -4 10 10 10
35 0 25 11 63 30 100 34 68 35 70 17 70 -8 0 -22 -18 -32 -40 -10 -22 -21 -40
-25 -40 -4 0 -15 18 -25 40 -10 22 -24 40 -32 40 -9 0 -5 -17 17 -60z"/>
</g>
</svg>
