<?xml version="1.0" encoding="UTF-8" standalone="no"?>
<svg
   xmlns:dc="http://purl.org/dc/elements/1.1/"
   xmlns:cc="http://creativecommons.org/ns#"
   xmlns:rdf="http://www.w3.org/1999/02/22-rdf-syntax-ns#"
   xmlns:svg="http://www.w3.org/2000/svg"
   xmlns="http://www.w3.org/2000/svg"
   xmlns:sodipodi="http://sodipodi.sourceforge.net/DTD/sodipodi-0.dtd"
   xmlns:inkscape="http://www.inkscape.org/namespaces/inkscape"
   width="19.84375mm"
   height="19.843742mm"
   viewBox="0 0 19.84375 19.843742"
   version="1.1"
   id="svg2817"
   inkscape:version="1.0.1 (3bc2e813f5, 2020-09-07)"
   sodipodi:docname="cadre.svg">
  <defs
     id="defs2811" />
  <sodipodi:namedview
     id="base"
     pagecolor="#ffffff"
     bordercolor="#666666"
     borderopacity="1.0"
     inkscape:pageopacity="0.0"
     inkscape:pageshadow="2"
     inkscape:zoom="11.026671"
     inkscape:cx="37.5"
     inkscape:cy="37.499986"
     inkscape:document-units="mm"
     inkscape:current-layer="layer1"
     inkscape:document-rotation="0"
     showgrid="false"
     inkscape:window-width="1920"
     inkscape:window-height="1017"
     inkscape:window-x="-8"
     inkscape:window-y="-8"
     inkscape:window-maximized="1"
     fit-margin-top="0"
     fit-margin-left="0"
     fit-margin-right="0"
     fit-margin-bottom="0" />
  <metadata
     id="metadata2814">
    <rdf:RDF>
      <cc:Work
         rdf:about="">
        <dc:format>image/svg+xml</dc:format>
        <dc:type
           rdf:resource="http://purl.org/dc/dcmitype/StillImage" />
        <dc:title></dc:title>
      </cc:Work>
    </rdf:RDF>
  </metadata>
  <g
     inkscape:label="Calque 1"
     inkscape:groupmode="layer"
     id="layer1"
     transform="translate(-0.757584,-0.51221342)">
    <g
       id="g2760"
       transform="matrix(0.01510516,0,0,-0.01050758,-22.794935,20.934789)">
      <path
         d="m 2216.09,1918.86 c -35.54,-0.01 -78.79,-0.04 -131.53,-0.06 -316.97,0.14 -291.05,0.27 -309.64,-2.21 -30.42,-4.97 -61,-16.44 -93.03,-38.32 -11.58,-7.69 -31.12,-25.53 -31.63,-26.58 -38.06,-38.37 -65.12,-93.76 -66.3,-152.08 0,-421.18 -2.8,-440.64 5.56,-450.55 4.48,-5.52 15.45,-9.3 28.67,-1.81 1.49,-4.49 0.21,-14.34 -11.11,-22.12 2.45,-2.45 14.86,-13.39 14.86,-28.63 0.16,0 -0.26,-4.24 -0.27,-4.4 -1.57,-8.73 -4.32,-9.76 -6.5,-12.23 0,0 -2.39,-1.88 -4.46,-3.12 13.28,-9.11 29.97,26.64 5.17,48.08 13.98,14.93 6.36,27.84 5,31.13 -4.8,-3.35 -9.84,-7.3 -16.79,-7.3 0,0 -0.03,-0.02 -0.05,0 -3.26,0 -6.19,0.99 -7.09,1.61 l -0.59,0.35 c -0.09,0.05 -0.19,0.1 -0.32,0.15 -9.73,8.83 -6.47,22.51 -6.47,441.65 0.46,33.68 4.48,59.4 24.03,99.13 38.3,75.47 118.73,121.5 187.36,121.5 h 830.26 c 68.63,0 149.06,-46.03 187.36,-121.5 19.55,-39.73 23.57,-65.45 24.03,-99.13 0,-419.14 3.26,-432.82 -6.47,-441.65 -0.13,-0.05 -0.22,-0.1 -0.32,-0.15 l -0.59,-0.35 c -0.9,-0.62 -3.83,-1.61 -7.09,-1.61 -0.02,-0.02 -0.05,0 -0.05,0 -6.95,0 -11.99,3.95 -16.79,7.3 -1.36,-3.29 -8.98,-16.2 5,-31.13 -24.8,-21.44 -8.11,-57.19 5.17,-48.08 -2.07,1.24 -4.46,3.12 -4.46,3.12 -2.18,2.47 -4.93,3.5 -6.5,12.23 -0.01,0.16 -0.43,4.4 -0.27,4.4 0,15.24 12.41,26.18 14.86,28.63 -11.32,7.78 -12.59,17.63 -11.11,22.12 13.22,-7.49 24.19,-3.71 28.67,1.81 8.36,9.91 5.56,29.37 5.56,450.55 -1.18,58.32 -28.24,113.71 -66.3,152.08 -0.51,1.05 -20.05,18.89 -31.63,26.58 -32.03,21.88 -62.61,33.35 -93.03,38.32 -18.59,2.48 7.33,2.35 -309.64,2.21 -52.74,0.02 -95.99,0.05 -131.53,0.06"
         style="fill:#b7905b;fill-opacity:1;fill-rule:nonzero;stroke:none;stroke-width:0.1"
         id="path300" />
      <g
         id="g2718">
        <path
           d="m 2821.15,72 c -2.1,6.7699 -5.32,13.5902 -10.05,18.8801 10.79,-3.85 20.89,-10.2801 28.54,-18.8801 h -18.49"
           style="fill:#b7905b;fill-opacity:1;fill-rule:nonzero;stroke:none;stroke-width:0.1"
           id="path346" />
        <g
           id="g2678">
          <path
             d="m 2216.09,79.8301 c -35.54,0.0101 -78.79,0.0398 -131.53,0.0601 -316.97,-0.1402 -291.05,-0.2703 -309.64,2.22 -30.42,4.9597 -61,16.43 -93.03,38.3098 -11.58,7.69 -31.12,25.54 -31.63,26.58 -38.06,38.37 -65.12,93.76 -66.3,152.08 0,421.18 -2.8,764.86 5.56,774.77 4.48,5.52 15.45,9.3 28.67,1.81 1.49,4.5 0.21,14.34 -11.11,22.12 2.45,2.46 14.86,13.4 14.86,28.63 0.16,0 -0.26,4.25 -0.27,4.4 -1.57,8.73 -4.32,9.77 -6.5,12.24 0,0 -2.39,1.88 -4.46,3.11 13.28,9.11 29.97,-26.63 5.17,-48.08 13.98,-14.93 6.36,-27.83 5,-31.12 -4.8,3.34 -9.84,7.29 -16.79,7.29 0,0 -0.03,0.02 -0.05,0 -3.26,0 -6.19,-0.99 -7.09,-1.61 l -0.59,-0.34 c -0.09,-0.05 -0.19,-0.1 -0.32,-0.15 -9.73,-8.84 -6.47,-346.74 -6.47,-765.87 0.46,-33.69 4.48,-59.4 24.03,-99.14 38.3,-75.47 118.73,-121.4998 187.36,-121.4998 h 830.26 c 68.63,0 149.06,46.0298 187.36,121.4998 19.55,39.74 23.57,65.45 24.03,99.14 0,419.13 3.26,757.03 -6.47,765.87 -0.13,0.05 -0.22,0.1 -0.32,0.15 l -0.59,0.34 c -0.9,0.62 -3.83,1.61 -7.09,1.61 -0.02,0.02 -0.05,0 -0.05,0 -6.95,0 -11.99,-3.95 -16.79,-7.29 -1.36,3.29 -8.98,16.19 5,31.12 -24.8,21.45 -8.11,57.19 5.17,48.08 -2.07,-1.23 -4.46,-3.11 -4.46,-3.11 -2.18,-2.47 -4.93,-3.51 -6.5,-12.24 -0.01,-0.15 -0.43,-4.4 -0.27,-4.4 0,-15.23 12.41,-26.17 14.86,-28.63 -11.32,-7.78 -12.59,-17.62 -11.11,-22.12 13.22,7.49 24.19,3.71 28.67,-1.81 8.36,-9.91 5.56,-353.59 5.56,-774.77 -1.18,-58.32 -28.24,-113.71 -66.3,-152.08 -0.51,-1.04 -20.05,-18.89 -31.63,-26.58 -32.03,-21.8798 -62.61,-33.3501 -93.03,-38.3098 -18.59,-2.4903 7.33,-2.3602 -309.64,-2.22 -52.74,-0.0203 -95.99,-0.05 -131.53,-0.0601"
             style="fill:#b7905b;fill-opacity:1;fill-rule:nonzero;stroke:none;stroke-width:0.1"
             id="path302" />
          <path
             d="m 1625.39,1166.98 c -41.08,-8 -42.99,26.66 -23.83,26.66 10.36,0 11.15,-17.34 -0.96,-15.31 -0.27,0.05 -0.51,0.03 -0.73,-0.02 -0.07,-0.03 -0.12,-0.05 -0.15,-0.05 -0.93,-0.3 -1.45,-1.29 -1.15,-2.2 0.24,-0.79 0.93,-1.26 1.69,-1.26 0.56,-0.08 1.15,-0.13 1.72,-0.13 15.63,0 13.85,22.52 -0.42,22.52 -24.74,0 -21.07,-43.47 24.6,-33.68 2.43,0.52 1.46,3.91 -0.77,3.47"
             style="fill:#b7905b;fill-opacity:1;fill-rule:nonzero;stroke:none;stroke-width:0.1"
             id="path304" />
          <path
             d="m 1625.39,1155.93 c -41.08,8 -42.99,-26.65 -23.83,-26.65 10.36,0 11.15,17.33 -0.96,15.3 -0.27,-0.05 -0.51,-0.02 -0.73,0.03 -0.07,0.02 -0.12,0.05 -0.15,0.05 -0.93,0.29 -1.45,1.28 -1.15,2.2 0.24,0.79 0.93,1.26 1.69,1.26 0.56,0.07 1.15,0.12 1.72,0.12 15.63,0 13.85,-22.52 -0.42,-22.52 -24.74,0 -21.07,43.47 24.6,33.69 2.43,-0.53 1.46,-3.91 -0.77,-3.48"
             style="fill:#b7905b;fill-opacity:1;fill-rule:nonzero;stroke:none;stroke-width:0.1"
             id="path306" />
          <path
             d="m 2806.79,1166.98 c 41.08,-8 42.99,26.66 23.83,26.66 -10.36,0 -11.15,-17.34 0.96,-15.31 0.27,0.05 0.51,0.03 0.73,-0.02 0.07,-0.03 0.12,-0.05 0.15,-0.05 0.93,-0.3 1.44,-1.29 1.15,-2.2 -0.24,-0.79 -0.93,-1.26 -1.69,-1.26 -0.57,-0.08 -1.15,-0.13 -1.72,-0.13 -15.63,0 -13.85,22.52 0.42,22.52 24.74,0 21.07,-43.47 -24.6,-33.68 -2.43,0.52 -1.46,3.91 0.77,3.47"
             style="fill:#b7905b;fill-opacity:1;fill-rule:nonzero;stroke:none;stroke-width:0.1"
             id="path308" />
          <path
             d="m 2806.79,1155.93 c 41.08,8 42.99,-26.65 23.83,-26.65 -10.36,0 -11.15,17.33 0.96,15.3 0.27,-0.05 0.51,-0.02 0.73,0.03 0.07,0.02 0.12,0.05 0.15,0.05 0.93,0.29 1.44,1.28 1.15,2.2 -0.24,0.79 -0.93,1.26 -1.69,1.26 -0.57,0.07 -1.15,0.12 -1.72,0.12 -15.63,0 -13.85,-22.52 0.42,-22.52 24.74,0 21.07,43.47 -24.6,33.69 -2.43,-0.53 -1.46,-3.91 0.77,-3.48"
             style="fill:#b7905b;fill-opacity:1;fill-rule:nonzero;stroke:none;stroke-width:0.1"
             id="path310" />
          <path
             d="m 2216.09,1942.75 c -39.7,-0.02 -83.67,-0.04 -131.53,-0.03 -237.26,-0.04 -378.94,0.39 -378.94,0.39 -6.27,-18.09 -14.9,-31.93 -35.01,-31.64 -7.14,0 -18.35,4.88 -19.96,14.58 -1.41,19.37 24.23,16.66 18.41,-1.68 v -0.05 c -0.66,-2.29 2.68,-3.2 3.36,-1.08 8.42,26.4 -31.57,27.87 -26.16,0.07 5.2,-22.19 48.71,-28.69 64.36,12.76 168.54,0.32 254.08,0.53 373.94,0.5 46.75,0.01 88.27,-0.01 131.53,-0.07 43.26,0.06 84.78,0.08 131.53,0.07 119.86,0.03 205.4,-0.18 373.94,-0.5 15.65,-41.45 59.16,-34.95 64.36,-12.76 5.41,27.8 -34.58,26.33 -26.16,-0.07 0.68,-2.12 4.02,-1.21 3.36,1.08 v 0.05 c -5.82,18.34 19.82,21.05 18.41,1.68 -1.61,-9.7 -12.82,-14.58 -19.96,-14.58 -20.11,-0.29 -28.74,13.55 -35.01,31.64 0,0 -141.68,-0.43 -378.94,-0.39 -47.86,-0.01 -91.83,0.01 -131.53,0.03"
             style="fill:#b7905b;fill-opacity:1;fill-rule:nonzero;stroke:none;stroke-width:0.1"
             id="path312" />
          <path
             d="m 2216.09,55.95 c -39.7,0.0199 -83.67,0.0301 -131.53,0.0199 -237.26,0.0403 -378.94,-0.3898 -378.94,-0.3898 -6.27,18.0902 -14.9,31.9398 -35.01,31.6398 -7.14,0 -18.35,-4.8699 -19.96,-14.5797 -1.41,-19.3601 24.23,-16.6601 18.41,1.6797 v 0.05 c -0.66,2.3004 2.68,3.2 3.36,1.0903 8.42,-26.4102 -31.57,-27.8801 -26.16,-0.0801 5.2,22.2 48.71,28.6999 64.36,-12.75 168.54,-0.3301 254.08,-0.5399 373.94,-0.5102 46.75,-0.0097 88.27,0.0102 131.53,0.0699 43.26,-0.0597 84.78,-0.0796 131.53,-0.0699 119.86,-0.0297 205.4,0.1801 373.94,0.5102 15.65,41.4499 59.16,34.95 64.36,12.75 5.41,-27.8 -34.58,-26.3301 -26.16,0.0801 0.68,2.1097 4.02,1.2101 3.36,-1.0903 v -0.05 c -5.82,-18.3398 19.82,-21.0398 18.41,-1.6797 -1.61,9.7098 -12.82,14.5797 -19.96,14.5797 -20.11,0.3 -28.74,-13.5496 -35.01,-31.6398 0,0 -141.68,0.4301 -378.94,0.3898 -47.86,0.0102 -91.83,0 -131.53,-0.0199"
             style="fill:#b7905b;fill-opacity:1;fill-rule:nonzero;stroke:none;stroke-width:0.1"
             id="path314" />
          <path
             d="m 1765.84,1923.81 c -16.87,-3 -46.88,-10.93 -78.39,-29.57 10.84,8.73 22.83,17.45 29.72,29.69 16.35,-1.23 38.19,-0.67 48.67,-0.12"
             style="fill:#b7905b;fill-opacity:1;fill-rule:nonzero;stroke:none;stroke-width:0.1"
             id="path316" />
          <path
             d="m 1765.84,74.8902 c -16.87,2.9899 -46.88,10.92 -78.39,29.5598 10.84,-8.7199 22.83,-17.45 29.72,-29.6898 16.35,1.23 38.19,0.6699 48.67,0.13"
             style="fill:#b7905b;fill-opacity:1;fill-rule:nonzero;stroke:none;stroke-width:0.1"
             id="path318" />
          <path
             d="m 2666.34,1923.81 c 16.87,-3 46.88,-10.93 78.39,-29.57 -10.84,8.73 -22.83,17.45 -29.72,29.69 -16.35,-1.23 -38.19,-0.67 -48.67,-0.12"
             style="fill:#b7905b;fill-opacity:1;fill-rule:nonzero;stroke:none;stroke-width:0.1"
             id="path320" />
          <path
             d="m 2666.34,74.8902 c 16.87,2.9899 46.88,10.92 78.39,29.5598 -10.84,-8.7199 -22.83,-17.45 -29.72,-29.6898 -16.35,1.23 -38.19,0.6699 -48.67,0.13"
             style="fill:#b7905b;fill-opacity:1;fill-rule:nonzero;stroke:none;stroke-width:0.1"
             id="path322" />
          <path
             d="m 1667.67,1888.92 c -26.34,0 -43.87,23.62 -40.51,45.79 h -59.04 v -59.53 c 11.58,1.76 24.39,-2.15 33.88,-11.99 8.18,-8.46 12.01,-19.61 11.5,-28.85 8.9,23.7 -4.56,48.84 -17.95,70.26 -0.02,0.02 -0.02,0.07 -0.05,0.1 -0.02,0.05 -0.07,0.12 -0.09,0.19 0,0.05 -0.03,0.1 -0.05,0.13 -0.03,0.07 -0.03,0.12 -0.05,0.17 0,0.07 -0.03,0.12 -0.03,0.2 0,0.02 0,0.1 0,0.15 0,0.07 0,0.12 0,0.17 0,0.05 0.03,0.1 0.03,0.17 0.02,0.08 0.02,0.1 0.05,0.18 0.02,0.05 0.05,0.1 0.05,0.14 0.02,0.08 0.07,0.15 0.09,0.18 0.03,0.05 0.03,0.07 0.05,0.1 0,0.02 0.03,0.02 0.03,0.05 0.02,0.04 0.07,0.09 0.12,0.17 0.03,0.02 0.05,0.05 0.1,0.1 0.02,0.02 0.07,0.07 0.12,0.1 0.05,0.05 0.1,0.1 0.15,0.12 0.02,0 0.02,0.02 0.02,0.02 0.05,0.03 0.08,0.05 0.1,0.05 0.07,0.03 0.12,0.08 0.2,0.1 0.02,0.03 0.09,0.03 0.14,0.03 0.05,0.05 0.13,0.05 0.18,0.07 0.05,0 0.09,0 0.17,0 0.05,0.03 0.1,0.03 0.17,0.03 0.05,0 0.1,0 0.15,-0.03 0.07,0 0.12,0 0.17,0 0.07,-0.02 0.1,-0.02 0.17,-0.07 0.05,0 0.1,0 0.17,-0.03 0.05,-0.02 0.1,-0.07 0.17,-0.1 0.03,0 0.05,-0.02 0.1,-0.05 21.35,-13.56 46.21,-27.04 69.69,-18.12 z m 14.98,4.55 c -25.54,-19.81 -53,-9.89 -80.23,6.68 16.23,-27.28 26.31,-55.08 6.6,-80.91 -1.36,-1.78 -4,0.1 -2.92,2 13.38,22.4 -9.49,56.01 -39.41,50.11 -1.03,-0.25 -2.1,0.56 -2.1,1.73 v 63.41 c 0,0.99 0.8,1.78 1.76,1.78 65.74,0 65.19,0.83 64.63,-2.13 -6,-29.32 26.85,-53.48 49.68,-39.75 1.91,1.16 3.7,-1.59 1.99,-2.92"
             style="fill:#b7905b;fill-opacity:1;fill-rule:nonzero;stroke:none;stroke-width:0.1"
             id="path324" />
          <path
             d="m 1667.67,109.77 c -26.34,0 -43.87,-23.62 -40.51,-45.7798 h -59.04 V 123.51 c 11.58,-1.76 24.39,2.15 33.88,11.99 8.18,8.46 12.01,19.62 11.5,28.85 8.9,-23.7 -4.56,-48.83 -17.95,-70.25 -0.02,-0.0301 -0.02,-0.0801 -0.05,-0.1 -0.02,-0.05 -0.07,-0.1301 -0.09,-0.2 0,-0.05 -0.03,-0.1 -0.05,-0.1199 -0.03,-0.0801 -0.03,-0.1301 -0.05,-0.1801 0,-0.0699 -0.03,-0.1199 -0.03,-0.2 0,-0.0199 0,-0.0898 0,-0.1398 0,-0.0801 0,-0.1301 0,-0.1801 0,-0.05 0.03,-0.1 0.03,-0.1699 0.02,-0.07 0.02,-0.1 0.05,-0.17 0.02,-0.05 0.05,-0.1 0.05,-0.15 0.02,-0.0699 0.07,-0.15 0.09,-0.1703 0.03,-0.05 0.03,-0.0797 0.05,-0.1 0,-0.0301 0.03,-0.0301 0.03,-0.0496 0.02,-0.0504 0.07,-0.1004 0.12,-0.1801 0.03,-0.0203 0.05,-0.0402 0.1,-0.0902 0.02,-0.0301 0.07,-0.0801 0.12,-0.1 0.05,-0.05 0.1,-0.1 0.15,-0.1297 0.02,0 0.02,-0.0203 0.02,-0.0203 0.05,-0.0301 0.08,-0.05 0.1,-0.05 0.07,-0.0301 0.12,-0.0801 0.2,-0.1 0.02,-0.0199 0.09,-0.0199 0.14,-0.0199 0.05,-0.05 0.13,-0.05 0.18,-0.0801 0.05,0 0.09,0 0.17,0 0.05,-0.0199 0.1,-0.0199 0.17,-0.0199 0.05,0 0.1,0 0.15,0.0199 0.07,0 0.12,0 0.17,0 0.07,0.0301 0.1,0.0301 0.17,0.0801 0.05,0 0.1,0 0.17,0.0199 0.05,0.0199 0.1,0.0699 0.17,0.1 0.03,0 0.05,0.0199 0.1,0.05 21.35,13.56 46.21,27.04 69.69,18.12 z m 14.98,-4.55 c -25.54,19.81 -53,9.9 -80.23,-6.67 16.23,27.28 26.31,55.08 6.6,80.91 -1.36,1.78 -4,-0.11 -2.92,-2 13.38,-22.41 -9.49,-56.01 -39.41,-50.11 -1.03,0.24 -2.1,-0.57 -2.1,-1.73 V 62.2102 c 0,-0.9903 0.8,-1.7801 1.76,-1.7801 65.74,0 65.19,-0.8301 64.63,2.1199 -6,29.3199 26.85,53.49 49.68,39.75 1.91,-1.16 3.7,1.59 1.99,2.92"
             style="fill:#b7905b;fill-opacity:1;fill-rule:nonzero;stroke:none;stroke-width:0.1"
             id="path326" />
          <path
             d="m 2764.51,1888.92 c 26.34,0 43.87,23.62 40.51,45.79 h 59.04 v -59.53 c -11.58,1.76 -24.39,-2.15 -33.88,-11.99 -8.18,-8.46 -12.01,-19.61 -11.5,-28.85 -8.9,23.7 4.56,48.84 17.95,70.26 0.02,0.02 0.02,0.07 0.05,0.1 0.02,0.05 0.07,0.12 0.09,0.19 0,0.05 0.03,0.1 0.05,0.13 0.03,0.07 0.03,0.12 0.05,0.17 0,0.07 0.03,0.12 0.03,0.2 0,0.02 0,0.1 0,0.15 0,0.07 0,0.12 0,0.17 0,0.05 -0.03,0.1 -0.03,0.17 -0.02,0.08 -0.02,0.1 -0.05,0.18 -0.02,0.05 -0.05,0.1 -0.05,0.14 -0.02,0.08 -0.07,0.15 -0.09,0.18 -0.03,0.05 -0.03,0.07 -0.05,0.1 0,0.02 -0.03,0.02 -0.03,0.05 -0.02,0.04 -0.07,0.09 -0.12,0.17 -0.03,0.02 -0.05,0.05 -0.1,0.1 -0.02,0.02 -0.07,0.07 -0.12,0.1 -0.05,0.05 -0.1,0.1 -0.15,0.12 -0.02,0 -0.02,0.02 -0.02,0.02 -0.05,0.03 -0.08,0.05 -0.1,0.05 -0.07,0.03 -0.12,0.08 -0.2,0.1 -0.02,0.03 -0.1,0.03 -0.14,0.03 -0.05,0.05 -0.13,0.05 -0.18,0.07 -0.04,0 -0.09,0 -0.17,0 -0.05,0.03 -0.1,0.03 -0.17,0.03 -0.05,0 -0.1,0 -0.15,-0.03 -0.07,0 -0.12,0 -0.17,0 -0.07,-0.02 -0.1,-0.02 -0.17,-0.07 -0.05,0 -0.1,0 -0.17,-0.03 -0.05,-0.02 -0.1,-0.07 -0.17,-0.1 -0.03,0 -0.05,-0.02 -0.1,-0.05 -21.35,-13.56 -46.21,-27.04 -69.69,-18.12 z m -14.98,4.55 c 25.54,-19.81 52.99,-9.89 80.23,6.68 -16.23,-27.28 -26.31,-55.08 -6.59,-80.91 1.35,-1.78 3.99,0.1 2.91,2 -13.38,22.4 9.49,56.01 39.41,50.11 1.03,-0.25 2.11,0.56 2.11,1.73 v 63.41 c 0,0.99 -0.81,1.78 -1.77,1.78 -65.74,0 -65.19,0.83 -64.63,-2.13 6,-29.32 -26.85,-53.48 -49.68,-39.75 -1.91,1.16 -3.7,-1.59 -1.99,-2.92"
             style="fill:#b7905b;fill-opacity:1;fill-rule:nonzero;stroke:none;stroke-width:0.1"
             id="path328" />
          <path
             d="m 2764.51,109.77 c 26.34,0 43.87,-23.62 40.51,-45.7798 h 59.04 V 123.51 c -11.58,-1.76 -24.39,2.15 -33.88,11.99 -8.18,8.46 -12.01,19.62 -11.5,28.85 -8.9,-23.7 4.56,-48.83 17.95,-70.25 0.02,-0.0301 0.02,-0.0801 0.05,-0.1 0.02,-0.05 0.07,-0.1301 0.09,-0.2 0,-0.05 0.03,-0.1 0.05,-0.1199 0.03,-0.0801 0.03,-0.1301 0.05,-0.1801 0,-0.0699 0.03,-0.1199 0.03,-0.2 0,-0.0199 0,-0.0898 0,-0.1398 0,-0.0801 0,-0.1301 0,-0.1801 0,-0.05 -0.03,-0.1 -0.03,-0.1699 -0.02,-0.07 -0.02,-0.1 -0.05,-0.17 -0.02,-0.05 -0.05,-0.1 -0.05,-0.15 -0.02,-0.0699 -0.07,-0.15 -0.09,-0.1703 -0.03,-0.05 -0.03,-0.0797 -0.05,-0.1 0,-0.0301 -0.03,-0.0301 -0.03,-0.0496 -0.02,-0.0504 -0.07,-0.1004 -0.12,-0.1801 -0.03,-0.0203 -0.05,-0.0402 -0.1,-0.0902 -0.02,-0.0301 -0.07,-0.0801 -0.12,-0.1 -0.05,-0.05 -0.1,-0.1 -0.15,-0.1297 -0.02,0 -0.02,-0.0203 -0.02,-0.0203 -0.05,-0.0301 -0.08,-0.05 -0.1,-0.05 -0.07,-0.0301 -0.12,-0.0801 -0.2,-0.1 -0.02,-0.0199 -0.1,-0.0199 -0.14,-0.0199 -0.05,-0.05 -0.13,-0.05 -0.18,-0.0801 -0.04,0 -0.09,0 -0.17,0 -0.05,-0.0199 -0.1,-0.0199 -0.17,-0.0199 -0.05,0 -0.1,0 -0.15,0.0199 -0.07,0 -0.12,0 -0.17,0 -0.07,0.0301 -0.1,0.0301 -0.17,0.0801 -0.05,0 -0.1,0 -0.17,0.0199 -0.05,0.0199 -0.1,0.0699 -0.17,0.1 -0.03,0 -0.05,0.0199 -0.1,0.05 -21.35,13.56 -46.21,27.04 -69.69,18.12 z m -14.98,-4.55 c 25.54,19.81 52.99,9.9 80.23,-6.67 -16.23,27.28 -26.31,55.08 -6.59,80.91 1.35,1.78 3.99,-0.11 2.91,-2 -13.38,-22.41 9.49,-56.01 39.41,-50.11 1.03,0.24 2.11,-0.57 2.11,-1.73 V 62.2102 c 0,-0.9903 -0.81,-1.7801 -1.77,-1.7801 -65.74,0 -65.19,-0.8301 -64.63,2.1199 6,29.3199 -26.85,53.49 -49.68,39.75 -1.91,-1.16 -3.7,1.59 -1.99,2.92"
             style="fill:#b7905b;fill-opacity:1;fill-rule:nonzero;stroke:none;stroke-width:0.1"
             id="path330" />
          <path
             d="m 1659.62,1874.88 c -6,-4.64 -11.55,-10.01 -16.42,-15.87 -5.82,-4.92 -11.14,-10.5 -15.75,-16.56 1.4,10.86 2.01,21.7 0.08,32.38 10.41,-2.02 21.5,-1.38 32.09,0.05"
             style="fill:#b7905b;fill-opacity:1;fill-rule:nonzero;stroke:none;stroke-width:0.1"
             id="path332" />
          <path
             d="m 1659.62,123.81 c -6,4.65 -11.55,10.01 -16.42,15.87 -5.82,4.92 -11.14,10.51 -15.75,16.56 1.4,-10.86 2.01,-21.69 0.08,-32.38 10.41,2.02 21.5,1.39 32.09,-0.05"
             style="fill:#b7905b;fill-opacity:1;fill-rule:nonzero;stroke:none;stroke-width:0.1"
             id="path334" />
          <path
             d="m 2772.56,1874.88 c 6,-4.64 11.54,-10.01 16.42,-15.87 5.82,-4.92 11.14,-10.5 15.75,-16.56 -1.4,10.86 -2.01,21.7 -0.08,32.38 -10.41,-2.02 -21.5,-1.38 -32.09,0.05"
             style="fill:#b7905b;fill-opacity:1;fill-rule:nonzero;stroke:none;stroke-width:0.1"
             id="path336" />
          <path
             d="m 2772.56,123.81 c 6,4.65 11.54,10.01 16.42,15.87 5.82,4.92 11.14,10.51 15.75,16.56 -1.4,-10.86 -2.01,-21.69 -0.08,-32.38 -10.41,2.02 -21.5,1.39 -32.09,-0.05"
             style="fill:#b7905b;fill-opacity:1;fill-rule:nonzero;stroke:none;stroke-width:0.1"
             id="path338" />
          <path
             d="m 1611.03,1926.7 c 2.1,-6.78 5.32,-13.6 10.05,-18.89 -10.79,3.86 -20.89,10.28 -28.54,18.89 h 18.49"
             style="fill:#b7905b;fill-opacity:1;fill-rule:nonzero;stroke:none;stroke-width:0.1"
             id="path340" />
          <path
             d="m 1611.03,72 c 2.1,6.7699 5.32,13.5902 10.05,18.8801 C 1610.29,87.0301 1600.19,80.6 1592.54,72 h 18.49"
             style="fill:#b7905b;fill-opacity:1;fill-rule:nonzero;stroke:none;stroke-width:0.1"
             id="path342" />
          <path
             d="m 2821.15,1926.7 c -2.1,-6.78 -5.32,-13.6 -10.05,-18.89 10.79,3.86 20.89,10.28 28.54,18.89 h -18.49"
             style="fill:#b7905b;fill-opacity:1;fill-rule:nonzero;stroke:none;stroke-width:0.1"
             id="path344" />
          <path
             d="m 1578.83,1784.43 c 12.11,6.97 20.74,19.03 29.42,29.96 -18.48,-31.77 -26.35,-62 -29.32,-79.03 0.51,10 1.11,31.94 -0.1,49.07"
             style="fill:#b7905b;fill-opacity:1;fill-rule:nonzero;stroke:none;stroke-width:0.1"
             id="path348" />
          <path
             d="m 1578.83,214.26 c 12.11,-6.97 20.74,-19.03 29.42,-29.96 -18.48,31.77 -26.35,62 -29.32,79.03 0.51,-10 1.11,-31.94 -0.1,-49.07"
             style="fill:#b7905b;fill-opacity:1;fill-rule:nonzero;stroke:none;stroke-width:0.1"
             id="path350" />
          <path
             d="m 2853.35,1784.43 c -12.11,6.97 -20.75,19.03 -29.42,29.96 18.48,-31.77 26.35,-62 29.32,-79.03 -0.51,10 -1.11,31.94 0.1,49.07"
             style="fill:#b7905b;fill-opacity:1;fill-rule:nonzero;stroke:none;stroke-width:0.1"
             id="path352" />
          <path
             d="m 2853.35,214.26 c -12.11,-6.97 -20.75,-19.03 -29.42,-29.96 18.48,31.77 26.35,62 29.32,79.03 -0.51,-10 -1.11,-31.94 0.1,-49.07"
             style="fill:#b7905b;fill-opacity:1;fill-rule:nonzero;stroke:none;stroke-width:0.1"
             id="path354" />
          <path
             d="m 1581.36,1799.16 c -4.59,-3.62 -11.08,-7 -14.59,-8.13 l -0.86,-277.96 -0.44,-184.04 c -0.22,-68.84 -5.58,-108.66 20.28,-133.47 h 0.02 c 0.71,-0.66 0.74,-1.8 0.05,-2.52 -0.66,-0.69 -1.77,-0.74 -2.48,-0.07 -27.84,26.33 -22.09,72.43 -22.29,136.06 l -0.44,184.04 c -0.95,301.95 -0.9,279.37 -0.83,283 47.49,16.28 31.47,56.79 15.15,55.52 -17.04,-0.35 -14.53,-24.72 3.51,-18.66 2.45,0.74 5.27,-4.08 -4.93,-4.55 l -0.07,-0.02 c 0,0 -1.2,0 -2.77,0.2 -13.15,1.95 -15.3,18.31 -4.66,25.06 22.99,15.31 47.72,-29.98 15.35,-54.46"
             style="fill:#b7905b;fill-opacity:1;fill-rule:nonzero;stroke:none;stroke-width:0.1"
             id="path356" />
          <path
             d="m 1581.36,199.53 c -4.59,3.62 -11.08,7.01 -14.59,8.13 l -0.86,277.97 -0.44,508.25 c -0.22,68.84 -5.58,108.66 20.28,133.47 h 0.02 c 0.71,0.67 0.74,1.81 0.05,2.52 -0.66,0.69 -1.77,0.74 -2.48,0.08 -27.84,-26.34 -22.09,-72.43 -22.29,-136.07 l -0.44,-508.25 c -0.95,-301.95 -0.9,-279.37 -0.83,-283.01 47.49,-16.28 31.47,-56.79 15.15,-55.52 -17.04,0.36 -14.53,24.73 3.51,18.66 2.45,-0.73 5.27,4.08 -4.93,4.55 l -0.07,0.02 c 0,0 -1.2,0 -2.77,-0.19 -13.15,-1.96 -15.3,-18.32 -4.66,-25.07 22.99,-15.31 47.72,29.98 15.35,54.46"
             style="fill:#b7905b;fill-opacity:1;fill-rule:nonzero;stroke:none;stroke-width:0.1"
             id="path358" />
          <path
             d="m 2850.82,1799.16 c 4.59,-3.62 11.08,-7 14.59,-8.13 l 0.86,-277.96 0.44,-184.04 c 0.22,-68.84 5.58,-108.66 -20.28,-133.47 h -0.02 c -0.71,-0.66 -0.74,-1.8 -0.05,-2.52 0.66,-0.69 1.77,-0.74 2.48,-0.07 27.84,26.33 22.09,72.43 22.29,136.06 l 0.44,184.04 c 0.95,301.95 0.9,279.37 0.83,283 -47.49,16.28 -31.46,56.79 -15.15,55.52 17.04,-0.35 14.53,-24.72 -3.51,-18.66 -2.45,0.74 -5.27,-4.08 4.93,-4.55 l 0.07,-0.02 c 0,0 1.2,0 2.77,0.2 13.15,1.95 15.3,18.31 4.66,25.06 -22.99,15.31 -47.72,-29.98 -15.35,-54.46"
             style="fill:#b7905b;fill-opacity:1;fill-rule:nonzero;stroke:none;stroke-width:0.1"
             id="path360" />
          <path
             d="m 2850.82,199.53 c 4.59,3.62 11.08,7.01 14.59,8.13 l 0.86,277.97 0.44,508.25 c 0.22,68.84 5.58,108.66 -20.28,133.47 h -0.02 c -0.71,0.67 -0.74,1.81 -0.05,2.52 0.66,0.69 1.77,0.74 2.48,0.08 27.84,-26.34 22.09,-72.43 22.29,-136.07 l 0.44,-508.25 c 0.95,-301.95 0.9,-279.37 0.83,-283.01 -47.49,-16.28 -31.46,-56.79 -15.15,-55.52 17.04,0.36 14.53,24.73 -3.51,18.66 -2.45,-0.73 -5.27,4.08 4.93,4.55 l 0.07,0.02 c 0,0 1.2,0 2.77,-0.19 13.15,-1.96 15.3,-18.32 4.66,-25.07 -22.99,-15.31 -47.72,29.98 -15.35,54.46"
             style="fill:#b7905b;fill-opacity:1;fill-rule:nonzero;stroke:none;stroke-width:0.1"
             id="path362" />
          <path
             d="m 1563.9,1161.46 c 0.01,0.04 0.02,0.08 0.02,0.14 0.03,0.02 0.03,0.09 0.05,0.17 0.03,0.02 0.03,0.07 0.05,0.12 0.03,0.08 0.05,0.13 0.07,0.2 0.03,0 0.03,0 0.03,0.03 0,0.04 0.05,0.04 0.07,0.09 0.03,0.05 0.08,0.1 0.1,0.15 0.02,0.05 0.07,0.1 0.12,0.15 0.05,0.03 0.08,0.05 0.13,0.13 0.05,0.02 0.09,0.07 0.14,0.07 0.05,0.02 0.08,0.05 0.1,0.07 4.81,2.75 9.1,5.96 12.75,9.57 0.34,0.35 0.79,0.52 1.23,0.52 0.39,0 0.81,-0.15 1.1,-0.42 4.71,-3.88 9.51,-7.12 14.27,-9.62 0.03,-0.02 0.05,-0.05 0.05,-0.05 0.05,-0.02 0.07,-0.05 0.1,-0.07 0.1,-0.05 0.19,-0.12 0.24,-0.2 0.05,-0.02 0.08,-0.05 0.1,-0.07 0.1,-0.13 0.17,-0.25 0.25,-0.37 h 0.02 c 0,-0.03 0.03,-0.08 0.05,-0.1 0.03,-0.08 0.05,-0.13 0.05,-0.2 0.02,-0.08 0.05,-0.15 0.05,-0.17 0.02,-0.06 0.02,-0.1 0.02,-0.14 0,-0.04 0,-0.08 -0.02,-0.14 0,-0.03 -0.03,-0.1 -0.05,-0.18 0,-0.07 -0.02,-0.12 -0.05,-0.19 -0.02,-0.03 -0.05,-0.08 -0.05,-0.1 h -0.02 c -0.08,-0.13 -0.15,-0.25 -0.25,-0.37 -0.02,-0.03 -0.05,-0.05 -0.1,-0.08 -0.05,-0.07 -0.14,-0.15 -0.24,-0.19 -0.03,-0.03 -0.05,-0.05 -0.1,-0.08 0,0 -0.02,-0.02 -0.05,-0.05 -4.76,-2.5 -9.56,-5.73 -14.27,-9.61 -0.29,-0.28 -0.71,-0.43 -1.1,-0.43 -0.44,0 -0.89,0.18 -1.23,0.52 -3.65,3.61 -7.94,6.83 -12.75,9.57 -0.02,0.03 -0.05,0.05 -0.1,0.08 -0.05,0 -0.09,0.04 -0.14,0.07 -0.05,0.07 -0.08,0.1 -0.13,0.12 -0.05,0.05 -0.1,0.1 -0.12,0.15 -0.02,0.05 -0.07,0.1 -0.1,0.15 -0.02,0.05 -0.07,0.05 -0.07,0.1 0,0.02 0,0.02 -0.03,0.02 -0.02,0.08 -0.04,0.13 -0.07,0.2 -0.02,0.05 -0.02,0.1 -0.05,0.12 -0.02,0.08 -0.02,0.15 -0.05,0.18 0,0.06 -0.01,0.1 -0.02,0.14"
             style="fill:#b7905b;fill-opacity:1;fill-rule:nonzero;stroke:none;stroke-width:0.1"
             id="path364" />
          <path
             d="m 2868.28,1161.46 c -0.01,0.04 -0.02,0.08 -0.02,0.14 -0.03,0.02 -0.03,0.09 -0.05,0.17 -0.03,0.02 -0.03,0.07 -0.05,0.12 -0.03,0.08 -0.05,0.13 -0.07,0.2 -0.03,0 -0.03,0 -0.03,0.03 0,0.04 -0.05,0.04 -0.07,0.09 -0.03,0.05 -0.08,0.1 -0.1,0.15 -0.03,0.05 -0.07,0.1 -0.12,0.15 -0.05,0.03 -0.08,0.05 -0.13,0.13 -0.04,0.02 -0.09,0.07 -0.14,0.07 -0.05,0.02 -0.08,0.05 -0.1,0.07 -4.81,2.75 -9.1,5.96 -12.75,9.57 -0.34,0.35 -0.79,0.52 -1.23,0.52 -0.39,0 -0.81,-0.15 -1.1,-0.42 -4.71,-3.88 -9.51,-7.12 -14.27,-9.62 -0.03,-0.02 -0.05,-0.05 -0.05,-0.05 -0.05,-0.02 -0.07,-0.05 -0.1,-0.07 -0.1,-0.05 -0.19,-0.12 -0.24,-0.2 -0.05,-0.02 -0.08,-0.05 -0.1,-0.07 -0.1,-0.13 -0.17,-0.25 -0.25,-0.37 h -0.02 c 0,-0.03 -0.03,-0.08 -0.05,-0.1 -0.02,-0.08 -0.05,-0.13 -0.05,-0.2 -0.02,-0.08 -0.05,-0.15 -0.05,-0.17 -0.02,-0.06 -0.02,-0.1 -0.02,-0.14 0,-0.04 0,-0.08 0.02,-0.14 0,-0.03 0.03,-0.1 0.05,-0.18 0,-0.07 0.03,-0.12 0.05,-0.19 0.02,-0.03 0.05,-0.08 0.05,-0.1 h 0.02 c 0.08,-0.13 0.15,-0.25 0.25,-0.37 0.02,-0.03 0.05,-0.05 0.1,-0.08 0.05,-0.07 0.14,-0.15 0.24,-0.19 0.03,-0.03 0.05,-0.05 0.1,-0.08 0,0 0.02,-0.02 0.05,-0.05 4.76,-2.5 9.56,-5.73 14.27,-9.61 0.29,-0.28 0.71,-0.43 1.1,-0.43 0.44,0 0.89,0.18 1.23,0.52 3.65,3.61 7.94,6.83 12.75,9.57 0.02,0.03 0.05,0.05 0.1,0.08 0.05,0 0.1,0.04 0.14,0.07 0.05,0.07 0.08,0.1 0.13,0.12 0.05,0.05 0.09,0.1 0.12,0.15 0.02,0.05 0.07,0.1 0.1,0.15 0.02,0.05 0.07,0.05 0.07,0.1 0,0.02 0,0.02 0.03,0.02 0.02,0.08 0.04,0.13 0.07,0.2 0.02,0.05 0.02,0.1 0.05,0.12 0.02,0.08 0.02,0.15 0.05,0.18 0,0.06 0.01,0.1 0.02,0.14"
             style="fill:#b7905b;fill-opacity:1;fill-rule:nonzero;stroke:none;stroke-width:0.1"
             id="path366" />
          <path
             d="m 1576.06,1910.06 c 8.53,-7.71 14.91,-17.87 18.73,-28.75 -5.24,4.75 -11.99,8.01 -18.73,10.14 v 18.61"
             style="fill:#b7905b;fill-opacity:1;fill-rule:nonzero;stroke:none;stroke-width:0.1"
             id="path368" />
          <path
             d="m 1576.06,88.6301 c 8.53,7.7199 14.91,17.8799 18.73,28.7499 -5.24,-4.74 -11.99,-8.01 -18.73,-10.13 V 88.6301"
             style="fill:#b7905b;fill-opacity:1;fill-rule:nonzero;stroke:none;stroke-width:0.1"
             id="path370" />
          <path
             d="m 2856.12,1910.06 c -8.53,-7.71 -14.91,-17.87 -18.73,-28.75 5.24,4.75 11.99,8.01 18.73,10.14 v 18.61"
             style="fill:#b7905b;fill-opacity:1;fill-rule:nonzero;stroke:none;stroke-width:0.1"
             id="path372" />
        </g>
        <path
           d="m 2856.12,88.6301 c -8.53,7.7199 -14.91,17.8799 -18.73,28.7499 5.24,-4.74 11.99,-8.01 18.73,-10.13 V 88.6301"
           style="fill:#b7905b;fill-opacity:1;fill-rule:nonzero;stroke:none;stroke-width:0.1"
           id="path374" />
      </g>
    </g>
  </g>
</svg>
