<?xml version="1.0" encoding="UTF-8" standalone="no"?>
<svg
   xmlns:dc="http://purl.org/dc/elements/1.1/"
   xmlns:cc="http://creativecommons.org/ns#"
   xmlns:rdf="http://www.w3.org/1999/02/22-rdf-syntax-ns#"
   xmlns:svg="http://www.w3.org/2000/svg"
   xmlns="http://www.w3.org/2000/svg"
   xmlns:sodipodi="http://sodipodi.sourceforge.net/DTD/sodipodi-0.dtd"
   xmlns:inkscape="http://www.inkscape.org/namespaces/inkscape"
   width="56.700218mm"
   height="3.175mm"
   viewBox="0 0 56.700218 3.175"
   version="1.1"
   id="svg1830"
   inkscape:version="1.0.1 (3bc2e813f5, 2020-09-07)"
   sodipodi:docname="divider-01.svg">
  <defs
     id="defs1824" />
  <sodipodi:namedview
     id="base"
     pagecolor="#ffffff"
     bordercolor="#666666"
     borderopacity="1.0"
     inkscape:pageopacity="0.0"
     inkscape:pageshadow="2"
     inkscape:zoom="4.0057279"
     inkscape:cx="84.702608"
     inkscape:cy="19.818664"
     inkscape:document-units="mm"
     inkscape:current-layer="layer1"
     inkscape:document-rotation="0"
     showgrid="false"
     fit-margin-top="0"
     fit-margin-left="0"
     fit-margin-right="0"
     fit-margin-bottom="0"
     inkscape:window-width="1920"
     inkscape:window-height="1017"
     inkscape:window-x="-8"
     inkscape:window-y="-8"
     inkscape:window-maximized="1" />
  <metadata
     id="metadata1827">
    <rdf:RDF>
      <cc:Work
         rdf:about="">
        <dc:format>image/svg+xml</dc:format>
        <dc:type
           rdf:resource="http://purl.org/dc/dcmitype/StillImage" />
        <dc:title></dc:title>
      </cc:Work>
    </rdf:RDF>
  </metadata>
  <g
     inkscape:label="Calque 1"
     inkscape:groupmode="layer"
     id="layer1"
     transform="translate(-64.051013,-134.2965)">
    <g
       id="g1808"
       transform="matrix(1.0032663,0,0,1,-5.2128004,85.050042)">
      <g
         id="g1797"
         transform="matrix(0.27822986,0,0,0.25134424,70.334915,38.032422)">
        <path
           d="m 115.8233,48.25475 c -2.5968,-0.446617 -4.70323,-2.071511 -7.15504,-2.902655 -0.78775,-0.2667 -1.6002,-0.460728 -2.42358,-0.582437 -1.72156,-0.254352 -3.49144,-0.191558 -5.18936,0.182034 -1.240722,0.27305 -2.694872,0.80398 -3.820938,1.612194 -1.126067,-0.808214 -2.580217,-1.339144 -3.820936,-1.612194 -1.698273,-0.373592 -3.467806,-0.436386 -5.189714,-0.182034 -0.823031,0.121709 -1.635125,0.315737 -2.423231,0.582437 -2.451805,0.831144 -4.558241,2.456038 -7.155038,2.902655 -3.040345,0.522817 -7.178852,0.07408 -9.917712,-1.376186 -0.166617,1.854553 0.637222,3.669242 1.678587,5.212644 3.4659,5.136797 10.961863,6.381045 16.38053,3.978981 2.195689,-0.973314 4.800247,-2.007659 7.203722,-2.251781 1.063272,-0.108303 2.275417,-0.34925 3.243792,-0.919339 0.968375,0.570089 2.180873,0.811036 3.243788,0.919339 2.40348,0.244122 5.00804,1.278467 7.20408,2.251781 5.41796,2.402064 12.91413,1.157816 16.38018,-3.978981 1.0414,-1.543402 1.84538,-3.358091 1.67852,-5.212644 -2.73862,1.450269 -6.87741,1.899003 -9.91765,1.376186"
           style="fill:#8d773c;fill-opacity:1;fill-rule:nonzero;stroke:none;stroke-width:0.0352777"
           id="path24-1" />
        <path
           d="m 125.00892,47.224639 c -0.26952,0.576086 -0.59372,1.130653 -0.9465,1.653469 -1.06186,1.573742 -2.21192,2.988381 -4.1275,3.187348 -1.35749,0.141111 -5.59858,0.119591 -6.52145,-1.128889 0.74295,1.005064 1.76919,1.797755 2.92947,2.262363 -4.12185,0.323498 -8.35413,-1.208616 -11.31358,-4.095397 0.29527,1.39065 0.83573,2.729442 1.58891,3.935236 -2.72521,-1.442508 -5.77603,-3.096683 -8.956674,-3.133372 -0.981781,-0.01129 -0.686858,0.07514 -1.590323,0.718961 -0.630415,0.449086 -3.857977,1.751542 -4.078463,2.160059 0.823383,-1.525764 1.371952,-3.199342 1.611136,-4.917017 -1.986139,3.082925 -5.042959,5.461705 -8.519231,6.6294 1.487311,-1.770239 2.689931,-3.778603 3.547886,-5.925255 -2.970741,2.971094 -7.008636,4.852458 -11.194344,5.215819 2.471561,-1.020234 4.721578,-2.573514 6.551436,-4.522964 -3.563408,1.918758 -10.9087,3.577519 -13.583355,-0.386292 -0.352778,-0.522816 -0.676875,-1.077383 -0.946715,-1.653469 -0.252024,-0.109008 -0.498686,-0.222603 -0.731872,-0.346075 -0.166617,1.854553 0.637222,3.669242 1.678587,5.212644 3.4659,5.136797 10.961863,6.381045 16.38053,3.978981 2.195689,-0.973314 4.800247,-2.007659 7.203722,-2.251781 1.063272,-0.108303 2.275417,-0.34925 3.243792,-0.919339 0.968375,0.570089 2.180873,0.811036 3.243788,0.919339 2.40348,0.244122 5.00804,1.278467 7.20408,2.251781 5.41796,2.402064 12.91413,1.157816 16.38018,-3.978981 1.0414,-1.543402 1.84538,-3.358091 1.67852,-5.212644 -0.23319,0.123472 -0.47978,0.237067 -0.73202,0.346075"
           style="fill:#705f30;fill-opacity:1;fill-rule:nonzero;stroke:none;stroke-width:0.0352777"
           id="path26-4" />
      </g>
      <rect
         style="fill:#705f30;fill-opacity:1;stroke:none;stroke-width:2.70234;stroke-linecap:round;stroke-dashoffset:0.704936;paint-order:stroke fill markers"
         id="rect1799"
         width="19.84375"
         height="0.52916664"
         x="105.89478"
         y="50.569378" />
      <rect
         style="fill:#705f30;fill-opacity:1;stroke:none;stroke-width:2.70234;stroke-linecap:round;stroke-dashoffset:0.704936;paint-order:stroke fill markers"
         id="rect1801"
         width="19.84375"
         height="0.52916664"
         x="69.038315"
         y="50.569378" />
    </g>
  </g>
</svg>
