<?xml version="1.0" encoding="UTF-8" standalone="no"?>
<svg
   xmlns:dc="http://purl.org/dc/elements/1.1/"
   xmlns:cc="http://creativecommons.org/ns#"
   xmlns:rdf="http://www.w3.org/1999/02/22-rdf-syntax-ns#"
   xmlns:svg="http://www.w3.org/2000/svg"
   xmlns="http://www.w3.org/2000/svg"
   xmlns:sodipodi="http://sodipodi.sourceforge.net/DTD/sodipodi-0.dtd"
   xmlns:inkscape="http://www.inkscape.org/namespaces/inkscape"
   width="103.1875mm"
   height="103.1875mm"
   viewBox="0 0 103.1875 103.1875"
   version="1.1"
   id="svg5478"
   inkscape:version="1.0.1 (3bc2e813f5, 2020-09-07)"
   sodipodi:docname="haircut-stamp.svg">
  <defs
     id="defs5472" />
  <sodipodi:namedview
     id="base"
     pagecolor="#ffffff"
     bordercolor="#666666"
     borderopacity="1.0"
     inkscape:pageopacity="0.0"
     inkscape:pageshadow="2"
     inkscape:zoom="0.96377841"
     inkscape:cx="20.318003"
     inkscape:cy="227.38896"
     inkscape:document-units="mm"
     inkscape:current-layer="layer1"
     inkscape:document-rotation="0"
     showgrid="false"
     fit-margin-top="0"
     fit-margin-left="0"
     fit-margin-right="0"
     fit-margin-bottom="0"
     inkscape:window-width="1920"
     inkscape:window-height="1017"
     inkscape:window-x="-8"
     inkscape:window-y="-8"
     inkscape:window-maximized="1" />
  <metadata
     id="metadata5475">
    <rdf:RDF>
      <cc:Work
         rdf:about="">
        <dc:format>image/svg+xml</dc:format>
        <dc:type
           rdf:resource="http://purl.org/dc/dcmitype/StillImage" />
        <dc:title></dc:title>
      </cc:Work>
    </rdf:RDF>
  </metadata>
  <g
     inkscape:label="Calque 1"
     inkscape:groupmode="layer"
     id="layer1"
     transform="translate(-54.304057,-78.823793)">
    <g
       id="g6705"
       transform="matrix(0.35198389,0,0,-0.43757879,276.41842,69.536473)">
      <g
         id="g6591"
         transform="rotate(-165.00604,-393.96588,66.498672)">
        <path
           d="m -283.93277,149.04979 c -3.945,-7.851 -12.497,-11.525 -19.101,-8.207 -1.358,0.682 -4.121,3.528 -3.881,3.237 0.227,-0.301 -0.588,0.722 -0.971,1.315 -0.354,0.61 -0.77,1.365 -1.105,2.294 -0.363,0.917 -0.638,2.004 -0.802,3.208 -0.172,1.203 -0.21,2.531 -0.062,3.918 0.141,1.388 0.451,2.835 0.97,4.271 0.14,0.355 0.261,0.727 0.421,1.075 0.163,0.35 0.312,0.694 0.489,1.056 0.385,0.682 0.738,1.396 1.209,2.045 0.422,0.682 0.953,1.293 1.459,1.925 l 1.739,1.708 c 1.24,1.051 2.615,1.957 4.092,2.592 1.475,0.632 3.026,1.023 4.551,1.142 0.382,0.012 0.761,0.056 1.137,0.041 0.375,-0.024 0.746,-0.047 1.114,-0.069 0.727,-0.12 1.441,-0.218 2.111,-0.456 0.693,-0.174 1.28,-0.493 1.882,-0.744 0.599,-0.312 1.126,-0.647 1.622,-1.008 0.975,-0.733 1.753,-1.549 2.339,-2.343 0.591,-0.79 1.011,-1.544 1.314,-2.181 0.308,-0.635 0.486,-1.162 0.609,-1.518 0.112,-0.36 0.172,-0.552 0.172,-0.552 0,0 -0.068,0.189 -0.195,0.544 -0.065,0.171 -0.148,0.381 -0.253,0.622 1.666,-4.076 1.504,-9.21 -0.86,-13.915 z m 47.339,209.319 c 0.003,-0.012 0.005,-0.021 0.008,-0.032 -0.155,0.167 -0.321,0.325 -0.506,0.461 -0.473,0.347 -1.033,0.588 -1.651,0.683 -1.969,0.302 -3.828,-0.989 -4.239,-2.937 l -30.852,-147.201 -12.231,-29.36 c -1.355,-2.454 -4.093,-3.799 -6.867,-3.387 l -0.198,0.03 c -12.002,1.687 -23.035,-6.526 -24.871,-18.506 -0.836,-5.458 0.343,-12.25 3.071,-16.582 1.723,-2.736 8.158,-9.156 16.925,-8.713 11.321,0.572 20.438,6.538 23.409,16.544 1.785,6.011 -0.097,13.713 -3.508,18.358 -5.712,7.78 12.883,35.172 16.093,39.804 l 4.5,15.65 10.834,16.826 11.105,116.059 c 0.066,0.69 -0.468,1.678 -1.022,2.303"
           style="fill:#172330;fill-opacity:1;fill-rule:nonzero;stroke:none;stroke-width:0.1"
           id="path6523" />
        <path
           d="m -283.93277,149.04979 c -3.946,-7.851 -12.497,-11.525 -19.102,-8.206 -1.357,0.682 -4.12,3.527 -3.88,3.236 0.227,-0.301 -0.588,0.723 -0.971,1.316 -0.354,0.61 -0.77,1.365 -1.105,2.293 -0.364,0.917 -0.638,2.005 -0.803,3.208 -0.171,1.203 -0.209,2.531 -0.061,3.918 0.141,1.388 0.45,2.835 0.969,4.272 0.141,0.354 0.261,0.727 0.422,1.074 0.163,0.35 0.312,0.694 0.489,1.056 0.385,0.682 0.738,1.396 1.209,2.045 0.422,0.682 0.953,1.293 1.459,1.926 l 1.738,1.708 c 1.241,1.051 2.616,1.957 4.092,2.592 1.476,0.632 3.026,1.023 4.552,1.141 0.382,0.012 0.761,0.057 1.136,0.041 0.375,-0.023 0.747,-0.046 1.115,-0.069 0.726,-0.12 1.441,-0.218 2.11,-0.456 0.693,-0.173 1.28,-0.493 1.882,-0.744 0.599,-0.312 1.126,-0.647 1.623,-1.008 0.975,-0.733 1.753,-1.549 2.338,-2.342 0.592,-0.791 1.012,-1.545 1.314,-2.182 0.309,-0.635 0.487,-1.162 0.61,-1.518 0.112,-0.36 0.171,-0.552 0.171,-0.552 0,0 -0.067,0.189 -0.194,0.545 -0.066,0.17 -0.149,0.38 -0.253,0.621 1.666,-4.076 1.504,-9.209 -0.86,-13.915 z m 47.339,209.319 c 0.003,-0.011 0.005,-0.021 0.008,-0.032 -0.156,0.167 -0.321,0.325 -0.506,0.462 -0.473,0.347 -1.033,0.588 -1.651,0.682 -1.97,0.302 -3.829,-0.989 -4.239,-2.937 l -30.852,-147.2 -12.231,-29.36 c -1.355,-2.455 -4.093,-3.8 -6.868,-3.388 l -0.197,0.03 c -12.003,1.687 -23.035,-6.526 -24.871,-18.506 -0.837,-5.458 0.343,-12.249 3.071,-16.582 1.723,-2.736 8.158,-9.156 16.924,-8.713 11.322,0.572 20.439,6.538 23.41,16.544 1.785,6.011 -0.097,13.713 -3.508,18.358 -5.712,7.781 12.883,35.173 16.092,39.805 l 4.501,15.65 10.834,16.825 11.104,116.059 c 0.067,0.69 -0.467,1.679 -1.021,2.303"
           style="fill:#172330;fill-opacity:1;fill-rule:nonzero;stroke:none;stroke-width:0.1"
           id="path6525" />
        <path
           d="m -244.03277,355.44979 c 0,0 1.093,3.087 3.395,3.83 1.815,0.586 -0.065,-3.477 -0.283,-3.321 -0.217,0.156 -3.112,-0.509 -3.112,-0.509"
           style="fill:#162623;fill-opacity:1;fill-rule:nonzero;stroke:none;stroke-width:0.1"
           id="path6527" />
        <path
           d="m -315.00577,166.33879 c 0,0 -0.127,-0.23 -0.365,-0.663 -0.233,-0.435 -0.555,-1.084 -0.912,-1.93 -0.355,-0.847 -0.735,-1.899 -1.045,-3.137 -0.317,-1.237 -0.548,-2.66 -0.651,-4.225 -0.098,-1.559 -0.058,-3.266 0.174,-5.045 0.23,-1.777 0.622,-3.635 1.248,-5.481 0.303,-0.926 0.687,-1.84 1.133,-2.732 0.44,-0.885 0.977,-1.773 1.616,-2.526 1.305,-1.558 2.885,-2.94 4.607,-4.088 1.709,-1.17 3.595,-2.082 5.547,-2.653 1.951,-0.58 3.968,-0.789 5.899,-0.687 1.974,0.114 3.828,0.362 5.589,0.758 1.75,0.394 3.371,0.92 4.81,1.542 1.439,0.622 2.705,1.311 3.786,1.991 1.075,0.689 1.955,1.377 2.649,1.978 0.688,0.608 1.217,1.104 1.549,1.469 0.34,0.358 0.522,0.549 0.522,0.549 0,0 -0.171,-0.2 -0.492,-0.576 -0.315,-0.382 -0.809,-0.915 -1.48,-1.551 -1.343,-1.262 -3.453,-2.928 -6.362,-4.25 -1.446,-0.668 -3.082,-1.244 -4.854,-1.69 -1.763,-0.444 -3.7,-0.759 -5.67,-0.875 -2.012,-0.124 -4.11,0.078 -6.143,0.664 -2.033,0.578 -3.996,1.505 -5.772,2.703 -1.772,1.204 -3.384,2.635 -4.731,4.27 -0.694,0.839 -1.219,1.732 -1.678,2.668 -0.456,0.928 -0.843,1.875 -1.147,2.828 -0.641,1.899 -0.98,3.812 -1.173,5.627 -0.191,1.819 -0.189,3.551 -0.05,5.143 0.262,3.186 1.212,5.717 1.985,7.385 0.389,0.84 0.756,1.467 1.01,1.891 0.262,0.42 0.401,0.643 0.401,0.643"
           style="fill:#ffffff;fill-opacity:1;fill-rule:nonzero;stroke:none;stroke-width:0.1"
           id="path6529" />
        <path
           d="m -267.84177,237.93179 c -0.358,-2.412 -0.783,-4.81 -1.227,-7.204 -0.428,-2.397 -0.915,-4.782 -1.403,-7.167 -0.493,-2.384 -1.009,-4.763 -1.546,-7.137 l -0.84,-3.555 c -0.273,-1.186 -0.572,-2.367 -0.878,-3.546 l -0.003,-0.014 -0.002,-0.004 c -0.286,-0.621 -0.58,-1.238 -0.881,-1.852 0.225,0.646 0.455,1.289 0.695,1.929 l -0.006,-0.018 c 0.194,1.203 0.395,2.405 0.62,3.601 l 0.659,3.592 c 0.461,2.391 0.943,4.777 1.45,7.157 0.51,2.381 1.022,4.76 1.593,7.128 0.554,2.37 1.128,4.737 1.769,7.09"
           style="fill:#ffffff;fill-opacity:1;fill-rule:nonzero;stroke:none;stroke-width:0.1"
           id="path6531" />
        <path
           d="m -239.50477,360.06979 c 0,0 -0.101,0.009 -0.297,0.025 -0.196,0.011 -0.488,0.011 -0.862,-0.053 -0.725,-0.118 -1.859,-0.596 -2.569,-1.819 -0.373,-0.595 -0.459,-1.381 -0.633,-2.222 -0.165,-0.84 -0.343,-1.749 -0.534,-2.72 -0.386,-1.941 -0.821,-4.13 -1.296,-6.519 -0.967,-4.773 -2.095,-10.343 -3.304,-16.31 -1.234,-5.962 -2.55,-12.321 -3.866,-18.681 -1.349,-6.352 -2.697,-12.705 -3.962,-18.66 -1.29,-5.95 -2.495,-11.504 -3.527,-16.264 -1.055,-4.755 -1.935,-8.718 -2.55,-11.492 -0.629,-2.771 -0.988,-4.354 -0.988,-4.354 0,0 0.307,1.594 0.844,4.384 0.55,2.788 1.336,6.77 2.279,11.549 0.966,4.774 2.093,10.344 3.3,16.311 1.234,5.962 2.549,12.322 3.864,18.681 1.349,6.353 2.697,12.705 3.962,18.661 1.289,5.95 2.492,11.504 3.523,16.264 0.524,2.379 1.004,4.559 1.43,6.491 0.215,0.966 0.417,1.87 0.604,2.705 0.191,0.822 0.305,1.64 0.715,2.258 0.777,1.258 1.966,1.691 2.701,1.782 0.38,0.05 0.675,0.038 0.87,0.02 0.195,-0.024 0.296,-0.037 0.296,-0.037"
           style="fill:#ffffff;fill-opacity:1;fill-rule:nonzero;stroke:none;stroke-width:0.1"
           id="path6533" />
        <path
           d="m -304.76077,165.72379 1.145,1.22 v 0 l 0.004,0.003 c 1.466,1.321 3.15,2.46 5.042,3.136 0.938,0.348 1.913,0.605 2.908,0.754 0.26,0.039 0.476,0.068 0.774,0.092 l 0.739,0.041 0.388,0.019 0.369,-0.021 0.738,-0.041 0.015,-0.001 0.018,-0.003 c 0.705,-0.113 1.443,-0.205 2.171,-0.457 l -0.031,0.009 c 0.709,-0.171 1.336,-0.501 1.935,-0.748 l 0.02,-0.008 0.007,-0.005 1.096,-0.67 0.547,-0.336 c 0.183,-0.129 0.344,-0.258 0.514,-0.397 0.664,-0.544 1.274,-1.158 1.795,-1.847 0.52,-0.679 0.975,-1.412 1.354,-2.179 l 0.144,-0.306 0.115,-0.29 0.229,-0.582 0.229,-0.581 c 0.089,-0.255 0.129,-0.414 0.195,-0.626 l -0.645,-0.215 -0.203,0.574 -0.232,0.58 0.616,0.252 c 0.22,-0.572 0.417,-1.152 0.572,-1.744 0.069,-0.298 0.149,-0.594 0.197,-0.895 0.047,-0.302 0.115,-0.6 0.141,-0.904 0.077,-0.605 0.122,-1.213 0.128,-1.821 0.011,-0.608 -0.012,-1.215 -0.07,-1.819 -0.053,-0.603 -0.138,-1.204 -0.26,-1.797 -0.067,-0.295 -0.121,-0.592 -0.207,-0.882 -0.083,-0.29 -0.15,-0.585 -0.251,-0.87 -0.099,-0.285 -0.178,-0.576 -0.292,-0.855 -0.112,-0.279 -0.21,-0.564 -0.333,-0.838 -0.233,-0.555 -0.512,-1.088 -0.793,-1.616 0.24,0.55 0.46,1.105 0.66,1.668 0.104,0.279 0.183,0.567 0.276,0.85 0.096,0.282 0.156,0.575 0.235,0.861 0.082,0.286 0.129,0.58 0.193,0.87 0.066,0.289 0.101,0.584 0.148,0.877 0.09,0.585 0.155,1.174 0.183,1.764 0.034,0.59 0.034,1.181 0,1.77 -0.029,0.588 -0.095,1.174 -0.191,1.754 -0.036,0.291 -0.114,0.576 -0.169,0.864 -0.056,0.288 -0.149,0.567 -0.215,0.852 -0.156,0.565 -0.351,1.116 -0.568,1.659 l 0.616,0.252 0.239,-0.577 0.221,-0.6 -0.646,-0.216 -0.182,0.565 -0.236,0.578 -0.237,0.579 -0.118,0.289 -0.126,0.257 c -0.369,0.722 -0.805,1.405 -1.306,2.043 -0.5,0.63 -1.06,1.214 -1.677,1.735 -0.151,0.127 -0.315,0.26 -0.47,0.372 l -0.514,0.323 -1.028,0.649 0.027,-0.012 c -0.643,0.277 -1.22,0.586 -1.828,0.739 l -0.018,0.005 -0.014,0.005 c -0.634,0.23 -1.334,0.332 -2.049,0.454 l 0.033,-0.004 -0.738,0.051 -0.369,0.025 -0.351,-0.007 -0.739,-0.012 c -0.193,-0.01 -0.467,-0.032 -0.696,-0.059 -0.96,-0.106 -1.911,-0.318 -2.833,-0.62 -1.846,-0.603 -3.568,-1.584 -5.105,-2.809 l 0.003,0.004 -1.239,-1.124"
           style="fill:#ffffff;fill-opacity:1;fill-rule:nonzero;stroke:none;stroke-width:0.1"
           id="path6535" />
        <path
           d="m -284.50977,170.38779 c -1.092,1.05 -2.343,1.946 -3.744,2.651 -0.332,0.166 -0.669,0.321 -1.011,0.462 2.249,0.901 4.185,2.552 5.399,4.752 l 0.106,0.191 1.184,2.844 c -1.57,-4.369 -2.209,-7.973 -1.934,-10.9"
           style="fill:#ffffff;fill-opacity:1;fill-rule:nonzero;stroke:none;stroke-width:0.1"
           id="path6537" />
        <path
           d="m -314.33477,150.30179 c -0.729,2.506 -0.912,5.162 -0.51,7.783 0.898,5.863 4.407,10.589 9.178,13.177 -2.659,-1.972 -4.94,-4.64 -6.543,-7.83 -2.163,-4.304 -2.807,-8.93 -2.125,-13.13"
           style="fill:#ffffff;fill-opacity:1;fill-rule:nonzero;stroke:none;stroke-width:0.1"
           id="path6539" />
        <path
           d="m -278.43577,151.37979 c -1.043,-5.482 -4.568,-9.985 -9.217,-12.498 2.984,2.014 5.552,4.88 7.307,8.372 1.215,2.417 1.95,4.935 2.24,7.423 -0.011,-1.094 -0.12,-2.198 -0.33,-3.297"
           style="fill:#ffffff;fill-opacity:1;fill-rule:nonzero;stroke:none;stroke-width:0.1"
           id="path6541" />
        <path
           d="m -255.66477,230.87579 -5.235,-8.032 -0.026,-0.04 -0.005,-0.038 -1.132,-8.614 1.491,8.511 5.749,7.982 c -0.32,0.102 -0.556,0.152 -0.842,0.231"
           style="fill:#ffffff;fill-opacity:1;fill-rule:nonzero;stroke:none;stroke-width:0.1"
           id="path6543" />
        <path
           d="m -238.39977,358.97879 c 0.401,-0.594 0.584,-1.314 0.515,-2.029 l -11.217,-107.327 c 0.057,-0.056 0.677,-0.491 1.214,-0.947 l 11.328,108.142 c 0.099,1.026 -1.84,2.161 -1.84,2.161"
           style="fill:#ffffff;fill-opacity:1;fill-rule:nonzero;stroke:none;stroke-width:0.1"
           id="path6545" />
        <path
           d="m -265.58077,235.66279 -5.701,-27.188 -8.884,-21.327 c 0.848,1.82 1.821,3.747 2.919,5.783 2.986,5.54 6.229,10.63 8.351,13.822 l 4.833,27.529 -1.518,1.381"
           style="fill:#ffffff;fill-opacity:1;fill-rule:nonzero;stroke:none;stroke-width:0.1"
           id="path6547" />
        <path
           d="m -258.45777,243.04879 c -0.155,-1.009 0.538,-1.953 1.548,-2.108 1.009,-0.155 1.953,0.538 2.108,1.548 0.154,1.009 -0.539,1.953 -1.548,2.108 -1.009,0.154 -1.953,-0.539 -2.108,-1.548"
           style="fill:#ffffff;fill-opacity:1;fill-rule:nonzero;stroke:none;stroke-width:0.1"
           id="path6549" />
        <path
           d="m -258.37077,243.03579 c -0.147,-0.962 0.513,-1.86 1.474,-2.008 0.961,-0.147 1.86,0.513 2.008,1.474 0.147,0.962 -0.513,1.86 -1.474,2.008 -0.962,0.147 -1.861,-0.513 -2.008,-1.474"
           style="fill:#162623;fill-opacity:1;fill-rule:nonzero;stroke:none;stroke-width:0.1"
           id="path6551" />
        <path
           d="m -258.28877,243.02279 c -0.14,-0.916 0.489,-1.772 1.405,-1.913 0.916,-0.14 1.772,0.489 1.912,1.405 0.141,0.916 -0.488,1.772 -1.404,1.912 -0.916,0.141 -1.772,-0.488 -1.913,-1.404"
           style="fill:#ffffff;fill-opacity:1;fill-rule:nonzero;stroke:none;stroke-width:0.1"
           id="path6553" />
        <path
           d="m -258.19077,242.87879 c -0.036,0.01 -0.07,0.02 -0.104,0.03 0.004,0.038 0,0.076 0.006,0.114 0.006,0.039 0.021,0.073 0.029,0.111 0.035,-0.001 0.07,-0.002 0.108,-0.003 0.449,-0.012 1.041,-0.065 1.629,-0.154 0.569,-0.089 1.131,-0.211 1.558,-0.33 -0.003,-0.044 0,-0.088 -0.007,-0.132 -0.006,-0.045 -0.022,-0.085 -0.032,-0.128 -0.444,0.014 -1.017,0.066 -1.587,0.152 -0.587,0.091 -1.168,0.217 -1.6,0.34"
           style="fill:#162623;fill-opacity:1;fill-rule:nonzero;stroke:none;stroke-width:0.1"
           id="path6555" />
        <path
           d="m -155.22277,195.22979 c -2.877,-6.809 -11.77,-9.555 -19.864,-6.134 -5.713,2.414 -9.496,7.259 -10.215,12.295 0.019,1.469 0.306,2.932 0.897,4.331 2.877,6.809 11.771,9.555 19.86,6.136 5.716,-2.415 9.5,-7.26 10.219,-12.297 -0.019,-1.469 -0.306,-2.932 -0.897,-4.331 z m -74.132,21.884 c 5.446,-1.447 37.352,-9.959 38.047,-19.587 0.414,-5.747 3.27,-11.282 8.156,-15.211 8.834,-7.106 21.844,-6.281 29.696,1.896 0.504,0.526 0.977,1.068 1.419,1.626 1.073,1.355 3.023,1.634 4.447,0.654 5.474,-3.769 18.404,-11.258 29.366,-6.803 -0.007,0.839 -0.135,1.878 -0.135,1.878 l -0.02,0.002 c 0.01,0.004 0.021,0.008 0.032,0.012 -0.005,0.033 -0.009,0.065 -0.014,0.098 -0.466,3.243 -3.291,5.609 -6.568,5.592 -2.604,-0.013 -6.015,0.296 -9.691,1.491 -7.023,2.282 -11.958,8.498 -13.013,15.807 -0.731,5.068 -3.219,9.904 -7.394,13.518 -9.164,7.931 -22.889,7.033 -30.934,-2.033 l -0.131,-0.151 c -1.846,-2.112 -4.802,-2.863 -7.425,-1.872 l -28.346,14.426 -118.916,92.08 c -1.576,1.217 -3.829,0.994 -5.133,-0.512 -0.409,-0.473 -0.679,-1.02 -0.814,-1.59 -0.053,-0.224 -0.076,-0.452 -0.086,-0.68 -0.005,0.01 -0.009,0.019 -0.015,0.03 -0.017,-0.834 0.06,-1.663 0.136,-2.256 0.01,-0.266 0.052,-0.53 0.118,-0.789 0.008,-0.045 0.013,-0.069 0.013,-0.069 l 0.002,0.006 c 0.171,-0.626 0.502,-1.215 1,-1.697 l 82.758,-79.917 19.301,-5.231 14.144,-10.718"
           style="fill:#172330;fill-opacity:1;fill-rule:nonzero;stroke:none;stroke-width:0.1"
           id="path6557" />
        <path
           d="m -255.42077,244.15179 c 0.772,-0.668 0.856,-1.836 0.188,-2.608 -0.668,-0.772 -1.836,-0.856 -2.608,-0.188 -0.772,0.668 -0.857,1.836 -0.188,2.608 0.668,0.772 1.836,0.857 2.608,0.188"
           style="fill:#ffffff;fill-opacity:1;fill-rule:nonzero;stroke:none;stroke-width:0.1"
           id="path6559" />
        <path
           d="m -255.47877,244.08579 c 0.736,-0.637 0.816,-1.749 0.18,-2.484 -0.637,-0.736 -1.749,-0.816 -2.485,-0.179 -0.735,0.636 -0.815,1.748 -0.179,2.484 0.637,0.735 1.749,0.815 2.484,0.179"
           style="fill:#162623;fill-opacity:1;fill-rule:nonzero;stroke:none;stroke-width:0.1"
           id="path6561" />
        <path
           d="m -255.53277,244.02279 c 0.701,-0.606 0.777,-1.666 0.171,-2.367 -0.607,-0.701 -1.666,-0.777 -2.367,-0.17 -0.701,0.606 -0.777,1.666 -0.171,2.366 0.607,0.701 1.666,0.777 2.367,0.171"
           style="fill:#ffffff;fill-opacity:1;fill-rule:nonzero;stroke:none;stroke-width:0.1"
           id="path6563" />
        <path
           d="m -255.51377,243.84979 c 0.021,0.031 0.04,0.06 0.059,0.09 -0.027,0.027 -0.049,0.058 -0.078,0.083 -0.029,0.025 -0.063,0.043 -0.093,0.066 -0.027,-0.024 -0.053,-0.047 -0.081,-0.072 -0.334,-0.3 -0.75,-0.725 -1.14,-1.174 -0.376,-0.436 -0.725,-0.893 -0.973,-1.261 0.031,-0.032 0.057,-0.067 0.091,-0.096 0.034,-0.03 0.072,-0.05 0.108,-0.076 0.329,0.298 0.731,0.708 1.109,1.143 0.388,0.45 0.749,0.923 0.998,1.297"
           style="fill:#162623;fill-opacity:1;fill-rule:nonzero;stroke:none;stroke-width:0.1"
           id="path6565" />
        <path
           d="m -188.47977,205.71679 c 0.15,1.506 0.522,3 1.132,4.445 0.144,0.342 0.301,0.678 0.469,1.007 -2.296,-0.772 -4.84,-0.77 -7.191,0.118 l -0.204,0.077 -2.746,1.398 c 4.028,-2.309 6.851,-4.638 8.54,-7.045"
           style="fill:#ffffff;fill-opacity:1;fill-rule:nonzero;stroke:none;stroke-width:0.1"
           id="path6567" />
        <path
           d="m -152.74977,209.75679 c -1.07,2.381 -2.652,4.522 -4.657,6.257 -4.485,3.881 -10.22,5.206 -15.531,4.083 3.303,0.222 6.77,-0.33 10.058,-1.72 4.437,-1.875 7.927,-4.98 10.13,-8.62"
           style="fill:#ffffff;fill-opacity:1;fill-rule:nonzero;stroke:none;stroke-width:0.1"
           id="path6569" />
        <path
           d="m -152.09777,192.51179 c 1.784,0.65 3.793,0.588 5.574,-0.244 -1.625,2.003 -2.925,4.289 -3.835,6.781 -0.07,-1.825 -0.459,-3.642 -1.197,-5.388 -0.165,-0.391 -0.346,-0.774 -0.542,-1.149"
           style="fill:#ffffff;fill-opacity:1;fill-rule:nonzero;stroke:none;stroke-width:0.1"
           id="path6571" />
        <path
           d="m -180.78377,187.30579 c 4.349,-3.498 9.952,-4.642 15.121,-3.541 -3.578,-0.402 -7.392,0.116 -10.991,1.637 -2.492,1.053 -4.684,2.494 -6.518,4.2 0.718,-0.826 1.517,-1.595 2.388,-2.296"
           style="fill:#ffffff;fill-opacity:1;fill-rule:nonzero;stroke:none;stroke-width:0.1"
           id="path6573" />
        <path
           d="m -119.77477,181.07779 c -0.929,-0.291 -2.33,-0.639 -4.148,-0.77 -1.814,-0.14 -4.042,-0.057 -6.529,0.433 -2.488,0.481 -5.227,1.355 -8.082,2.609 -2.855,1.255 -5.822,2.902 -8.778,4.91 -0.358,0.252 -0.764,0.527 -1.216,0.668 -0.451,0.146 -0.935,0.2 -1.412,0.153 -0.478,-0.046 -0.95,-0.189 -1.373,-0.43 -0.424,-0.233 -0.794,-0.603 -1.084,-0.957 -0.31,-0.353 -0.621,-0.709 -0.934,-1.066 -0.159,-0.172 -0.31,-0.373 -0.475,-0.522 l -0.519,-0.488 c -0.353,-0.321 -0.683,-0.669 -1.058,-0.97 -0.38,-0.294 -0.762,-0.59 -1.145,-0.887 -3.128,-2.286 -7.005,-3.772 -11.063,-4.103 -0.504,-0.074 -1.015,-0.055 -1.525,-0.069 -0.51,-0.009 -1.022,-0.03 -1.532,0.026 -0.51,0.043 -1.023,0.064 -1.532,0.124 l -1.52,0.25 c -2.012,0.421 -3.986,1.076 -5.82,2.025 -0.462,0.229 -0.89,0.512 -1.337,0.764 -0.22,0.133 -0.446,0.253 -0.662,0.396 l -0.632,0.458 c -0.411,0.31 -0.867,0.601 -1.24,0.926 l -0.591,0.498 c -0.193,0.17 -0.377,0.349 -0.567,0.523 -1.507,1.402 -2.787,3.029 -3.836,4.768 -1.033,1.752 -1.823,3.63 -2.308,5.564 -0.246,0.97 -0.425,1.936 -0.52,2.922 -0.027,0.247 -0.046,0.493 -0.079,0.74 -0.017,0.127 -0.03,0.255 -0.051,0.38 l -0.088,0.372 c -0.136,0.489 -0.321,0.963 -0.568,1.397 -0.476,0.881 -1.115,1.641 -1.796,2.33 -0.684,0.688 -1.421,1.304 -2.176,1.873 -1.513,1.138 -3.101,2.088 -4.675,2.952 -3.158,1.714 -6.281,3.054 -9.186,4.213 -2.909,1.155 -5.621,2.094 -8.037,2.883 -2.416,0.789 -4.537,1.428 -6.29,1.935 -3.505,1.013 -5.531,1.505 -5.531,1.505 0,0 2.02,-0.519 5.51,-1.576 3.489,-1.059 8.454,-2.658 14.259,-4.969 2.895,-1.169 6.005,-2.52 9.139,-4.24 1.561,-0.866 3.136,-1.818 4.625,-2.949 0.744,-0.566 1.467,-1.176 2.134,-1.852 0.663,-0.677 1.28,-1.42 1.73,-2.264 0.236,-0.416 0.407,-0.865 0.533,-1.324 l 0.08,-0.348 c 0.02,-0.117 0.031,-0.236 0.046,-0.354 0.032,-0.243 0.05,-0.491 0.076,-0.738 0.09,-0.989 0.27,-1.996 0.516,-2.976 0.485,-1.97 1.279,-3.885 2.323,-5.673 1.061,-1.776 2.356,-3.438 3.885,-4.872 0.741,-0.731 1.586,-1.394 2.431,-1.993 l 0.63,-0.461 c 0.217,-0.146 0.452,-0.273 0.677,-0.41 0.458,-0.263 0.902,-0.557 1.372,-0.793 1.876,-0.964 3.893,-1.621 5.944,-2.041 l 1.551,-0.248 c 0.518,-0.059 1.041,-0.078 1.56,-0.119 0.52,-0.055 1.04,-0.031 1.56,-0.02 0.519,0.017 1.039,0 1.552,0.078 4.126,0.355 8.061,1.884 11.227,4.22 0.388,0.303 0.774,0.605 1.159,0.906 0.378,0.307 0.713,0.662 1.069,0.989 l 0.524,0.498 c 0.188,0.175 0.322,0.358 0.484,0.537 0.312,0.358 0.622,0.715 0.93,1.07 0.306,0.373 0.608,0.673 1.001,0.897 0.384,0.221 0.815,0.354 1.251,0.398 0.437,0.045 0.88,-0.002 1.293,-0.134 0.42,-0.131 0.773,-0.367 1.147,-0.627 2.98,-2.004 5.967,-3.646 8.842,-4.894 2.872,-1.257 5.64,-2.1 8.148,-2.547 2.507,-0.461 4.747,-0.515 6.565,-0.35 1.822,0.155 3.221,0.522 4.148,0.826 0.471,0.133 0.814,0.289 1.052,0.372 0.236,0.089 0.358,0.135 0.358,0.135 0,0 -0.123,-0.045 -0.36,-0.131 -0.239,-0.08 -0.584,-0.23 -1.056,-0.358"
           style="fill:#ffffff;fill-opacity:1;fill-rule:nonzero;stroke:none;stroke-width:0.1"
           id="path6575" />
        <path
           d="m -184.57477,198.48679 c 0.148,-0.347 0.228,-0.532 0.228,-0.532 0,0 -0.072,0.188 -0.206,0.54 -0.124,0.356 -0.301,0.88 -0.459,1.564 -0.16,0.682 -0.302,1.525 -0.332,2.499 -0.037,0.972 0.062,2.074 0.34,3.234 0.148,0.574 0.349,1.176 0.594,1.751 0.304,0.572 0.566,1.207 0.971,1.746 0.349,0.579 0.829,1.097 1.299,1.632 0.261,0.245 0.524,0.492 0.79,0.741 0.268,0.246 0.578,0.449 0.869,0.679 1.207,0.864 2.604,1.543 4.098,1.996 1.497,0.452 3.091,0.638 4.676,0.632 0.396,-0.017 0.795,0.016 1.189,-0.039 l 1.183,-0.116 c 0.777,-0.146 1.56,-0.258 2.309,-0.494 0.763,-0.18 1.481,-0.484 2.203,-0.743 0.343,-0.146 0.701,-0.319 1.046,-0.475 0.349,-0.158 0.665,-0.353 0.995,-0.525 1.294,-0.737 2.467,-1.595 3.473,-2.523 1.011,-0.923 1.848,-1.926 2.506,-2.925 0.659,-0.997 1.179,-1.972 1.523,-2.884 0.371,-0.902 0.568,-1.734 0.715,-2.419 0.111,-0.692 0.193,-1.239 0.198,-1.616 0.023,-0.376 0.034,-0.577 0.034,-0.577 0,0 -0.003,0.201 -0.01,0.578 0.008,0.378 -0.044,0.93 -0.137,1.63 -0.126,0.693 -0.299,1.539 -0.645,2.463 -0.318,0.933 -0.814,1.939 -1.469,2.962 -0.65,1.027 -1.481,2.063 -2.493,3.024 -1.007,0.965 -2.181,1.866 -3.507,2.623 -0.337,0.179 -0.67,0.385 -1.018,0.545 -0.351,0.161 -0.687,0.327 -1.057,0.487 -0.735,0.27 -1.467,0.585 -2.246,0.774 -0.764,0.245 -1.564,0.366 -2.359,0.52 l -1.212,0.127 c -0.403,0.057 -0.813,0.029 -1.219,0.046 -1.626,-0.004 -3.26,-0.205 -4.796,-0.679 -1.534,-0.475 -2.967,-1.183 -4.206,-2.081 -0.299,-0.239 -0.616,-0.451 -0.892,-0.706 -0.27,-0.261 -0.538,-0.519 -0.803,-0.775 -0.476,-0.562 -0.957,-1.1 -1.312,-1.715 -0.415,-0.582 -0.655,-1.206 -0.951,-1.786 -0.253,-0.627 -0.437,-1.224 -0.581,-1.82 -0.268,-1.191 -0.331,-2.316 -0.263,-3.3 0.062,-0.985 0.232,-1.831 0.414,-2.512 0.177,-0.684 0.383,-1.201 0.52,-1.551"
           style="fill:#ffffff;fill-opacity:1;fill-rule:nonzero;stroke:none;stroke-width:0.1"
           id="path6577" />
        <path
           d="m -235.81177,223.33979 c -1.153,0.981 -2.31,1.956 -3.475,2.921 -1.16,0.972 -2.331,1.931 -3.502,2.888 l -0.073,0.06 -0.096,0.025 c -1.538,0.399 -3.082,0.772 -4.624,1.151 -0.771,0.193 -1.544,0.373 -2.318,0.555 l -2.32,0.542 c -1.549,0.352 -8.096,2.13 -9.343,2.443 l -3.556,3.387 -13.852,13.419 -13.89,13.378 -27.788,26.749 -13.904,13.364 -6.967,6.667 -3.483,3.333 c -0.287,0.28 -0.589,0.549 -0.863,0.839 -0.267,0.298 -0.488,0.638 -0.651,1.004 -0.323,0.734 -0.401,1.572 -0.221,2.356 -0.187,-0.782 -0.117,-1.624 0.201,-2.365 0.161,-0.37 0.38,-0.714 0.646,-1.017 0.276,-0.296 0.572,-0.565 0.857,-0.849 l 3.453,-3.365 6.906,-6.729 13.841,-13.43 27.703,-26.836 13.855,-13.415 13.894,-13.375 3.879,-3.72 c 0.226,-0.024 1.678,-0.417 2.23,-0.58 l 2.285,-0.681 c 1.527,-0.442 3.058,-0.867 4.59,-1.287 l 2.302,-0.616 c 0.768,-0.204 1.535,-0.41 2.305,-0.603 1.509,-0.385 3.016,-0.775 4.529,-1.141 1.152,-0.93 2.305,-1.859 3.469,-2.774 1.183,-0.943 2.375,-1.876 3.571,-2.803 l 1.798,-1.387 c 0.602,-0.458 1.198,-0.925 1.806,-1.375 1.216,-0.904 2.417,-1.825 3.648,-2.709 -1.117,1.024 -2.265,2.011 -3.399,3.015 -0.566,0.503 -1.144,0.991 -1.716,1.486 l -1.727,1.475"
           style="fill:#ffffff;fill-opacity:1;fill-rule:nonzero;stroke:none;stroke-width:0.1"
           id="path6579" />
        <path
           d="m -264.61077,251.89779 -79.715,69.199 c -0.002,-10e-4 -0.004,-0.002 -0.006,-0.002 l 78.973,-70.677 0.302,-0.27 0.408,0.089 11.483,2.459 -1.874,1.451 -9.571,-2.249"
           style="fill:#ffffff;fill-opacity:1;fill-rule:nonzero;stroke:none;stroke-width:0.1"
           id="path6581" />
        <path
           d="m -345.84677,319.41979 c 0,0 -0.741,-2.121 0,-2.838 l 85.882,-81.799 19.37,-4.782 6.652,-5.513 -6.446,5.824 -0.029,0.026 -0.045,0.013 -18.887,5.669 -85.574,81.521 c -0.516,0.5 -0.844,1.166 -0.923,1.879"
           style="fill:#ffffff;fill-opacity:1;fill-rule:nonzero;stroke:none;stroke-width:0.1"
           id="path6583" />
        <path
           d="m -255.24677,250.92179 -5.949,-1.283 c 3.625,-0.095 7.113,-1.404 9.907,-3.716 l 27.345,-22.64 c 3.685,-1.055 9.454,-2.828 15.32,-5.111 2.155,-0.839 4.145,-1.675 5.971,-2.511 l -20.59,10.479 -32.004,24.782"
           style="fill:#ffffff;fill-opacity:1;fill-rule:nonzero;stroke:none;stroke-width:0.1"
           id="path6585" />
        <path
           d="m -263.89277,261.00079 c 0,0 1.144,-0.816 2.84,-2.064 0.843,-0.631 1.826,-1.368 2.879,-2.157 1.046,-0.799 2.161,-1.652 3.276,-2.504 1.104,-0.866 2.209,-1.732 3.245,-2.544 1.027,-0.823 1.986,-1.59 2.808,-2.248 1.634,-1.329 2.71,-2.233 2.71,-2.233 0,0 -1.144,0.816 -2.84,2.065 -0.843,0.631 -1.826,1.367 -2.879,2.156 -1.046,0.8 -2.161,1.652 -3.276,2.505 -1.104,0.866 -2.209,1.732 -3.244,2.544 -1.028,0.823 -1.987,1.59 -2.809,2.248 -1.633,1.33 -2.71,2.232 -2.71,2.232"
           style="fill:#ffffff;fill-opacity:1;fill-rule:nonzero;stroke:none;stroke-width:0.1"
           id="path6587" />
        <path
           d="m -268.61377,238.47579 c 1.015,-0.892 2.011,-1.805 2.997,-2.727 0.996,-0.913 1.959,-1.859 2.937,-2.789 l -0.078,0.045 c 1.635,-0.429 3.257,-0.907 4.885,-1.362 1.621,-0.482 3.243,-0.96 4.85,-1.491 -1.653,0.363 -3.293,0.776 -4.933,1.187 -1.633,0.438 -3.272,0.852 -4.898,1.316 l -0.047,0.013 -0.032,0.032 c -0.957,0.952 -1.93,1.887 -2.87,2.857 -0.949,0.961 -1.89,1.93 -2.811,2.919"
           style="fill:#ffffff;fill-opacity:1;fill-rule:nonzero;stroke:none;stroke-width:0.1"
           id="path6589" />
      </g>
      <g
         id="g6661"
         transform="rotate(116.29268,-81.13304,-392.94163)">
        <path
           d="m 276.30548,-282.62443 v 0 c 2.89,-0.279 4.817,2.921 3.21,5.339 -5.571,8.382 -4.593,19.326 -4.535,21.668 0.231,9.48 7.819,97.342 27.896,212.102 0,0 8.51,33.05 -10.394,34.399 -0.952,0.119 -1.973,0.158 -3.078,0.099 l -16.025,-0.942 c -1.443,-0.085 -2.68,-0.939 -3.304,-2.164 l 20.032,-3.207 -20.508,1.159 -0.086,-0.891 23.049,-3.173 -23.251,1.088 -0.086,-0.891 24.413,-3.357 -24.614,1.271 -0.086,-0.891 25.56,-3.521 -25.762,1.436 -0.086,-0.892 25.386,-3.504 -25.587,1.419 -0.086,-0.891 25.212,-3.488 -25.414,1.402 -0.086,-0.891 25.039,-3.471 -25.24,1.386 -0.086,-0.892 24.865,-3.454 -25.067,1.369 -0.086,-0.891 24.692,-3.437 -24.893,1.352 -0.086,-0.892 24.518,-3.42 -24.72,1.335 -0.086,-0.892 24.344,-3.403 -24.545,1.319 -0.086,-0.892 24.17,-3.387 -24.372,1.302 -0.086,-0.892 23.997,-3.37 -24.198,1.285 -0.086,-0.892 23.823,-3.353 -24.025,1.269 -0.086,-0.892 23.65,-3.336 -23.851,1.251 -0.086,-0.892 23.476,-3.319 -23.678,1.235 -0.086,-0.893 23.302,-3.302 -23.503,1.218 -0.086,-0.892 23.128,-3.286 -23.33,1.201 -0.086,-0.892 22.955,-3.269 -23.156,1.185 -0.086,-0.893 22.781,-3.252 -22.983,1.168 -0.086,-0.892 22.608,-3.236 -22.809,1.152 -0.086,-0.893 22.433,-3.218 -22.634,1.134 -0.087,-0.893 22.26,-3.201 -22.461,1.118 -0.086,-0.893 22.086,-3.185 -22.287,1.101 -0.087,-0.893 21.913,-3.168 -22.114,1.084 -0.086,-0.893 21.739,-3.151 -21.94,1.068 -0.087,-0.893 21.566,-3.135 -21.767,1.051 -0.086,-0.893 21.391,-3.117 -21.592,1.034 -0.087,-0.894 21.218,-3.1 -21.419,1.017 -0.086,-0.893 21.044,-3.084 -21.245,1 -0.087,-0.893 20.871,-3.067 -21.072,0.984 -0.086,-0.894 20.697,-3.05 -20.898,0.967 -0.087,-0.893 20.523,-3.034 -20.724,0.951 -0.086,-0.894 20.349,-3.017 -20.55,0.934 -0.087,-0.894 20.176,-2.999 -20.377,0.917 -0.086,-0.894 20.002,-2.983 -20.203,0.9 -0.087,-0.894 19.829,-2.966 -20.03,0.883 -0.086,-0.894 19.655,-2.949 -19.856,0.867 -0.087,-0.894 19.481,-2.933 -19.682,0.85 -0.086,-0.894 19.307,-2.916 -19.508,0.834 -0.086,-0.895 19.133,-2.898 -19.335,0.816 -0.086,-0.894 18.96,-2.882 -19.161,0.8 c -0.12,-1.239 0.531,-2.42 1.64,-2.986 2.033,-1.037 5.238,-2.877 6.902,-4.904 4.624,-5.632 6.733,-12.906 5.056,-19.998 l -6.693,-26.924 c -0.136,-0.576 -0.267,-1.152 -0.394,-1.729 -2.841,-12.915 -0.76,-23.183 2.185,-36.075 l 1.009,-4.417 c 1.799,-9.314 -1.783,-16.523 -2.681,-20.189 -2.192,-8.952 3.233,-25.014 8.872,-28.412 0.205,-0.123 0.414,-0.237 0.626,-0.341 0.01,-0.006 0.02,-0.015 0.03,-0.021 0.318,-0.191 0.695,-0.279 1.08,-0.331 0.014,-0.002 0.026,-0.006 0.039,-0.007 v 0 c 0.005,-0.001 0.01,0 0.016,-0.001 0.272,-0.035 0.546,-0.054 0.806,-0.079"
           style="fill:#172330;fill-opacity:1;fill-rule:nonzero;stroke:none;stroke-width:0.1"
           id="path6649" />
        <path
           d="m 282.30248,-152.74243 c 4.207,31.623 9.753,68.914 16.868,109.585 0,0 5.979,23.211 -3.206,31.527 0,0 5.917,-7.918 1.017,-31.122 -4.901,-23.205 -14.679,-109.99 -14.679,-109.99"
           style="fill:#ffffff;fill-opacity:1;fill-rule:nonzero;stroke:none;stroke-width:0.1"
           id="path6651" />
        <path
           d="m 271.59648,-149.55143 c 0,0 -0.115,0.2 -0.317,0.551 -0.197,0.352 -0.503,0.842 -0.871,1.425 -0.369,0.584 -0.834,1.24 -1.349,1.929 -0.258,0.345 -0.537,0.691 -0.82,1.041 -0.141,0.178 -0.287,0.339 -0.442,0.516 -0.156,0.165 -0.308,0.323 -0.473,0.479 -0.654,0.631 -1.375,1.197 -2.07,1.703 -0.698,0.5 -1.364,0.954 -1.951,1.319 -0.586,0.365 -1.073,0.677 -1.422,0.88 -0.346,0.21 -0.544,0.33 -0.544,0.33 0,0 0.214,-0.088 0.582,-0.257 0.366,-0.174 0.894,-0.413 1.504,-0.748 0.609,-0.335 1.319,-0.732 2.043,-1.221 0.726,-0.484 1.468,-1.056 2.15,-1.703 0.168,-0.163 0.335,-0.34 0.493,-0.511 0.146,-0.17 0.306,-0.351 0.446,-0.532 0.287,-0.357 0.551,-0.723 0.803,-1.079 0.501,-0.714 0.913,-1.418 1.253,-2.025 0.338,-0.609 0.573,-1.141 0.741,-1.509 0.164,-0.371 0.244,-0.588 0.244,-0.588"
           style="fill:#ffffff;fill-opacity:1;fill-rule:nonzero;stroke:none;stroke-width:0.1"
           id="path6653" />
        <path
           d="m 266.72148,-253.61443 c 0,0 -0.017,-0.12 -0.05,-0.345 -0.035,-0.224 -0.083,-0.556 -0.123,-0.975 -0.052,-0.417 -0.078,-0.929 -0.101,-1.514 -0.013,-0.587 -0.006,-1.247 0.02,-1.966 0.035,-0.719 0.091,-1.497 0.183,-2.316 0.082,-0.82 0.224,-1.678 0.367,-2.565 0.155,-0.886 0.347,-1.795 0.562,-2.714 0.207,-0.921 0.466,-1.845 0.734,-2.765 0.276,-0.918 0.561,-1.835 0.889,-2.72 0.324,-0.886 0.651,-1.755 1.012,-2.578 0.352,-0.827 0.73,-1.608 1.099,-2.344 0.388,-0.725 0.758,-1.411 1.147,-2.014 0.379,-0.61 0.764,-1.144 1.117,-1.61 0.181,-0.228 0.361,-0.433 0.523,-0.629 0.175,-0.182 0.336,-0.35 0.481,-0.502 0.312,-0.279 0.55,-0.513 0.737,-0.642 0.179,-0.138 0.275,-0.213 0.275,-0.213 0,0 -0.104,0.061 -0.301,0.176 -0.203,0.107 -0.477,0.298 -0.819,0.556 -0.163,0.14 -0.343,0.294 -0.538,0.462 -0.183,0.181 -0.387,0.373 -0.595,0.587 -0.406,0.436 -0.854,0.944 -1.28,1.543 -0.442,0.587 -0.869,1.259 -1.298,1.983 -0.414,0.731 -0.846,1.508 -1.224,2.343 -0.388,0.83 -0.768,1.698 -1.099,2.601 -0.343,0.899 -0.644,1.829 -0.932,2.762 -0.265,0.94 -0.519,1.884 -0.72,2.824 -0.215,0.937 -0.364,1.873 -0.5,2.779 -0.126,0.907 -0.218,1.788 -0.261,2.627 -0.058,0.838 -0.057,1.634 -0.04,2.366 0.008,0.366 0.032,0.717 0.052,1.05 0.027,0.332 0.068,0.647 0.098,0.942 0.081,0.59 0.157,1.101 0.252,1.519 0.075,0.42 0.178,0.737 0.238,0.957 0.062,0.218 0.095,0.335 0.095,0.335"
           style="fill:#ffffff;fill-opacity:1;fill-rule:nonzero;stroke:none;stroke-width:0.1"
           id="path6655" />
        <path
           d="m 273.86348,-158.95543 c 0,0 0.019,-0.332 0.02,-0.955 -0.004,-0.622 -0.023,-1.539 -0.179,-2.695 -0.141,-1.162 -0.498,-2.535 -0.853,-4.109 -0.362,-1.577 -0.769,-3.356 -1.233,-5.292 -0.927,-3.873 -1.972,-8.399 -3.157,-13.233 -0.296,-1.209 -0.597,-2.437 -0.901,-3.681 -0.306,-1.251 -0.618,-2.492 -0.895,-3.771 -0.546,-2.545 -0.962,-5.144 -1.179,-7.77 -0.242,-2.623 -0.279,-5.265 -0.148,-7.858 0.128,-2.593 0.414,-5.139 0.782,-7.59 0.747,-4.902 1.729,-9.443 2.569,-13.333 0.21,-0.973 0.411,-1.906 0.603,-2.792 0.093,-0.445 0.184,-0.877 0.272,-1.298 0.079,-0.437 0.138,-0.84 0.194,-1.249 0.21,-1.615 0.247,-3.034 0.223,-4.198 -0.025,-1.165 -0.124,-2.075 -0.198,-2.693 -0.076,-0.618 -0.13,-0.946 -0.13,-0.946 0,0 0.038,0.33 0.084,0.95 0.048,0.62 0.091,1.531 0.08,2.69 -0.017,1.157 -0.104,2.563 -0.369,4.15 -0.067,0.391 -0.145,0.811 -0.233,1.217 -0.103,0.417 -0.209,0.846 -0.318,1.286 -0.213,0.882 -0.436,1.81 -0.67,2.777 -0.461,1.938 -0.967,4.035 -1.458,6.267 -0.493,2.23 -0.994,4.59 -1.371,7.06 -0.388,2.468 -0.696,5.036 -0.844,7.662 -0.152,2.624 -0.136,5.305 0.095,7.97 0.238,2.664 0.682,5.313 1.252,7.872 0.285,1.274 0.614,2.544 0.925,3.779 0.314,1.242 0.623,2.468 0.928,3.675 1.216,4.826 2.412,9.315 3.406,13.171 0.496,1.928 0.969,3.69 1.388,5.253 0.413,1.567 0.815,2.916 0.994,4.059 0.191,1.141 0.266,2.051 0.295,2.672 0.029,0.62 0.026,0.953 0.026,0.953"
           style="fill:#ffffff;fill-opacity:1;fill-rule:nonzero;stroke:none;stroke-width:0.1"
           id="path6657" />
        <path
           d="m 275.48348,-282.54443 c 0.635,-0.054 1.282,0.059 1.849,0.345 0.568,0.283 1.05,0.729 1.383,1.265 0.334,0.536 0.522,1.164 0.525,1.795 0.006,0.63 -0.18,1.257 -0.516,1.788 l -0.995,1.628 c -0.304,0.56 -0.585,1.135 -0.879,1.702 -0.251,0.586 -0.502,1.173 -0.744,1.763 -0.205,0.604 -0.431,1.202 -0.618,1.811 -0.746,2.442 -1.187,4.971 -1.413,7.512 -0.233,2.543 -0.19,5.106 -0.083,7.647 0.205,5.088 0.642,10.17 1.062,15.24 0.424,5.073 0.906,10.141 1.382,15.209 0.51,5.065 0.995,10.133 1.545,15.194 l 0.813,7.592 0.866,7.587 c 0.564,5.059 1.183,10.112 1.791,15.166 0.594,5.056 1.251,10.104 1.887,15.154 0.626,5.052 1.306,10.097 1.978,15.143 l 1.015,7.568 1.074,7.56 c 0.72,5.039 1.414,10.082 2.18,15.115 l 2.257,15.103 2.358,15.088 0.591,3.772 0.626,3.766 1.251,7.532 1.252,7.533 c 0.415,2.511 0.867,5.016 1.299,7.524 l 2.621,15.044 10e-4,0.007 0.002,0.01 c 0.379,1.528 0.692,3.084 0.967,4.641 0.135,0.78 0.258,1.562 0.372,2.346 0.108,0.784 0.208,1.569 0.293,2.356 0.081,0.787 0.16,1.575 0.211,2.364 0.063,0.79 0.093,1.581 0.123,2.371 l 0.024,1.187 -0.01,1.187 c 0.002,0.396 -0.023,0.79 -0.039,1.186 -0.016,0.395 -0.032,0.791 -0.07,1.184 -0.036,0.394 -0.057,0.79 -0.105,1.182 l -0.147,1.178 c -0.129,0.779 -0.25,1.562 -0.443,2.329 l -0.134,0.578 c -0.05,0.191 -0.11,0.379 -0.165,0.569 -0.12,0.377 -0.207,0.765 -0.358,1.13 -0.143,0.369 -0.269,0.744 -0.425,1.107 l -0.503,1.074 c -0.189,0.346 -0.395,0.684 -0.592,1.027 -0.198,0.343 -0.455,0.646 -0.68,0.971 -0.216,0.333 -0.511,0.601 -0.769,0.9 -0.253,0.307 -0.559,0.558 -0.86,0.816 l -0.449,0.388 -0.494,0.329 c -0.329,0.22 -0.652,0.451 -1.018,0.609 l -0.532,0.264 c -0.176,0.092 -0.355,0.178 -0.546,0.235 l -1.123,0.39 1.128,-0.377 c 0.192,-0.055 0.372,-0.139 0.549,-0.229 l 0.537,-0.258 c 0.368,-0.154 0.695,-0.382 1.028,-0.599 l 0.5,-0.325 0.456,-0.385 c 0.305,-0.255 0.616,-0.505 0.874,-0.81 0.263,-0.297 0.564,-0.565 0.785,-0.897 0.23,-0.324 0.493,-0.627 0.696,-0.97 0.202,-0.342 0.413,-0.681 0.609,-1.027 l 0.519,-1.076 c 0.161,-0.364 0.293,-0.74 0.44,-1.11 0.157,-0.367 0.249,-0.756 0.374,-1.133 0.058,-0.191 0.121,-0.38 0.174,-0.572 l 0.141,-0.58 c 0.204,-0.77 0.334,-1.556 0.474,-2.34 l 0.161,-1.182 c 0.053,-0.395 0.078,-0.792 0.119,-1.188 0.043,-0.396 0.064,-0.793 0.085,-1.19 0.02,-0.397 0.05,-0.794 0.053,-1.192 l 0.024,-1.193 -0.01,-1.193 c -0.021,-0.795 -0.042,-1.591 -0.096,-2.384 -0.042,-0.795 -0.112,-1.587 -0.184,-2.379 -0.076,-0.792 -0.168,-1.582 -0.268,-2.371 -0.105,-0.789 -0.219,-1.576 -0.345,-2.361 -0.259,-1.571 -0.552,-3.132 -0.93,-4.686 l 0.003,0.017 -2.521,-15.058 c -0.415,-2.511 -0.851,-5.018 -1.25,-7.531 l -1.201,-7.539 c -0.794,-5.027 -1.621,-10.048 -2.386,-15.079 l -2.324,-15.09 -2.224,-15.104 c -0.754,-5.032 -1.437,-10.076 -2.146,-15.115 l -1.057,-7.56 -1.016,-7.565 c -0.683,-5.043 -1.374,-10.085 -2.011,-15.134 -0.646,-5.047 -1.314,-10.093 -1.919,-15.145 -0.618,-5.052 -1.248,-10.101 -1.823,-15.158 l -0.882,-7.582 -0.848,-7.586 c -0.583,-5.055 -1.101,-10.118 -1.643,-15.178 -0.509,-5.063 -1.024,-10.126 -1.481,-15.194 -0.454,-5.07 -0.915,-10.132 -1.189,-15.212 -0.137,-2.541 -0.209,-5.079 -0.007,-7.611 0.196,-2.528 0.605,-5.045 1.318,-7.482 0.705,-2.441 1.755,-4.77 3.143,-6.909 0.337,-0.548 0.52,-1.192 0.506,-1.835 -0.01,-0.643 -0.209,-1.278 -0.554,-1.817 -0.344,-0.54 -0.835,-0.984 -1.41,-1.262 -0.574,-0.281 -1.226,-0.386 -1.859,-0.325"
           style="fill:#ffffff;fill-opacity:1;fill-rule:nonzero;stroke:none;stroke-width:0.1"
           id="path6659" />
      </g>
    </g>
  </g>
</svg>
