<?xml version="1.0" encoding="UTF-8" standalone="no"?>
<svg
   xmlns:dc="http://purl.org/dc/elements/1.1/"
   xmlns:cc="http://creativecommons.org/ns#"
   xmlns:rdf="http://www.w3.org/1999/02/22-rdf-syntax-ns#"
   xmlns:svg="http://www.w3.org/2000/svg"
   xmlns="http://www.w3.org/2000/svg"
   xmlns:sodipodi="http://sodipodi.sourceforge.net/DTD/sodipodi-0.dtd"
   xmlns:inkscape="http://www.inkscape.org/namespaces/inkscape"
   width="103.1875mm"
   height="103.1875mm"
   viewBox="0 0 103.1875 103.1875"
   version="1.1"
   id="svg7543"
   inkscape:version="1.0.1 (3bc2e813f5, 2020-09-07)"
   sodipodi:docname="shave-stamp.svg">
  <defs
     id="defs7537" />
  <sodipodi:namedview
     id="base"
     pagecolor="#ffffff"
     bordercolor="#666666"
     borderopacity="1.0"
     inkscape:pageopacity="0.0"
     inkscape:pageshadow="2"
     inkscape:zoom="0.34074713"
     inkscape:cx="188.83032"
     inkscape:cy="234.66702"
     inkscape:document-units="mm"
     inkscape:current-layer="layer1"
     inkscape:document-rotation="0"
     showgrid="false"
     inkscape:window-width="1920"
     inkscape:window-height="1017"
     inkscape:window-x="-8"
     inkscape:window-y="-8"
     inkscape:window-maximized="1"
     fit-margin-top="0"
     fit-margin-left="0"
     fit-margin-right="0"
     fit-margin-bottom="0" />
  <metadata
     id="metadata7540">
    <rdf:RDF>
      <cc:Work
         rdf:about="">
        <dc:format>image/svg+xml</dc:format>
        <dc:type
           rdf:resource="http://purl.org/dc/dcmitype/StillImage" />
        <dc:title></dc:title>
      </cc:Work>
    </rdf:RDF>
  </metadata>
  <g
     inkscape:label="Calque 1"
     inkscape:groupmode="layer"
     id="layer1"
     transform="translate(-55.871977,-86.077683)">
    <g
       id="g7437"
       transform="matrix(0.43372675,0,0,-0.44953681,-135.39326,705.29023)">
      <g
         id="g7346"
         transform="rotate(118.26296,567.08107,1281.5654)">
        <path
           d="m 627.08668,1298.7727 c -2.333,0.862 -11.11,4.454 -14.312,10.765 -2.202,4.34 -3.929,4.863 -5.243,4.362 -1.313,-0.5 -2.003,-1.948 -1.699,-3.319 1.431,-6.456 -0.128,-10.142 -2.534,-12.191 -3.168,-2.699 -7.883,-2.533 -11.023,0.197 -8.006,6.964 -14.362,12.412 -20.628,16.832 -7.001,4.94 -22.411,6.756 -24.934,7.522 -0.631,0.192 -2.158,1.105 -2.737,1.878 -2.322,3.1 -2.33,6.577 -0.586,10.036 l 7.519,18.163 -9.687,24.531 -2.337,4.905 c -0.23,0.582 -0.9,0.854 -1.471,0.596 l -0.151,-0.068 2.538,-5.931 -3.111,5.672 -0.761,-0.344 2.198,-6.084 -3.111,5.672 -0.761,-0.344 2.198,-6.084 -3.11,5.672 -0.762,-0.344 2.198,-6.084 -3.11,5.672 -0.7621,-0.343 2.1991,-6.085 -3.1112,5.673 -0.7618,-0.344 2.1989,-6.085 -3.111,5.673 -0.7617,-0.344 2.1984,-6.085 -3.1105,5.673 -0.7617,-0.344 2.1984,-6.085 -3.1105,5.673 -0.7618,-0.344 2.1985,-6.084 -3.1106,5.672 -0.7617,-0.344 2.1985,-6.084 -3.111,5.672 -0.7613,-0.344 2.1984,-6.084 -3.1109,5.672 -0.7613,-0.344 2.1984,-6.084 -3.1109,5.672 -0.7618,-0.344 2.1989,-6.084 -3.111,5.673 -0.7617,-0.344 2.1985,-6.085 -3.1106,5.673 -0.7617,-0.344 2.1984,-6.085 -3.1105,5.673 -0.7617,-0.344 2.1984,-6.085 -3.1105,5.673 -0.7618,-0.344 2.1985,-6.085 -3.1106,5.673 -0.7617,-0.344 2.1984,-6.084 -3.1105,5.672 -0.7617,-0.344 2.1984,-6.084 -3.1105,5.672 -0.7618,-0.344 2.1985,-6.084 -3.111,5.672 -0.7617,-0.344 2.1989,-6.084 -3.111,5.672 -0.7617,-0.344 2.1984,-6.084 -3.1105,5.673 -0.7617,-0.344 2.1984,-6.085 -3.1105,5.673 -0.7618,-0.344 2.1985,-6.085 -3.1106,5.673 -0.7617,-0.344 2.1985,-6.085 -3.1106,5.673 -0.7617,-0.344 2.1984,-6.085 -3.1105,5.673 -0.7617,-0.344 2.1984,-6.084 -3.1109,5.672 -0.7618,-0.344 2.1989,-6.084 -3.111,5.672 -0.7617,-0.344 2.1988,-6.084 -2.7718,5.826 v 0 c -0.5657,-0.256 -0.8075,-0.927 -0.5321,-1.483 0.5426,-1.099 1.0078,-2.866 2.0446,-4.916 2.7152,-5.369 7.0281,-13.73 12.441,-23.662 17.9472,-3.822 32.7637,-11.358 44.0897,-16.541 2.707,-1.238 5.638,-1.924 8.613,-2.015 9.368,-0.289 10.376,-3.035 10.376,-3.035 l -4.423,-3.409 c -0.628,-0.484 -0.829,-1.343 -0.481,-2.056 l 2.282,-4.682 c 0.437,-0.896 1.554,-1.213 2.396,-0.68 l 5.055,3.199 c 0,0 13.033,-1.736 35.678,-27.169 22.645,-25.432 27.857,-45.904 30.602,-52.286 2.042,-2.412 3.713,-2.27 4.874,-1.525 1.245,0.8 1.746,2.372 1.322,3.791 -7.778,26.06 -27.461,49.034 -33.914,56.244 -4.711,5.109 -7.764,8.301 -3.317,13.724 4.79,5.841 15.4,0.557 18.962,0.805 2.079,0.145 2.22,0.989 1.977,1.668 -0.184,0.513 -0.608,0.9 -1.12,1.089"
           style="fill:#172330;fill-opacity:1;fill-rule:nonzero;stroke:none;stroke-width:0.1"
           id="path6950" />
        <path
           d="m 545.92668,1357.2337 -5.71,12.768 -40.9138,-18.475 5.8203,-12.888 c 10.3348,4.823 16.2707,-4.212 16.4523,-8.996 0.0621,-1.637 0.6141,-3.237 1.7297,-4.435 6.582,-7.07 -0.3418,-22.382 -1.0242,-24.188 -0.7441,-1.969 2.1332,-26.075 3.4711,-41.395 1.3379,-15.319 -0.8758,-17.952 -9.1242,-20.18 -8.2492,-2.228 -23.7403,-2.282 -20.6262,-9.178 3.1145,-6.897 9.6672,-5.434 13.675,-3.76 4.0078,1.673 14.434,8.423 18.0223,10.724 1.298,-32.883 12.8187,-49.66 17.3817,-55.061 1.404,-1.662 3.594,-2.508 5.726,-2.073 1.595,0.326 2.971,1.291 2.49,3.774 -0.231,1.19 -0.818,2.286 -1.647,3.17 -21.0054,22.394 -18.469,57.194 -20.8433,74.05 -2.4063,17.083 -0.1723,20.036 0.9483,21.512 1.305,1.719 2.524,2.773 6.423,3.457 1.323,4 -1.204,7.486 -1.204,7.486 0,0 -4.248,0.668 -7.6173,-0.309 -0.4832,1.71 -0.6902,2.657 0.3246,6.846 1.0133,4.185 2.7577,8.164 5.1447,11.748 6.468,9.712 9.119,15.954 10.129,19.817 0.663,2.537 -0.142,5.253 -2.153,6.935 -1.381,1.156 -3.062,3.056 -4.367,5.98 -3.472,7.778 7.492,12.671 7.492,12.671"
           style="fill:#172330;fill-opacity:1;fill-rule:nonzero;stroke:none;stroke-width:0.1"
           id="path6952" />
        <path
           d="m 520.31498,1329.8177 c 0,0 -0.227,0.064 -0.6246,0.175 -0.3957,0.114 -0.9614,0.277 -1.6399,0.473 -1.3554,0.392 -3.1629,0.914 -4.9699,1.437 -1.8105,0.51 -3.6215,1.02 -4.9797,1.402 -0.6801,0.19 -1.2472,0.348 -1.6441,0.459 -0.3965,0.113 -0.6231,0.178 -0.6231,0.178 0,0 0.2325,-0.039 0.6395,-0.108 0.4051,-0.076 0.9867,-0.174 1.6773,-0.326 0.691,-0.149 1.4981,-0.322 2.3559,-0.535 0.4281,-0.11 0.873,-0.215 1.3199,-0.339 0.4473,-0.123 0.902,-0.248 1.3563,-0.373 0.9054,-0.265 1.8086,-0.534 2.6484,-0.81 0.841,-0.272 1.618,-0.551 2.284,-0.787 0.6668,-0.234 1.2137,-0.457 1.5988,-0.603 0.3824,-0.155 0.6012,-0.243 0.6012,-0.243"
           style="fill:#ffffff;fill-opacity:1;fill-rule:nonzero;stroke:none;stroke-width:0.1"
           id="path6954" />
        <path
           d="m 547.19068,1355.2337 0.909,-2.193 -5.435,-13.13 c 0,0 4.607,12.612 4.526,15.323"
           style="fill:#ffffff;fill-opacity:1;fill-rule:nonzero;stroke:none;stroke-width:0.1"
           id="path6956" />
        <path
           d="m 493.18608,1363.0847 2.5261,-6.36 -0.3492,-0.128 z"
           style="fill:#ffffff;fill-opacity:1;fill-rule:nonzero;stroke:none;stroke-width:0.1"
           id="path6958" />
        <path
           d="m 494.36338,1363.6087 2.5262,-6.36 -0.3492,-0.128 z"
           style="fill:#ffffff;fill-opacity:1;fill-rule:nonzero;stroke:none;stroke-width:0.1"
           id="path6960" />
        <path
           d="m 496.03718,1364.3647 2.5262,-6.36 -0.3492,-0.128 z"
           style="fill:#ffffff;fill-opacity:1;fill-rule:nonzero;stroke:none;stroke-width:0.1"
           id="path6962" />
        <path
           d="m 497.71108,1365.1207 2.5265,-6.36 -0.3496,-0.128 z"
           style="fill:#ffffff;fill-opacity:1;fill-rule:nonzero;stroke:none;stroke-width:0.1"
           id="path6964" />
        <path
           d="m 499.38488,1365.8767 2.5266,-6.36 -0.3496,-0.128 z"
           style="fill:#ffffff;fill-opacity:1;fill-rule:nonzero;stroke:none;stroke-width:0.1"
           id="path6966" />
        <path
           d="m 501.05868,1366.6317 2.5266,-6.359 -0.3496,-0.128 z"
           style="fill:#ffffff;fill-opacity:1;fill-rule:nonzero;stroke:none;stroke-width:0.1"
           id="path6968" />
        <path
           d="m 502.73298,1367.3877 2.5261,-6.359 -0.3496,-0.128 z"
           style="fill:#ffffff;fill-opacity:1;fill-rule:nonzero;stroke:none;stroke-width:0.1"
           id="path6970" />
        <path
           d="m 504.40678,1368.1437 2.5262,-6.359 -0.3497,-0.128 z"
           style="fill:#ffffff;fill-opacity:1;fill-rule:nonzero;stroke:none;stroke-width:0.1"
           id="path6972" />
        <path
           d="m 506.08058,1368.8997 2.5262,-6.36 -0.3492,-0.127 z"
           style="fill:#ffffff;fill-opacity:1;fill-rule:nonzero;stroke:none;stroke-width:0.1"
           id="path6974" />
        <path
           d="m 507.75438,1369.6557 2.5266,-6.36 -0.3496,-0.128 z"
           style="fill:#ffffff;fill-opacity:1;fill-rule:nonzero;stroke:none;stroke-width:0.1"
           id="path6976" />
        <path
           d="m 509.42828,1370.4117 2.5261,-6.36 -0.3492,-0.128 z"
           style="fill:#ffffff;fill-opacity:1;fill-rule:nonzero;stroke:none;stroke-width:0.1"
           id="path6978" />
        <path
           d="m 511.10208,1371.1677 2.5266,-6.36 -0.3497,-0.128 z"
           style="fill:#ffffff;fill-opacity:1;fill-rule:nonzero;stroke:none;stroke-width:0.1"
           id="path6980" />
        <path
           d="m 512.77588,1371.9237 2.5266,-6.36 -0.3496,-0.128 z"
           style="fill:#ffffff;fill-opacity:1;fill-rule:nonzero;stroke:none;stroke-width:0.1"
           id="path6982" />
        <path
           d="m 514.44968,1372.6797 2.5266,-6.36 -0.3496,-0.128 z"
           style="fill:#ffffff;fill-opacity:1;fill-rule:nonzero;stroke:none;stroke-width:0.1"
           id="path6984" />
        <path
           d="m 516.12358,1373.4347 2.5265,-6.359 -0.3496,-0.128 z"
           style="fill:#ffffff;fill-opacity:1;fill-rule:nonzero;stroke:none;stroke-width:0.1"
           id="path6986" />
        <path
           d="m 517.79778,1374.1907 2.5262,-6.359 -0.3493,-0.128 z"
           style="fill:#ffffff;fill-opacity:1;fill-rule:nonzero;stroke:none;stroke-width:0.1"
           id="path6988" />
        <path
           d="m 519.47158,1374.9467 2.5262,-6.359 -0.3492,-0.128 z"
           style="fill:#ffffff;fill-opacity:1;fill-rule:nonzero;stroke:none;stroke-width:0.1"
           id="path6990" />
        <path
           d="m 521.14548,1375.7027 2.5261,-6.36 -0.3492,-0.128 z"
           style="fill:#ffffff;fill-opacity:1;fill-rule:nonzero;stroke:none;stroke-width:0.1"
           id="path6992" />
        <path
           d="m 522.81928,1376.4587 2.5262,-6.36 -0.3493,-0.128 z"
           style="fill:#ffffff;fill-opacity:1;fill-rule:nonzero;stroke:none;stroke-width:0.1"
           id="path6994" />
        <path
           d="m 524.49308,1377.2147 2.5266,-6.36 -0.3496,-0.128 z"
           style="fill:#ffffff;fill-opacity:1;fill-rule:nonzero;stroke:none;stroke-width:0.1"
           id="path6996" />
        <path
           d="m 526.16688,1377.9707 2.5266,-6.36 -0.3496,-0.128 z"
           style="fill:#ffffff;fill-opacity:1;fill-rule:nonzero;stroke:none;stroke-width:0.1"
           id="path6998" />
        <path
           d="m 527.84078,1378.7267 2.5265,-6.36 -0.3496,-0.128 z"
           style="fill:#ffffff;fill-opacity:1;fill-rule:nonzero;stroke:none;stroke-width:0.1"
           id="path7000" />
        <path
           d="m 529.51498,1379.4817 2.5257,-6.359 -0.349,-0.128 z"
           style="fill:#ffffff;fill-opacity:1;fill-rule:nonzero;stroke:none;stroke-width:0.1"
           id="path7002" />
        <path
           d="m 531.18878,1380.2377 2.5259,-6.359 -0.349,-0.128 z"
           style="fill:#ffffff;fill-opacity:1;fill-rule:nonzero;stroke:none;stroke-width:0.1"
           id="path7004" />
        <path
           d="m 532.86268,1380.9937 2.526,-6.359 -0.349,-0.128 z"
           style="fill:#ffffff;fill-opacity:1;fill-rule:nonzero;stroke:none;stroke-width:0.1"
           id="path7006" />
        <path
           d="m 534.53668,1381.7497 2.526,-6.359 -0.349,-0.128 z"
           style="fill:#ffffff;fill-opacity:1;fill-rule:nonzero;stroke:none;stroke-width:0.1"
           id="path7008" />
        <path
           d="m 536.21068,1382.5057 2.526,-6.36 -0.349,-0.128 z"
           style="fill:#ffffff;fill-opacity:1;fill-rule:nonzero;stroke:none;stroke-width:0.1"
           id="path7010" />
        <path
           d="m 537.54468,1383.1087 2.799,-6.09 -0.342,-0.146 z"
           style="fill:#ffffff;fill-opacity:1;fill-rule:nonzero;stroke:none;stroke-width:0.1"
           id="path7012" />
        <path
           d="m 539.40268,1319.1867 c 0,0 0.265,0.486 0.761,1.397 0.492,0.914 1.194,2.265 2.015,4.018 0.809,1.755 1.755,3.918 2.484,6.505 0.185,0.652 0.339,1.315 0.357,2.016 0.022,0.701 -0.065,1.424 -0.273,2.131 -0.204,0.708 -0.54,1.396 -0.994,2.019 -0.224,0.314 -0.488,0.603 -0.771,0.877 -0.286,0.262 -0.614,0.525 -0.922,0.816 -1.231,1.152 -2.31,2.562 -3.178,4.154 -0.429,0.805 -0.846,1.607 -1.114,2.547 -0.25,0.92 -0.354,1.913 -0.209,2.894 0.131,0.983 0.487,1.938 0.985,2.812 0.501,0.875 1.139,1.672 1.856,2.397 0.716,0.727 1.513,1.382 2.359,1.979 0.424,0.297 0.86,0.581 1.307,0.85 0.216,0.132 0.468,0.268 0.661,0.389 0.141,0.099 0.289,0.269 0.365,0.448 0.081,0.184 0.109,0.389 0.081,0.587 -0.016,0.099 -0.045,0.196 -0.084,0.289 l -0.16,0.357 c -0.215,0.477 -0.43,0.956 -0.646,1.437 -0.432,0.961 -0.868,1.93 -1.306,2.904 -0.438,0.975 -0.878,1.955 -1.321,2.94 -0.221,0.493 -0.443,0.987 -0.666,1.482 l -0.334,0.743 c -0.113,0.242 -0.222,0.533 -0.331,0.641 -0.258,0.32 -0.718,0.461 -1.111,0.338 -0.051,-0.012 -0.093,-0.035 -0.147,-0.055 l -0.187,-0.085 -0.374,-0.169 -0.749,-0.34 c -0.999,-0.454 -2.002,-0.909 -3.006,-1.365 -2.008,-0.911 -4.0248,-1.826 -6.0412,-2.742 -8.0797,-3.63 -16.159,-7.26 -23.7336,-10.663 -0.9469,-0.426 -1.8855,-0.848 -2.8156,-1.266 -0.4652,-0.208 -0.9277,-0.416 -1.3883,-0.623 -0.3961,-0.154 -0.65,-0.495 -0.7015,-0.889 -0.0282,-0.194 0.005,-0.392 0.0792,-0.572 0.1004,-0.227 0.2,-0.452 0.3,-0.677 0.2004,-0.451 0.4,-0.9 0.5985,-1.346 0.3969,-0.892 0.7887,-1.773 1.175,-2.643 0.7734,-1.739 1.5254,-3.43 2.2527,-5.066 0.091,-0.205 0.1817,-0.408 0.2719,-0.611 l 0.0297,-0.066 0.0371,-0.074 c 0.0258,-0.055 0.0469,-0.075 0.0687,-0.115 0.0539,-0.073 0.1125,-0.145 0.1825,-0.205 0.2714,-0.249 0.6644,-0.353 1.0164,-0.274 0.0449,0.01 0.0875,0.022 0.1304,0.036 l 0.1543,0.051 0.3051,0.102 c 0.2055,0.065 0.3988,0.144 0.6113,0.196 0.4188,0.114 0.8329,0.227 1.2485,0.298 1.6554,0.328 3.3195,0.276 4.8094,-0.119 0.7437,-0.202 1.4437,-0.481 2.0902,-0.816 0.6445,-0.34 1.2285,-0.742 1.7613,-1.169 1.0613,-0.862 1.8918,-1.85 2.5352,-2.833 0.6437,-0.986 1.1011,-1.973 1.4105,-2.898 0.311,-0.923 0.4613,-1.792 0.4836,-2.548 0.0231,-0.749 0.143,-1.38 0.2863,-1.877 0.1434,-0.498 0.3036,-0.864 0.4211,-1.104 0.1176,-0.241 0.1891,-0.36 0.1891,-0.36 0,0 -0.0742,0.117 -0.198,0.355 -0.1239,0.238 -0.2938,0.601 -0.4508,1.097 -0.1567,0.496 -0.2938,1.13 -0.3367,1.885 -0.043,0.747 -0.2083,1.598 -0.5317,2.505 -0.3223,0.907 -0.7926,1.872 -1.4445,2.831 -0.6516,0.956 -1.4856,1.909 -2.5367,2.731 -0.5274,0.406 -1.1028,0.786 -1.7336,1.103 -0.6328,0.313 -1.3141,0.569 -2.0344,0.751 -1.4426,0.353 -3.041,0.393 -4.6399,0.055 -0.4031,-0.074 -0.7972,-0.186 -1.1949,-0.3 -0.1992,-0.049 -0.4008,-0.134 -0.6027,-0.2 l -0.3035,-0.106 -0.152,-0.052 c -0.0594,-0.02 -0.1183,-0.04 -0.1804,-0.052 -0.4907,-0.115 -1.0372,0.023 -1.42,0.365 -0.098,0.083 -0.1812,0.181 -0.2586,0.285 -0.0347,0.055 -0.0824,0.123 -0.1035,0.169 l -0.0379,0.073 -0.0402,0.086 c -0.0926,0.202 -0.1855,0.404 -0.2789,0.608 -0.7461,1.627 -1.518,3.31 -2.3109,5.04 -0.3969,0.865 -0.7989,1.741 -1.2059,2.629 -0.2035,0.444 -0.4078,0.89 -0.6141,1.339 -0.1031,0.226 -0.2066,0.452 -0.3101,0.679 -0.1199,0.275 -0.1731,0.586 -0.1344,0.888 0.0324,0.303 0.1543,0.594 0.3375,0.839 0.0945,0.121 0.2023,0.232 0.3258,0.325 0.0594,0.045 0.1433,0.098 0.2023,0.132 l 0.084,0.044 0.0567,0.027 0.0429,0.02 c 0.4598,0.209 0.9219,0.418 1.386,0.629 0.9285,0.422 1.8656,0.847 2.8109,1.276 7.5617,3.432 15.6273,7.092 23.6934,10.753 2.0199,0.907 4.04,1.815 6.052,2.719 1.006,0.452 2.01,0.903 3.011,1.353 l 0.75,0.337 0.375,0.168 0.187,0.084 c 0.074,0.029 0.155,0.067 0.237,0.087 0.659,0.202 1.416,-0.034 1.844,-0.568 0.054,-0.062 0.106,-0.138 0.154,-0.22 0.049,-0.084 0.06,-0.109 0.106,-0.207 l 0.166,-0.372 0.331,-0.745 c 0.221,-0.496 0.441,-0.99 0.66,-1.484 0.44,-0.987 0.876,-1.969 1.311,-2.945 0.434,-0.976 0.865,-1.946 1.294,-2.909 0.214,-0.482 0.428,-0.962 0.64,-1.44 l 0.16,-0.358 c 0.063,-0.148 0.108,-0.302 0.132,-0.462 0.044,-0.318 -0.003,-0.646 -0.132,-0.938 -0.135,-0.295 -0.33,-0.537 -0.615,-0.732 -0.246,-0.151 -0.45,-0.257 -0.673,-0.393 -0.435,-0.26 -0.86,-0.534 -1.272,-0.821 -0.821,-0.577 -1.597,-1.201 -2.292,-1.889 -1.387,-1.364 -2.473,-3.035 -2.736,-4.857 -0.144,-0.903 -0.059,-1.818 0.164,-2.682 0.225,-0.845 0.638,-1.68 1.043,-2.455 0.829,-1.561 1.863,-2.946 3.045,-4.078 0.293,-0.282 0.604,-0.537 0.914,-0.827 0.298,-0.295 0.574,-0.605 0.808,-0.941 0.474,-0.667 0.823,-1.398 1.022,-2.15 0.205,-0.749 0.281,-1.509 0.245,-2.241 -0.033,-0.736 -0.212,-1.437 -0.407,-2.078 -0.785,-2.599 -1.775,-4.747 -2.619,-6.492 -0.851,-1.743 -1.597,-3.072 -2.11,-3.975 -0.519,-0.899 -0.796,-1.378 -0.796,-1.378"
           style="fill:#ffffff;fill-opacity:1;fill-rule:nonzero;stroke:none;stroke-width:0.1"
           id="path7014" />
        <path
           d="m 507.74938,1340.4457 c 0,0 0.2949,0.111 0.8113,0.304 0.2652,0.073 0.5879,0.182 0.9668,0.265 0.1902,0.039 0.393,0.08 0.6062,0.124 0.2149,0.036 0.4438,0.057 0.6821,0.088 0.4777,0.048 1.0007,0.068 1.5543,0.037 0.2765,-0.015 0.5597,-0.051 0.8504,-0.082 0.2863,-0.055 0.5839,-0.093 0.8765,-0.177 0.5926,-0.138 1.1867,-0.355 1.7699,-0.618 0.5766,-0.278 1.1383,-0.607 1.6692,-0.981 0.5199,-0.389 1.0094,-0.815 1.4558,-1.269 0.4434,-0.456 0.8332,-0.947 1.184,-1.438 0.6899,-0.991 1.1879,-2.008 1.4957,-2.916 0.1641,-0.451 0.2676,-0.879 0.3524,-1.258 0.0785,-0.381 0.1203,-0.716 0.1465,-0.993 0.0191,-0.277 0.0253,-0.494 0.0187,-0.643 -0.003,-0.148 -0.004,-0.226 -0.004,-0.226 0,0 -0.0129,0.077 -0.0363,0.223 -0.0176,0.146 -0.0696,0.357 -0.1246,0.623 -0.0657,0.265 -0.1579,0.583 -0.275,0.941 -0.1289,0.356 -0.2786,0.754 -0.4747,1.174 -0.1894,0.422 -0.43,0.862 -0.6949,1.318 -0.2683,0.455 -0.5906,0.909 -0.932,1.369 -0.3484,0.456 -0.7496,0.891 -1.1668,1.321 -0.4262,0.422 -0.8918,0.814 -1.3813,1.172 -0.4906,0.355 -1.0101,0.669 -1.5429,0.936 -0.541,0.246 -1.0789,0.487 -1.6293,0.634 -0.2699,0.092 -0.5481,0.132 -0.8129,0.206 -0.2699,0.047 -0.5348,0.1 -0.7949,0.133 -0.5211,0.06 -1.0196,0.09 -1.4817,0.09 -0.2312,-0.01 -0.4531,-0.013 -0.664,-0.019 -0.2114,-0.017 -0.4118,-0.034 -0.6,-0.049 -0.3758,-0.039 -0.7012,-0.093 -0.9739,-0.127 -0.5414,-0.103 -0.8507,-0.162 -0.8507,-0.162"
           style="fill:#ffffff;fill-opacity:1;fill-rule:nonzero;stroke:none;stroke-width:0.1"
           id="path7016" />
        <path
           d="m 522.67628,1360.5727 15.2104,6.868 c 0.708,0.32 1.541,0 1.858,-0.705 l 1.628,-3.641 c 0,0 -3.039,4.548 -18.6964,-2.522"
           style="fill:#ffffff;fill-opacity:1;fill-rule:nonzero;stroke:none;stroke-width:0.1"
           id="path7018" />
        <path
           d="m 542.58368,1331.4087 c 0,0 0.014,0.128 0.038,0.368 0.027,0.241 0.038,0.586 0.028,1.026 -0.023,0.439 -0.087,0.966 -0.237,1.546 -0.154,0.577 -0.408,1.202 -0.78,1.816 -0.372,0.615 -0.894,1.195 -1.521,1.696 -0.709,0.547 -1.441,1.215 -2.082,1.971 -0.648,0.758 -1.265,1.589 -1.78,2.5 -0.258,0.454 -0.506,0.918 -0.729,1.396 l -0.085,0.179 -0.042,0.09 -0.048,0.113 -0.146,0.354 c -0.05,0.11 -0.096,0.249 -0.142,0.389 -0.044,0.138 -0.093,0.277 -0.132,0.416 -0.282,1.086 -0.348,2.246 -0.145,3.336 0.094,0.545 0.25,1.073 0.459,1.565 0.2,0.495 0.441,0.961 0.71,1.394 0.525,0.877 1.176,1.608 1.819,2.251 0.648,0.642 1.32,1.173 1.96,1.626 0.639,0.455 1.257,0.821 1.816,1.119 0.28,0.148 0.542,0.285 0.793,0.396 l 0.047,0.022 0.011,0.01 c 0.01,0 -0.006,0 -0.003,0 h 0.006 l 0.022,0.012 0.088,0.044 c 0.044,0.029 0.088,0.049 0.131,0.084 0.089,0.063 0.161,0.139 0.227,0.216 0.252,0.318 0.309,0.674 0.293,0.903 -0.015,0.234 -0.062,0.358 -0.062,0.358 0,0 0.015,-0.028 0.045,-0.083 0.029,-0.056 0.069,-0.141 0.101,-0.261 0.061,-0.233 0.107,-0.636 -0.132,-1.079 -0.061,-0.107 -0.134,-0.218 -0.232,-0.318 -0.044,-0.052 -0.107,-0.102 -0.164,-0.153 l -0.078,-0.059 -0.09,-0.063 c -0.218,-0.153 -0.455,-0.317 -0.701,-0.501 -0.493,-0.368 -1.027,-0.81 -1.589,-1.306 -0.557,-0.503 -1.126,-1.08 -1.682,-1.717 -0.548,-0.644 -1.066,-1.365 -1.497,-2.151 -0.436,-0.783 -0.739,-1.652 -0.883,-2.543 -0.15,-0.893 -0.08,-1.817 0.164,-2.704 l 0.097,-0.314 c 0.031,-0.104 0.06,-0.209 0.113,-0.333 l 0.14,-0.356 0.018,-0.044 0.009,-0.022 c -0.004,0.01 0.013,-0.033 -0.007,0.014 l 0.005,-0.011 0.038,-0.083 0.076,-0.168 c 0.2,-0.448 0.422,-0.882 0.654,-1.306 0.474,-0.841 0.975,-1.651 1.542,-2.374 0.572,-0.726 1.156,-1.372 1.79,-1.956 0.699,-0.648 1.223,-1.395 1.555,-2.141 0.346,-0.741 0.518,-1.471 0.586,-2.117 0.074,-0.647 0.031,-1.211 -0.029,-1.664 -0.067,-0.452 -0.168,-0.802 -0.241,-1.029 -0.079,-0.228 -0.122,-0.349 -0.122,-0.349"
           style="fill:#ffffff;fill-opacity:1;fill-rule:nonzero;stroke:none;stroke-width:0.1"
           id="path7020" />
        <path
           d="m 540.40368,1377.0367 8.128,-20.407 0.018,-0.045 -0.042,-0.019 -8.672,-3.862 8.632,3.951 -0.025,-0.063 -9.067,20.008 1.028,0.437"
           style="fill:#ffffff;fill-opacity:1;fill-rule:nonzero;stroke:none;stroke-width:0.1"
           id="path7022" />
        <path
           d="m 540.45468,1376.6647 -44.8553,-20.256 -0.3063,0.679 44.8556,20.255 0.306,-0.678"
           style="fill:#ffffff;fill-opacity:1;fill-rule:nonzero;stroke:none;stroke-width:0.1"
           id="path7024" />
        <path
           d="m 511.65558,1339.9777 -6.4851,-2.955 -0.0211,-0.01 -0.011,0.021 -10.0262,19.55 0.6676,0.329 9.4024,-19.857 -0.0321,0.011 6.5055,2.911"
           style="fill:#ffffff;fill-opacity:1;fill-rule:nonzero;stroke:none;stroke-width:0.1"
           id="path7026" />
        <path
           d="m 518.59618,1356.1527 c 0,0 0.0301,0.054 0.0871,0.155 0.061,0.099 0.1469,0.248 0.2805,0.421 0.2621,0.347 0.6996,0.821 1.3625,1.213 0.0867,0.052 0.1578,0.092 0.2672,0.149 0.0871,0.04 0.1754,0.081 0.2656,0.123 0.1711,0.09 0.3871,0.153 0.6043,0.224 0.2176,0.072 0.4406,0.106 0.6715,0.156 0.2328,0.025 0.4723,0.063 0.7176,0.053 0.4894,0.012 0.9992,-0.056 1.4945,-0.201 0.4996,-0.136 0.9766,-0.371 1.4211,-0.651 0.4453,-0.283 0.8274,-0.654 1.1621,-1.046 l 0.2387,-0.304 c 0.0676,-0.108 0.1348,-0.216 0.2016,-0.324 0.1429,-0.214 0.225,-0.438 0.3437,-0.673 0.0406,-0.108 0.0813,-0.216 0.1215,-0.322 0.0375,-0.118 0.0769,-0.235 0.1051,-0.35 0.0566,-0.228 0.0988,-0.454 0.1257,-0.675 0.0563,-0.442 0.0446,-0.864 -0.006,-1.245 -0.0492,-0.381 -0.1445,-0.72 -0.2481,-1.01 -0.1,-0.292 -0.2261,-0.529 -0.3308,-0.72 -0.1082,-0.19 -0.2059,-0.331 -0.2762,-0.424 -0.0687,-0.093 -0.1055,-0.143 -0.1055,-0.143 0,0 0.0247,0.057 0.0708,0.163 0.0488,0.104 0.1042,0.264 0.1757,0.464 0.1344,0.403 0.2778,0.993 0.2879,1.701 0.002,0.354 -0.0351,0.734 -0.1156,1.124 -0.0422,0.195 -0.0977,0.392 -0.1652,0.589 -0.0356,0.094 -0.0715,0.19 -0.1075,0.286 -0.0453,0.103 -0.0914,0.207 -0.1375,0.311 -0.1929,0.363 -0.43,0.757 -0.7273,1.089 -0.2973,0.334 -0.632,0.65 -1.0211,0.888 -0.3801,0.247 -0.7891,0.461 -1.2211,0.585 -0.4289,0.128 -0.8656,0.228 -1.2969,0.235 -0.2156,0.023 -0.4261,-0.01 -0.6351,-0.01 -0.2039,-0.027 -0.4149,-0.04 -0.602,-0.085 -0.189,-0.043 -0.3722,-0.079 -0.5648,-0.151 -0.0945,-0.03 -0.1875,-0.06 -0.2785,-0.09 -0.0645,-0.024 -0.1637,-0.063 -0.2395,-0.097 -0.6484,-0.286 -1.134,-0.652 -1.45,-0.935 -0.3156,-0.285 -0.4758,-0.477 -0.4758,-0.477"
           style="fill:#ffffff;fill-opacity:1;fill-rule:nonzero;stroke:none;stroke-width:0.1"
           id="path7028" />
        <path
           d="m 525.86028,1351.3907 c 0,0 -0.0172,-0.041 -0.05,-0.118 -0.0359,-0.076 -0.0844,-0.193 -0.1688,-0.327 -0.1621,-0.271 -0.4453,-0.648 -0.9054,-0.977 -0.1153,-0.081 -0.2391,-0.161 -0.3727,-0.235 -0.1562,-0.074 -0.2617,-0.13 -0.4219,-0.191 -0.3222,-0.12 -0.6566,-0.206 -1.0195,-0.23 -0.3594,-0.017 -0.741,-0.014 -1.1121,0.084 -0.3695,0.093 -0.7387,0.229 -1.0742,0.428 -0.3297,0.207 -0.636,0.454 -0.8899,0.741 -0.2507,0.288 -0.4586,0.608 -0.5996,0.94 -0.1527,0.321 -0.2394,0.668 -0.2843,0.993 -0.0469,0.324 -0.0395,0.635 -0.002,0.914 0.0707,0.561 0.2688,0.989 0.4301,1.261 0.0797,0.137 0.1547,0.237 0.207,0.303 0.0516,0.066 0.0793,0.101 0.0793,0.101 0,0 -0.0691,-0.167 -0.1504,-0.462 -0.0804,-0.294 -0.1597,-0.722 -0.139,-1.223 0.0117,-0.25 0.0511,-0.517 0.1207,-0.788 0.0726,-0.271 0.1808,-0.541 0.3273,-0.81 0.1332,-0.273 0.3395,-0.509 0.5422,-0.745 0.2125,-0.23 0.4688,-0.422 0.7395,-0.585 0.5421,-0.333 1.1793,-0.492 1.7804,-0.499 0.2996,0 0.5989,0.038 0.8563,0.097 0.289,0.08 0.5367,0.158 0.764,0.271 0.4508,0.22 0.7891,0.492 1.0094,0.704 0.2219,0.211 0.334,0.353 0.334,0.353"
           style="fill:#ffffff;fill-opacity:1;fill-rule:nonzero;stroke:none;stroke-width:0.1"
           id="path7030" />
        <path
           d="m 520.78568,1366.9657 18.641,8.418 c -0.094,0.258 0.986,-2.627 1.15,-3.155 -1.3,2.271 -2.728,2.187 -19.791,-5.263"
           style="fill:#ffffff;fill-opacity:1;fill-rule:nonzero;stroke:none;stroke-width:0.1"
           id="path7032" />
        <path
           d="m 551.73568,1320.7857 c 0,0 0.121,0 0.348,-0.011 0.227,-0.01 0.56,-0.023 0.982,-0.061 0.422,-0.041 0.935,-0.091 1.521,-0.17 0.293,-0.041 0.605,-0.084 0.934,-0.13 0.329,-0.047 0.67,-0.12 1.028,-0.184 0.72,-0.12 1.486,-0.307 2.301,-0.493 0.406,-0.097 0.818,-0.218 1.242,-0.33 0.423,-0.116 0.858,-0.229 1.289,-0.377 0.866,-0.285 1.77,-0.555 2.657,-0.919 0.446,-0.174 0.9,-0.34 1.348,-0.525 0.444,-0.195 0.889,-0.392 1.335,-0.588 0.897,-0.38 1.749,-0.853 2.604,-1.286 0.213,-0.109 0.425,-0.219 0.636,-0.327 0.204,-0.123 0.406,-0.244 0.608,-0.365 0.403,-0.241 0.8,-0.479 1.192,-0.714 0.195,-0.117 0.389,-0.233 0.581,-0.348 0.185,-0.127 0.368,-0.253 0.549,-0.377 0.36,-0.25 0.713,-0.496 1.056,-0.734 0.339,-0.244 0.685,-0.458 0.99,-0.707 0.305,-0.247 0.601,-0.486 0.884,-0.715 0.564,-0.462 1.095,-0.866 1.524,-1.274 0.429,-0.406 0.803,-0.761 1.111,-1.052 0.614,-0.585 0.956,-0.926 0.956,-0.926 0,0 -0.388,0.293 -1.051,0.817 -0.33,0.262 -0.732,0.581 -1.192,0.947 -0.224,0.19 -0.488,0.359 -0.758,0.548 -0.269,0.19 -0.552,0.39 -0.847,0.598 -0.294,0.209 -0.6,0.426 -0.917,0.651 -0.315,0.228 -0.665,0.428 -1.012,0.653 -0.349,0.22 -0.707,0.446 -1.074,0.677 -0.183,0.116 -0.368,0.234 -0.554,0.352 -0.193,0.108 -0.387,0.218 -0.584,0.328 -0.392,0.221 -0.79,0.445 -1.194,0.672 -0.201,0.114 -0.404,0.228 -0.608,0.343 -0.209,0.105 -0.419,0.211 -0.63,0.317 -0.847,0.419 -1.691,0.877 -2.578,1.245 -0.437,0.197 -0.874,0.395 -1.31,0.591 -0.44,0.186 -0.886,0.354 -1.324,0.53 -0.873,0.361 -1.752,0.666 -2.601,0.967 -0.421,0.159 -0.848,0.276 -1.26,0.412 -0.414,0.129 -0.815,0.267 -1.212,0.381 -0.798,0.215 -1.545,0.449 -2.248,0.613 -0.699,0.18 -1.344,0.329 -1.918,0.458 -0.573,0.127 -1.077,0.221 -1.493,0.298 -0.416,0.071 -0.744,0.126 -0.967,0.164 -0.224,0.033 -0.344,0.051 -0.344,0.051"
           style="fill:#ffffff;fill-opacity:1;fill-rule:nonzero;stroke:none;stroke-width:0.1"
           id="path7034" />
        <path
           d="m 607.54768,1307.1997 c 0,0 -0.98,3.315 -0.354,4.813 0.335,0.8 1.481,0.792 1.86,0.013 1.445,-2.977 6.467,-10.276 15.042,-13.141 -5.783,0.451 -12.039,5.809 -14.201,9.122 -0.71,1.09 -2.425,0.53 -2.35,-0.768 0.002,-0.025 0.003,-0.039 0.003,-0.039"
           style="fill:#ffffff;fill-opacity:1;fill-rule:nonzero;stroke:none;stroke-width:0.1"
           id="path7036" />
        <path
           d="m 590.92568,1298.1967 c 0,0 0.152,-0.117 0.428,-0.307 0.274,-0.192 0.679,-0.445 1.174,-0.728 0.494,-0.284 1.092,-0.575 1.751,-0.834 0.327,-0.136 0.676,-0.245 1.029,-0.357 0.356,-0.1 0.721,-0.196 1.091,-0.256 0.368,-0.074 0.742,-0.112 1.11,-0.138 0.184,-0.01 0.367,-0.012 0.548,-0.017 0.18,0.01 0.359,0.01 0.534,0.018 0.351,0.028 0.689,0.068 1.008,0.123 0.158,0.034 0.312,0.066 0.462,0.098 0.146,0.042 0.288,0.082 0.425,0.12 0.27,0.085 0.516,0.172 0.733,0.253 0.212,0.092 0.404,0.162 0.552,0.238 0.302,0.146 0.474,0.23 0.474,0.23 0,0 -0.16,-0.107 -0.439,-0.294 -0.141,-0.092 -0.325,-0.183 -0.53,-0.3 -0.209,-0.107 -0.45,-0.223 -0.722,-0.325 -0.138,-0.049 -0.28,-0.1 -0.428,-0.152 -0.152,-0.043 -0.308,-0.088 -0.469,-0.133 -0.325,-0.079 -0.673,-0.148 -1.038,-0.184 -0.182,-0.018 -0.368,-0.026 -0.557,-0.039 -0.188,0 -0.379,0 -0.572,0 -0.383,0.023 -0.774,0.058 -1.157,0.131 -0.769,0.14 -1.515,0.38 -2.18,0.677 -0.669,0.289 -1.251,0.642 -1.735,0.958 -0.485,0.317 -0.852,0.632 -1.108,0.849 -0.253,0.222 -0.384,0.364 -0.384,0.364"
           style="fill:#ffffff;fill-opacity:1;fill-rule:nonzero;stroke:none;stroke-width:0.1"
           id="path7038" />
        <path
           d="m 606.94568,1296.1757 c 0,0 -0.092,-0.093 -0.242,-0.264 -0.155,-0.167 -0.356,-0.422 -0.589,-0.729 -0.114,-0.156 -0.239,-0.323 -0.358,-0.508 -0.127,-0.18 -0.24,-0.383 -0.364,-0.587 -0.122,-0.205 -0.224,-0.431 -0.339,-0.652 -0.091,-0.232 -0.215,-0.456 -0.282,-0.701 -0.084,-0.239 -0.166,-0.478 -0.212,-0.723 -0.025,-0.121 -0.059,-0.24 -0.082,-0.36 -0.016,-0.121 -0.031,-0.24 -0.046,-0.358 -0.041,-0.234 -0.044,-0.463 -0.046,-0.682 -0.003,-0.109 -0.006,-0.216 -0.008,-0.319 0.009,-0.102 0.018,-0.202 0.026,-0.297 0.023,-0.19 0.023,-0.369 0.049,-0.523 0.031,-0.155 0.058,-0.289 0.08,-0.4 0.044,-0.223 0.064,-0.354 0.064,-0.354 0,0 -0.051,0.119 -0.133,0.333 -0.041,0.108 -0.09,0.239 -0.146,0.39 -0.053,0.152 -0.083,0.331 -0.125,0.526 -0.021,0.097 -0.042,0.199 -0.064,0.304 -0.007,0.108 -0.014,0.219 -0.021,0.333 -0.017,0.228 -0.035,0.471 -0.002,0.72 0.009,0.125 0.02,0.252 0.03,0.381 0.016,0.128 0.047,0.255 0.074,0.384 0.044,0.261 0.126,0.515 0.212,0.769 0.075,0.257 0.208,0.491 0.308,0.733 0.123,0.232 0.248,0.458 0.384,0.666 0.271,0.418 0.565,0.777 0.838,1.063 0.547,0.573 0.994,0.855 0.994,0.855"
           style="fill:#ffffff;fill-opacity:1;fill-rule:nonzero;stroke:none;stroke-width:0.1"
           id="path7040" />
        <path
           d="m 613.88468,1275.0837 c 0,0 0.541,-0.616 1.488,-1.694 0.468,-0.543 1.037,-1.202 1.69,-1.958 0.651,-0.758 1.389,-1.61 2.17,-2.561 0.393,-0.473 0.803,-0.965 1.227,-1.475 0.416,-0.517 0.846,-1.051 1.287,-1.601 0.89,-1.094 1.791,-2.278 2.724,-3.503 0.911,-1.241 1.864,-2.517 2.767,-3.86 0.467,-0.661 0.912,-1.344 1.355,-2.033 0.445,-0.688 0.902,-1.372 1.32,-2.08 0.42,-0.708 0.855,-1.406 1.259,-2.118 0.399,-0.716 0.796,-1.428 1.19,-2.136 0.39,-0.709 0.744,-1.431 1.106,-2.136 0.178,-0.355 0.363,-0.703 0.532,-1.056 0.166,-0.354 0.331,-0.706 0.495,-1.055 0.322,-0.7 0.66,-1.378 0.951,-2.06 0.29,-0.683 0.574,-1.35 0.85,-2 0.565,-1.294 1.008,-2.554 1.459,-3.699 0.438,-1.151 0.787,-2.225 1.117,-3.168 0.336,-0.942 0.581,-1.779 0.802,-2.462 0.423,-1.37 0.665,-2.154 0.665,-2.154 0,0 -0.292,0.766 -0.802,2.107 -0.256,0.67 -0.542,1.491 -0.925,2.413 -0.379,0.924 -0.782,1.975 -1.254,3.107 -0.241,0.564 -0.492,1.152 -0.752,1.76 -0.257,0.61 -0.52,1.24 -0.82,1.875 -0.292,0.639 -0.591,1.295 -0.898,1.966 -0.31,0.669 -0.65,1.341 -0.983,2.03 -0.168,0.344 -0.338,0.691 -0.508,1.04 -0.174,0.348 -0.363,0.691 -0.546,1.04 -0.373,0.693 -0.732,1.405 -1.12,2.109 -0.395,0.7 -0.793,1.405 -1.193,2.113 -0.404,0.705 -0.841,1.395 -1.26,2.095 -0.411,0.706 -0.861,1.387 -1.299,2.072 -0.436,0.686 -0.875,1.367 -1.335,2.027 -0.458,0.66 -0.89,1.331 -1.349,1.972 -0.456,0.643 -0.907,1.279 -1.351,1.903 -0.914,1.231 -1.775,2.438 -2.634,3.552 -0.848,1.121 -1.655,2.179 -2.409,3.149 -3.01,3.887 -5.016,6.479 -5.016,6.479"
           style="fill:#ffffff;fill-opacity:1;fill-rule:nonzero;stroke:none;stroke-width:0.1"
           id="path7042" />
        <path
           d="m 526.45398,1310.8657 c 0.0184,-0.458 -0.0421,-0.916 -0.1093,-1.369 -0.0735,-0.453 -0.1594,-0.905 -0.2668,-1.351 -0.1063,-0.446 -0.2297,-0.889 -0.3598,-1.329 -0.1281,-0.44 -0.2687,-0.877 -0.4144,-1.312 -0.2879,-0.871 -0.6301,-1.723 -0.9731,-2.573 -0.3516,-0.847 -0.7141,-1.688 -1.0992,-2.52 l 0.0168,0.086 0.1058,-2.532 c 0.0352,-0.844 0.0743,-1.687 0.0938,-2.532 l 0.0711,-2.533 c 0.0113,-0.845 0.034,-1.69 0.0344,-2.535 -0.0813,0.842 -0.1399,1.684 -0.2098,2.526 l -0.1734,2.529 c -0.0618,0.842 -0.1039,1.686 -0.15,2.529 l -0.1387,2.53 -0.002,0.043 0.0196,0.044 c 0.1828,0.417 0.3781,0.829 0.5676,1.244 l 0.5488,1.253 0.5215,1.264 0.491,1.275 c 0.1613,0.427 0.3176,0.855 0.4617,1.287 0.1457,0.431 0.2855,0.865 0.4074,1.304 0.1332,0.436 0.2477,0.877 0.3485,1.321 0.0918,0.446 0.1851,0.894 0.2089,1.351"
           style="fill:#ffffff;fill-opacity:1;fill-rule:nonzero;stroke:none;stroke-width:0.1"
           id="path7044" />
        <path
           d="m 520.31688,1239.3637 c 0,0 0.1141,0.011 0.3211,0.057 0.2067,0.049 0.5106,0.124 0.8766,0.275 0.3715,0.136 0.7965,0.363 1.2613,0.653 0.4453,0.319 0.9371,0.699 1.3832,1.204 0.1121,0.125 0.227,0.252 0.3438,0.382 0.1019,0.143 0.2058,0.287 0.3117,0.434 0.1008,0.151 0.2234,0.29 0.3101,0.457 0.0918,0.163 0.1844,0.329 0.2786,0.497 0.2054,0.327 0.3355,0.705 0.5004,1.074 0.1757,0.365 0.2718,0.771 0.4093,1.168 0.1465,0.395 0.2141,0.822 0.3125,1.244 0.0438,0.212 0.1,0.423 0.1344,0.64 0.0281,0.218 0.0566,0.437 0.0852,0.657 0.1336,0.874 0.1796,1.782 0.2445,2.688 0.0238,0.452 0.0476,0.903 0.0715,1.352 0.0109,0.451 0.0222,0.9 0.0332,1.346 0.008,0.891 -0.006,1.768 -0.0438,2.616 -0.0425,0.848 -0.0968,1.667 -0.1648,2.442 -0.0762,0.775 -0.1594,1.508 -0.2512,2.182 -0.1836,1.349 -0.3418,2.477 -0.4019,3.272 -0.027,0.398 -0.0387,0.711 -0.0254,0.924 0.007,0.213 0.0113,0.327 0.0113,0.327 0,0 0.003,-0.114 0.009,-0.327 -0.001,-0.212 0.0351,-0.523 0.0773,-0.917 0.0899,-0.789 0.3203,-1.901 0.5375,-3.248 0.111,-0.674 0.2149,-1.407 0.3133,-2.184 0.0906,-0.778 0.1735,-1.6 0.218,-2.455 0.0461,-0.854 0.0683,-1.737 0.0683,-2.635 -0.007,-0.449 -0.0136,-0.901 -0.0207,-1.355 -0.0203,-0.455 -0.0406,-0.911 -0.0605,-1.368 -0.0731,-0.905 -0.1273,-1.813 -0.2723,-2.708 -0.0308,-0.224 -0.0621,-0.446 -0.0929,-0.668 -0.0371,-0.22 -0.0961,-0.436 -0.1426,-0.652 -0.1047,-0.43 -0.1778,-0.863 -0.3317,-1.268 -0.25,-0.824 -0.5839,-1.595 -0.9816,-2.278 -0.1016,-0.17 -0.2016,-0.338 -0.3,-0.503 -0.0937,-0.168 -0.2246,-0.308 -0.332,-0.46 -0.1129,-0.148 -0.2239,-0.293 -0.3328,-0.436 -0.1235,-0.131 -0.245,-0.259 -0.3637,-0.384 -0.4692,-0.508 -0.9934,-0.874 -1.4613,-1.177 -0.4879,-0.274 -0.9282,-0.483 -1.3102,-0.604 -0.3758,-0.137 -0.6883,-0.189 -0.8973,-0.227 -0.2109,-0.033 -0.325,-0.037 -0.325,-0.037"
           style="fill:#ffffff;fill-opacity:1;fill-rule:nonzero;stroke:none;stroke-width:0.1"
           id="path7046" />
        <path
           d="m 507.30208,1235.9357 c 0,0 -8.7793,-0.902 -9.8734,-3.302 -0.7602,-1.667 0.3289,-4.654 4.4613,-5.811 5.6547,-1.583 16.589,6.062 16.589,6.062 0,0 -18.6488,-7.536 -11.1769,3.051"
           style="fill:#ffffff;fill-opacity:1;fill-rule:nonzero;stroke:none;stroke-width:0.1"
           id="path7048" />
        <path
           d="m 531.74968,1233.6377 c 0,0 0.007,-0.202 0.022,-0.582 0.015,-0.379 0.054,-0.935 0.099,-1.641 0.095,-1.413 0.286,-3.428 0.61,-5.83 0.157,-1.202 0.366,-2.498 0.597,-3.866 0.242,-1.366 0.522,-2.802 0.851,-4.279 0.315,-1.479 0.718,-2.99 1.131,-4.521 0.211,-0.765 0.446,-1.53 0.675,-2.299 0.255,-0.761 0.485,-1.534 0.762,-2.29 0.271,-0.759 0.526,-1.523 0.827,-2.267 0.145,-0.374 0.29,-0.747 0.435,-1.119 0.156,-0.367 0.311,-0.733 0.466,-1.098 0.303,-0.733 0.635,-1.445 0.964,-2.149 0.314,-0.711 0.677,-1.387 1.017,-2.061 0.698,-1.338 1.418,-2.609 2.153,-3.781 0.35,-0.598 0.744,-1.145 1.104,-1.688 0.182,-0.269 0.356,-0.539 0.537,-0.796 0.187,-0.252 0.371,-0.5 0.551,-0.743 0.704,-0.985 1.425,-1.828 2.042,-2.595 0.646,-0.741 1.229,-1.372 1.708,-1.894 1.002,-1.001 1.575,-1.573 1.575,-1.573 0,0 -0.61,0.535 -1.677,1.47 -0.506,0.497 -1.124,1.1 -1.813,1.812 -0.66,0.737 -1.432,1.55 -2.174,2.52 -0.191,0.238 -0.385,0.482 -0.584,0.729 -0.192,0.253 -0.378,0.518 -0.572,0.784 -0.383,0.535 -0.794,1.079 -1.164,1.673 -0.775,1.166 -1.542,2.43 -2.265,3.775 -0.355,0.676 -0.733,1.355 -1.063,2.069 -0.171,0.353 -0.343,0.71 -0.516,1.067 -0.171,0.359 -0.32,0.73 -0.482,1.096 -0.159,0.368 -0.319,0.738 -0.479,1.109 -0.148,0.375 -0.296,0.752 -0.445,1.129 -0.308,0.751 -0.572,1.521 -0.848,2.287 -0.275,0.766 -0.504,1.548 -0.757,2.318 -0.228,0.778 -0.461,1.551 -0.669,2.325 -0.202,0.774 -0.413,1.541 -0.581,2.307 -0.088,0.383 -0.176,0.763 -0.263,1.14 -0.079,0.379 -0.157,0.755 -0.234,1.128 -0.314,1.492 -0.551,2.947 -0.759,4.327 -0.2,1.382 -0.361,2.693 -0.473,3.905 -0.122,1.212 -0.194,2.326 -0.244,3.314 -0.05,0.988 -0.075,1.849 -0.087,2.559 -0.021,1.419 0.023,2.229 0.023,2.229"
           style="fill:#ffffff;fill-opacity:1;fill-rule:nonzero;stroke:none;stroke-width:0.1"
           id="path7050" />
        <path
           d="m 564.69468,1302.7887 c 0,0 -1.769,2.641 -1.566,3.467 0.202,0.826 5.359,3.57 5.359,3.57 0,0 -5.088,-2.106 -3.793,-7.037"
           style="fill:#ffffff;fill-opacity:1;fill-rule:nonzero;stroke:none;stroke-width:0.1"
           id="path7052" />
        <path
           d="m 536.84368,1287.2487 c 0,0 -4.725,-0.705 -6.0357,-4.359 -0.9297,2.511 -1.6282,4.51 -1.3145,5.398 3.2962,-0.154 7.3502,-1.039 7.3502,-1.039"
           style="fill:#ffffff;fill-opacity:1;fill-rule:nonzero;stroke:none;stroke-width:0.1"
           id="path7054" />
        <path
           d="m 572.76368,1304.4947 c 0,0 0.607,-0.218 1.481,-0.594 0.438,-0.19 0.947,-0.414 1.482,-0.675 0.537,-0.256 1.1,-0.551 1.658,-0.853 0.554,-0.31 1.1,-0.632 1.599,-0.956 0.246,-0.167 0.491,-0.316 0.709,-0.479 0.22,-0.162 0.431,-0.308 0.618,-0.454 0.185,-0.148 0.354,-0.285 0.505,-0.405 0.15,-0.12 0.269,-0.24 0.373,-0.331 0.205,-0.185 0.321,-0.291 0.321,-0.291 0,0 -0.124,0.097 -0.341,0.267 -0.111,0.083 -0.237,0.193 -0.396,0.3 -0.157,0.109 -0.335,0.232 -0.529,0.366 -0.196,0.131 -0.417,0.26 -0.645,0.403 -0.227,0.145 -0.481,0.275 -0.736,0.422 -0.515,0.283 -1.078,0.561 -1.646,0.826 -0.572,0.257 -1.147,0.506 -1.694,0.718 -0.545,0.218 -1.062,0.401 -1.504,0.556 -0.89,0.307 -1.484,0.472 -1.484,0.472 -0.198,0.055 -0.314,0.26 -0.259,0.458 0.055,0.198 0.26,0.314 0.459,0.259 0.008,0 0.017,0 0.025,-0.01 l 0.004,-10e-4"
           style="fill:#ffffff;fill-opacity:1;fill-rule:nonzero;stroke:none;stroke-width:0.1"
           id="path7056" />
        <path
           d="m 574.47368,1301.8427 c -1.7,1.408 -1.937,0.486 -1.937,0.486 0,0 0.351,-1.167 0.053,-1.855 -0.002,0 -0.006,0.01 -0.006,0.01 -0.538,0.406 -1.918,2.875 -3.102,4.845 -0.92,1.532 -1.871,3.116 -2.686,4.265 -0.643,0.906 -1.84,2.593 -3.112,2.019 -1.304,-0.589 -0.659,-3.285 -0.353,-4.528 l 1.748,1.177 c 0.052,0.022 0.077,0.037 0.125,-0.013 0.79,-1.139 1.777,-2.783 2.524,-4.026 0.92,-1.532 1.871,-3.116 2.686,-4.265 0.644,-0.906 1.841,-2.593 3.112,-2.019 0,0 0.735,0.531 0.743,0.682 l 0.011,-0.01 c 0,0 1.017,2.552 0.194,3.235 z m -8.561,-3.294 c -0.789,1.139 -1.777,2.783 -2.523,4.026 -0.921,1.532 -1.872,3.116 -2.687,4.264 -0.643,0.907 -1.84,2.594 -3.112,2.02 -1.272,-0.574 -0.699,-2.807 -0.445,-3.888 l 2.85,-9.43 c -0.805,1.141 -1.921,2.987 -2.699,4.282 -0.92,1.532 -1.872,3.117 -2.687,4.265 -0.643,0.906 -1.84,2.594 -3.112,2.019 -1.326,-0.599 -0.785,-2.831 -0.09,-5.27 l 2.042,-6.737 c 0.138,-0.483 0.195,-0.714 0.277,-1.053 -0.789,1.139 -1.777,2.782 -2.523,4.025 -0.92,1.532 -1.872,3.116 -2.686,4.265 -0.644,0.906 -1.841,2.593 -3.113,2.019 -1.326,-0.599 -0.785,-2.831 -0.09,-5.271 l 2.042,-6.736 c 0.138,-0.484 0.195,-0.715 0.277,-1.054 -0.789,1.139 -1.777,2.783 -2.523,4.025 -0.92,1.532 -1.872,3.117 -2.687,4.265 -0.643,0.907 -1.84,2.594 -3.112,2.019 -1.327,-0.599 -0.786,-2.831 -0.091,-5.271 0.649,-2.742 2.043,-6.736 2.043,-6.736 0.138,-0.484 0.195,-0.715 0.276,-1.054 -0.789,1.139 -1.777,2.783 -2.523,4.026 -0.92,1.532 -1.872,3.116 -2.687,4.265 -0.643,0.906 -1.84,2.593 -3.112,2.019 -1.325,-0.599 -0.827,-2.861 -0.136,-5.292 l 1.933,0.873 c -0.135,0.477 -0.196,0.719 -0.277,1.054 0.79,-1.138 1.777,-2.782 2.524,-4.025 0.92,-1.532 1.872,-3.117 2.687,-4.265 0.643,-0.907 1.84,-2.594 3.112,-2.019 1.327,0.599 0.812,2.843 0.117,5.283 -0.751,1.871 -2.069,6.724 -2.069,6.724 -0.138,0.484 -0.195,0.715 -0.276,1.054 0.789,-1.139 1.776,-2.783 2.523,-4.026 0.92,-1.532 1.872,-3.116 2.687,-4.265 0.643,-0.906 1.84,-2.593 3.112,-2.019 1.326,0.599 0.84,2.856 0.145,5.296 -0.556,2.274 -2.097,6.712 -2.097,6.712 -0.138,0.483 -0.195,0.714 -0.277,1.053 0.79,-1.139 1.777,-2.782 2.523,-4.025 0.921,-1.532 1.872,-3.116 2.687,-4.265 0.643,-0.906 1.84,-2.593 3.112,-2.019 1.327,0.599 0.785,2.831 0.091,5.271 l -2.043,6.736 c -0.138,0.483 -0.195,0.714 -0.277,1.053 0.79,-1.139 1.777,-2.782 2.523,-4.025 0.92,-1.532 1.872,-3.116 2.687,-4.265 0.643,-0.906 1.84,-2.593 3.111,-2.019 1.264,0.571 0.673,2.839 0.426,3.901 l -2.826,9.375 c 0.799,-1.14 1.928,-2.964 2.695,-4.241 0.92,-1.531 1.872,-3.116 2.687,-4.264 0.643,-0.907 1.84,-2.594 3.111,-2.019 1.317,0.594 0.669,3.318 0.35,4.593 l -1.776,-0.804 c -0.077,-0.051 -0.034,-0.506 -0.094,-0.425 z m -30.743,-12.704 1.917,0.866 c 0.695,-2.44 1.207,-4.685 -0.12,-5.284 -1.272,-0.575 -2.469,1.112 -3.112,2.019 -0.815,1.148 -1.767,2.732 -2.6874,4.264 -0.5535,0.922 -1.2394,2.064 -1.8789,3.057 l -1.1437,4.358 c 0.8664,-0.319 1.6242,-1.386 2.0906,-2.044 0.8148,-1.148 1.7664,-2.732 2.6864,-4.264 0.747,-1.244 1.735,-2.888 2.525,-4.027 -0.082,0.34 -0.139,0.571 -0.277,1.055"
           style="fill:#162623;fill-opacity:1;fill-rule:nonzero;stroke:none;stroke-width:0.1"
           id="path7058" />
        <path
           d="m 564.01568,1311.4187 c 0,0 0.013,0.01 0.038,0.013 0.026,0.01 0.061,0.026 0.113,0.033 0.101,0.026 0.262,0.026 0.453,-0.046 0.193,-0.072 0.398,-0.222 0.62,-0.408 0.106,-0.098 0.22,-0.203 0.334,-0.32 0.109,-0.12 0.23,-0.243 0.344,-0.381 0.113,-0.139 0.236,-0.279 0.354,-0.432 0.117,-0.154 0.238,-0.313 0.362,-0.477 0.12,-0.167 0.243,-0.338 0.368,-0.514 0.126,-0.175 0.245,-0.36 0.371,-0.545 0.127,-0.185 0.252,-0.376 0.375,-0.571 0.125,-0.194 0.25,-0.391 0.377,-0.589 0.245,-0.402 0.5,-0.806 0.743,-1.218 0.485,-0.821 0.971,-1.643 1.426,-2.414 0.232,-0.381 0.457,-0.75 0.67,-1.1 0.216,-0.347 0.423,-0.675 0.617,-0.974 0.196,-0.298 0.379,-0.569 0.546,-0.805 0.17,-0.234 0.321,-0.436 0.458,-0.591 0.137,-0.153 0.251,-0.27 0.341,-0.331 0.045,-0.028 0.08,-0.053 0.107,-0.06 0.026,-0.01 0.039,-0.014 0.039,-0.014 0,0 -0.014,0 -0.04,0.011 -0.027,0.01 -0.064,0.027 -0.112,0.053 -0.095,0.055 -0.22,0.162 -0.365,0.311 -0.146,0.148 -0.308,0.343 -0.491,0.569 -0.089,0.115 -0.183,0.238 -0.283,0.367 -0.096,0.132 -0.199,0.27 -0.301,0.416 -0.207,0.293 -0.426,0.613 -0.651,0.957 -0.226,0.343 -0.46,0.707 -0.697,1.087 -0.234,0.382 -0.481,0.774 -0.72,1.179 -0.24,0.404 -0.485,0.814 -0.729,1.224 -0.24,0.412 -0.492,0.816 -0.734,1.218 -0.251,0.395 -0.486,0.793 -0.733,1.165 -0.122,0.186 -0.239,0.372 -0.359,0.55 -0.12,0.177 -0.237,0.351 -0.352,0.52 -0.118,0.166 -0.234,0.327 -0.345,0.483 -0.112,0.156 -0.228,0.299 -0.335,0.44 -0.108,0.142 -0.222,0.265 -0.324,0.391 -0.106,0.12 -0.213,0.229 -0.312,0.331 -0.053,0.048 -0.104,0.094 -0.153,0.138 -0.025,0.022 -0.048,0.045 -0.073,0.065 -0.025,0.018 -0.05,0.036 -0.075,0.054 -0.05,0.034 -0.095,0.072 -0.143,0.1 -0.048,0.025 -0.094,0.05 -0.138,0.073 -0.18,0.078 -0.336,0.094 -0.437,0.076 -0.052,0 -0.089,-0.02 -0.115,-0.024 -0.026,-0.01 -0.039,-0.01 -0.039,-0.01"
           style="fill:#ffffff;fill-opacity:1;fill-rule:nonzero;stroke:none;stroke-width:0.1"
           id="path7060" />
        <path
           d="m 565.28768,1308.3807 c 0,0 0.135,-0.17 0.372,-0.468 0.119,-0.148 0.257,-0.334 0.415,-0.547 0.161,-0.211 0.334,-0.456 0.52,-0.725 0.095,-0.133 0.188,-0.276 0.286,-0.423 0.096,-0.147 0.201,-0.297 0.3,-0.457 0.1,-0.158 0.203,-0.321 0.309,-0.487 0.102,-0.169 0.206,-0.341 0.312,-0.516 0.209,-0.353 0.421,-0.718 0.635,-1.092 0.214,-0.372 0.431,-0.751 0.648,-1.129 0.109,-0.189 0.218,-0.378 0.327,-0.566 0.112,-0.185 0.223,-0.371 0.333,-0.555 0.114,-0.181 0.227,-0.361 0.339,-0.539 0.116,-0.174 0.231,-0.347 0.343,-0.517 0.117,-0.166 0.232,-0.33 0.345,-0.491 0.117,-0.157 0.231,-0.31 0.343,-0.46 0.224,-0.297 0.451,-0.566 0.681,-0.789 0.23,-0.224 0.468,-0.398 0.699,-0.499 0.231,-0.103 0.451,-0.125 0.625,-0.103 0.174,0.02 0.304,0.068 0.39,0.105 0.086,0.039 0.131,0.06 0.131,0.06 0,0 -0.045,-0.023 -0.128,-0.066 -0.085,-0.04 -0.213,-0.096 -0.39,-0.122 -0.174,-0.027 -0.401,-0.013 -0.641,0.085 -0.24,0.097 -0.49,0.267 -0.726,0.492 -0.237,0.223 -0.472,0.491 -0.703,0.785 -0.114,0.149 -0.231,0.301 -0.352,0.457 -0.114,0.16 -0.231,0.323 -0.35,0.49 -0.114,0.17 -0.23,0.343 -0.348,0.518 -0.113,0.177 -0.228,0.357 -0.343,0.539 -0.112,0.184 -0.224,0.369 -0.337,0.555 -0.111,0.188 -0.221,0.376 -0.332,0.565 -0.215,0.38 -0.43,0.76 -0.641,1.134 -0.212,0.374 -0.422,0.74 -0.628,1.093 -0.105,0.176 -0.207,0.348 -0.307,0.518 -0.103,0.167 -0.203,0.332 -0.3,0.491 -0.097,0.161 -0.198,0.312 -0.292,0.461 -0.094,0.149 -0.186,0.292 -0.278,0.427 -0.182,0.271 -0.347,0.521 -0.502,0.736 -0.152,0.217 -0.284,0.407 -0.399,0.558 -0.226,0.307 -0.356,0.482 -0.356,0.482"
           style="fill:#ffffff;fill-opacity:1;fill-rule:nonzero;stroke:none;stroke-width:0.1"
           id="path7062" />
        <path
           d="m 557.97168,1308.6897 c 0,0 0.012,0.01 0.036,0.014 0.023,0.01 0.059,0.021 0.107,0.032 0.095,0.023 0.248,0.034 0.431,-0.033 0.182,-0.066 0.387,-0.196 0.596,-0.374 0.21,-0.178 0.431,-0.399 0.654,-0.656 0.223,-0.256 0.454,-0.543 0.687,-0.856 0.233,-0.313 0.474,-0.647 0.711,-1 0.238,-0.353 0.48,-0.72 0.72,-1.097 0.239,-0.378 0.476,-0.765 0.711,-1.153 0.236,-0.387 0.465,-0.78 0.69,-1.166 0.226,-0.382 0.45,-0.761 0.663,-1.129 0.426,-0.735 0.824,-1.422 1.165,-2.01 0.342,-0.587 0.624,-1.078 0.846,-1.405 0.111,-0.163 0.204,-0.287 0.279,-0.36 0.074,-0.075 0.129,-0.087 0.129,-0.087 0,0 -0.013,0 -0.038,0.012 -0.024,0.01 -0.058,0.032 -0.099,0.065 -0.081,0.068 -0.187,0.184 -0.307,0.342 -0.239,0.317 -0.558,0.787 -0.921,1.362 -0.365,0.574 -0.782,1.25 -1.222,1.976 -0.22,0.365 -0.447,0.741 -0.677,1.123 -0.228,0.383 -0.459,0.773 -0.69,1.162 -0.233,0.388 -0.467,0.775 -0.704,1.152 -0.232,0.38 -0.467,0.75 -0.698,1.104 -0.462,0.71 -0.912,1.359 -1.334,1.883 -0.212,0.26 -0.416,0.491 -0.613,0.676 -0.196,0.186 -0.388,0.321 -0.56,0.395 -0.086,0.036 -0.166,0.056 -0.237,0.065 -0.07,0.01 -0.131,0.01 -0.179,0 -0.048,-0.01 -0.085,-0.016 -0.109,-0.023 -0.024,-0.01 -0.037,-0.011 -0.037,-0.011"
           style="fill:#ffffff;fill-opacity:1;fill-rule:nonzero;stroke:none;stroke-width:0.1"
           id="path7064" />
        <path
           d="m 559.24468,1305.6517 c 0,0 0.135,-0.171 0.371,-0.468 0.12,-0.148 0.257,-0.334 0.415,-0.547 0.161,-0.211 0.334,-0.456 0.52,-0.725 0.095,-0.134 0.189,-0.276 0.286,-0.423 0.096,-0.148 0.201,-0.297 0.3,-0.457 0.1,-0.158 0.203,-0.321 0.309,-0.488 0.102,-0.168 0.206,-0.34 0.312,-0.516 0.209,-0.352 0.422,-0.718 0.635,-1.091 0.214,-0.373 0.431,-0.751 0.648,-1.13 0.109,-0.188 0.218,-0.377 0.327,-0.565 0.112,-0.186 0.223,-0.371 0.333,-0.555 0.115,-0.181 0.228,-0.361 0.339,-0.539 0.116,-0.175 0.231,-0.347 0.344,-0.517 0.117,-0.167 0.232,-0.33 0.344,-0.491 0.117,-0.157 0.231,-0.311 0.343,-0.46 0.225,-0.298 0.451,-0.566 0.681,-0.79 0.23,-0.224 0.468,-0.397 0.699,-0.499 0.231,-0.103 0.452,-0.124 0.625,-0.102 0.174,0.02 0.304,0.068 0.39,0.105 0.086,0.039 0.131,0.06 0.131,0.06 0,0 -0.044,-0.023 -0.128,-0.066 -0.085,-0.04 -0.213,-0.096 -0.389,-0.122 -0.175,-0.028 -0.402,-0.013 -0.642,0.085 -0.24,0.096 -0.49,0.267 -0.726,0.491 -0.237,0.223 -0.472,0.492 -0.702,0.786 -0.115,0.148 -0.232,0.301 -0.352,0.456 -0.115,0.161 -0.232,0.324 -0.351,0.491 -0.114,0.17 -0.23,0.342 -0.348,0.517 -0.113,0.178 -0.227,0.358 -0.343,0.54 -0.112,0.183 -0.224,0.369 -0.337,0.555 -0.111,0.187 -0.221,0.376 -0.331,0.564 -0.216,0.38 -0.431,0.76 -0.642,1.134 -0.211,0.374 -0.422,0.741 -0.628,1.094 -0.104,0.175 -0.207,0.348 -0.307,0.517 -0.103,0.168 -0.203,0.332 -0.3,0.492 -0.096,0.161 -0.198,0.312 -0.292,0.461 -0.094,0.149 -0.185,0.292 -0.278,0.427 -0.182,0.271 -0.347,0.52 -0.502,0.736 -0.152,0.217 -0.284,0.407 -0.399,0.558 -0.226,0.306 -0.355,0.482 -0.355,0.482"
           style="fill:#ffffff;fill-opacity:1;fill-rule:nonzero;stroke:none;stroke-width:0.1"
           id="path7066" />
        <path
           d="m 551.88268,1305.9397 c 0,0 0.012,0.01 0.035,0.014 0.024,0.01 0.06,0.021 0.108,0.032 0.095,0.023 0.247,0.034 0.431,-0.033 0.182,-0.066 0.387,-0.196 0.596,-0.374 0.21,-0.178 0.43,-0.399 0.653,-0.655 0.224,-0.257 0.455,-0.544 0.688,-0.857 0.232,-0.313 0.473,-0.647 0.711,-1 0.238,-0.352 0.479,-0.72 0.719,-1.097 0.239,-0.377 0.476,-0.765 0.712,-1.152 0.236,-0.388 0.464,-0.781 0.689,-1.167 0.227,-0.381 0.451,-0.761 0.664,-1.129 0.426,-0.735 0.824,-1.421 1.164,-2.01 0.343,-0.587 0.625,-1.078 0.847,-1.405 0.11,-0.163 0.204,-0.287 0.278,-0.36 0.075,-0.075 0.13,-0.087 0.13,-0.087 0,0 -0.013,0 -0.038,0.012 -0.025,0.01 -0.059,0.032 -0.1,0.065 -0.081,0.068 -0.186,0.184 -0.306,0.343 -0.24,0.316 -0.558,0.786 -0.922,1.361 -0.365,0.574 -0.781,1.25 -1.221,1.977 -0.22,0.364 -0.447,0.74 -0.678,1.122 -0.227,0.384 -0.458,0.773 -0.69,1.162 -0.233,0.388 -0.467,0.775 -0.703,1.153 -0.233,0.379 -0.468,0.749 -0.699,1.103 -0.461,0.71 -0.912,1.359 -1.333,1.883 -0.213,0.26 -0.416,0.492 -0.613,0.676 -0.196,0.186 -0.388,0.321 -0.56,0.396 -0.086,0.035 -0.167,0.055 -0.237,0.065 -0.071,0.01 -0.131,0 -0.18,0 -0.048,-0.01 -0.084,-0.016 -0.108,-0.023 -0.025,-0.01 -0.037,-0.011 -0.037,-0.011"
           style="fill:#ffffff;fill-opacity:1;fill-rule:nonzero;stroke:none;stroke-width:0.1"
           id="path7068" />
        <path
           d="m 553.15468,1302.9017 c 0,0 0.135,-0.17 0.372,-0.468 0.119,-0.148 0.256,-0.334 0.415,-0.547 0.161,-0.211 0.333,-0.456 0.519,-0.725 0.095,-0.133 0.189,-0.276 0.287,-0.423 0.096,-0.148 0.2,-0.297 0.299,-0.457 0.101,-0.158 0.204,-0.321 0.309,-0.487 0.102,-0.169 0.207,-0.341 0.313,-0.516 0.208,-0.353 0.421,-0.719 0.635,-1.092 0.213,-0.372 0.43,-0.751 0.648,-1.129 0.109,-0.189 0.218,-0.378 0.327,-0.566 0.112,-0.186 0.223,-0.371 0.333,-0.555 0.114,-0.181 0.227,-0.361 0.339,-0.539 0.116,-0.174 0.231,-0.347 0.343,-0.517 0.117,-0.166 0.232,-0.33 0.345,-0.491 0.117,-0.157 0.231,-0.31 0.342,-0.46 0.225,-0.298 0.451,-0.566 0.682,-0.79 0.229,-0.224 0.468,-0.397 0.699,-0.498 0.231,-0.103 0.451,-0.125 0.624,-0.103 0.174,0.02 0.305,0.068 0.391,0.105 0.085,0.039 0.131,0.06 0.131,0.06 0,0 -0.045,-0.023 -0.128,-0.066 -0.085,-0.04 -0.214,-0.096 -0.39,-0.122 -0.175,-0.027 -0.401,-0.013 -0.641,0.085 -0.24,0.096 -0.49,0.267 -0.726,0.492 -0.238,0.222 -0.472,0.491 -0.703,0.785 -0.114,0.148 -0.232,0.301 -0.352,0.457 -0.114,0.16 -0.231,0.323 -0.35,0.49 -0.114,0.17 -0.23,0.343 -0.348,0.518 -0.113,0.177 -0.228,0.357 -0.343,0.539 -0.112,0.184 -0.225,0.369 -0.338,0.555 -0.11,0.188 -0.22,0.376 -0.331,0.564 -0.215,0.38 -0.43,0.76 -0.642,1.135 -0.211,0.374 -0.421,0.74 -0.628,1.093 -0.104,0.176 -0.206,0.348 -0.307,0.518 -0.102,0.167 -0.202,0.332 -0.3,0.491 -0.096,0.161 -0.197,0.312 -0.291,0.461 -0.095,0.149 -0.186,0.292 -0.278,0.427 -0.182,0.271 -0.348,0.52 -0.502,0.736 -0.152,0.217 -0.284,0.407 -0.4,0.558 -0.226,0.307 -0.355,0.482 -0.355,0.482"
           style="fill:#ffffff;fill-opacity:1;fill-rule:nonzero;stroke:none;stroke-width:0.1"
           id="path7070" />
        <path
           d="m 545.73868,1303.1657 c 0,0 0.012,0 0.036,0.013 0.023,0.01 0.059,0.022 0.107,0.033 0.095,0.023 0.248,0.034 0.431,-0.033 0.182,-0.067 0.387,-0.196 0.596,-0.374 0.21,-0.178 0.431,-0.399 0.654,-0.656 0.223,-0.256 0.454,-0.543 0.687,-0.856 0.233,-0.313 0.474,-0.647 0.711,-1 0.238,-0.353 0.48,-0.72 0.72,-1.097 0.239,-0.378 0.476,-0.765 0.711,-1.153 0.236,-0.388 0.465,-0.78 0.69,-1.166 0.226,-0.382 0.45,-0.762 0.663,-1.129 0.426,-0.735 0.824,-1.422 1.165,-2.01 0.342,-0.587 0.624,-1.079 0.846,-1.405 0.111,-0.163 0.204,-0.287 0.278,-0.36 0.075,-0.075 0.13,-0.087 0.13,-0.087 0,0 -0.013,0 -0.038,0.012 -0.024,0.01 -0.058,0.032 -0.1,0.065 -0.08,0.068 -0.186,0.184 -0.306,0.342 -0.24,0.317 -0.558,0.787 -0.921,1.362 -0.365,0.574 -0.782,1.249 -1.222,1.976 -0.22,0.364 -0.447,0.741 -0.677,1.123 -0.228,0.383 -0.459,0.772 -0.69,1.162 -0.233,0.388 -0.468,0.775 -0.704,1.152 -0.233,0.38 -0.467,0.749 -0.698,1.104 -0.462,0.71 -0.912,1.359 -1.334,1.883 -0.213,0.26 -0.416,0.491 -0.613,0.676 -0.196,0.185 -0.388,0.321 -0.56,0.395 -0.086,0.036 -0.166,0.056 -0.237,0.065 -0.071,0.01 -0.131,0 -0.179,0 -0.049,-0.01 -0.085,-0.016 -0.109,-0.024 -0.024,-0.01 -0.037,-0.01 -0.037,-0.01"
           style="fill:#ffffff;fill-opacity:1;fill-rule:nonzero;stroke:none;stroke-width:0.1"
           id="path7072" />
        <path
           d="m 547.01168,1300.1267 c 0,0 0.135,-0.17 0.371,-0.468 0.119,-0.147 0.257,-0.334 0.415,-0.547 0.161,-0.211 0.334,-0.456 0.52,-0.725 0.095,-0.133 0.188,-0.275 0.286,-0.422 0.096,-0.148 0.201,-0.298 0.3,-0.457 0.1,-0.158 0.203,-0.321 0.309,-0.488 0.102,-0.168 0.206,-0.341 0.312,-0.516 0.209,-0.352 0.422,-0.718 0.635,-1.091 0.214,-0.373 0.431,-0.751 0.648,-1.13 0.109,-0.188 0.218,-0.377 0.327,-0.565 0.112,-0.186 0.223,-0.371 0.333,-0.555 0.114,-0.181 0.228,-0.361 0.339,-0.539 0.116,-0.175 0.231,-0.347 0.344,-0.517 0.116,-0.167 0.231,-0.331 0.344,-0.491 0.117,-0.157 0.231,-0.311 0.343,-0.46 0.225,-0.298 0.451,-0.566 0.681,-0.79 0.23,-0.224 0.468,-0.397 0.699,-0.499 0.231,-0.103 0.451,-0.124 0.625,-0.102 0.174,0.02 0.304,0.068 0.39,0.104 0.086,0.04 0.131,0.061 0.131,0.061 0,0 -0.044,-0.023 -0.128,-0.067 -0.085,-0.039 -0.213,-0.095 -0.389,-0.121 -0.175,-0.028 -0.402,-0.014 -0.642,0.085 -0.24,0.096 -0.49,0.267 -0.726,0.491 -0.237,0.223 -0.472,0.492 -0.702,0.786 -0.115,0.148 -0.232,0.3 -0.352,0.456 -0.115,0.16 -0.232,0.324 -0.351,0.491 -0.114,0.17 -0.23,0.342 -0.348,0.517 -0.113,0.178 -0.227,0.358 -0.343,0.539 -0.112,0.184 -0.224,0.369 -0.337,0.555 -0.111,0.188 -0.221,0.377 -0.332,0.565 -0.215,0.38 -0.43,0.76 -0.641,1.134 -0.212,0.374 -0.422,0.741 -0.628,1.094 -0.105,0.175 -0.207,0.348 -0.307,0.517 -0.103,0.168 -0.203,0.332 -0.3,0.492 -0.096,0.161 -0.198,0.312 -0.292,0.461 -0.094,0.148 -0.185,0.292 -0.278,0.426 -0.182,0.271 -0.347,0.521 -0.502,0.736 -0.152,0.217 -0.284,0.407 -0.399,0.559 -0.226,0.306 -0.355,0.481 -0.355,0.481"
           style="fill:#ffffff;fill-opacity:1;fill-rule:nonzero;stroke:none;stroke-width:0.1"
           id="path7074" />
        <path
           d="m 539.71168,1300.4437 c 0,0 0.012,0 0.036,0.014 0.023,0.01 0.059,0.021 0.107,0.032 0.095,0.023 0.248,0.034 0.431,-0.033 0.182,-0.066 0.387,-0.195 0.596,-0.374 0.21,-0.178 0.431,-0.399 0.654,-0.655 0.223,-0.257 0.454,-0.544 0.687,-0.857 0.233,-0.313 0.474,-0.647 0.711,-1 0.238,-0.352 0.48,-0.72 0.72,-1.097 0.239,-0.377 0.476,-0.765 0.711,-1.152 0.236,-0.388 0.465,-0.781 0.69,-1.167 0.226,-0.381 0.45,-0.761 0.663,-1.129 0.426,-0.735 0.824,-1.421 1.165,-2.01 0.342,-0.587 0.624,-1.078 0.846,-1.405 0.111,-0.163 0.204,-0.287 0.279,-0.36 0.074,-0.075 0.129,-0.087 0.129,-0.087 0,0 -0.013,0 -0.038,0.012 -0.024,0.01 -0.058,0.032 -0.099,0.065 -0.081,0.068 -0.187,0.184 -0.307,0.343 -0.239,0.316 -0.558,0.786 -0.921,1.361 -0.365,0.574 -0.782,1.25 -1.222,1.977 -0.22,0.364 -0.447,0.74 -0.677,1.122 -0.228,0.384 -0.459,0.773 -0.69,1.162 -0.233,0.388 -0.468,0.775 -0.704,1.153 -0.232,0.379 -0.467,0.749 -0.698,1.103 -0.462,0.71 -0.912,1.359 -1.334,1.883 -0.212,0.261 -0.416,0.492 -0.613,0.676 -0.196,0.186 -0.388,0.321 -0.56,0.396 -0.086,0.035 -0.166,0.055 -0.237,0.065 -0.07,0.01 -0.131,0 -0.179,0 -0.048,-0.01 -0.085,-0.016 -0.109,-0.023 -0.024,-0.01 -0.037,-0.011 -0.037,-0.011"
           style="fill:#ffffff;fill-opacity:1;fill-rule:nonzero;stroke:none;stroke-width:0.1"
           id="path7076" />
        <path
           d="m 540.98368,1297.4057 c 0,0 0.136,-0.17 0.372,-0.468 0.119,-0.148 0.257,-0.334 0.415,-0.547 0.161,-0.211 0.334,-0.456 0.52,-0.725 0.095,-0.133 0.188,-0.276 0.286,-0.423 0.096,-0.147 0.201,-0.297 0.3,-0.457 0.1,-0.158 0.203,-0.321 0.309,-0.487 0.102,-0.169 0.206,-0.341 0.312,-0.516 0.209,-0.353 0.422,-0.719 0.635,-1.092 0.214,-0.372 0.431,-0.751 0.648,-1.129 0.109,-0.189 0.218,-0.378 0.327,-0.566 0.112,-0.186 0.223,-0.371 0.333,-0.555 0.114,-0.181 0.228,-0.361 0.339,-0.539 0.116,-0.174 0.231,-0.347 0.344,-0.517 0.116,-0.166 0.231,-0.33 0.344,-0.491 0.117,-0.157 0.231,-0.31 0.343,-0.46 0.225,-0.297 0.451,-0.566 0.681,-0.789 0.23,-0.225 0.468,-0.398 0.699,-0.499 0.231,-0.103 0.452,-0.125 0.625,-0.103 0.174,0.02 0.304,0.068 0.39,0.105 0.086,0.039 0.131,0.06 0.131,0.06 0,0 -0.044,-0.023 -0.128,-0.066 -0.085,-0.04 -0.213,-0.096 -0.389,-0.122 -0.175,-0.027 -0.402,-0.013 -0.642,0.085 -0.24,0.096 -0.49,0.267 -0.726,0.492 -0.237,0.222 -0.472,0.491 -0.702,0.785 -0.115,0.149 -0.232,0.301 -0.352,0.456 -0.115,0.161 -0.232,0.324 -0.351,0.491 -0.114,0.17 -0.23,0.343 -0.348,0.518 -0.113,0.177 -0.227,0.357 -0.343,0.539 -0.112,0.184 -0.224,0.369 -0.337,0.555 -0.111,0.188 -0.221,0.376 -0.331,0.564 -0.216,0.38 -0.431,0.76 -0.642,1.135 -0.212,0.374 -0.422,0.74 -0.628,1.093 -0.104,0.176 -0.207,0.348 -0.307,0.518 -0.103,0.167 -0.203,0.332 -0.3,0.491 -0.096,0.161 -0.198,0.312 -0.292,0.461 -0.094,0.149 -0.185,0.292 -0.278,0.427 -0.182,0.271 -0.347,0.521 -0.502,0.736 -0.152,0.217 -0.284,0.407 -0.399,0.558 -0.226,0.307 -0.356,0.482 -0.356,0.482"
           style="fill:#ffffff;fill-opacity:1;fill-rule:nonzero;stroke:none;stroke-width:0.1"
           id="path7078" />
        <path
           d="m 533.64968,1297.7057 c 0,0 0.012,0.01 0.035,0.014 0.024,0.01 0.06,0.021 0.108,0.032 0.095,0.024 0.247,0.034 0.431,-0.032 0.182,-0.067 0.387,-0.196 0.596,-0.375 0.21,-0.177 0.43,-0.398 0.653,-0.655 0.224,-0.256 0.455,-0.544 0.688,-0.857 0.232,-0.313 0.473,-0.646 0.711,-0.999 0.238,-0.353 0.479,-0.72 0.719,-1.098 0.239,-0.377 0.476,-0.764 0.712,-1.152 0.236,-0.388 0.464,-0.78 0.689,-1.166 0.227,-0.382 0.451,-0.762 0.664,-1.129 0.426,-0.736 0.824,-1.422 1.164,-2.01 0.343,-0.587 0.625,-1.079 0.847,-1.405 0.11,-0.163 0.203,-0.287 0.278,-0.36 0.075,-0.075 0.13,-0.087 0.13,-0.087 0,0 -0.013,0 -0.038,0.012 -0.025,0.01 -0.059,0.031 -0.1,0.064 -0.081,0.068 -0.186,0.185 -0.306,0.343 -0.24,0.317 -0.558,0.787 -0.922,1.362 -0.365,0.574 -0.781,1.249 -1.221,1.976 -0.22,0.364 -0.447,0.74 -0.678,1.123 -0.227,0.383 -0.458,0.772 -0.69,1.161 -0.233,0.388 -0.467,0.776 -0.703,1.153 -0.233,0.38 -0.468,0.749 -0.699,1.104 -0.461,0.71 -0.912,1.359 -1.333,1.882 -0.213,0.261 -0.416,0.492 -0.613,0.676 -0.196,0.186 -0.388,0.322 -0.56,0.396 -0.086,0.035 -0.167,0.056 -0.237,0.065 -0.071,0.01 -0.132,0.01 -0.18,0 -0.048,-0.01 -0.084,-0.016 -0.108,-0.024 -0.025,-0.01 -0.037,-0.011 -0.037,-0.011"
           style="fill:#ffffff;fill-opacity:1;fill-rule:nonzero;stroke:none;stroke-width:0.1"
           id="path7080" />
        <path
           d="m 534.92168,1294.6677 c 0,0 0.135,-0.17 0.372,-0.468 0.119,-0.148 0.256,-0.334 0.415,-0.547 0.161,-0.211 0.333,-0.456 0.519,-0.725 0.095,-0.133 0.189,-0.275 0.287,-0.422 0.096,-0.148 0.2,-0.298 0.299,-0.457 0.101,-0.159 0.204,-0.322 0.309,-0.488 0.102,-0.169 0.207,-0.341 0.313,-0.516 0.208,-0.352 0.421,-0.718 0.635,-1.091 0.213,-0.373 0.43,-0.752 0.648,-1.13 0.109,-0.189 0.218,-0.377 0.327,-0.565 0.112,-0.186 0.223,-0.372 0.333,-0.555 0.114,-0.182 0.227,-0.361 0.339,-0.539 0.116,-0.175 0.231,-0.348 0.343,-0.517 0.117,-0.167 0.232,-0.331 0.345,-0.491 0.117,-0.157 0.231,-0.311 0.342,-0.461 0.225,-0.297 0.451,-0.565 0.682,-0.789 0.229,-0.224 0.468,-0.398 0.699,-0.499 0.231,-0.103 0.451,-0.124 0.624,-0.103 0.174,0.021 0.305,0.069 0.391,0.105 0.085,0.04 0.131,0.061 0.131,0.061 0,0 -0.045,-0.024 -0.128,-0.067 -0.085,-0.04 -0.214,-0.095 -0.39,-0.121 -0.175,-0.028 -0.401,-0.014 -0.641,0.084 -0.24,0.097 -0.49,0.268 -0.726,0.492 -0.238,0.223 -0.472,0.491 -0.703,0.786 -0.114,0.148 -0.232,0.3 -0.352,0.456 -0.114,0.16 -0.231,0.324 -0.35,0.49 -0.114,0.17 -0.23,0.343 -0.348,0.518 -0.113,0.178 -0.228,0.358 -0.343,0.539 -0.112,0.184 -0.225,0.369 -0.338,0.555 -0.11,0.188 -0.22,0.376 -0.331,0.565 -0.215,0.38 -0.43,0.76 -0.642,1.134 -0.211,0.374 -0.421,0.74 -0.628,1.093 -0.104,0.176 -0.206,0.349 -0.307,0.518 -0.102,0.168 -0.202,0.332 -0.3,0.492 -0.096,0.161 -0.197,0.312 -0.291,0.461 -0.095,0.148 -0.186,0.292 -0.278,0.426 -0.182,0.271 -0.348,0.521 -0.502,0.736 -0.152,0.217 -0.284,0.407 -0.4,0.559 -0.226,0.306 -0.355,0.481 -0.355,0.481"
           style="fill:#ffffff;fill-opacity:1;fill-rule:nonzero;stroke:none;stroke-width:0.1"
           id="path7082" />
        <path
           d="m 528.32008,1294.6947 c 0,0 0.0418,-0.03 0.1207,-0.086 0.0769,-0.058 0.191,-0.147 0.3234,-0.273 0.134,-0.124 0.2883,-0.285 0.4602,-0.475 0.1691,-0.192 0.357,-0.413 0.5492,-0.664 0.1941,-0.249 0.3992,-0.524 0.6066,-0.821 0.2094,-0.296 0.4254,-0.611 0.641,-0.943 0.109,-0.165 0.2184,-0.334 0.3274,-0.505 0.1101,-0.172 0.2211,-0.345 0.3291,-0.523 0.219,-0.352 0.436,-0.714 0.655,-1.075 0.426,-0.727 0.852,-1.454 1.251,-2.136 0.396,-0.684 0.766,-1.322 1.082,-1.869 0.319,-0.545 0.582,-1.001 0.791,-1.303 0.104,-0.15 0.191,-0.265 0.262,-0.331 0.035,-0.034 0.066,-0.054 0.087,-0.066 0.022,-0.01 0.035,-0.014 0.035,-0.014 0,0 -0.013,0 -0.036,0.011 -0.022,0.01 -0.055,0.028 -0.093,0.059 -0.076,0.062 -0.176,0.168 -0.289,0.315 -0.225,0.292 -0.522,0.728 -0.862,1.261 -0.341,0.533 -0.729,1.16 -1.14,1.835 -0.204,0.338 -0.416,0.687 -0.631,1.042 -0.212,0.356 -0.427,0.718 -0.643,1.08 -0.215,0.362 -0.43,0.724 -0.6462,1.077 -0.2164,0.353 -0.4265,0.702 -0.6379,1.034 -0.2105,0.333 -0.4144,0.654 -0.614,0.955 -0.0985,0.151 -0.1969,0.296 -0.293,0.436 -0.0941,0.141 -0.1883,0.274 -0.2797,0.402 -0.1816,0.257 -0.3547,0.486 -0.5113,0.687 -0.1594,0.199 -0.3031,0.368 -0.4289,0.499 -0.1254,0.132 -0.2281,0.23 -0.3016,0.295 -0.0746,0.062 -0.114,0.096 -0.114,0.096"
           style="fill:#ffffff;fill-opacity:1;fill-rule:nonzero;stroke:none;stroke-width:0.1"
           id="path7084" />
        <path
           d="m 529.33688,1290.9967 c 0,0 0.1199,-0.162 0.3293,-0.444 0.1058,-0.14 0.2257,-0.317 0.3671,-0.517 0.143,-0.199 0.2934,-0.432 0.4606,-0.683 0.1625,-0.255 0.3406,-0.529 0.5199,-0.826 0.1824,-0.294 0.3695,-0.608 0.5586,-0.935 0.3793,-0.654 0.7723,-1.357 1.1833,-2.049 0.101,-0.173 0.203,-0.347 0.308,-0.517 0.103,-0.172 0.207,-0.342 0.314,-0.508 0.105,-0.167 0.212,-0.331 0.32,-0.491 0.054,-0.081 0.108,-0.161 0.161,-0.24 0.055,-0.078 0.11,-0.155 0.164,-0.232 0.107,-0.154 0.216,-0.304 0.325,-0.447 0.109,-0.145 0.211,-0.288 0.32,-0.422 0.213,-0.268 0.429,-0.509 0.65,-0.705 0.22,-0.194 0.445,-0.346 0.664,-0.423 0.217,-0.08 0.42,-0.086 0.579,-0.064 0.159,0.029 0.28,0.07 0.359,0.106 0.078,0.036 0.12,0.055 0.12,0.055 0,0 -0.041,-0.021 -0.118,-0.061 -0.077,-0.039 -0.196,-0.088 -0.356,-0.122 -0.161,-0.029 -0.368,-0.03 -0.595,0.044 -0.227,0.072 -0.463,0.221 -0.691,0.415 -0.228,0.195 -0.452,0.436 -0.672,0.702 -0.111,0.131 -0.218,0.275 -0.33,0.418 -0.113,0.141 -0.221,0.293 -0.331,0.446 -0.055,0.077 -0.11,0.154 -0.166,0.232 -0.054,0.08 -0.108,0.16 -0.162,0.24 -0.111,0.16 -0.219,0.325 -0.325,0.492 -0.109,0.166 -0.215,0.336 -0.319,0.508 -0.107,0.17 -0.21,0.344 -0.312,0.517 -0.407,0.697 -0.796,1.402 -1.1712,2.057 -0.1886,0.327 -0.3679,0.645 -0.5445,0.942 -0.1734,0.299 -0.3465,0.576 -0.5039,0.834 -0.1633,0.253 -0.3062,0.49 -0.4426,0.693 -0.1351,0.204 -0.2496,0.385 -0.3515,0.528 -0.1985,0.291 -0.3121,0.457 -0.3121,0.457"
           style="fill:#ffffff;fill-opacity:1;fill-rule:nonzero;stroke:none;stroke-width:0.1"
           id="path7086" />
      </g>
      <g
         id="g7206"
         transform="matrix(0.39857797,-0.48258914,0.55805345,0.26856844,-326.46794,1014.9452)">
        <path
           d="m 443.84764,1335.3912 c -1.844,4.059 -9.386,5.437 -11.978,1.512 -3.924,-5.181 -53.992,-87.056 -130.631,-135.823 -5.266,-3.35 -8.508,-9.163 -10.579,-15.05 -0.796,-2.26 -1.375,-4.668 -1.477,-7.028 h -0.002 c 0,0 0,-0.025 0,-0.062 -0.041,-1.024 0.009,-2.037 0.172,-3.025 0.298,-2.657 1.102,-6.442 3.259,-8.907 0.181,0.8 0.291,1.557 0.347,2.275 0.027,-0.024 0.052,-0.049 0.079,-0.073 0.033,-0.029 0.067,-0.059 0.1,-0.088 4.206,-3.649 10.023,-3.02 14.701,0 35.427,22.871 109.708,90.022 135.379,160.57 0.869,-0.581 1.718,-0.916 1.924,-0.196 0.626,2.193 -1.292,5.889 -1.294,5.893"
           style="fill:#172330;fill-opacity:1;fill-rule:nonzero;stroke:none;stroke-width:0.1"
           id="path7132" />
        <path
           d="m 427.78464,1387.7352 c 2.033,-0.879 3.808,-2.161 5.247,-3.728 3.462,-3.769 4.705,-9.075 3.515,-14.052 l -4.748,-18.894 c -0.097,-0.404 -0.19,-0.809 -0.28,-1.214 -2.018,-9.064 -0.575,-16.277 1.469,-25.335 l 0.701,-3.104 c 1.247,-6.543 0.453,-14.542 0.192,-17.179 -0.797,-8.039 1.832,-14.684 4.209,-16.454 2.443,-1.82 4.478,1.054 3.348,2.772 -3.875,5.892 -3.17,13.552 -3.126,15.194 0.179,6.657 5.665,68.34 19.969,148.888 0,0 5.082,22.728 -8.745,24.184 -0.05,0 -0.101,0.01 -0.151,0 l -9.798,-0.551 c -0.367,-0.02 -0.681,-0.267 -0.786,-0.62 -1.666,-5.611 -14.526,-50.471 -11.899,-89.56 0.347,-0.16 0.415,-0.148 0.883,-0.35"
           style="fill:#172330;fill-opacity:1;fill-rule:nonzero;stroke:none;stroke-width:0.1"
           id="path7134" />
        <path
           d="m 439.78064,1477.5482 c 0,0 -0.089,-0.337 -0.257,-0.968 -0.174,-0.629 -0.391,-1.562 -0.696,-2.741 -0.281,-1.185 -0.644,-2.619 -1.017,-4.275 -0.19,-0.827 -0.391,-1.707 -0.603,-2.634 -0.206,-0.929 -0.422,-1.906 -0.647,-2.926 -0.465,-2.036 -0.901,-4.255 -1.397,-6.596 -0.229,-1.174 -0.464,-2.38 -0.705,-3.612 -0.121,-0.616 -0.243,-1.239 -0.367,-1.868 -0.118,-0.63 -0.236,-1.266 -0.356,-1.907 -0.237,-1.283 -0.477,-2.588 -0.721,-3.908 -0.237,-1.322 -0.452,-2.664 -0.683,-4.014 -0.475,-2.698 -0.867,-5.454 -1.284,-8.205 -0.224,-1.374 -0.395,-2.755 -0.583,-4.128 -0.186,-1.373 -0.371,-2.741 -0.554,-4.099 -0.154,-1.361 -0.307,-2.711 -0.458,-4.045 -0.075,-0.667 -0.15,-1.33 -0.224,-1.988 -0.076,-0.658 -0.151,-1.311 -0.202,-1.962 -0.115,-1.299 -0.229,-2.576 -0.34,-3.827 -0.108,-1.251 -0.249,-2.472 -0.309,-3.666 -0.146,-2.387 -0.314,-4.643 -0.415,-6.727 -0.071,-2.087 -0.136,-3.999 -0.194,-5.694 -0.012,-0.424 -0.036,-0.834 -0.038,-1.23 0.001,-0.397 0.001,-0.779 0.002,-1.146 10e-4,-0.734 0.002,-1.408 0.003,-2.017 -0.003,-2.437 -0.006,-3.83 -0.006,-3.83 0,0 -0.039,1.392 -0.109,3.829 -0.015,0.609 -0.033,1.284 -0.051,2.018 -0.01,0.368 -0.019,0.75 -0.03,1.147 -0.007,0.396 0.007,0.807 0.009,1.231 0.024,1.699 0.052,3.615 0.082,5.705 0.07,2.089 0.206,4.349 0.317,6.743 0.042,1.197 0.166,2.422 0.256,3.676 0.102,1.254 0.207,2.535 0.313,3.837 0.047,0.652 0.12,1.307 0.192,1.966 0.071,0.66 0.143,1.324 0.215,1.993 0.145,1.337 0.291,2.69 0.439,4.054 0.177,1.361 0.356,2.732 0.535,4.109 0.183,1.376 0.346,2.76 0.566,4.137 0.431,2.753 0.836,5.511 1.325,8.211 0.238,1.351 0.46,2.694 0.703,4.016 0.251,1.321 0.498,2.626 0.741,3.91 0.238,1.284 0.489,2.544 0.753,3.774 0.259,1.23 0.512,2.434 0.758,3.605 0.53,2.336 0.999,4.551 1.494,6.582 0.242,1.016 0.474,1.99 0.694,2.917 0.235,0.923 0.457,1.798 0.666,2.621 0.412,1.647 0.81,3.073 1.12,4.252 0.329,1.174 0.584,2.097 0.775,2.721 0.188,0.625 0.288,0.959 0.288,0.959"
           style="fill:#ffffff;fill-opacity:1;fill-rule:nonzero;stroke:none;stroke-width:0.1"
           id="path7136" />
        <path
           d="m 457.22164,1471.3712 c 0,0 0.035,-0.181 0.103,-0.533 0.064,-0.351 0.153,-0.876 0.236,-1.564 0.166,-1.375 0.304,-3.413 0.168,-6.002 -0.068,-1.293 -0.194,-2.723 -0.414,-4.27 -0.106,-0.771 -0.251,-1.581 -0.406,-2.399 -0.137,-0.83 -0.279,-1.69 -0.425,-2.578 -0.591,-3.553 -1.257,-7.561 -1.984,-11.933 -0.701,-4.376 -1.461,-9.116 -2.264,-14.129 -0.769,-5.019 -1.58,-10.312 -2.419,-15.788 -0.808,-5.48 -1.679,-11.137 -2.477,-16.898 -0.406,-2.88 -0.814,-5.782 -1.224,-8.696 -0.394,-2.916 -0.789,-5.844 -1.185,-8.771 -0.407,-2.926 -0.779,-5.857 -1.169,-8.773 -0.192,-1.459 -0.383,-2.915 -0.575,-4.366 -0.182,-1.453 -0.364,-2.901 -0.546,-4.344 -0.736,-5.769 -1.411,-11.453 -2.051,-16.955 -0.625,-5.503 -1.233,-10.823 -1.767,-15.871 -0.535,-5.049 -1.007,-9.826 -1.387,-14.24 -0.087,-1.103 -0.172,-2.184 -0.255,-3.24 -0.038,-0.527 -0.062,-1.048 -0.093,-1.563 -0.014,-0.26 -0.029,-0.518 -0.044,-0.775 -0.022,-0.257 -0.044,-0.511 -0.066,-0.765 -0.191,-2.005 -0.259,-3.913 -0.143,-5.7 0.112,-1.786 0.399,-3.447 0.857,-4.925 0.224,-0.737 0.517,-1.427 0.776,-2.091 0.266,-0.66 0.54,-1.282 0.819,-1.862 0.281,-0.579 0.565,-1.121 0.881,-1.595 0.159,-0.241 0.325,-0.446 0.504,-0.661 0.167,-0.217 0.306,-0.454 0.367,-0.71 0.067,-0.253 0.02,-0.53 -0.096,-0.735 -0.114,-0.216 -0.291,-0.377 -0.483,-0.482 -0.388,-0.21 -0.809,-0.214 -1.147,-0.131 -0.341,0.084 -0.613,0.252 -0.806,0.433 -0.196,0.181 -0.324,0.368 -0.409,0.525 -0.084,0.159 -0.134,0.286 -0.163,0.372 -0.028,0.086 -0.043,0.13 -0.043,0.13 0,0 0.016,-0.044 0.046,-0.129 0.031,-0.086 0.083,-0.211 0.171,-0.367 0.088,-0.154 0.219,-0.337 0.416,-0.51 0.194,-0.175 0.465,-0.333 0.799,-0.407 0.33,-0.073 0.737,-0.058 1.1,0.149 0.178,0.103 0.339,0.259 0.439,0.457 0.105,0.203 0.137,0.435 0.073,0.67 -0.061,0.233 -0.196,0.454 -0.361,0.659 -0.17,0.196 -0.362,0.42 -0.524,0.658 -0.331,0.478 -0.625,1.019 -0.919,1.597 -0.29,0.58 -0.577,1.2 -0.856,1.86 -0.271,0.663 -0.575,1.346 -0.817,2.096 -0.49,1.491 -0.809,3.17 -0.953,4.975 -0.148,1.806 -0.111,3.741 0.046,5.759 0.043,0.511 0.065,0.996 0.088,1.522 0.025,0.519 0.044,1.046 0.076,1.576 0.073,1.06 0.147,2.143 0.223,3.25 0.334,4.422 0.758,9.207 1.24,14.264 0.232,2.53 0.508,5.124 0.77,7.779 0.26,2.654 0.581,5.36 0.877,8.115 0.621,5.507 1.277,11.196 1.994,16.97 0.177,1.444 0.354,2.894 0.532,4.348 0.186,1.452 0.373,2.91 0.56,4.37 0.381,2.919 0.74,5.853 1.142,8.781 0.405,2.927 0.811,5.855 1.215,8.771 0.42,2.914 0.838,5.816 1.253,8.696 0.819,5.761 1.71,11.417 2.536,16.897 0.844,5.476 1.725,10.76 2.543,15.773 0.855,5.008 1.663,9.742 2.409,14.112 0.788,4.362 1.51,8.36 2.15,11.904 0.162,0.886 0.318,1.743 0.469,2.57 0.172,0.832 0.325,1.617 0.445,2.388 0.245,1.534 0.395,2.956 0.484,4.244 0.172,2.575 0.094,4.61 -0.045,5.986 -0.067,0.689 -0.144,1.214 -0.2,1.567 -0.06,0.353 -0.091,0.535 -0.091,0.535"
           style="fill:#ffffff;fill-opacity:1;fill-rule:nonzero;stroke:none;stroke-width:0.1"
           id="path7138" />
        <path
           d="m 441.12664,1395.7402 c 9.436,60.834 12.398,66.372 11.773,77.051 0.729,-2.361 0.571,-9.145 0.191,-12.97 -0.226,-2.285 -0.577,-3.897 -0.58,-3.913 l -0.026,-0.117 -0.023,-0.128 c -4.863,-27.381 -8.457,-49.523 -11.33,-70.357 -2.518,1.559 -4.915,2.058 -9.122,2.84 2.345,-0.2 5.259,1.388 6.459,2.774 1.085,1.254 2.404,3.182 2.658,4.82"
           style="fill:#ffffff;fill-opacity:1;fill-rule:nonzero;stroke:none;stroke-width:0.1"
           id="path7140" />
        <path
           d="m 426.95164,1388.3762 c 0,0 0.955,-0.18 2.38,-0.474 1.425,-0.294 3.323,-0.699 5.208,-1.171 0.471,-0.115 0.94,-0.242 1.402,-0.367 0.461,-0.128 0.913,-0.261 1.347,-0.401 0.435,-0.143 0.851,-0.298 1.234,-0.46 0.386,-0.163 0.747,-0.321 1.075,-0.481 0.658,-0.315 1.184,-0.621 1.538,-0.856 0.355,-0.234 0.533,-0.4 0.533,-0.4 0,0 -0.186,0.157 -0.551,0.371 -0.364,0.216 -0.902,0.494 -1.571,0.772 -0.667,0.279 -1.463,0.573 -2.327,0.827 -0.435,0.124 -0.887,0.242 -1.349,0.353 -0.463,0.109 -0.934,0.219 -1.407,0.318 -1.89,0.408 -3.796,0.748 -5.226,0.994 -1.431,0.245 -2.386,0.392 -2.386,0.392 l 0.1,0.583"
           style="fill:#ffffff;fill-opacity:1;fill-rule:nonzero;stroke:none;stroke-width:0.1"
           id="path7142" />
        <path
           d="m 432.75664,1333.0612 c -3.924,-5.181 -53.993,-87.056 -130.632,-135.823 -5.265,-3.35 -8.507,-9.163 -10.579,-15.05 -2.013,-5.72 -2.654,-12.39 2.379,-16.818 0.033,-0.029 0.066,-0.058 0.1,-0.088 4.205,-3.649 10.023,-3.02 14.7,0 35.766,23.09 111.133,91.31 136.103,162.593 2.332,6.656 -8.805,10.134 -12.071,5.186"
           style="fill:#172330;fill-opacity:1;fill-rule:nonzero;stroke:none;stroke-width:0.1"
           id="path7144" />
        <path
           d="m 300.83764,1165.7312 c 79.767,56.875 131.043,132.982 141.201,163.121 -13.667,-39.017 -42.017,-75.019 -63.393,-98.35 -27.387,-29.893 -54.904,-52.008 -71.523,-62.737 -2.032,-1.312 -4.264,-2.034 -6.284,-2.034 h -10e-4"
           style="fill:#ffffff;fill-opacity:1;fill-rule:nonzero;stroke:none;stroke-width:0.1"
           id="path7146" />
        <path
           d="m 443.79164,1324.9952 c 0,0 0.313,0.884 0.901,2.542 0.077,0.207 0.151,0.426 0.214,0.663 0.03,0.119 0.076,0.238 0.096,0.365 0.022,0.126 0.044,0.256 0.066,0.388 0.066,0.531 0.08,1.129 -0.074,1.747 -0.151,0.615 -0.447,1.244 -0.893,1.817 -0.446,0.573 -1.031,1.095 -1.727,1.521 -0.695,0.426 -1.495,0.766 -2.367,0.992 -0.871,0.227 -1.819,0.341 -2.797,0.268 -0.976,-0.062 -1.989,-0.325 -2.891,-0.867 -0.447,-0.276 -0.851,-0.632 -1.199,-1.047 l -0.243,-0.327 -0.244,-0.345 c -0.163,-0.23 -0.327,-0.462 -0.483,-0.7 -2.53,-3.803 -5.356,-8.128 -8.565,-12.754 -6.4,-9.266 -14.132,-19.902 -22.946,-30.885 -4.406,-5.49 -9.043,-11.098 -13.904,-16.668 -4.862,-5.568 -9.903,-11.138 -15.082,-16.578 -1.293,-1.361 -2.617,-2.693 -3.922,-4.04 l -1.964,-2.013 c -0.665,-0.66 -1.33,-1.319 -1.994,-1.977 -1.332,-1.314 -2.646,-2.639 -3.983,-3.934 -1.345,-1.287 -2.686,-2.569 -4.022,-3.847 -1.324,-1.289 -2.694,-2.52 -4.038,-3.765 -0.673,-0.621 -1.345,-1.24 -2.015,-1.857 -0.669,-0.62 -1.338,-1.234 -2.021,-1.83 -2.716,-2.398 -5.375,-4.795 -8.081,-7.049 -1.347,-1.133 -2.662,-2.281 -4.002,-3.374 -1.344,-1.088 -2.675,-2.166 -3.992,-3.233 -0.659,-0.532 -1.315,-1.061 -1.967,-1.587 -0.663,-0.511 -1.323,-1.019 -1.979,-1.525 -1.312,-1.01 -2.608,-2.008 -3.886,-2.993 -0.634,-0.499 -1.285,-0.967 -1.927,-1.437 -0.642,-0.47 -1.279,-0.936 -1.912,-1.399 -1.265,-0.926 -2.512,-1.837 -3.737,-2.733 -2.5,-1.724 -4.902,-3.408 -7.23,-4.993 -2.359,-1.538 -4.619,-3.013 -6.769,-4.415 -2.153,-1.373 -3.904,-3.084 -5.304,-4.88 -1.406,-1.794 -2.483,-3.651 -3.356,-5.421 -0.878,-1.77 -1.538,-3.465 -2.082,-5.012 -0.537,-1.549 -0.893,-2.974 -1.113,-4.229 -0.212,-1.256 -0.292,-2.34 -0.291,-3.219 -0.001,-0.879 0.075,-1.551 0.13,-2.001 0.073,-0.449 0.111,-0.68 0.111,-0.68 0,0 -0.04,0.231 -0.117,0.679 -0.06,0.45 -0.143,1.121 -0.15,2.002 -0.009,0.88 0.06,1.967 0.261,3.229 0.208,1.26 0.551,2.692 1.075,4.251 0.53,1.555 1.175,3.261 2.039,5.047 0.86,1.785 1.924,3.663 3.324,5.485 0.708,0.903 1.474,1.814 2.368,2.649 0.885,0.838 1.875,1.637 2.952,2.34 2.14,1.413 4.389,2.9 6.736,4.451 2.317,1.596 4.708,3.291 7.194,5.027 1.22,0.901 2.46,1.818 3.719,2.749 0.629,0.466 1.263,0.935 1.902,1.408 0.638,0.473 1.286,0.943 1.916,1.445 1.272,0.991 2.56,1.995 3.865,3.011 0.652,0.508 1.308,1.019 1.968,1.533 0.649,0.529 1.301,1.061 1.956,1.596 1.312,1.07 2.637,2.151 3.975,3.242 1.336,1.095 2.648,2.244 3.991,3.378 2.698,2.255 5.35,4.653 8.058,7.054 0.68,0.596 1.348,1.21 2.014,1.83 0.668,0.618 1.338,1.238 2.01,1.859 1.339,1.246 2.705,2.477 4.026,3.767 1.331,1.279 2.668,2.562 4.009,3.85 1.333,1.295 2.644,2.621 3.971,3.935 0.662,0.659 1.325,1.319 1.988,1.979 l 1.958,2.014 c 1.302,1.347 2.62,2.681 3.911,4.041 5.183,5.424 10.227,10.978 15.095,16.531 4.865,5.556 9.507,11.15 13.919,16.628 4.402,5.485 8.578,10.853 12.432,16.022 3.859,5.166 7.419,10.116 10.64,14.731 3.227,4.613 6.09,8.9 8.665,12.688 0.16,0.238 0.326,0.468 0.49,0.696 l 0.245,0.338 0.256,0.34 c 0.367,0.429 0.791,0.795 1.257,1.076 0.939,0.552 1.98,0.81 2.975,0.864 0.998,0.064 1.958,-0.061 2.839,-0.299 0.881,-0.238 1.687,-0.59 2.388,-1.028 0.7,-0.439 1.288,-0.973 1.734,-1.559 0.447,-0.585 0.742,-1.226 0.888,-1.85 0.15,-0.627 0.13,-1.23 0.059,-1.766 -0.024,-0.134 -0.048,-0.264 -0.071,-0.392 -0.022,-0.128 -0.069,-0.245 -0.1,-0.364 -0.065,-0.236 -0.142,-0.458 -0.221,-0.662 -0.603,-1.653 -0.925,-2.534 -0.925,-2.534"
           style="fill:#ffffff;fill-opacity:1;fill-rule:nonzero;stroke:none;stroke-width:0.1"
           id="path7148" />
        <path
           d="m 423.39864,1313.0292 c 0,0 -0.413,-0.626 -1.187,-1.799 -0.39,-0.585 -0.87,-1.307 -1.435,-2.156 -0.564,-0.849 -1.22,-1.82 -1.964,-2.901 -1.478,-2.169 -3.298,-4.786 -5.423,-7.763 -2.133,-2.97 -4.552,-6.314 -7.274,-9.9 -2.719,-3.589 -5.689,-7.459 -8.935,-11.471 -3.241,-4.016 -6.694,-8.224 -10.383,-12.48 -0.916,-1.069 -1.859,-2.13 -2.798,-3.209 -0.471,-0.537 -0.944,-1.077 -1.419,-1.618 -0.48,-0.537 -0.961,-1.075 -1.444,-1.615 -0.971,-1.076 -1.93,-2.175 -2.925,-3.25 -0.994,-1.077 -1.992,-2.16 -2.995,-3.247 -4.043,-4.316 -8.22,-8.637 -12.481,-12.876 -4.295,-4.204 -8.652,-8.345 -13.041,-12.313 -1.087,-1.004 -2.204,-1.965 -3.296,-2.943 -1.102,-0.966 -2.19,-1.939 -3.301,-2.871 -1.104,-0.94 -2.201,-1.874 -3.29,-2.802 -1.093,-0.924 -2.198,-1.816 -3.283,-2.714 -2.164,-1.804 -4.345,-3.514 -6.475,-5.193 -1.059,-0.845 -2.143,-1.637 -3.194,-2.444 -1.059,-0.797 -2.093,-1.599 -3.133,-2.364 -1.044,-0.76 -2.073,-1.51 -3.087,-2.249 -1.013,-0.74 -2.007,-1.473 -3.013,-2.155 -0.998,-0.692 -1.98,-1.372 -2.943,-2.04 -0.483,-0.332 -0.956,-0.669 -1.434,-0.988 -0.479,-0.318 -0.953,-0.632 -1.423,-0.944 -0.939,-0.622 -1.858,-1.231 -2.757,-1.827 -0.893,-0.602 -1.782,-1.167 -2.655,-1.709 -0.869,-0.545 -1.717,-1.076 -2.541,-1.593 -0.411,-0.258 -0.817,-0.512 -1.217,-0.763 l -0.299,-0.187 -0.281,-0.184 c -0.194,-0.127 -0.387,-0.254 -0.578,-0.379 -1.463,-1 -2.695,-2.184 -3.734,-3.342 -1.038,-1.167 -1.88,-2.341 -2.584,-3.437 -0.696,-1.103 -1.252,-2.129 -1.721,-3.03 -0.455,-0.908 -0.817,-1.694 -1.096,-2.339 -0.277,-0.645 -0.482,-1.143 -0.612,-1.482 -0.133,-0.338 -0.202,-0.512 -0.202,-0.512 0,0 0.06,0.178 0.175,0.522 0.112,0.346 0.291,0.854 0.534,1.515 0.495,1.315 1.257,3.245 2.57,5.54 0.665,1.14 1.469,2.37 2.48,3.612 1.015,1.241 2.229,2.486 3.745,3.607 0.186,0.132 0.374,0.265 0.563,0.399 l 0.296,0.209 0.292,0.198 c 0.389,0.264 0.785,0.532 1.186,0.804 0.802,0.543 1.627,1.103 2.474,1.677 1.706,1.13 3.448,2.394 5.288,3.679 3.665,2.593 7.557,5.507 11.641,8.629 1.02,0.783 2.034,1.602 3.071,2.416 1.03,0.824 2.092,1.633 3.13,2.497 2.078,1.721 4.242,3.43 6.369,5.258 4.312,3.585 8.621,7.463 12.991,11.407 4.353,3.966 8.67,8.108 12.932,12.306 4.258,4.202 8.434,8.487 12.478,12.77 4.027,4.298 7.95,8.567 11.669,12.77 3.713,4.207 7.252,8.319 10.562,12.26 0.823,0.988 1.635,1.963 2.435,2.924 0.793,0.966 1.574,1.917 2.342,2.853 0.774,0.932 1.521,1.858 2.256,2.767 0.733,0.909 1.461,1.795 2.157,2.677 0.699,0.879 1.384,1.739 2.054,2.58 0.664,0.845 1.313,1.671 1.946,2.476 1.274,1.603 2.453,3.147 3.576,4.587 2.217,2.902 4.155,5.429 5.722,7.532 1.568,2.104 2.8,3.756 3.64,4.883 0.834,1.132 1.279,1.735 1.279,1.735"
           style="fill:#ffffff;fill-opacity:1;fill-rule:nonzero;stroke:none;stroke-width:0.1"
           id="path7150" />
        <path
           d="m 437.78323,1327.0168 c 0.796,-1.463 0.256,-3.295 -1.207,-4.091 -1.463,-0.796 -3.295,-0.255 -4.091,1.208 -0.796,1.463 -0.256,3.294 1.207,4.09 1.463,0.797 3.295,0.256 4.091,-1.207"
           style="fill:#ffffff;fill-opacity:1;fill-rule:nonzero;stroke:none;stroke-width:0.1"
           id="path7152" />
        <path
           d="m 437.65723,1326.9478 c 0.758,-1.393 0.243,-3.137 -1.15,-3.896 -1.394,-0.758 -3.138,-0.243 -3.896,1.15 -0.759,1.394 -0.244,3.138 1.15,3.896 1.393,0.759 3.137,0.244 3.896,-1.15"
           style="fill:#162623;fill-opacity:1;fill-rule:nonzero;stroke:none;stroke-width:0.1"
           id="path7154" />
        <path
           d="m 437.53823,1326.8828 c 0.722,-1.327 0.232,-2.989 -1.096,-3.712 -1.328,-0.722 -2.989,-0.232 -3.712,1.096 -0.723,1.328 -0.232,2.99 1.096,3.712 1.327,0.723 2.989,0.232 3.712,-1.096"
           style="fill:#ffffff;fill-opacity:1;fill-rule:nonzero;stroke:none;stroke-width:0.1"
           id="path7156" />
        <path
           d="m 437.46723,1326.6088 c 0.05,0.035 0.096,0.069 0.143,0.103 -0.026,0.057 -0.042,0.116 -0.072,0.171 -0.031,0.056 -0.072,0.102 -0.105,0.154 -0.054,-0.02 -0.107,-0.04 -0.164,-0.063 -0.682,-0.267 -1.562,-0.678 -2.414,-1.139 -0.825,-0.451 -1.619,-0.949 -2.209,-1.369 0.03,-0.066 0.049,-0.135 0.084,-0.199 0.035,-0.064 0.082,-0.117 0.121,-0.178 0.673,0.267 1.523,0.664 2.35,1.111 0.85,0.465 1.672,0.981 2.266,1.409"
           style="fill:#162623;fill-opacity:1;fill-rule:nonzero;stroke:none;stroke-width:0.1"
           id="path7158" />
        <path
           d="m 305.93264,1176.5132 c -1.375,-0.939 -3.252,-0.585 -4.191,0.791 -0.939,1.375 -0.585,3.252 0.79,4.191 1.376,0.939 3.253,0.585 4.192,-0.791 0.939,-1.375 0.585,-3.252 -0.791,-4.191"
           style="fill:#ffffff;fill-opacity:1;fill-rule:nonzero;stroke:none;stroke-width:0.1"
           id="path7160" />
        <path
           d="m 305.85164,1176.6322 c -1.31,-0.895 -3.097,-0.558 -3.992,0.752 -0.894,1.311 -0.557,3.098 0.753,3.992 1.31,0.895 3.098,0.558 3.992,-0.752 0.895,-1.311 0.558,-3.098 -0.753,-3.992"
           style="fill:#162623;fill-opacity:1;fill-rule:nonzero;stroke:none;stroke-width:0.1"
           id="path7162" />
        <path
           d="m 305.77564,1176.7442 c -1.249,-0.852 -2.951,-0.531 -3.803,0.717 -0.853,1.248 -0.532,2.951 0.717,3.803 1.248,0.852 2.951,0.531 3.803,-0.717 0.852,-1.248 0.531,-2.951 -0.717,-3.803"
           style="fill:#ffffff;fill-opacity:1;fill-rule:nonzero;stroke:none;stroke-width:0.1"
           id="path7164" />
        <path
           d="m 305.49464,1176.7862 c 0.041,-0.046 0.079,-0.088 0.117,-0.131 0.054,0.031 0.111,0.053 0.164,0.089 0.052,0.036 0.093,0.081 0.142,0.12 -0.026,0.051 -0.051,0.102 -0.079,0.156 -0.334,0.652 -0.831,1.486 -1.375,2.288 -0.533,0.774 -1.108,1.515 -1.585,2.059 -0.063,-0.036 -0.129,-0.061 -0.189,-0.103 -0.061,-0.041 -0.109,-0.093 -0.165,-0.138 0.333,-0.643 0.813,-1.448 1.341,-2.226 0.548,-0.799 1.144,-1.566 1.629,-2.114"
           style="fill:#162623;fill-opacity:1;fill-rule:nonzero;stroke:none;stroke-width:0.1"
           id="path7166" />
      </g>
    </g>
  </g>
</svg>
