<?xml version="1.0" encoding="UTF-8" standalone="no"?>
<svg
   xmlns:dc="http://purl.org/dc/elements/1.1/"
   xmlns:cc="http://creativecommons.org/ns#"
   xmlns:rdf="http://www.w3.org/1999/02/22-rdf-syntax-ns#"
   xmlns:svg="http://www.w3.org/2000/svg"
   xmlns="http://www.w3.org/2000/svg"
   xmlns:sodipodi="http://sodipodi.sourceforge.net/DTD/sodipodi-0.dtd"
   xmlns:inkscape="http://www.inkscape.org/namespaces/inkscape"
   width="103.1875mm"
   height="103.1875mm"
   viewBox="0 0 103.1875 103.1875"
   version="1.1"
   id="svg8637"
   inkscape:version="1.0.1 (3bc2e813f5, 2020-09-07)"
   sodipodi:docname="spa-stamp.svg">
  <defs
     id="defs8631" />
  <sodipodi:namedview
     id="base"
     pagecolor="#ffffff"
     bordercolor="#666666"
     borderopacity="1.0"
     inkscape:pageopacity="0.0"
     inkscape:pageshadow="2"
     inkscape:zoom="0.34074713"
     inkscape:cx="114.12692"
     inkscape:cy="226.07574"
     inkscape:document-units="mm"
     inkscape:current-layer="layer1"
     inkscape:document-rotation="0"
     showgrid="false"
     fit-margin-top="0"
     fit-margin-left="0"
     fit-margin-right="0"
     fit-margin-bottom="0"
     inkscape:window-width="1920"
     inkscape:window-height="1017"
     inkscape:window-x="-8"
     inkscape:window-y="-8"
     inkscape:window-maximized="1" />
  <metadata
     id="metadata8634">
    <rdf:RDF>
      <cc:Work
         rdf:about="">
        <dc:format>image/svg+xml</dc:format>
        <dc:type
           rdf:resource="http://purl.org/dc/dcmitype/StillImage" />
        <dc:title></dc:title>
      </cc:Work>
    </rdf:RDF>
  </metadata>
  <g
     inkscape:label="Calque 1"
     inkscape:groupmode="layer"
     id="layer1"
     transform="translate(-75.637252,-88.350794)">
    <g
       id="g8565"
       transform="matrix(0.52569617,0,0,-0.61336681,-682.84287,1080.6115)">
      <g
         id="g8490">
        <path
           d="m 1611.5574,1538.1788 -17.8689,-20.637 -0.085,0.049 c -14.547,8.31 -27.3316,19.3796 -37.6369,32.5884 l -0.059,0.077 17.8688,20.637 0.1907,-0.1082 c 14.5315,-8.3203 27.3001,-19.3947 37.5913,-32.6045 l -6e-4,-8e-4"
           style="fill:#172330;fill-opacity:1;fill-rule:nonzero;stroke:none;stroke-width:0.1"
           id="path8290" />
        <path
           d="m 1615.7728,1534.726 -17.5285,-20.2439 c -0.7815,-0.9027 -2.147,-1.0009 -3.0496,-0.2193 v 0 c -0.9027,0.7816 -1.0008,2.147 -0.2193,3.0497 l 17.5285,20.2439 c 0.7815,0.9026 2.147,1.0008 3.0496,0.2192 v 0 c 0.9027,-0.7816 1.0008,-2.147 0.2193,-3.0496"
           style="fill:#172330;fill-opacity:1;fill-rule:nonzero;stroke:none;stroke-width:0.1"
           id="path8292" />
        <path
           d="m 1574.2283,1571.4147 -18.7734,-21.6818 c -0.1951,-0.2253 -0.5364,-0.2498 -0.7617,-0.055 v 0 c -0.2261,0.1958 -0.2499,0.5365 -0.055,0.7617 l 18.7735,21.6818 c 0.195,0.2253 0.5356,0.2505 0.7617,0.055 v 0 c 0.2253,-0.1951 0.2498,-0.5364 0.055,-0.7617"
           style="fill:#162623;fill-opacity:1;fill-rule:nonzero;stroke:none;stroke-width:0.1"
           id="path8294" />
        <path
           d="m 1574.2667,1573.109 -20.4825,-23.6557 c -0.1951,-0.2253 -0.5364,-0.2498 -0.7617,-0.055 v 0 c -0.2253,0.1951 -0.2499,0.5364 -0.055,0.7617 l 20.4826,23.6557 c 0.195,0.2253 0.5357,0.2491 0.761,0.054 v 0 c 0.2253,-0.1951 0.2505,-0.5357 0.055,-0.7609"
           style="fill:#162623;fill-opacity:1;fill-rule:nonzero;stroke:none;stroke-width:0.1"
           id="path8296" />
        <path
           d="m 1618.3958,1534.2325 v 0 c -5.5295,-8.502 -12.1997,-16.2055 -19.8234,-22.8944 v 0 c -0.7815,-0.9026 -2.147,-1.0008 -3.0496,-0.2192 v 0 c -0.9027,0.7816 -1.0008,2.147 -0.2193,3.0497 l 19.8234,22.8944 c 0.7816,0.9026 2.147,1.0008 3.0497,0.2192 v 0 c 0.9026,-0.7816 1.0008,-2.147 0.2192,-3.0497"
           style="fill:#172330;fill-opacity:1;fill-rule:nonzero;stroke:none;stroke-width:0.1"
           id="path8298" />
        <path
           d="m 1559.2276,1553.3751 -2.0294,-1.9374 c 10.3054,-13.2088 23.3286,-24.4031 37.875,-32.7138 l 2.0487,2.0423 c -14.547,8.3099 -27.589,19.4001 -37.8943,32.6089"
           style="fill:#ffffff;fill-opacity:1;fill-rule:nonzero;stroke:none;stroke-width:0.1"
           id="path8300" />
        <path
           d="m 1572.8046,1569.4649 -4.1208,-5.743 c 14.5322,-8.3196 27.2447,-19.6496 37.5352,-32.8588 l 4.3909,5.812 c -10.2905,13.2092 -23.2732,24.4702 -37.8053,32.7898"
           style="fill:#ffffff;fill-opacity:1;fill-rule:nonzero;stroke:none;stroke-width:0.1"
           id="path8302" />
        <path
           d="m 1615.0181,1537.1572 c 0,0 -0.2488,-0.4049 -0.6843,-1.1126 -0.2177,-0.3538 -0.4913,-0.7783 -0.8088,-1.2626 -0.1577,-0.2431 -0.3256,-0.5012 -0.5023,-0.7741 -0.1835,-0.2684 -0.3751,-0.5509 -0.5759,-0.8453 -0.2022,-0.2932 -0.4127,-0.599 -0.6303,-0.9159 -0.2242,-0.3125 -0.4562,-0.6354 -0.6939,-0.968 -0.4732,-0.6656 -0.9953,-1.3511 -1.5333,-2.0626 -0.5501,-0.701 -1.107,-1.4358 -1.7067,-2.1559 -0.5871,-0.7284 -1.2087,-1.4495 -1.8214,-2.1769 -0.6316,-0.7111 -1.2556,-1.4287 -1.894,-2.1141 -0.6255,-0.6965 -1.2739,-1.3521 -1.8889,-1.9982 -0.6265,-0.6334 -1.2309,-1.249 -1.8228,-1.8119 -0.2944,-0.2834 -0.5808,-0.5592 -0.8573,-0.8251 -0.2826,-0.2607 -0.5551,-0.5128 -0.817,-0.7556 -0.2635,-0.2402 -0.5149,-0.4709 -0.7543,-0.6909 -0.2448,-0.214 -0.4762,-0.417 -0.6943,-0.6078 -0.4347,-0.3829 -0.815,-0.7137 -1.1347,-0.9805 -0.638,-0.5322 -1.0032,-0.8364 -1.0032,-0.8364 0,0 0.3444,0.3275 0.9447,0.9016 0.3051,0.2822 0.667,0.6329 1.0802,1.0383 0.4156,0.4021 0.8811,0.8588 1.3838,1.3614 0.5072,0.4987 1.0453,1.0499 1.6167,1.6319 0.5739,0.5772 1.1566,1.2089 1.7735,1.8481 0.6047,0.651 1.2306,1.322 1.8542,2.0162 0.6312,0.6863 1.2495,1.4049 1.8747,2.1162 0.6146,0.7205 1.2382,1.4346 1.8263,2.1582 0.5987,0.7158 1.1732,1.4313 1.731,2.1229 0.5436,0.7026 1.0862,1.369 1.5761,2.0203 0.4936,0.648 0.9622,1.2595 1.3825,1.8334 0.4261,0.5702 0.8117,1.0949 1.1501,1.5637 0.3408,0.4669 0.6368,0.8759 0.8731,1.2176 0.4816,0.6769 0.7565,1.0646 0.7565,1.0646"
           style="fill:#ffffff;fill-opacity:1;fill-rule:nonzero;stroke:none;stroke-width:0.1"
           id="path8304" />
        <path
           d="m 1618.1766,1537.2822 c 0,0 -0.281,-0.4498 -0.7724,-1.2373 -0.2439,-0.3947 -0.5598,-0.8619 -0.9165,-1.4022 -0.3523,-0.5429 -0.7671,-1.1441 -1.2281,-1.7926 -0.4526,-0.6557 -0.9708,-1.3459 -1.5061,-2.0848 -0.5451,-0.7318 -1.1198,-1.504 -1.7387,-2.283 -0.6188,-0.7803 -1.2584,-1.5863 -1.9266,-2.39 -0.6568,-0.8136 -1.352,-1.6165 -2.0351,-2.4298 -0.7065,-0.793 -1.4024,-1.5952 -2.1129,-2.3623 -0.7007,-0.7757 -1.4068,-1.524 -2.09,-2.2473 -0.6831,-0.7247 -1.3644,-1.4047 -2.0107,-2.0488 -0.6548,-0.6354 -1.2645,-1.2464 -1.848,-1.7875 -0.2895,-0.2731 -0.5677,-0.5349 -0.832,-0.7836 -0.2658,-0.2474 -0.5268,-0.4724 -0.7671,-0.6889 -0.4831,-0.4296 -0.9003,-0.8091 -1.2561,-1.1069 -0.7091,-0.599 -1.1147,-0.9422 -1.1147,-0.9422 0,0 0.3841,0.3658 1.0563,1.006 0.341,0.3145 0.7391,0.7132 1.2015,1.1647 0.464,0.4488 0.9732,0.9696 1.5361,1.5311 0.5668,0.5569 1.157,1.1835 1.7913,1.8366 0.623,0.663 1.2802,1.3625 1.9605,2.0856 0.6751,0.7276 1.3716,1.4817 2.0628,2.2616 0.7017,0.7707 1.3866,1.5785 2.0851,2.3745 0.6887,0.8045 1.3894,1.5986 2.0526,2.4027 0.6737,0.7963 1.3189,1.5935 1.9426,2.3657 0.6191,0.7761 1.2173,1.5266 1.785,2.2388 0.5543,0.7211 1.0907,1.3956 1.5615,2.0356 0.4738,0.6373 0.9164,1.2157 1.2943,1.7392 0.3807,0.5222 0.7183,0.9732 0.9808,1.3558 0.5375,0.7568 0.8446,1.1893 0.8446,1.1893"
           style="fill:#ffffff;fill-opacity:1;fill-rule:nonzero;stroke:none;stroke-width:0.1"
           id="path8306" />
        <path
           d="m 1613.6576,1537.3841 c 0,0 -0.2277,-0.3623 -0.6259,-0.9963 -0.1998,-0.3178 -0.4497,-0.6981 -0.7388,-1.1329 -0.2855,-0.4366 -0.6118,-0.928 -0.9832,-1.4516 -0.3631,-0.5309 -0.7683,-1.0967 -1.2048,-1.691 -0.4307,-0.5967 -0.9031,-1.2141 -1.3911,-1.8524 -0.4984,-0.6307 -1.0025,-1.2908 -1.5443,-1.938 -0.5313,-0.6564 -1.0908,-1.3056 -1.6441,-1.9614 -0.5686,-0.6413 -1.1317,-1.2887 -1.7047,-1.9076 -0.563,-0.6289 -1.1457,-1.2224 -1.6978,-1.8065 -0.562,-0.5742 -1.1048,-1.1294 -1.6352,-1.6411 -0.525,-0.5162 -1.0277,-0.999 -1.4998,-1.4342 -0.2359,-0.219 -0.4611,-0.4287 -0.6758,-0.6278 -0.2186,-0.1943 -0.4264,-0.3794 -0.6217,-0.553 -0.389,-0.3484 -0.7295,-0.6501 -1.0148,-0.8925 -0.5712,-0.4855 -0.8973,-0.7628 -0.8973,-0.7628 0,0 0.3052,0.3006 0.8388,0.8267 0.27,0.2583 0.5921,0.5799 0.9597,0.9495 0.3691,0.3682 0.7822,0.7857 1.2314,1.2434 0.4522,0.455 0.9329,0.9567 1.4422,1.4853 0.5123,0.526 1.0341,1.0981 1.5865,1.678 0.5424,0.5898 1.1027,1.1987 1.6638,1.8253 0.5664,0.6206 1.1232,1.2682 1.6867,1.9099 0.5545,0.6495 1.1166,1.2925 1.6497,1.9434 0.54,0.6435 1.0617,1.2857 1.5679,1.907 0.4949,0.6297 0.9872,1.2272 1.4345,1.8095 0.4502,0.5811 0.8781,1.1273 1.263,1.6406 0.3895,0.5093 0.7436,0.9779 1.0545,1.3965 0.3139,0.416 0.5854,0.7815 0.8024,1.0856 0.4444,0.6034 0.6982,0.9484 0.6982,0.9484"
           style="fill:#ffffff;fill-opacity:1;fill-rule:nonzero;stroke:none;stroke-width:0.1"
           id="path8308" />
        <path
           d="m 1573.7812,1570.8983 c 0,0 -0.2344,-0.3578 -0.6445,-0.9842 -0.2043,-0.3139 -0.4587,-0.6902 -0.7546,-1.1205 -0.2922,-0.4322 -0.6252,-0.9176 -1.0018,-1.4381 -0.3699,-0.525 -0.7826,-1.0857 -1.2201,-1.6765 -0.4343,-0.5948 -0.9099,-1.2082 -1.4016,-1.8433 -0.5008,-0.6272 -1.0124,-1.2808 -1.5522,-1.9285 -0.5306,-0.6557 -1.0894,-1.3041 -1.6421,-1.9592 -0.5686,-0.6399 -1.1311,-1.2865 -1.7041,-1.9055 -0.5639,-0.6268 -1.1375,-1.2267 -1.6867,-1.812 -0.5582,-0.5775 -1.0973,-1.1359 -1.6225,-1.6508 -0.5228,-0.5182 -1.0194,-1.0062 -1.486,-1.4474 -0.4613,-0.4472 -0.8934,-0.8469 -1.2801,-1.1973 -0.3829,-0.3536 -0.7196,-0.66 -1.001,-0.907 -0.5613,-0.4955 -0.8819,-0.7788 -0.8819,-0.7788 0,0 0.3098,0.2953 0.8527,0.8107 0.2737,0.255 0.6005,0.5713 0.9741,0.9356 0.3745,0.3623 0.7944,0.7739 1.2481,1.2276 0.4583,0.4484 0.9451,0.9449 1.4575,1.4709 0.5159,0.5241 1.0421,1.0936 1.5983,1.6703 0.5455,0.5872 1.1133,1.1895 1.6735,1.8182 0.5679,0.6207 1.1246,1.2697 1.6888,1.9121 0.5551,0.6503 1.1178,1.2941 1.6509,1.9449 0.5421,0.6444 1.057,1.2925 1.5602,1.9164 0.4918,0.6337 0.9809,1.2353 1.4244,1.8209 0.448,0.583 0.8691,1.1351 1.2481,1.6522 0.3834,0.5146 0.7307,0.989 1.0356,1.4115 0.3072,0.4219 0.5734,0.7905 0.7867,1.098 0.4325,0.611 0.6803,0.9598 0.6803,0.9598"
           style="fill:#ffffff;fill-opacity:1;fill-rule:nonzero;stroke:none;stroke-width:0.1"
           id="path8310" />
        <path
           d="m 1573.4119,1572.1216 c 0,0 -0.2487,-0.3773 -0.6826,-1.0373 -0.2158,-0.3317 -0.4879,-0.727 -0.7999,-1.1804 -0.1567,-0.2268 -0.3222,-0.4684 -0.4975,-0.7228 -0.1804,-0.2511 -0.3692,-0.515 -0.567,-0.7908 -0.3913,-0.5527 -0.8325,-1.1402 -1.2953,-1.7633 -0.4642,-0.6232 -0.9634,-1.2731 -1.4877,-1.9382 -0.5287,-0.6625 -1.072,-1.3496 -1.6411,-2.0328 -0.5606,-0.6918 -1.1516,-1.3758 -1.7343,-2.0671 -0.5985,-0.6775 -1.1903,-1.3609 -1.7918,-2.016 -0.594,-0.663 -1.1939,-1.3009 -1.7726,-1.9203 -0.5825,-0.6147 -1.1527,-1.203 -1.7016,-1.7529 -0.5504,-0.5486 -1.0673,-1.0692 -1.5583,-1.537 -0.2447,-0.2352 -0.478,-0.4604 -0.7008,-0.6749 -0.2267,-0.2099 -0.4414,-0.4089 -0.6434,-0.5964 -0.4042,-0.3736 -0.7557,-0.7002 -1.0524,-0.9618 -0.5911,-0.5239 -0.9298,-0.8233 -0.9298,-0.8233 0,0 0.3272,0.3106 0.8998,0.8559 0.2898,0.2689 0.6322,0.6047 1.0249,0.9896 0.3957,0.3822 0.835,0.8207 1.313,1.301 0.4827,0.4749 0.9898,1.0041 1.5303,1.5612 0.5384,0.5576 1.0958,1.157 1.6769,1.7716 0.5742,0.6219 1.1691,1.2616 1.7586,1.9271 0.5979,0.6569 1.1844,1.3435 1.7786,2.0222 0.5852,0.6864 1.1785,1.3671 1.7424,2.0535 0.5715,0.6798 1.1186,1.3622 1.6505,2.0207 0.5236,0.6644 1.0357,1.3017 1.5098,1.9163 0.4726,0.6146 0.9229,1.1943 1.3233,1.7392 0.4054,0.5431 0.7766,1.0405 1.0975,1.4875 0.324,0.4444 0.6074,0.8313 0.8321,1.1566 0.4577,0.6447 0.7184,1.0129 0.7184,1.0129"
           style="fill:#ffffff;fill-opacity:1;fill-rule:nonzero;stroke:none;stroke-width:0.1"
           id="path8312" />
        <path
           d="m 1572.5954,1572.8286 c 0,0 -0.2467,-0.3751 -0.678,-1.032 -0.2152,-0.3296 -0.4854,-0.7226 -0.7968,-1.1739 -0.1546,-0.2259 -0.3203,-0.4661 -0.4942,-0.7189 -0.1791,-0.2497 -0.368,-0.5121 -0.5638,-0.7857 -0.3901,-0.5498 -0.828,-1.1349 -1.2896,-1.7551 -0.4617,-0.6188 -0.959,-1.2649 -1.48,-1.9262 -0.5269,-0.6589 -1.0676,-1.3415 -1.6348,-2.021 -0.5589,-0.6868 -1.1467,-1.3671 -1.7268,-2.0539 -0.5968,-0.6724 -1.186,-1.3514 -1.7857,-2.0028 -0.5914,-0.6586 -1.1897,-1.2914 -1.7658,-1.9063 -0.5806,-0.6111 -1.1482,-1.1963 -1.6953,-1.7411 -0.5478,-0.5456 -1.0629,-1.0626 -1.552,-1.5266 -0.2434,-0.2337 -0.4761,-0.4582 -0.6976,-0.6712 -0.2253,-0.2083 -0.4393,-0.4066 -0.6408,-0.5919 -0.4015,-0.372 -0.7517,-0.6971 -1.0472,-0.9558 -0.5892,-0.5216 -0.9251,-0.8194 -0.9251,-0.8194 0,0 0.3251,0.3098 0.8959,0.8513 0.287,0.2674 0.6281,0.6017 1.0196,0.9836 0.3931,0.3806 0.8311,0.8162 1.3072,1.2928 0.4793,0.4725 0.986,0.9981 1.5233,1.5514 0.5373,0.5533 1.0914,1.149 1.6706,1.7599 0.5717,0.6175 1.1655,1.2528 1.7524,1.9139 0.5954,0.6525 1.1795,1.3346 1.7711,2.0088 0.5833,0.6828 1.1743,1.3577 1.7355,2.041 0.5697,0.6748 1.1136,1.3533 1.6429,2.0075 0.5218,0.6606 1.0321,1.2942 1.5036,1.9045 0.4707,0.6123 0.9185,1.1875 1.3175,1.7309 0.403,0.5387 0.7722,1.0338 1.0919,1.4779 0.3219,0.4422 0.604,0.8275 0.8282,1.1506 0.4537,0.6416 0.7138,1.0077 0.7138,1.0077"
           style="fill:#ffffff;fill-opacity:1;fill-rule:nonzero;stroke:none;stroke-width:0.1"
           id="path8314" />
        <path
           d="m 1571.7789,1573.5355 -0.05,-0.058 c -5.0795,-7.5835 -11.9682,-15.5409 -18.7468,-21.6572 -0.166,-0.2253 -0.1362,-0.5422 0.078,-0.7281 0.2253,-0.195 0.5667,-0.1705 0.7617,0.055 l 18.7735,21.6818 c 0.1951,0.2253 0.1705,0.5666 -0.055,0.7617 -0.2253,0.1951 -0.5666,0.1705 -0.7617,-0.055"
           style="fill:#162623;fill-opacity:1;fill-rule:nonzero;stroke:none;stroke-width:0.1"
           id="path8316" />
        <path
           d="m 1616.7022,1536.0866 c 0.4707,-0.2951 0,-1.8995 -1.0596,-3.584 -1.0557,-1.6837 -2.2934,-2.8092 -2.7641,-2.5141 -0.4714,0.2958 0,1.9001 1.0581,3.5839 1.0565,1.6845 2.2942,2.8099 2.7656,2.5142"
           style="fill:#ffffff;fill-opacity:1;fill-rule:nonzero;stroke:none;stroke-width:0.1"
           id="path8318" />
        <path
           d="m 1612.4042,1536.2405 c 0.337,-0.2402 -0.086,-1.4112 -0.9435,-2.6143 -0.8577,-1.2044 -1.8266,-1.9859 -2.1629,-1.7463 -0.337,0.2402 0.086,1.4112 0.9428,2.6149 0.8584,1.2039 1.8266,1.9859 2.1636,1.7457"
           style="fill:#ffffff;fill-opacity:1;fill-rule:nonzero;stroke:none;stroke-width:0.1"
           id="path8320" />
        <path
           d="m 1597.2241,1513.1816 c 0.294,-0.2136 1.2287,0.3726 2.088,1.3085 0.8593,0.9358 1.3177,1.867 1.0231,2.0798 -0.2932,0.2129 -1.228,-0.3733 -2.0873,-1.3092 -0.8593,-0.9359 -1.3177,-1.867 -1.0238,-2.0791"
           style="fill:#ffffff;fill-opacity:1;fill-rule:nonzero;stroke:none;stroke-width:0.1"
           id="path8322" />
        <path
           d="m 1595.7783,1516.735 c 0.2347,-0.1781 0.9264,0.2495 1.5449,0.9547 0.6178,0.7058 0.9286,1.4222 0.6939,1.6003 -0.2354,0.1773 -0.9263,-0.2509 -1.5448,-0.9561 -0.6178,-0.7058 -0.9287,-1.4208 -0.694,-1.5989"
           style="fill:#ffffff;fill-opacity:1;fill-rule:nonzero;stroke:none;stroke-width:0.1"
           id="path8324" />
        <path
           d="m 1570.6382,1570.9425 c -0.1352,0.096 -0.7832,-0.5838 -1.4498,-1.5186 -0.6658,-0.934 -1.0956,-1.7695 -0.9611,-1.8662 0.1345,-0.095 0.7839,0.5845 1.4498,1.5186 0.6659,0.934 1.0963,1.7703 0.9611,1.8662"
           style="fill:#ffffff;fill-opacity:1;fill-rule:nonzero;stroke:none;stroke-width:0.1"
           id="path8326" />
        <path
           d="m 1571.4293,1570.1543 c -0.1053,0.075 -0.8017,-0.7212 -1.5544,-1.7784 -0.7535,-1.0566 -1.2787,-1.9749 -1.1734,-2.0502 0.1054,-0.075 0.8017,0.7211 1.5552,1.7777 0.7534,1.0581 1.278,1.9755 1.1726,2.0509"
           style="fill:#ffffff;fill-opacity:1;fill-rule:nonzero;stroke:none;stroke-width:0.1"
           id="path8328" />
        <path
           d="m 1572.2188,1569.5659 c -0.1136,0.081 -0.9814,-0.9425 -1.9377,-2.2852 -0.9568,-1.3434 -1.641,-2.4971 -1.5281,-2.5776 0.1136,-0.081 0.9807,0.9432 1.9377,2.2852 0.9569,1.3434 1.641,2.4971 1.5281,2.5776"
           style="fill:#ffffff;fill-opacity:1;fill-rule:nonzero;stroke:none;stroke-width:0.1"
           id="path8330" />
        <path
           d="m 1555.3072,1553.2365 c -0.1142,0.1201 0.017,0.4301 0.2919,0.693 0.2753,0.263 0.591,0.3785 0.7051,0.2598 0.1143,-0.1201 -0.016,-0.4307 -0.2911,-0.6937 -0.2753,-0.2629 -0.5916,-0.3792 -0.7059,-0.2591"
           style="fill:#ffffff;fill-opacity:1;fill-rule:nonzero;stroke:none;stroke-width:0.1"
           id="path8332" />
        <path
           d="m 1556.1123,1552.4812 c -0.089,0.094 0.09,0.4113 0.402,0.7088 0.3118,0.2974 0.6367,0.4633 0.7263,0.3698 0.089,-0.094 -0.09,-0.4113 -0.402,-0.7088 -0.3118,-0.2975 -0.6367,-0.4633 -0.7263,-0.3698"
           style="fill:#ffffff;fill-opacity:1;fill-rule:nonzero;stroke:none;stroke-width:0.1"
           id="path8334" />
        <path
           d="m 1556.7968,1551.7747 c -0.096,0.1015 0.1471,0.4891 0.5431,0.8671 0.3954,0.3772 0.794,0.6022 0.8898,0.502 0.096,-0.1001 -0.1471,-0.4876 -0.5424,-0.8663 -0.3961,-0.378 -0.7946,-0.603 -0.8905,-0.5028"
           style="fill:#ffffff;fill-opacity:1;fill-rule:nonzero;stroke:none;stroke-width:0.1"
           id="path8336" />
        <path
           d="m 1514.3441,1605.4075 0.9242,-2.5013 c -0.2382,-0.2766 -1.3161,-0.095 -2.2645,0.929 -0.9853,-1.5199 1.014,-4.509 1.014,-4.509 0,0 -1.7887,0.07 -3.1424,1.701 -0.2596,-0.3731 0.1802,-1.1851 -0.06,-1.554 -0.2497,-0.3831 -1.7322,-1.2886 -1.9629,-1.6682 1.3552,-2.5795 7.0934,-5.9938 7.0934,-5.9938 0,0 -5.8853,2.4318 -7.766,4.7984 -0.287,-0.5452 -0.5552,-1.0842 -0.8047,-1.6168 0.5907,-0.9982 1.4116,-1.9643 1.4116,-1.9643 0,0 -1.1536,-0.1361 -2.0729,0.4734 -0.062,-0.1476 -0.122,-0.2952 -0.1809,-0.4426 0.1205,-1.3412 2.4989,-2.71 2.4989,-2.71 0,0 -2.22,0.27 -3.127,1.0343 -0.089,-0.256 -0.174,-0.5095 -0.2552,-0.7606 -0.083,-0.2576 2.4743,-2.3488 2.4743,-2.3488 0,0 -2.0059,0.1337 -2.8863,0.9807 -0.053,-0.8149 4.7053,-3.4935 4.7053,-3.4935 0,0 -4.4234,1.8698 -4.9965,2.3766 0.1155,-1.0353 2.5078,-2.6874 2.5078,-2.6874 0,0 -1.6026,0.598 -2.792,1.4135 -0.055,-0.2698 -0.1047,-0.5349 -0.1513,-0.7949 -0.052,-0.2937 -0.099,-0.5821 -0.1414,-0.863 0.5398,-0.5865 3.4153,-2.608 3.4153,-2.608 0,0 -2.8679,0.634 -3.6199,0.957 -0.018,-0.1856 1.5049,-1.6045 1.5049,-1.6045 0,0 -1.1417,0.064 -1.5941,0.449 -0.1042,-0.6796 3.2681,-3.0453 3.2681,-3.0453 0,0 -2.4542,1.0337 -3.1266,1.3235 0.032,-0.143 0.069,-0.285 0.1121,-0.4251 0.8809,-1.0114 4.4582,-2.7768 4.4582,-2.7768 0,0 -1.4698,-0.2446 -3.7577,1.247 0.1279,-0.2007 0.2665,-0.3935 0.4167,-0.5791 0.5431,-0.6713 1.2308,-1.2336 2.0332,-1.6375 l 46.745,-23.5115 c 4.2792,3.1745 8.1909,8.3155 8.809,9.144 0.7316,0.7303 5.2601,5.3371 7.79,10.0264 l -29.9563,42.9012 c -0.1779,0.2559 -0.3729,0.4935 -0.5817,0.7153 -0.4173,0.4407 -1.4846,1.5989 -2.1166,1.752 0.2812,-0.7858 -0.2883,-0.9594 -0.2883,-0.9594 0,0 -0.9372,1.2811 -2.1041,1.1433 0.403,-0.4588 0.5032,-1.113 0.5032,-1.113 0,0 -2.475,0.9592 -2.9319,0.6881 0.2146,-0.7771 -0.655,-1.1842 -0.655,-1.1842 0,0 -1.5328,0.9079 -2.1329,0.528 0.5442,-0.9527 0.063,-1.4233 0.063,-1.4233 0,0 -0.5511,0.7735 -1.4462,0.7694 -1.0136,-1.3035 -0.6847,-3.9561 -0.6847,-3.9561 0,0 -1.0122,0.2838 -2.2101,2.657 -0.046,-1.0483 -0.3116,-1.631 -0.7288,-1.8623 1.363,-2.5308 0.2466,-4.1607 0.2466,-4.1607 0,0 -0.9734,1.9526 -3.2738,3.8452 0.9413,-2.2952 0.3958,-2.9816 0.3958,-2.9816 0,0 -1.3467,1.6343 -3.0413,1.0751 0.8884,-2.0232 8.1433,-9.7111 8.1433,-9.7111 0,0 -5.2303,4.7418 -8.9884,9.1888 -0.7257,-0.9099 1.096,-5.314 1.096,-5.314 0,0 -2.4687,1.6891 -3.2561,2.8193 -0.5541,-1.2266 0.3452,-2.5926 0.3452,-2.5926 0,0 -1.4854,-0.4612 -2.8764,0.4178"
           style="fill:#172330;fill-opacity:1;fill-rule:nonzero;stroke:none;stroke-width:0.1"
           id="path8338" />
        <path
           d="m 1570.9459,1572.106 c 0,0 -0.223,-0.3294 -0.6133,-0.9069 -0.1933,-0.2889 -0.4371,-0.6347 -0.7162,-1.0319 -0.2776,-0.3985 -0.5951,-0.8446 -0.9505,-1.3239 -0.3509,-0.4832 -0.7421,-0.999 -1.1544,-1.5455 -0.4123,-0.5464 -0.8555,-1.1164 -1.3204,-1.7006 -0.4686,-0.581 -0.9506,-1.1835 -1.4533,-1.7854 -0.4973,-0.6064 -1.0175,-1.2103 -1.5317,-1.8179 -0.5285,-0.5966 -1.0503,-1.1978 -1.5801,-1.7761 -0.5231,-0.5841 -1.0512,-1.1467 -1.5592,-1.6937 -0.5117,-0.5436 -1.0116,-1.0645 -1.4935,-1.5507 -0.4819,-0.4863 -0.9365,-0.9471 -1.3653,-1.3629 -0.4227,-0.421 -0.8188,-0.799 -1.1742,-1.1301 -0.3525,-0.3337 -0.6598,-0.6245 -0.9182,-0.8572 -0.5157,-0.4688 -0.8098,-0.7366 -0.8098,-0.7366 0,0 0.2833,0.2798 0.78,0.7678 0.4981,0.4867 1.2004,1.1908 2.0336,2.0447 0.4198,0.4237 0.8645,0.893 1.3366,1.3878 0.4713,0.494 0.9584,1.0259 1.4688,1.5695 0.5043,0.5488 1.0272,1.1146 1.5458,1.7013 0.5254,0.5808 1.0427,1.1844 1.5661,1.7828 0.5174,0.6036 1.0408,1.202 1.5405,1.8051 0.5065,0.5972 0.9916,1.1957 1.4627,1.7733 0.465,0.5828 0.9218,1.141 1.3433,1.6782 0.4221,0.5379 0.823,1.0453 1.1815,1.5219 0.7267,0.9462 1.3224,1.7426 1.7328,2.3053 0.4127,0.5606 0.6484,0.8817 0.6484,0.8817"
           style="fill:#ffffff;fill-opacity:1;fill-rule:nonzero;stroke:none;stroke-width:0.1"
           id="path8340" />
        <path
           d="m 1535.2699,1616.961 c 0,0 0.2997,-0.3627 0.8231,-0.9958 0.5166,-0.6377 1.265,-1.5424 2.1451,-2.6418 0.8828,-1.0963 1.9046,-2.3819 2.9923,-3.7655 0.5426,-0.6933 1.103,-1.4088 1.6728,-2.1363 0.5657,-0.7292 1.1416,-1.4712 1.7166,-2.2125 0.5711,-0.7444 1.1421,-1.4889 1.7045,-2.2219 0.5591,-0.7354 1.1095,-1.4593 1.6419,-2.1598 1.0629,-1.4031 2.0472,-2.7183 2.8835,-3.8499 0.8405,-1.1298 1.5252,-2.0838 2.0116,-2.7457 0.4796,-0.6666 0.7538,-1.0482 0.7538,-1.0482 0,0 -0.299,0.3621 -0.8231,0.9957 -0.5166,0.6378 -1.2657,1.5417 -2.1451,2.6419 -0.8828,1.0963 -1.9046,2.3819 -2.9923,3.7655 -0.5418,0.6927 -1.103,1.4087 -1.6721,2.1356 -0.5658,0.7306 -1.1423,1.4719 -1.7173,2.2132 -0.5711,0.7444 -1.1421,1.4889 -1.7039,2.2226 -0.559,0.7354 -1.1094,1.4594 -1.6425,2.159 -1.0615,1.4033 -2.0464,2.7177 -2.8835,3.85 -0.8399,1.1306 -1.5244,2.0831 -2.0108,2.745 -0.4804,0.6673 -0.7546,1.0489 -0.7546,1.0489"
           style="fill:#ffffff;fill-opacity:1;fill-rule:nonzero;stroke:none;stroke-width:0.1"
           id="path8342" />
        <path
           d="m 1530.9649,1616.7295 c 0,0 0.5254,-0.6124 1.4453,-1.6826 0.9124,-1.0758 2.2295,-2.6025 3.7861,-4.4543 1.554,-1.8534 3.383,-4.0033 5.3147,-6.328 1.9324,-2.3253 3.9943,-4.8051 6.0556,-7.2856 2.0465,-2.4929 4.0923,-4.9852 6.01,-7.323 1.9197,-2.3354 3.6844,-4.5381 5.2103,-6.4148 1.5252,-1.8775 2.7739,-3.4601 3.6591,-4.5598 0.8777,-1.1053 1.3782,-1.7371 1.3782,-1.7371 0,0 -0.526,0.6116 -1.4459,1.6819 -0.9118,1.0765 -2.2295,2.6024 -3.7855,4.455 -1.5546,1.8527 -3.3835,4.0011 -5.3146,6.328 -1.9331,2.3245 -3.9944,4.8051 -6.0563,7.2848 -2.0451,2.4931 -4.0916,4.986 -6.0093,7.3237 -1.9191,2.3362 -3.6838,4.5389 -5.2103,6.4149 -1.5246,1.8782 -2.774,3.4601 -3.6584,4.5592 -0.8777,1.1052 -1.379,1.7377 -1.379,1.7377"
           style="fill:#ffffff;fill-opacity:1;fill-rule:nonzero;stroke:none;stroke-width:0.1"
           id="path8344" />
        <path
           d="m 1532.8633,1608.833 c 0,0 0.3876,-0.4123 1.0655,-1.1342 0.6713,-0.7295 1.6435,-1.7577 2.7858,-3.014 1.1411,-1.2579 2.487,-2.7116 3.903,-4.2935 1.4159,-1.5805 2.9267,-3.2669 4.4374,-4.9533 1.4954,-1.6996 2.9908,-3.3991 4.3927,-4.9927 1.4033,-1.592 2.6865,-3.1013 3.8003,-4.3831 1.1124,-1.2833 2.0186,-2.3708 2.6632,-3.1235 0.6366,-0.7588 1.0003,-1.1928 1.0003,-1.1928 0,0 -0.3877,0.4124 -1.0656,1.1357 -0.6713,0.728 -1.6442,1.7569 -2.7858,3.0126 -1.141,1.2578 -2.4883,2.7114 -3.9029,4.2934 -1.4153,1.5813 -2.926,3.2677 -4.4368,4.9541 -1.4954,1.6996 -2.9908,3.3991 -4.3927,4.9927 -1.4027,1.5928 -2.6873,3.1019 -3.801,4.3837 -1.1116,1.2827 -2.0179,2.3702 -2.6625,3.1229 -0.6366,0.7588 -1.0009,1.192 -1.0009,1.192"
           style="fill:#ffffff;fill-opacity:1;fill-rule:nonzero;stroke:none;stroke-width:0.1"
           id="path8346" />
        <path
           d="m 1526.0412,1612.2346 c 0,0 0.2355,-0.2184 0.6406,-0.6076 0.4019,-0.3929 0.9854,-0.9457 1.6673,-1.6248 0.6859,-0.6759 1.4783,-1.4718 2.3213,-2.3314 0.4195,-0.4306 0.8542,-0.8758 1.2943,-1.3283 0.4382,-0.4549 0.8833,-0.917 1.3278,-1.3799 0.4418,-0.4659 0.8829,-0.9311 1.3172,-1.3905 0.4362,-0.4571 0.8563,-0.916 1.2672,-1.3551 0.8197,-0.8804 1.5776,-1.71 2.221,-2.4258 0.6468,-0.7135 1.1719,-1.3216 1.5452,-1.7414 0.3707,-0.4228 0.5776,-0.6681 0.5776,-0.6681 0,0 -0.2355,0.2185 -0.6406,0.6076 -0.4012,0.3937 -0.9846,0.9451 -1.6672,1.6248 -0.6859,0.676 -1.4783,1.4718 -2.3214,2.3314 -0.4188,0.4314 -0.858,0.8713 -1.2943,1.3284 -0.4382,0.4548 -0.8826,0.9177 -1.3277,1.3798 -0.4412,0.4667 -0.8823,0.9319 -1.3172,1.3905 -0.4309,0.4618 -0.8556,0.9154 -1.2665,1.3559 -0.8191,0.8812 -1.5777,1.71 -2.2211,2.4258 -0.6468,0.7135 -1.1719,1.3216 -1.5458,1.7406 -0.37,0.4222 -0.5777,0.6681 -0.5777,0.6681"
           style="fill:#ffffff;fill-opacity:1;fill-rule:nonzero;stroke:none;stroke-width:0.1"
           id="path8348" />
        <path
           d="m 1527.0378,1607.6124 c 0,0 0.4562,-0.4188 1.2539,-1.1505 0.7904,-0.7386 1.9323,-1.7815 3.2809,-3.0564 1.3465,-1.2757 2.9313,-2.7497 4.6049,-4.355 1.6743,-1.6044 3.4598,-3.3157 5.246,-5.0277 1.7716,-1.7258 3.5433,-3.4516 5.2043,-5.0698 1.6624,-1.6166 3.1891,-3.1502 4.5107,-4.4532 1.3201,-1.3031 2.4007,-2.4093 3.1667,-3.1745 0.7588,-0.7721 1.1924,-1.2123 1.1924,-1.2123 0,0 -0.4554,0.4181 -1.2531,1.1498 -0.7912,0.7393 -1.9337,1.7815 -3.2816,3.0557 -1.3458,1.2764 -2.9327,2.7496 -4.6049,4.355 -1.6736,1.6052 -3.4599,3.3172 -5.2453,5.0285 -1.7717,1.7258 -3.5433,3.4515 -5.2044,5.0697 -1.6617,1.6174 -3.1892,3.1516 -4.5106,4.4532 -1.3195,1.3039 -2.4007,2.4094 -3.1668,3.1745 -0.7587,0.7721 -1.1931,1.213 -1.1931,1.213"
           style="fill:#ffffff;fill-opacity:1;fill-rule:nonzero;stroke:none;stroke-width:0.1"
           id="path8350" />
        <path
           d="m 1527.149,1603.8666 c 0,0 0.3277,-0.2983 0.9011,-0.8185 0.5681,-0.5263 1.3885,-1.2684 2.3562,-2.1765 0.9704,-0.905 2.0953,-1.9676 3.295,-3.1135 0.5984,-0.5738 1.216,-1.1667 1.8443,-1.7702 0.6255,-0.6051 1.261,-1.2202 1.8964,-1.8352 0.6316,-0.6196 1.2637,-1.2384 1.8854,-1.8481 0.6196,-0.6119 1.2287,-1.2146 1.8185,-1.7968 1.1772,-1.1688 2.2684,-2.2657 3.1992,-3.2119 0.9328,-0.9439 1.6957,-1.7447 2.2375,-2.2984 0.5343,-0.5592 0.8402,-0.8797 0.8402,-0.8797 0,0 -0.3276,0.2969 -0.9017,0.8178 -0.5674,0.5257 -1.3878,1.2678 -2.3556,2.1759 -0.9703,0.905 -2.096,1.9683 -3.2949,3.1135 -0.5978,0.5745 -1.2168,1.1673 -1.8443,1.7702 -0.6256,0.6065 -1.2611,1.2215 -1.8965,1.8366 -0.6316,0.6196 -1.263,1.2377 -1.8846,1.8474 -0.6197,0.6119 -1.2287,1.2147 -1.8179,1.7976 -1.1772,1.1688 -2.2698,2.2656 -3.1992,3.2119 -0.9328,0.9438 -1.6971,1.7446 -2.2381,2.2976 -0.5351,0.5599 -0.841,0.8803 -0.841,0.8803"
           style="fill:#ffffff;fill-opacity:1;fill-rule:nonzero;stroke:none;stroke-width:0.1"
           id="path8352" />
        <path
           d="m 1522.1582,1603.6482 c 0,0 0.5511,-0.4864 1.5169,-1.3372 0.9592,-0.8583 2.3422,-2.0704 3.9798,-3.5492 1.6356,-1.4796 3.5579,-3.1917 5.5923,-5.0525 2.0365,-1.8598 4.2074,-3.844 6.3797,-5.8281 2.1571,-1.9987 4.3155,-3.9972 6.3388,-5.8708 2.024,-1.8729 3.8891,-3.6465 5.5003,-5.1527 1.61,-1.5091 2.9332,-2.7858 3.8681,-3.6707 0.9276,-0.8918 1.4583,-1.4016 1.4583,-1.4016 0,0 -0.5518,0.487 -1.5175,1.3378 -0.9599,0.8576 -2.343,2.0697 -3.9792,3.5486 -1.6363,1.4803 -3.5585,3.191 -5.5937,5.0523 -2.035,1.86 -4.2067,3.8449 -6.3783,5.8283 -2.1578,1.9993 -4.3155,3.9972 -6.3381,5.8716 -2.0239,1.8728 -3.8897,3.6457 -5.501,5.1533 -1.6093,1.5085 -2.9325,2.7852 -3.868,3.6693 -0.9283,0.8924 -1.4584,1.4016 -1.4584,1.4016"
           style="fill:#ffffff;fill-opacity:1;fill-rule:nonzero;stroke:none;stroke-width:0.1"
           id="path8354" />
        <path
           d="m 1530.1983,1592.9379 c 0,0 0.2603,-0.1989 0.7077,-0.5546 0.4448,-0.36 1.0879,-0.8639 1.8444,-1.4858 0.7598,-0.6196 1.6396,-1.3497 2.5754,-2.1388 0.4674,-0.3967 0.9498,-0.8051 1.4398,-1.2215 0.4881,-0.4186 0.983,-0.8445 1.4787,-1.2697 0.4917,-0.4297 0.984,-0.8587 1.4681,-1.2818 0.4861,-0.4209 0.9562,-0.8451 1.4149,-1.2502 0.9155,-0.8126 1.7639,-1.5789 2.4858,-2.2423 0.7237,-0.6598 1.3146,-1.2256 1.7338,-1.6137 0.4167,-0.3926 0.6501,-0.6211 0.6501,-0.6211 0,0 -0.2596,0.1983 -0.7071,0.5553 -0.4441,0.3594 -1.0886,0.8632 -1.845,1.4852 -0.7599,0.6195 -1.6397,1.3496 -2.5755,2.1387 -0.4659,0.3968 -0.9536,0.8006 -1.4397,1.2215 -0.4874,0.4194 -0.9831,0.8445 -1.478,1.2705 -0.4924,0.4289 -0.9841,0.8586 -1.4689,1.281 -0.4815,0.4262 -0.9554,0.8445 -1.4142,1.251 -0.9149,0.8133 -1.7632,1.5797 -2.4858,2.2423 -0.7231,0.6605 -1.3138,1.2249 -1.7338,1.6137 -0.4159,0.3919 -0.6507,0.6203 -0.6507,0.6203"
           style="fill:#ffffff;fill-opacity:1;fill-rule:nonzero;stroke:none;stroke-width:0.1"
           id="path8356" />
        <path
           d="m 1516.3283,1599.9156 c 0,0 0.3304,-0.2372 0.9076,-0.6522 0.5719,-0.4211 1.397,-1.0126 2.3732,-1.7414 0.978,-0.7251 2.1127,-1.5793 3.3226,-2.5026 0.6046,-0.4627 1.2281,-0.9404 1.8628,-1.4264 0.6321,-0.4891 1.2732,-0.9861 1.9158,-1.4829 0.6379,-0.5008 1.2772,-1.0014 1.906,-1.4943 0.6255,-0.4966 1.2426,-0.9846 1.8388,-1.4572 1.1903,-0.9473 2.2959,-1.8398 3.2382,-2.6107 0.9457,-0.7686 1.7209,-1.4239 2.2694,-1.875 0.5434,-0.4587 0.8536,-0.7206 0.8536,-0.7206 0,0 -0.3304,0.2371 -0.9068,0.6515 -0.5726,0.4218 -1.3978,1.0133 -2.3732,1.7414 -0.9787,0.7258 -2.1135,1.58 -3.324,2.5025 -0.6032,0.4628 -1.2275,0.9411 -1.8622,1.4272 -0.632,0.4891 -1.2732,0.986 -1.915,1.4822 -0.6386,0.5014 -1.2773,1.0028 -1.9061,1.4956 -0.6262,0.4959 -1.2419,0.9841 -1.8388,1.4573 -1.1903,0.9473 -2.2959,1.8398 -3.2389,2.6099 -0.9442,0.7687 -1.7208,1.4239 -2.2687,1.8758 -0.5426,0.458 -0.8543,0.7199 -0.8543,0.7199"
           style="fill:#ffffff;fill-opacity:1;fill-rule:nonzero;stroke:none;stroke-width:0.1"
           id="path8358" />
        <path
           d="m 1510.8872,1599.7101 c 0,0 0.5649,-0.3925 1.5549,-1.0778 0.9835,-0.6942 2.4,-1.6707 4.0804,-2.8678 1.6793,-1.2 3.651,-2.5831 5.7418,-4.0946 2.0908,-1.51 4.322,-3.1205 6.5526,-4.7317 2.2196,-1.627 4.4379,-3.254 6.5184,-4.7804 2.0818,-1.5234 4.0031,-2.974 5.661,-4.2032 1.6566,-1.2307 3.0208,-2.2783 3.9845,-3.0016 0.9564,-0.7302 1.5032,-1.1481 1.5032,-1.1481 0,0 -0.5655,0.3918 -1.5549,1.0778 -0.9836,0.6942 -2.4007,1.6699 -4.0812,2.8684 -1.6792,1.1986 -3.6509,2.5818 -5.7411,4.094 -2.0913,1.5092 -4.3219,3.1205 -6.5525,4.7318 -2.219,1.6277 -4.4379,3.2539 -6.5184,4.7803 -2.0805,1.5249 -4.0031,2.974 -5.6604,4.2039 -1.6573,1.23 -3.0222,2.2782 -3.9851,3.0009 -0.9571,0.7308 -1.5032,1.1481 -1.5032,1.1481"
           style="fill:#ffffff;fill-opacity:1;fill-rule:nonzero;stroke:none;stroke-width:0.1"
           id="path8360" />
        <path
           d="m 1513.8588,1594.063 c 0,0 0.2886,-0.1784 0.7895,-0.4997 0.4976,-0.3251 1.2157,-0.7775 2.0651,-1.341 0.8498,-0.56 1.8375,-1.222 2.8893,-1.9383 0.5249,-0.3592 1.0678,-0.7314 1.6195,-1.1086 0.5484,-0.3809 1.1065,-0.7676 1.6639,-1.155 0.5542,-0.3912 1.1097,-0.7823 1.6557,-1.1677 0.544,-0.3877 1.0791,-0.7703 1.5962,-1.14 1.0345,-0.7424 1.9944,-1.4425 2.8123,-2.0501 0.8197,-0.604 1.4915,-1.1235 1.9673,-1.4799 0.4725,-0.3602 0.7394,-0.5715 0.7394,-0.5715 0,0 -0.2894,0.1792 -0.7895,0.4998 -0.4977,0.3251 -1.2165,0.7781 -2.0651,1.341 -0.8513,0.5598 -1.8382,1.2212 -2.8893,1.9382 -0.5257,0.3599 -1.0678,0.7314 -1.6195,1.1086 -0.5485,0.381 -1.1059,0.7684 -1.664,1.1551 -0.5549,0.3918 -1.1097,0.7823 -1.6556,1.1677 -0.5433,0.3884 -1.0784,0.771 -1.597,1.1407 -1.0331,0.7424 -1.993,1.4426 -2.8109,2.0502 -0.8197,0.6039 -1.4915,1.1234 -1.9673,1.4799 -0.4732,0.3594 -0.74,0.5706 -0.74,0.5706"
           style="fill:#ffffff;fill-opacity:1;fill-rule:nonzero;stroke:none;stroke-width:0.1"
           id="path8362" />
        <path
           d="m 1507.7755,1594.5948 c 0,0 0.2236,-0.1129 0.6092,-0.3185 0.3837,-0.2106 0.9383,-0.4989 1.5914,-0.866 0.6563,-0.3633 1.4155,-0.7958 2.2243,-1.2672 0.4035,-0.2382 0.8233,-0.4775 1.245,-0.7314 0.4215,-0.2526 0.8497,-0.5096 1.2779,-0.7653 0.4257,-0.2614 0.8514,-0.5229 1.2711,-0.7791 0.4196,-0.2549 0.8262,-0.517 1.2233,-0.7642 0.793,-0.4988 1.5281,-0.9713 2.1533,-1.3843 0.6278,-0.41 1.1405,-0.768 1.504,-1.0113 0.3608,-0.2463 0.5649,-0.3926 0.5649,-0.3926 0,0 -0.2243,0.1122 -0.61,0.3192 -0.3837,0.2092 -0.9382,0.4975 -1.592,0.8653 -0.6556,0.3626 -1.4148,0.7951 -2.2236,1.2665 -0.4035,0.2382 -0.824,0.4767 -1.2443,0.7322 -0.4216,0.2525 -0.8504,0.5088 -1.2787,0.7659 -0.425,0.2608 -0.8513,0.5215 -1.2704,0.7785 -0.4195,0.2548 -0.8262,0.517 -1.224,0.7648 -0.7922,0.4982 -1.5274,0.9721 -2.1533,1.3843 -0.627,0.4094 -1.1398,0.7674 -1.5039,1.0099 -0.3616,0.2469 -0.5642,0.3933 -0.5642,0.3933"
           style="fill:#ffffff;fill-opacity:1;fill-rule:nonzero;stroke:none;stroke-width:0.1"
           id="path8364" />
        <path
           d="m 1528.0676,1581.7601 c 0,0 0.394,-0.2141 1.0845,-0.5898 0.6855,-0.3832 1.6718,-0.9184 2.8431,-1.5807 1.1732,-0.6601 2.5371,-1.4375 3.9941,-2.2785 0.728,-0.4227 1.4796,-0.8592 2.2424,-1.3027 0.7624,-0.4472 1.5365,-0.9005 2.31,-1.3546 0.771,-0.4586 1.5426,-0.9164 2.3024,-1.3679 0.7572,-0.4546 1.5019,-0.9023 2.2227,-1.3347 1.4407,-0.8691 2.7806,-1.688 3.9247,-2.3969 1.1461,-0.7066 2.0907,-1.3115 2.7572,-1.7272 0.6613,-0.4232 1.0403,-0.6654 1.0403,-0.6654 0,0 -0.3947,0.2148 -1.0845,0.5899 -0.6855,0.3832 -1.6718,0.9184 -2.8438,1.5813 -1.1731,0.6587 -2.5378,1.4368 -3.9942,2.2785 -0.7272,0.422 -1.4788,0.8586 -2.2424,1.3028 -0.7616,0.4464 -1.5365,0.9004 -2.3099,1.3546 -0.771,0.4585 -1.542,0.9171 -2.301,1.368 -0.7572,0.4545 -1.5033,0.9021 -2.2235,1.3353 -1.4407,0.869 -2.7806,1.6879 -3.9247,2.3969 -1.1461,0.7066 -2.0913,1.3107 -2.7578,1.7264 -0.6614,0.4232 -1.0396,0.6647 -1.0396,0.6647"
           style="fill:#ffffff;fill-opacity:1;fill-rule:nonzero;stroke:none;stroke-width:0.1"
           id="path8366" />
        <path
           d="m 1508.3039,1590.4203 c 0,0 0.4945,-0.2523 1.36,-0.6948 0.8612,-0.4506 2.0994,-1.0784 3.5706,-1.8602 1.47,-0.7833 3.1948,-1.6802 5.0249,-2.6722 1.8315,-0.9906 3.7848,-2.0483 5.7381,-3.106 1.9432,-1.0754 3.8871,-2.15 5.7092,-3.1576 1.8219,-1.0061 3.5067,-1.9768 4.9597,-2.7918 1.4511,-0.8173 2.6475,-1.5224 3.4917,-2.0048 0.8385,-0.4906 1.3181,-0.7708 1.3181,-0.7708 0,0 -0.4946,0.2522 -1.3608,0.694 -0.8604,0.4514 -2.0993,1.0784 -3.5706,1.8602 -1.4692,0.7841 -3.1954,1.6794 -5.0249,2.6723 -1.8308,0.9913 -3.7841,2.049 -5.7374,3.1066 -1.9432,1.0754 -3.8871,2.1501 -5.7085,3.1584 -1.8227,1.0068 -3.5074,1.976 -4.9598,2.7918 -1.4511,0.8173 -2.648,1.5217 -3.4917,2.0048 -0.8391,0.4898 -1.3186,0.7701 -1.3186,0.7701"
           style="fill:#ffffff;fill-opacity:1;fill-rule:nonzero;stroke:none;stroke-width:0.1"
           id="path8368" />
        <path
           d="m 1507.4734,1587.7517 c 0,0 0.351,-0.169 0.9622,-0.4653 0.6088,-0.3036 1.4828,-0.7257 2.5217,-1.2536 1.0401,-0.5236 2.2494,-1.1434 3.5413,-1.8162 0.6445,-0.3372 1.3113,-0.687 1.9883,-1.0417 0.6744,-0.3577 1.3605,-0.7217 2.0461,-1.0864 0.6836,-0.3685 1.3673,-0.7369 2.0399,-1.0997 0.6708,-0.3665 1.3312,-0.7267 1.9701,-1.0749 1.2755,-0.7009 2.463,-1.3627 3.4756,-1.9379 1.0159,-0.5714 1.8517,-1.065 2.4417,-1.4025 0.5863,-0.345 0.9209,-0.5421 0.9209,-0.5421 0,0 -0.3496,0.1691 -0.9622,0.4654 -0.6074,0.3037 -1.4828,0.7257 -2.521,1.2529 -1.0408,0.5242 -2.2508,1.1433 -3.5412,1.8162 -0.6447,0.3386 -1.3106,0.6877 -1.9876,1.0424 -0.6752,0.3584 -1.3614,0.7224 -2.0468,1.0857 -0.683,0.3692 -1.3667,0.7376 -2.0393,1.1004 -0.6708,0.3665 -1.3311,0.7267 -1.9702,1.0763 -1.2761,0.7002 -2.463,1.3628 -3.4762,1.9372 -1.0145,0.5715 -1.8517,1.065 -2.4417,1.4025 -0.5856,0.3443 -0.9216,0.5413 -0.9216,0.5413"
           style="fill:#ffffff;fill-opacity:1;fill-rule:nonzero;stroke:none;stroke-width:0.1"
           id="path8370" />
        <path
           d="m 1508.3111,1584.0674 c 0,0 0.5824,-0.2715 1.602,-0.7469 1.0152,-0.4835 2.4731,-1.1585 4.2085,-1.9958 1.7349,-0.8408 3.7671,-1.8028 5.9285,-2.8661 2.1621,-1.0625 4.4696,-2.1954 6.7757,-3.3284 2.2967,-1.1513 4.5942,-2.3019 6.7482,-3.3813 2.1546,-1.0773 4.1504,-2.1149 5.8678,-2.9882 1.7182,-0.8739 3.1371,-1.6276 4.1362,-2.1435 0.9941,-0.5247 1.5629,-0.8241 1.5629,-0.8241 0,0 -0.5824,0.2715 -1.6019,0.7455 -1.0152,0.4835 -2.4737,1.1578 -4.2086,1.9972 -1.7348,0.8394 -3.7677,1.8006 -5.9292,2.8653 -2.162,1.0625 -4.4681,2.1955 -6.7742,3.3285 -2.2982,1.1513 -4.5949,2.3026 -6.749,3.382 -2.154,1.078 -4.1497,2.1142 -5.8678,2.9881 -1.7176,0.8748 -3.1371,1.6277 -4.1362,2.1436 -0.9941,0.5247 -1.5629,0.8241 -1.5629,0.8241"
           style="fill:#ffffff;fill-opacity:1;fill-rule:nonzero;stroke:none;stroke-width:0.1"
           id="path8372" />
        <path
           d="m 1512.99,1579.4235 c 0,0 0.3225,-0.1377 0.8823,-0.3896 0.5572,-0.2562 1.3588,-0.6091 2.3103,-1.0547 0.9542,-0.4425 2.063,-0.9661 3.2454,-1.5361 0.5913,-0.2872 1.201,-0.5836 1.8217,-0.8843 0.6181,-0.305 1.2472,-0.6143 1.8756,-0.9243 0.6252,-0.3137 1.2517,-0.6274 1.8681,-0.9376 0.6144,-0.3124 1.2193,-0.6205 1.8043,-0.9181 1.1696,-0.5986 2.256,-1.1663 3.184,-1.659 0.9299,-0.4903 1.6957,-0.9166 2.2355,-1.2068 0.5387,-0.2944 0.8433,-0.4682 0.8433,-0.4682 0,0 -0.3219,0.1385 -0.8816,0.3903 -0.5579,0.2555 -1.3595,0.6084 -2.3118,1.0546 -0.9534,0.4419 -2.0622,0.9655 -3.2447,1.537 -0.5906,0.2864 -1.2009,0.5821 -1.8217,0.8842 -0.6188,0.3043 -1.2465,0.6136 -1.8749,0.9236 -0.6259,0.3145 -1.2525,0.6281 -1.8681,0.9376 -0.6144,0.3125 -1.2193,0.6206 -1.8043,0.9181 -1.1689,0.5994 -2.256,1.1664 -3.1841,1.6604 -0.9291,0.4897 -1.6956,0.9153 -2.2361,1.2061 -0.538,0.2938 -0.8432,0.4668 -0.8432,0.4668"
           style="fill:#ffffff;fill-opacity:1;fill-rule:nonzero;stroke:none;stroke-width:0.1"
           id="path8374" />
        <path
           d="m 1508.3514,1578.8526 c 0,0 0.5345,-0.2459 1.4685,-0.675 0.9297,-0.4386 2.2659,-1.048 3.8547,-1.8086 1.589,-0.762 3.4509,-1.6334 5.4301,-2.5985 1.9792,-0.965 4.0907,-1.9943 6.2022,-3.0236 2.1028,-1.0469 4.2056,-2.0938 6.1768,-3.0758 1.9726,-0.9804 3.7973,-1.9268 5.3695,-2.7219 1.5716,-0.7973 2.8688,-1.4853 3.7824,-1.9563 0.9099,-0.4783 1.4294,-0.7522 1.4294,-0.7522 0,0 -0.5337,0.2452 -1.4677,0.6743 -0.9298,0.4386 -2.2666,1.0472 -3.8554,1.8078 -1.5883,0.7628 -3.4509,1.6334 -5.4294,2.5993 -1.98,0.9657 -4.0915,1.995 -6.203,3.0243 -2.1028,1.0469 -4.2049,2.0946 -6.1762,3.0765 -1.9711,0.9805 -3.7965,1.9262 -5.3694,2.7219 -1.5715,0.7959 -2.8687,1.4839 -3.7824,1.9549 -0.9099,0.4783 -1.4301,0.7529 -1.4301,0.7529"
           style="fill:#ffffff;fill-opacity:1;fill-rule:nonzero;stroke:none;stroke-width:0.1"
           id="path8376" />
        <path
           d="m 1516.4151,1604.8723 c 0,0 0.6924,-0.5004 1.6925,-1.2962 0.5021,-0.3964 1.081,-0.8659 1.6948,-1.3762 0.3055,-0.2566 0.6248,-0.5172 0.9423,-0.7907 0.3187,-0.272 0.642,-0.5494 0.9661,-0.826 0.32,-0.2811 0.64,-0.5608 0.9548,-0.8373 0.3168,-0.2743 0.6205,-0.5545 0.9182,-0.8202 0.5935,-0.5337 1.141,-1.0395 1.6043,-1.479 0.9307,-0.876 1.5243,-1.4905 1.5243,-1.4905 0,0 -0.6924,0.5003 -1.6925,1.2962 -0.5013,0.3957 -1.0802,0.8652 -1.694,1.3755 -0.3049,0.2574 -0.6263,0.5171 -0.9431,0.7914 -0.318,0.2727 -0.6413,0.5487 -0.9646,0.826 -0.3208,0.2804 -0.6409,0.5615 -0.9563,0.8373 -0.3161,0.275 -0.6191,0.5545 -0.9168,0.8202 -0.5928,0.5345 -1.1403,1.0403 -1.6051,1.4797 -0.9307,0.876 -1.5249,1.4898 -1.5249,1.4898"
           style="fill:#ffffff;fill-opacity:1;fill-rule:nonzero;stroke:none;stroke-width:0.1"
           id="path8378" />
      </g>
      <g
         id="g8508"
         transform="translate(12.8172,47.85088)">
        <path
           d="m 1452.9809,1458.0934 c -9.078,2.7721 -14.208,12.413 -11.436,21.491 1.289,4.221 4.064,7.5861 7.576,9.703 3.718,1.73 8.06,2.152 12.281,0.8631 9.078,-2.773 14.2079,-12.413 11.4359,-21.491 -1.2889,-4.221 -4.0639,-7.587 -7.5769,-9.703 -3.717,-1.731 -8.059,-2.152 -12.28,-0.8631 z m 163.684,-6.7459 -141.443,43.193 c -2.955,2.552 -6.528,4.491 -10.582,5.547 -6.923,1.804 -13.997,0.646 -19.815,-2.713 -6.118,-2.988 -11.079,-8.307 -13.4161,-15.17 -4.9099,-14.423 3.3961,-30.019 18.1101,-33.989 6.99,-1.887 14.1599,-0.741 20.047,2.659 6.067,2.963 10.999,8.221 13.357,15.0159 0.9059,2.6131 1.378,5.2661 1.4539,7.8821 0.06,2.034 1.06,3.766 2.531,4.855 1.191,0.421 2.529,0.485 3.864,0.077 v 0 c 5.4081,-1.6511 8.453,-7.373 6.8011,-12.781 l -7.384,-24.183 c -0.5591,-1.829 0.471,-3.764 2.2999,-4.323 l 1.6351,0.87 10.0409,32.883 c 0.197,0.643 0.5241,1.209 0.9401,1.684 l -7.739,-26.962 -1.824,-7.765 2.826,7.46 9.052,27.945 c 0.1,-0.011 0.2,-0.027 0.301,-0.044 l -8.117,-28.279 -1.824,-7.765 2.826,7.459 9.078,28.026 0.285,-0.087 -8.127,-28.316 -1.824,-7.766 2.826,7.46 9.078,28.026 0.285,-0.088 -8.127,-28.316 -1.824,-7.765 2.826,7.459 9.078,28.026 0.285,-0.087 -8.127,-28.316 -1.824,-7.766 2.826,7.46 9.078,28.026 0.285,-0.087 -8.127,-28.317 -1.824,-7.765 2.826,7.46 9.078,28.025 0.285,-0.087 -8.127,-28.316 -1.824,-7.765 2.826,7.4589 9.078,28.0261 0.285,-0.087 -8.127,-28.316 -1.824,-7.7661 2.825,7.46 9.079,28.0251 0.285,-0.087 -8.127,-28.316 -1.824,-7.7651 2.825,7.4591 9.079,28.026 0.285,-0.087 -8.127,-28.3161 -1.824,-7.765 2.825,7.459 9.079,28.026 0.285,-0.087 -8.127,-28.317 -1.824,-7.765 2.825,7.46 9.078,28.025 0.286,-0.087 -8.127,-28.316 -1.824,-7.765 2.825,7.459 9.078,28.026 0.286,-0.087 -8.128,-28.316 -1.823,-7.766 2.825,7.46 9.078,28.025 0.286,-0.087 -8.128,-28.316 -1.823,-7.765 2.825,7.459 9.078,28.026 0.286,-0.087 -8.128,-28.316 -1.824,-7.766 2.826,7.46 9.078,28.026 0.286,-0.087 -8.128,-28.317 -1.824,-7.765 2.826,7.459 9.078,28.026 0.285,-0.087 -8.127,-28.316 -1.824,-7.765 2.826,7.459 9.078,28.026 0.285,-0.087 -8.127,-28.316 -1.824,-7.766 2.826,7.46 9.078,28.025 0.285,-0.087 -8.127,-28.316 -1.824,-7.765 2.826,7.459 9.078,28.026 0.285,-0.087 -8.127,-28.316 -1.824,-7.766 2.826,7.46 9.078,28.026 0.285,-0.088 -8.127,-28.316 -1.824,-7.765 2.826,7.459 9.078,28.026 0.285,-0.087 -8.127,-28.316 -1.824,-7.765 2.825,7.459 9.079,28.026 0.285,-0.087 -8.127,-28.317 -1.824,-7.765 2.825,7.46 9.079,28.025 0.285,-0.087 -8.127,-28.316 -1.824,-7.765 2.825,7.459 9.078,28.026 0.286,-0.087 -8.127,-28.316 -1.824,-7.766 2.825,7.46 9.078,28.026 0.286,-0.088 -8.128,-28.316 -1.823,-7.765 2.825,7.459 9.078,28.026 0.286,-0.087 -8.128,-28.316 -1.823,-7.766 2.825,7.46 9.078,28.026 0.286,-0.087 -8.128,-28.317 -1.823,-7.765 2.825,7.46 9.078,28.025 0.286,-0.087 -8.128,-28.316 -1.824,-7.765 2.826,7.459 9.078,28.026 0.285,-0.087 -8.127,-28.316 -1.824,-7.766 2.826,7.46 9.078,28.025 0.285,-0.087 -8.127,-28.316 -1.824,-7.765 2.826,7.459 9.078,28.026 0.285,-0.087 -8.127,-28.316 -1.824,-7.766 2.826,7.46 9.078,28.026 0.285,-0.088 -8.127,-28.316 -1.824,-7.765 2.826,7.459 9.078,28.026 0.285,-0.087 -8.127,-28.316 -1.824,-7.765 2.825,7.459 9.079,28.026 0.285,-0.087 -8.127,-28.316 -1.824,-7.766 2.825,7.46 9.079,28.025 0.285,-0.087 -8.127,-28.316 -1.824,-7.765 2.825,7.459 9.079,28.026 0.285,-0.087 -8.127,-28.316 -1.824,-7.766 2.825,7.46 9.079,28.026 0.285,-0.088 -8.127,-28.316 -1.824,-7.765 2.825,7.459 9.078,28.026 0.286,-0.087 -8.127,-28.316 -1.824,-7.765 2.825,7.459 9.078,28.026 0.286,-0.087 -8.128,-28.317 -1.823,-7.765 2.825,7.46 9.078,28.025 0.286,-0.087 -8.128,-28.316 -1.824,-7.765 2.826,7.459 9.078,28.026 0.286,-0.087 -8.128,-28.316 -1.824,-7.766 2.826,7.46 9.078,28.026 0.285,-0.088 -8.127,-28.316 -1.824,-7.765 2.826,7.459 9.078,28.026 0.285,-0.087 -8.127,-28.316 -1.824,-7.765 2.826,7.459 9.078,28.026 0.285,-0.087 -8.127,-28.317 -1.824,-7.765 2.826,7.46 9.078,28.025 0.285,-0.087 -8.127,-28.316 -1.824,-7.765 2.826,7.459 9.078,28.026 0.285,-0.087 -8.127,-28.316 -1.824,-7.766 2.826,7.46 9.078,28.026 0.285,-0.088 -8.127,-28.316 -1.824,-7.765 2.825,7.459 9.079,28.026 0.285,-0.087 -8.127,-28.316 -1.824,-7.766 2.825,7.46 9.079,28.026 0.285,-0.087 -8.127,-28.317 -1.824,-7.765 2.825,7.459 9.042,27.912 c 0.091,-0.052 0.181,-0.105 0.267,-0.163 l -8.072,-28.126 -1.824,-7.765 2.825,7.459 8.632,26.647 c 0.082,-0.166 0.153,-0.336 0.214,-0.511 l -7.609,-26.513 -1.52,-6.472 -0.846,-2.771 c 0.662,-0.202 1.338,-0.194 1.958,-0.016 0,0 0,0 0,0 0.01,0 0.018,0.01 0.027,0.01 0.044,0.013 0.088,0.028 0.131,0.043 1.57,0.504 2.509,1.253 2.914,1.639 0.027,0.025 0.054,0.051 0.08,0.077 0.106,0.107 0.161,0.173 0.161,0.173 v 0 c 0.305,0.353 0.545,0.773 0.69,1.249 l 10.375,33.973 0.581,1.903 c 1.292,4.232 -3.023,8.561 -9.383,10.504"
           style="fill:#172330;fill-opacity:1;fill-rule:nonzero;stroke:none;stroke-width:0.1"
           id="path8382" />
        <path
           d="m 1451.5909,1450.8524 c 0,0 -0.295,0.095 -0.85,0.2751 -0.279,0.083 -0.614,0.213 -1.009,0.364 -0.399,0.141 -0.843,0.339 -1.341,0.558 -0.987,0.456 -2.172,1.054 -3.436,1.898 -1.261,0.843 -2.619,1.907 -3.922,3.252 -1.305,1.341 -2.565,2.949 -3.659,4.7999 -0.1301,0.2351 -0.261,0.471 -0.393,0.71 l -0.198,0.3581 -0.183,0.3709 c -0.121,0.246 -0.2431,0.4931 -0.3651,0.742 -0.1109,0.2571 -0.223,0.515 -0.3359,0.7751 l -0.169,0.3919 -0.15,0.4 c -0.099,0.267 -0.199,0.5361 -0.299,0.806 -0.169,0.551 -0.366,1.1011 -0.502,1.673 -0.313,1.132 -0.527,2.3121 -0.667,3.514 -0.151,1.2021 -0.181,2.4321 -0.142,3.6671 0.032,1.2369 0.19,2.4779 0.418,3.709 0.2219,1.2349 0.5659,2.445 0.978,3.6389 0.1079,0.293 0.201,0.5851 0.3219,0.878 l 0.364,0.8781 c 0.2651,0.572 0.5221,1.146 0.828,1.695 0.5911,1.1079 1.257,2.173 2.009,3.163 0.748,0.9919 1.5541,1.93 2.4231,2.786 0.871,0.854 1.79,1.637 2.7399,2.347 0.9571,0.702 1.9471,1.3229 2.9471,1.876 1.005,0.5449 2.027,1.0029 3.04,1.404 2.0399,0.7639 4.0589,1.259 5.9529,1.4759 1.8931,0.228 3.6521,0.2251 5.196,0.087 1.5521,-0.1389 2.866,-0.404 3.971,-0.6749 0.2621,-0.072 0.5101,-0.14 0.7441,-0.203 0.058,-0.016 0.116,-0.033 0.172,-0.048 0.061,-0.018 0.1219,-0.036 0.181,-0.053 0.1109,-0.035 0.219,-0.068 0.3229,-0.1011 0.413,-0.1309 0.761,-0.2519 1.0411,-0.355 0.562,-0.2059 0.856,-0.3299 0.856,-0.3299 l 0.015,-0.01 c 0.333,-0.141 0.489,-0.525 0.349,-0.8581 -0.141,-0.3329 -0.524,-0.489 -0.858,-0.3489 0,10e-4 -0.01,0 -0.01,0 0,0 -0.276,0.1211 -0.806,0.326 -0.264,0.1021 -0.593,0.223 -0.983,0.3541 -0.097,0.032 -0.198,0.065 -0.302,0.099 -0.05,0.016 -0.1,0.032 -0.151,0.048 -0.056,0.016 -0.113,0.032 -0.172,0.05 -0.232,0.068 -0.479,0.139 -0.74,0.216 -1.002,0.261 -2.279,0.544 -3.744,0.697 -1.468,0.155 -3.145,0.187 -4.957,0 -1.814,-0.177 -3.754,-0.619 -5.726,-1.32 -0.979,-0.369 -1.969,-0.793 -2.944,-1.302 -0.971,-0.516 -1.935,-1.098 -2.869,-1.76 -0.927,-0.67 -1.827,-1.411 -2.683,-2.222 -0.853,-0.814 -1.647,-1.709 -2.388,-2.6571 -0.744,-0.9469 -1.407,-1.9679 -1.998,-3.0339 -0.306,-0.528 -0.565,-1.084 -0.831,-1.633 l -0.363,-0.837 c -0.121,-0.278 -0.223,-0.578 -0.335,-0.866 -0.416,-1.147 -0.775,-2.329 -1.01,-3.528 -0.242,-1.1981 -0.417,-2.409 -0.468,-3.6181 -0.058,-1.2069 -0.048,-2.4119 0.08,-3.5929 0.118,-1.181 0.308,-2.343 0.598,-3.461 0.124,-0.5651 0.309,-1.108 0.467,-1.653 0.094,-0.268 0.188,-0.5341 0.282,-0.8 l 0.1409,-0.396 0.1591,-0.385 c 0.106,-0.257 0.211,-0.512 0.316,-0.766 0.118,-0.251 0.2349,-0.5 0.352,-0.748 l 0.1729,-0.366 0.1911,-0.357 c 0.1259,-0.2381 0.252,-0.474 0.377,-0.708 1.049,-1.846 2.2709,-3.458 3.543,-4.809 1.27,-1.356 2.6009,-2.434 3.8419,-3.294 1.2441,-0.86 2.4141,-1.476 3.3921,-1.947 0.493,-0.227 0.933,-0.432 1.3289,-0.579 0.3911,-0.157 0.7241,-0.293 1.002,-0.38 0.5511,-0.189 0.8451,-0.289 0.8451,-0.289"
           style="fill:#ffffff;fill-opacity:1;fill-rule:nonzero;stroke:none;stroke-width:0.1"
           id="path8384" />
        <path
           d="m 1463.1929,1455.8075 c 0,0 0.155,0.046 0.445,0.13 0.29,0.088 0.721,0.197 1.246,0.401 0.534,0.18 1.163,0.452 1.873,0.783 0.346,0.1839 0.725,0.36 1.104,0.581 0.188,0.113 0.382,0.2279 0.579,0.347 0.099,0.059 0.199,0.118 0.3,0.179 0.097,0.067 0.196,0.134 0.295,0.2019 0.1979,0.136 0.4,0.2751 0.607,0.4171 0.205,0.143 0.3989,0.309 0.605,0.466 0.417,0.3089 0.808,0.676 1.219,1.041 0.789,0.764 1.595,1.6029 2.289,2.58 0.701,0.967 1.3619,2.018 1.877,3.161 0.521,1.137 0.97,2.33 1.2459,3.5739 l 0.1171,0.4701 c 0.038,0.156 0.056,0.31 0.085,0.465 0.053,0.309 0.1059,0.617 0.159,0.925 0.031,0.3139 0.062,0.627 0.093,0.9389 0.014,0.156 0.034,0.3111 0.042,0.4671 l 0.012,0.467 c 0.064,1.243 -0.059,2.467 -0.2319,3.6329 -0.112,0.5801 -0.2071,1.1531 -0.3701,1.6981 -0.078,0.2729 -0.1309,0.549 -0.2259,0.8099 -0.09,0.262 -0.1781,0.521 -0.2651,0.7771 -0.079,0.258 -0.1889,0.501 -0.29,0.743 -0.1009,0.241 -0.201,0.479 -0.299,0.7129 -0.2319,0.451 -0.4369,0.8971 -0.6689,1.3051 -0.12,0.202 -0.237,0.3999 -0.352,0.594 -0.115,0.193 -0.222,0.384 -0.349,0.557 -0.248,0.349 -0.464,0.693 -0.699,0.993 -0.237,0.297 -0.459,0.576 -0.664,0.834 -0.218,0.247 -0.427,0.4669 -0.61,0.6679 -0.092,0.1011 -0.179,0.1961 -0.261,0.2861 -0.084,0.087 -0.17,0.163 -0.246,0.2359 -0.154,0.1461 -0.285,0.27 -0.391,0.371 -0.211,0.2011 -0.324,0.308 -0.324,0.308 l -0.033,0.031 c -0.262,0.249 -0.273,0.663 -0.024,0.925 0.249,0.2631 0.663,0.2741 0.925,0.024 0,0 0.01,-0.01 0.014,-0.013 0,0 0.118,-0.119 0.338,-0.341 0.11,-0.111 0.246,-0.248 0.405,-0.409 0.079,-0.082 0.167,-0.165 0.254,-0.262 0.085,-0.098 0.175,-0.202 0.27,-0.313 0.19,-0.2219 0.404,-0.464 0.627,-0.734 0.21,-0.281 0.437,-0.585 0.679,-0.9099 0.24,-0.3271 0.459,-0.6991 0.709,-1.078 0.129,-0.1881 0.2369,-0.3941 0.3519,-0.6031 0.1151,-0.2089 0.233,-0.422 0.3531,-0.641 0.2309,-0.4389 0.4339,-0.9179 0.663,-1.402 0.096,-0.25 0.194,-0.504 0.2919,-0.763 0.099,-0.258 0.205,-0.518 0.281,-0.793 0.083,-0.272 0.167,-0.547 0.252,-0.826 0.091,-0.2779 0.14,-0.571 0.212,-0.86 0.151,-0.577 0.234,-1.182 0.3311,-1.7929 0.143,-1.2281 0.23,-2.509 0.123,-3.8031 l -0.028,-0.486 c -0.014,-0.162 -0.04,-0.323 -0.059,-0.485 -0.043,-0.323 -0.086,-0.647 -0.1281,-0.972 -0.067,-0.3229 -0.133,-0.647 -0.199,-0.972 -0.036,-0.16 -0.062,-0.327 -0.1059,-0.482 l -0.1311,-0.466 c -0.325,-1.2669 -0.8279,-2.4899 -1.401,-3.639 -0.5659,-1.158 -1.2779,-2.214 -2.0249,-3.1789 -0.741,-0.9751 -1.59,-1.804 -2.415,-2.554 -0.429,-0.358 -0.837,-0.7171 -1.27,-1.0171 -0.213,-0.152 -0.415,-0.314 -0.627,-0.452 -0.213,-0.136 -0.422,-0.27 -0.627,-0.402 -0.103,-0.065 -0.204,-0.13 -0.304,-0.194 -0.104,-0.058 -0.207,-0.115 -0.309,-0.172 -0.203,-0.113 -0.402,-0.223 -0.595,-0.331 -0.389,-0.2109 -0.776,-0.3759 -1.13,-0.5499 -0.725,-0.31 -1.364,-0.5621 -1.906,-0.7261 -0.534,-0.188 -0.968,-0.2829 -1.26,-0.362 -0.293,-0.075 -0.449,-0.116 -0.449,-0.116"
           style="fill:#ffffff;fill-opacity:1;fill-rule:nonzero;stroke:none;stroke-width:0.1"
           id="path8386" />
        <path
           d="m 1504.1649,1471.1705 c 0.252,0.7999 0.703,1.549 1.34,2.1059 0.151,0.1491 0.329,0.2661 0.497,0.393 0.181,0.107 0.355,0.2311 0.5499,0.3151 0.3761,0.195 0.7851,0.317 1.2001,0.4 0.416,0.086 0.843,0.087 1.266,0.061 0.421,-0.045 0.839,-0.146 1.239,-0.274 l 2.419,-0.722 9.677,-2.891 19.34,-5.83 19.331,-5.862 19.325,-5.877 19.314,-5.916 9.656,-2.96 4.8289,-1.481 2.4141,-0.74 1.206,-0.371 c 0.222,-0.08 0.399,-0.132 0.608,-0.231 l 0.304,-0.147 c 0.099,-0.051 0.1889,-0.113 0.2839,-0.17 0.193,-0.107 0.3591,-0.255 0.536,-0.385 0.159,-0.153 0.331,-0.292 0.4701,-0.463 0.3009,-0.322 0.5409,-0.696 0.739,-1.088 0.205,-0.39 0.3269,-0.817 0.4179,-1.245 0.081,-0.433 0.097,-0.874 0.064,-1.312 -0.045,-0.432 -0.1501,-0.877 -0.281,-1.27 l -0.373,-1.206 -0.7461,-2.412 -2.9829,-9.65 -6.007,-19.286 -0.022,0.042 0.326,-0.084 0.332,-0.052 c 0.112,-0.01 0.225,-0.013 0.337,-0.02 0.1119,10e-4 0.224,0.01 0.337,0.014 0.1119,0.012 0.223,0.032 0.3339,0.047 0.1101,0.023 0.2191,0.053 0.328,0.079 l 0.319,0.112 0.307,0.142 0.2921,0.171 0.2729,0.2 c 0.084,0.075 0.1711,0.148 0.253,0.225 0.076,0.083 0.156,0.164 0.2291,0.249 0.068,0.091 0.14,0.179 0.2039,0.271 0.059,0.097 0.122,0.191 0.1771,0.29 l 0.148,0.306 0.1169,0.319 -0.114,-0.321 -0.1439,-0.308 c -0.054,-0.099 -0.1151,-0.195 -0.1731,-0.293 -0.064,-0.093 -0.1349,-0.182 -0.2019,-0.274 -0.073,-0.087 -0.152,-0.169 -0.2271,-0.254 -0.082,-0.079 -0.1679,-0.153 -0.2519,-0.229 l -0.273,-0.205 -0.2921,-0.177 -0.3089,-0.147 -0.321,-0.116 c -0.1101,-0.028 -0.2201,-0.06 -0.3311,-0.085 -0.113,-0.017 -0.2249,-0.038 -0.3379,-0.052 -0.1141,0 -0.228,-0.016 -0.342,-0.018 -0.114,0.01 -0.2291,0.01 -0.342,0.016 l -0.3401,0.048 -0.3329,0.082 -0.032,0.01 0.01,0.034 5.7921,19.351 2.9159,9.67 0.7291,2.417 0.365,1.2089 c 0.132,0.4071 0.215,0.7861 0.257,1.1911 0.027,0.402 0.01,0.806 -0.066,1.2019 -0.088,0.3911 -0.2001,0.7821 -0.391,1.1371 -0.1841,0.3559 -0.4051,0.697 -0.6821,0.989 -0.127,0.156 -0.2859,0.2799 -0.431,0.419 -0.163,0.116 -0.3129,0.251 -0.4899,0.347 -0.65,0.4289 -1.5081,0.5989 -2.304,0.859 l -2.4161,0.735 -4.831,1.469 -9.663,2.939 -19.3239,5.884 -19.3121,5.922 -19.307,5.937 -19.298,5.969 -9.6409,3.009 -2.41,0.752 c -0.4021,0.134 -0.804,0.235 -1.2191,0.286 -0.4159,0.03 -0.8369,0.035 -1.248,-0.046 -0.41,-0.076 -0.817,-0.192 -1.191,-0.3809 -0.194,-0.08 -0.367,-0.201 -0.549,-0.305 -0.168,-0.125 -0.346,-0.2381 -0.4969,-0.384 -0.6401,-0.545 -1.0991,-1.285 -1.3611,-2.083"
           style="fill:#ffffff;fill-opacity:1;fill-rule:nonzero;stroke:none;stroke-width:0.1"
           id="path8388" />
        <path
           d="m 1494.1239,1438.2874 c 0,0 -0.05,0.016 -0.147,0.049 -0.048,0.016 -0.109,0.036 -0.18,0.06 -0.069,0.031 -0.149,0.067 -0.239,0.107 -0.353,0.1711 -0.872,0.485 -1.31,1.098 -0.433,0.599 -0.779,1.519 -0.623,2.574 0.037,0.262 0.114,0.526 0.189,0.785 0.075,0.262 0.152,0.532 0.232,0.808 0.161,0.553 0.331,1.134 0.509,1.741 0.717,2.423 1.532,5.257 2.445,8.281 0.912,3.025 1.885,6.251 2.8579,9.477 0.2491,0.805 0.4971,1.61 0.7451,2.412 0.123,0.397 0.245,0.793 0.367,1.188 l 0.154,0.606 c 0.05,0.201 0.112,0.404 0.1309,0.6 0.275,1.575 0.172,3.222 -0.2849,4.694 -0.47,1.471 -1.241,2.789 -2.194,3.842 -0.951,1.057 -2.078,1.843 -3.208,2.361 -0.274,0.152 -0.571,0.232 -0.847,0.344 -0.139,0.049 -0.28,0.111 -0.4121,0.149 -0.1419,0.039 -0.2819,0.078 -0.4209,0.116 -0.541,0.132 -1.0861,0.177 -1.589,0.162 -1.0131,-0.028 -1.875,-0.31 -2.5271,-0.636 -0.655,-0.326 -1.115,-0.686 -1.4059,-0.95 -0.1511,-0.126 -0.251,-0.241 -0.3251,-0.312 -0.071,-0.072 -0.1079,-0.109 -0.1079,-0.109 0,0 0.035,0.039 0.1029,0.115 0.07,0.074 0.165,0.193 0.3111,0.327 0.2809,0.276 0.7219,0.668 1.378,1.019 0.651,0.354 1.5209,0.675 2.565,0.741 0.522,0.033 1.0769,0.01 1.661,-0.113 0.142,-0.031 0.2819,-0.068 0.426,-0.104 0.152,-0.04 0.287,-0.097 0.4339,-0.145 0.145,-0.05 0.2911,-0.102 0.4391,-0.154 0.1499,-0.046 0.2949,-0.111 0.439,-0.181 1.174,-0.508 2.3559,-1.295 3.368,-2.371 1.011,-1.07 1.853,-2.426 2.347,-3.965 0.4869,-1.544 0.613,-3.24 0.3289,-4.934 -0.023,-0.217 -0.082,-0.413 -0.13,-0.616 l -0.15,-0.607 c -0.122,-0.404 -0.2439,-0.809 -0.3659,-1.215 -0.242,-0.803 -0.485,-1.61 -0.7291,-2.416 -0.9949,-3.22 -1.991,-6.439 -2.924,-9.457 -0.932,-3.018 -1.84,-5.824 -2.5979,-8.235 -0.192,-0.602 -0.376,-1.179 -0.55,-1.728 -0.089,-0.274 -0.1761,-0.541 -0.26,-0.8 -0.086,-0.262 -0.1661,-0.507 -0.209,-0.752 -0.183,-0.991 0.114,-1.888 0.514,-2.484 0.407,-0.608 0.896,-0.947 1.239,-1.13 0.088,-0.045 0.166,-0.084 0.233,-0.118 0.07,-0.027 0.129,-0.05 0.176,-0.068 0.096,-0.037 0.145,-0.056 0.145,-0.056"
           style="fill:#ffffff;fill-opacity:1;fill-rule:nonzero;stroke:none;stroke-width:0.1"
           id="path8390" />
        <path
           d="m 1445.7669,1497.8945 c 0,0 -0.274,-0.1581 -0.789,-0.454 -0.514,-0.298 -1.249,-0.763 -2.15,-1.406 -0.891,-0.653 -1.946,-1.489 -3.046,-2.566 -1.098,-1.075 -2.24,-2.391 -3.309,-3.948 -1.066,-1.559 -2.056,-3.364 -2.834,-5.381 -0.092,-0.254 -0.184,-0.51 -0.277,-0.767 l -0.136,-0.383 -0.122,-0.4 c -0.081,-0.267 -0.162,-0.536 -0.245,-0.806 -0.081,-0.271 -0.137,-0.544 -0.208,-0.818 -0.282,-1.093 -0.471,-2.241 -0.622,-3.407 -0.246,-2.339 -0.227,-4.794 0.201,-7.229 0.09,-0.612 0.234,-1.215 0.368,-1.822 0.068,-0.304 0.161,-0.601 0.241,-0.9031 0.08,-0.301 0.164,-0.6009 0.268,-0.8959 0.364,-1.196 0.858,-2.3541 1.393,-3.487 0.536,-1.134 1.177,-2.2151 1.859,-3.262 0.7,-1.035 1.467,-2.018 2.287,-2.942 1.662,-1.826 3.533,-3.416 5.538,-4.652 0.987,-0.642 2.028,-1.155 3.047,-1.65 0.261,-0.111 0.52,-0.223 0.777,-0.333 0.259,-0.108 0.511,-0.227 0.774,-0.316 0.522,-0.185 1.03,-0.392 1.551,-0.538 0.259,-0.079 0.515,-0.157 0.77,-0.235 0.248,-0.074 0.515,-0.134 0.769,-0.201 0.512,-0.141 1.017,-0.226 1.513,-0.335 1.002,-0.1731 1.977,-0.3161 2.921,-0.371 1.884,-0.137 3.624,-0.063 5.15,0.1289 1.526,0.1911 2.841,0.4781 3.904,0.7841 0.269,0.067 0.516,0.155 0.752,0.2249 0.234,0.075 0.458,0.1351 0.659,0.2111 0.404,0.1459 0.754,0.258 1.028,0.37 0.551,0.221 0.845,0.338 0.845,0.338 0,0 -0.29,-0.126 -0.834,-0.364 -0.548,-0.228 -1.36,-0.5511 -2.421,-0.878 -1.06,-0.3311 -2.375,-0.651 -3.907,-0.88 -0.382,-0.063 -0.781,-0.096 -1.19,-0.1481 -0.41,-0.041 -0.833,-0.065 -1.267,-0.099 -0.869,-0.032 -1.785,-0.045 -2.738,0.018 -0.955,0.042 -1.944,0.173 -2.962,0.3341 -0.505,0.1019 -1.03,0.1849 -1.539,0.3179 -0.259,0.064 -0.513,0.117 -0.781,0.1911 -0.259,0.076 -0.521,0.152 -0.784,0.2279 -0.53,0.141 -1.049,0.343 -1.581,0.5241 -0.269,0.086 -0.527,0.2039 -0.791,0.3089 -0.263,0.109 -0.53,0.214 -0.794,0.328 -0.261,0.123 -0.523,0.246 -0.786,0.371 l -0.395,0.189 -0.387,0.208 c -0.259,0.141 -0.518,0.282 -0.779,0.424 -0.257,0.148 -0.509,0.309 -0.765,0.464 -2.045,1.248 -3.958,2.857 -5.66,4.71 -0.84,0.937 -1.626,1.935 -2.345,2.986 -0.699,1.064 -1.359,2.162 -1.91,3.318 -0.54,1.158 -1.037,2.34 -1.403,3.561 -0.104,0.301 -0.189,0.608 -0.269,0.915 -0.079,0.308 -0.173,0.611 -0.241,0.921 -0.134,0.619 -0.277,1.235 -0.366,1.858 -0.424,2.483 -0.433,4.983 -0.17,7.362 0.161,1.187 0.349,2.348 0.659,3.465 0.076,0.278 0.14,0.56 0.225,0.83 0.086,0.269 0.171,0.537 0.256,0.803 l 0.127,0.398 c 0.049,0.132 0.098,0.265 0.147,0.396 0.098,0.26 0.195,0.519 0.292,0.775 0.818,2.035 1.847,3.849 2.947,5.409 1.099,1.564 2.284,2.865 3.416,3.921 1.133,1.059 2.212,1.875 3.122,2.509 0.463,0.307 0.87,0.589 1.246,0.801 0.372,0.2201 0.683,0.413 0.948,0.547 0.524,0.28 0.803,0.429 0.803,0.429"
           style="fill:#ffffff;fill-opacity:1;fill-rule:nonzero;stroke:none;stroke-width:0.1"
           id="path8392" />
        <path
           d="m 1449.6049,1489.5705 c 0,0 0.186,0.104 0.534,0.298 0.172,0.101 0.394,0.208 0.653,0.336 0.257,0.136 0.564,0.265 0.908,0.4109 0.691,0.279 1.545,0.596 2.56,0.8361 1.013,0.244 2.183,0.4299 3.47,0.464 1.286,0.037 2.687,-0.081 4.132,-0.392 0.721,-0.15 1.4579,-0.369 2.182,-0.6201 0.738,-0.2659 1.464,-0.585 2.179,-0.9629 1.426,-0.7581 2.7999,-1.739 4.011,-2.931 1.216,-1.1841 2.27,-2.574 3.1039,-4.0861 0.4071,-0.761 0.77,-1.5459 1.0611,-2.355 0.289,-0.81 0.528,-1.634 0.699,-2.465 0.1639,-0.8329 0.2799,-1.669 0.328,-2.5 0.037,-0.8309 0.042,-1.654 -0.036,-2.459 -0.126,-1.6109 -0.515,-3.145 -1.019,-4.522 -0.528,-1.392 -1.19,-2.623 -1.914,-3.6889 -0.721,-1.0661 -1.509,-1.9521 -2.264,-2.67 -0.756,-0.7191 -1.479,-1.271 -2.089,-1.701 -0.614,-0.424 -1.123,-0.716 -1.473,-0.9071 -0.352,-0.188 -0.54,-0.288 -0.54,-0.288 0,0 0.183,0.1081 0.5259,0.312 0.3411,0.2051 0.8301,0.5261 1.4281,0.9661 0.591,0.4479 1.289,1.0209 2.011,1.7569 0.721,0.7361 1.4649,1.635 2.156,2.695 0.6879,1.058 1.315,2.292 1.796,3.6461 0.471,1.3759 0.807,2.866 0.9299,4.4379 0.069,0.784 0.059,1.586 0.017,2.393 -0.052,0.808 -0.17,1.6201 -0.335,2.429 -0.172,0.8071 -0.411,1.6061 -0.696,2.39 -0.2881,0.784 -0.648,1.543 -1.045,2.28 -0.799,1.472 -1.813,2.83 -2.9881,3.989 -1.1689,1.1661 -2.498,2.1301 -3.8819,2.8781 -0.691,0.375 -1.405,0.6839 -2.1041,0.9589 -0.72,0.266 -1.421,0.49 -2.128,0.653 -1.406,0.335 -2.777,0.479 -4.042,0.47 -1.2649,-0.014 -2.423,-0.155 -3.432,-0.36 -1.012,-0.203 -1.87,-0.487 -2.566,-0.741 -0.346,-0.1349 -0.656,-0.2509 -0.918,-0.372 -0.264,-0.1159 -0.49,-0.2129 -0.667,-0.306 -0.357,-0.1779 -0.547,-0.273 -0.547,-0.273"
           style="fill:#ffffff;fill-opacity:1;fill-rule:nonzero;stroke:none;stroke-width:0.1"
           id="path8394" />
        <path
           d="m 1623.0329,1434.7805 c 0,0 0.113,0.515 0.324,1.482 0.211,0.9669 0.5299,2.379 0.942,4.182 0.169,0.8499 0.109,1.863 -0.308,2.829 -0.407,0.9729 -1.143,1.8949 -2.0861,2.701 -0.9439,0.809 -2.0899,1.5119 -3.3649,2.1099 -1.281,0.6031 -2.676,1.0811 -4.194,1.5081 -1.519,0.442 -3.101,0.9029 -4.7381,1.381 -1.6359,0.483 -3.326,0.983 -5.0639,1.4969 -3.479,1.0211 -7.132,2.1461 -10.919,3.2841 -3.776,1.1749 -7.678,2.389 -11.6421,3.623 -3.9629,1.242 -7.9869,2.503 -12.0129,3.7649 -8.053,2.511 -16.107,5.0221 -23.658,7.3761 -7.547,2.3619 -14.592,4.567 -20.63,6.457 -12.0741,3.7899 -20.1231,6.316 -20.1231,6.316 l 0.039,0.126 c 0,0 8.087,-2.4021 20.2181,-6.004 6.0639,-1.805 13.1379,-3.9121 20.7179,-6.169 7.577,-2.266 15.66,-4.683 23.743,-7.1001 4.043,-1.2019 8.0861,-2.404 12.0661,-3.5879 3.9769,-1.1911 7.8919,-2.364 11.6799,-3.498 3.776,-1.1731 7.435,-2.281 10.89,-3.377 1.7291,-0.545 3.41,-1.0751 5.0371,-1.587 1.625,-0.5191 3.194,-1.02 4.701,-1.502 3.0539,-0.92 5.792,-2.261 7.752,-4.059 0.9749,-0.899 1.7469,-1.932 2.1599,-3.034 0.414,-1.106 0.422,-2.226 0.181,-3.171 -0.502,-1.776 -0.896,-3.171 -1.165,-4.123 -0.273,-0.9501 -0.4189,-1.457 -0.4189,-1.457 l -0.127,0.032"
           style="fill:#ffffff;fill-opacity:1;fill-rule:nonzero;stroke:none;stroke-width:0.1"
           id="path8396" />
      </g>
    </g>
  </g>
</svg>
