<?xml version="1.0" encoding="UTF-8"?>
<svg xmlns="http://www.w3.org/2000/svg" xmlns:xlink="http://www.w3.org/1999/xlink" width="20px" height="20px" viewBox="0 0 20 20" version="1.1">
<g id="surface1">
<path style=" stroke:none;fill-rule:nonzero;fill:rgb(0%,0%,0%);fill-opacity:1;" d="M 4 17.332031 C 4.085938 17.332031 4.171875 17.300781 4.234375 17.234375 C 4.367188 17.105469 4.367188 16.894531 4.234375 16.765625 L 1.214844 13.746094 C 1.195312 13.726562 0.667969 13.257812 0.667969 12.332031 L 0.667969 7.332031 C 0.667969 6.964844 0.964844 6.667969 1.332031 6.667969 C 1.699219 6.667969 2 6.964844 2 7.332031 L 2 9.972656 C 2 10.15625 2.148438 10.304688 2.332031 10.304688 C 2.519531 10.304688 2.667969 10.15625 2.667969 9.972656 L 2.667969 7.332031 C 2.667969 6.597656 2.070312 6 1.332031 6 C 0.597656 6 0 6.597656 0 7.332031 L 0 12.332031 C 0 13.578125 0.753906 14.226562 0.765625 14.234375 L 3.765625 17.234375 C 3.828125 17.300781 3.914062 17.332031 4 17.332031 Z M 4 17.332031 "/>
<path style=" stroke:none;fill-rule:nonzero;fill:rgb(0%,0%,0%);fill-opacity:1;" d="M 6.332031 8 L 5.332031 8 C 5.148438 8 5 8.148438 5 8.332031 L 5 9.332031 C 5 9.378906 5.007812 10.480469 5.765625 11.234375 C 6.519531 11.992188 7.621094 12 7.667969 12 L 8.667969 12 C 8.851562 12 9 11.851562 9 11.667969 L 9 10.667969 C 9 10.621094 8.992188 9.519531 8.234375 8.765625 C 7.480469 8.007812 6.378906 8 6.332031 8 Z M 8.332031 11.332031 L 7.667969 11.332031 C 7.660156 11.332031 6.796875 11.328125 6.234375 10.765625 C 5.679688 10.207031 5.667969 9.339844 5.667969 9.332031 L 5.667969 8.667969 L 6.332031 8.667969 C 6.339844 8.667969 7.203125 8.671875 7.765625 9.234375 C 8.320312 9.792969 8.332031 10.660156 8.332031 10.667969 Z M 8.332031 11.332031 "/>
<path style=" stroke:none;fill-rule:nonzero;fill:rgb(0%,0%,0%);fill-opacity:1;" d="M 7.667969 18 L 7.332031 18 L 7.332031 15.332031 C 7.332031 14.105469 6.582031 13.441406 6.570312 13.429688 L 4.234375 11.097656 C 3.984375 10.847656 3.660156 10.699219 3.328125 10.6875 C 2.972656 10.675781 2.644531 10.804688 2.390625 11.058594 C 2.136719 11.308594 2.007812 11.644531 2.019531 11.992188 C 2.035156 12.328125 2.179688 12.652344 2.429688 12.902344 L 4.097656 14.570312 C 4.226562 14.699219 4.4375 14.699219 4.570312 14.570312 C 4.699219 14.4375 4.699219 14.226562 4.570312 14.097656 L 2.902344 12.429688 C 2.769531 12.296875 2.695312 12.132812 2.6875 11.964844 C 2.679688 11.800781 2.742188 11.648438 2.863281 11.527344 C 2.984375 11.40625 3.132812 11.347656 3.300781 11.351562 C 3.46875 11.359375 3.632812 11.4375 3.765625 11.570312 L 6.113281 13.917969 C 6.136719 13.9375 6.667969 14.421875 6.667969 15.332031 L 6.667969 18 L 2.332031 18 C 2.148438 18 2 18.148438 2 18.332031 L 2 19.667969 C 2 19.851562 2.148438 20 2.332031 20 C 2.519531 20 2.667969 19.851562 2.667969 19.667969 L 2.667969 18.667969 L 7.332031 18.667969 L 7.332031 19.667969 C 7.332031 19.851562 7.480469 20 7.667969 20 C 7.851562 20 8 19.851562 8 19.667969 L 8 18.332031 C 8 18.148438 7.851562 18 7.667969 18 Z M 7.667969 18 "/>
<path style=" stroke:none;fill-rule:nonzero;fill:rgb(0%,0%,0%);fill-opacity:1;" d="M 12.667969 4 C 12.667969 2.546875 11.613281 1.476562 11.570312 1.429688 L 10.234375 0.0976562 C 10.105469 -0.03125 9.894531 -0.03125 9.765625 0.0976562 L 8.429688 1.429688 C 8.386719 1.476562 7.332031 2.546875 7.332031 4 C 7.332031 5.453125 8.386719 6.523438 8.429688 6.570312 L 9.667969 7.804688 L 9.667969 14.332031 C 9.667969 14.519531 9.816406 14.667969 10 14.667969 C 10.183594 14.667969 10.332031 14.519531 10.332031 14.332031 L 10.332031 7.804688 L 11.570312 6.570312 C 11.613281 6.523438 12.667969 5.453125 12.667969 4 Z M 10.332031 6.863281 L 10.332031 2.332031 C 10.332031 2.148438 10.183594 2 10 2 C 9.816406 2 9.667969 2.148438 9.667969 2.332031 L 9.667969 6.863281 L 8.902344 6.097656 C 8.894531 6.089844 8 5.183594 8 4 C 8 2.828125 8.894531 1.910156 8.902344 1.902344 L 10 0.804688 L 11.097656 1.902344 C 11.105469 1.910156 12 2.820312 12 4 C 12 5.171875 11.105469 6.089844 11.097656 6.097656 Z M 10.332031 6.863281 "/>
<path style=" stroke:none;fill-rule:nonzero;fill:rgb(0%,0%,0%);fill-opacity:1;" d="M 18.667969 6 C 17.929688 6 17.332031 6.597656 17.332031 7.332031 L 17.332031 9.972656 C 17.332031 10.15625 17.480469 10.304688 17.667969 10.304688 C 17.851562 10.304688 18 10.15625 18 9.972656 L 18 7.332031 C 18 6.964844 18.300781 6.667969 18.667969 6.667969 C 19.035156 6.667969 19.332031 6.964844 19.332031 7.332031 L 19.332031 12.332031 C 19.332031 13.257812 18.804688 13.726562 18.765625 13.765625 L 15.765625 16.765625 C 15.632812 16.894531 15.632812 17.105469 15.765625 17.234375 C 15.828125 17.300781 15.914062 17.332031 16 17.332031 C 16.085938 17.332031 16.171875 17.300781 16.234375 17.234375 L 19.214844 14.253906 C 19.246094 14.226562 20 13.578125 20 12.332031 L 20 7.332031 C 20 6.597656 19.402344 6 18.667969 6 Z M 18.667969 6 "/>
<path style=" stroke:none;fill-rule:nonzero;fill:rgb(0%,0%,0%);fill-opacity:1;" d="M 17.667969 18 L 13.332031 18 L 13.332031 15.332031 C 13.332031 14.421875 13.863281 13.9375 13.902344 13.902344 L 16.234375 11.570312 C 16.367188 11.4375 16.53125 11.359375 16.699219 11.351562 C 16.871094 11.347656 17.015625 11.40625 17.136719 11.527344 C 17.257812 11.648438 17.320312 11.800781 17.3125 11.964844 C 17.304688 12.132812 17.230469 12.296875 17.097656 12.429688 L 15.429688 14.097656 C 15.300781 14.226562 15.300781 14.4375 15.429688 14.570312 C 15.5625 14.699219 15.773438 14.699219 15.902344 14.570312 L 17.570312 12.902344 C 17.820312 12.652344 17.964844 12.328125 17.980469 11.992188 C 17.992188 11.644531 17.863281 11.308594 17.609375 11.058594 C 17.355469 10.804688 17.027344 10.671875 16.671875 10.6875 C 16.339844 10.699219 16.015625 10.847656 15.765625 11.097656 L 13.449219 13.414062 C 13.417969 13.441406 12.667969 14.105469 12.667969 15.332031 L 12.667969 18 L 12.332031 18 C 12.148438 18 12 18.148438 12 18.332031 L 12 19.667969 C 12 19.851562 12.148438 20 12.332031 20 C 12.519531 20 12.667969 19.851562 12.667969 19.667969 L 12.667969 18.667969 L 17.332031 18.667969 L 17.332031 19.667969 C 17.332031 19.851562 17.480469 20 17.667969 20 C 17.851562 20 18 19.851562 18 19.667969 L 18 18.332031 C 18 18.148438 17.851562 18 17.667969 18 Z M 17.667969 18 "/>
<path style=" stroke:none;fill-rule:nonzero;fill:rgb(0%,0%,0%);fill-opacity:1;" d="M 14.234375 11.234375 C 14.992188 10.480469 15 9.378906 15 9.332031 L 15 8.332031 C 15 8.148438 14.851562 8 14.667969 8 L 13.667969 8 C 13.621094 8 12.519531 8.007812 11.765625 8.765625 C 11.007812 9.519531 11 10.621094 11 10.667969 L 11 11.667969 C 11 11.851562 11.148438 12 11.332031 12 L 12.332031 12 C 12.378906 12 13.480469 11.992188 14.234375 11.234375 Z M 11.667969 11.332031 L 11.667969 10.667969 C 11.667969 10.65625 11.671875 9.796875 12.234375 9.234375 C 12.792969 8.679688 13.660156 8.667969 13.667969 8.667969 L 14.332031 8.667969 L 14.332031 9.332031 C 14.332031 9.34375 14.328125 10.203125 13.765625 10.765625 C 13.210938 11.316406 12.351562 11.332031 12.332031 11.332031 Z M 11.667969 11.332031 "/>
</g>
</svg>
