<?xml version="1.0" encoding="iso-8859-1"?>
<!-- Generator: Adobe Illustrator 19.0.0, SVG Export Plug-In . SVG Version: 6.00 Build 0)  -->
<svg version="1.1" id="Layer_1" xmlns="http://www.w3.org/2000/svg" xmlns:xlink="http://www.w3.org/1999/xlink" x="0px" y="0px"
	 viewBox="0 0 512.002 512.002" style="enable-background:new 0 0 512.002 512.002;" xml:space="preserve">
<g>
	<g>
		<g>
			<path d="M102.401,443.736c2.185,0,4.369-0.836,6.033-2.5c3.337-3.337,3.337-8.73,0-12.066l-77.286-77.244
				c-0.572-0.503-14.08-12.553-14.08-36.19v-128c0-9.412,7.654-17.067,17.067-17.067c9.404,0,17.067,7.654,17.067,17.067v67.558
				c0,4.71,3.814,8.525,8.533,8.525s8.533-3.814,8.533-8.525v-67.558c0-18.825-15.309-34.133-34.133-34.133
				c-18.825,0-34.133,15.309-34.133,34.133v128c0,31.863,19.277,48.495,19.567,48.7l76.8,76.8
				C98.032,442.899,100.217,443.736,102.401,443.736z"/>
			<path d="M162.134,204.802h-25.6c-4.719,0-8.533,3.823-8.533,8.533v25.6c0,1.195,0.222,29.355,19.567,48.7
				c19.345,19.345,47.505,19.567,48.7,19.567h25.6c4.719,0,8.533-3.823,8.533-8.533v-25.6c0-1.195-0.222-29.355-19.567-48.7
				C191.489,205.024,163.329,204.802,162.134,204.802z M213.334,290.135h-17.067c-0.213,0-22.238-0.171-36.634-14.566
				c-14.259-14.259-14.566-36.437-14.566-36.634v-17.067h17.067c0.213,0,22.229,0.162,36.634,14.566
				c14.259,14.259,14.566,36.437,14.566,36.634V290.135z"/>
			<path d="M196.268,460.802h-8.533v-68.267c0-31.403-19.191-48.401-19.567-48.7l-59.733-59.733
				c-6.417-6.426-14.686-10.163-23.262-10.513c-9.054-0.333-17.493,3.004-23.97,9.481c-6.485,6.477-9.847,14.993-9.489,23.962
				c0.358,8.585,4.096,16.853,10.522,23.27l42.667,42.667c3.337,3.337,8.73,3.337,12.066,0c3.336-3.337,3.336-8.73,0-12.066
				l-42.667-42.675c-3.388-3.379-5.35-7.603-5.521-11.887c-0.179-4.215,1.382-8.09,4.489-11.204
				c3.115-3.106,6.886-4.676,11.204-4.489c4.284,0.171,8.516,2.133,11.895,5.521l60.134,60.109
				c0.572,0.512,14.165,12.928,14.165,36.258v68.267H59.734c-4.719,0-8.533,3.823-8.533,8.533v34.133
				c0,4.71,3.814,8.533,8.533,8.533s8.533-3.823,8.533-8.533v-25.6h119.467v25.6c0,4.71,3.814,8.533,8.533,8.533
				s8.533-3.823,8.533-8.533v-34.133C204.801,464.625,200.987,460.802,196.268,460.802z"/>
			<path d="M324.268,102.402c0-37.24-26.948-64.623-28.1-65.766L262.034,2.502c-3.337-3.336-8.73-3.336-12.066,0l-34.133,34.133
				c-1.152,1.143-28.1,28.527-28.1,65.766c0,37.239,26.948,64.623,28.1,65.766l31.642,31.642v167.142
				c0,4.719,3.814,8.533,8.533,8.533s8.533-3.814,8.533-8.533V199.793l31.625-31.625
				C297.319,167.025,324.268,139.642,324.268,102.402z M264.543,175.661V59.735c0-4.71-3.814-8.533-8.533-8.533
				s-8.533,3.823-8.533,8.533v115.942l-19.575-19.575c-0.23-0.23-23.1-23.45-23.1-53.7c0-30.037,22.886-53.478,23.1-53.7l28.1-28.1
				l28.1,28.1c0.23,0.23,23.1,23.45,23.1,53.7c0,30.037-22.886,53.478-23.1,53.7L264.543,175.661z"/>
			<path d="M477.868,153.602c-18.825,0-34.133,15.309-34.133,34.133v67.558c0,4.71,3.814,8.525,8.533,8.525
				c4.719,0,8.533-3.814,8.533-8.525v-67.558c0-9.412,7.654-17.067,17.067-17.067c9.404,0,17.067,7.654,17.067,17.067v128
				c0,23.637-13.508,35.686-14.566,36.634l-76.8,76.8c-3.337,3.336-3.337,8.73,0,12.066c1.664,1.664,3.849,2.5,6.033,2.5
				c2.185,0,4.369-0.836,6.033-2.5l76.262-76.314c0.828-0.691,20.105-17.323,20.105-49.186v-128
				C512.001,168.911,496.692,153.602,477.868,153.602z"/>
			<path d="M452.268,460.802H341.334v-68.267c0-23.33,13.594-35.746,14.566-36.634l59.733-59.733
				c3.379-3.388,7.612-5.35,11.895-5.521c4.352-0.188,8.09,1.382,11.204,4.489c3.106,3.115,4.668,6.989,4.489,11.204
				c-0.171,4.284-2.133,8.508-5.521,11.896l-42.667,42.667c-3.337,3.337-3.337,8.73,0,12.066c3.336,3.337,8.73,3.337,12.066,0
				l42.667-42.667c6.426-6.417,10.155-14.686,10.522-23.27c0.358-8.969-3.004-17.485-9.489-23.962
				c-6.477-6.477-14.908-9.83-23.97-9.481c-8.576,0.35-16.845,4.087-23.262,10.513l-59.29,59.324
				c-0.819,0.708-20.011,17.707-20.011,49.109v68.267h-8.533c-4.719,0-8.533,3.823-8.533,8.533v34.133
				c0,4.71,3.814,8.533,8.533,8.533s8.533-3.823,8.533-8.533v-25.6h119.467v25.6c0,4.71,3.814,8.533,8.533,8.533
				c4.719,0,8.533-3.823,8.533-8.533v-34.133C460.801,464.625,456.987,460.802,452.268,460.802z"/>
			<path d="M364.434,287.635c19.345-19.345,19.567-47.505,19.567-48.7v-25.6c0-4.71-3.814-8.533-8.533-8.533h-25.6
				c-1.195,0-29.355,0.222-48.7,19.567c-19.345,19.345-19.567,47.505-19.567,48.7v25.6c0,4.71,3.814,8.533,8.533,8.533h25.6
				C316.929,307.202,345.089,306.98,364.434,287.635z M298.668,290.135v-17.067c0-0.222,0.162-22.238,14.566-36.634
				c14.259-14.259,36.437-14.566,36.634-14.566h17.067v17.067c0,0.222-0.171,22.229-14.566,36.634
				c-14.157,14.157-36.122,14.558-36.651,14.566H298.668z"/>
		</g>
	</g>
</g>
<g>
</g>
<g>
</g>
<g>
</g>
<g>
</g>
<g>
</g>
<g>
</g>
<g>
</g>
<g>
</g>
<g>
</g>
<g>
</g>
<g>
</g>
<g>
</g>
<g>
</g>
<g>
</g>
<g>
</g>
</svg>
