<?xml version="1.0" encoding="UTF-8"?>
<svg xmlns="http://www.w3.org/2000/svg" xmlns:xlink="http://www.w3.org/1999/xlink" width="20px" height="20px" viewBox="0 0 20 20" version="1.1">
<g id="surface1">
<path style=" stroke:none;fill-rule:nonzero;fill:rgb(0%,0%,0%);fill-opacity:1;" d="M 19.960938 17.410156 L 19.167969 14.652344 C 19.148438 14.597656 19.109375 14.539062 19.074219 14.503906 C 18.582031 13.011719 17.375 11.859375 15.84375 11.464844 L 15.617188 11.425781 C 15.277344 11.332031 14.902344 11.445312 14.65625 11.726562 C 13.824219 12.671875 12.769531 12.746094 11.652344 12.746094 C 10.539062 12.746094 9.484375 12.671875 8.652344 11.726562 C 8.40625 11.445312 8.03125 11.332031 7.691406 11.425781 L 7.464844 11.480469 C 6.3125 11.785156 5.332031 12.519531 4.707031 13.5 L 2.328125 13.5 C 2.308594 13.5 2.308594 13.5 2.292969 13.484375 C 2.292969 13.464844 2.273438 13.445312 2.273438 13.40625 L 2.761719 11.652344 C 3.199219 10.273438 4.027344 9.859375 5.652344 9.441406 C 5.726562 9.425781 5.785156 9.386719 5.820312 9.347656 C 5.953125 9.460938 6.105469 9.554688 6.253906 9.632812 C 6.3125 9.667969 6.367188 9.667969 6.425781 9.667969 C 6.558594 9.667969 6.691406 9.59375 6.765625 9.460938 C 6.859375 9.273438 6.785156 9.046875 6.59375 8.953125 C 5.726562 8.5 5.105469 7.214844 5.105469 5.894531 C 5.105469 4.722656 6.066406 3.761719 7.238281 3.761719 C 7.464844 3.761719 7.671875 3.800781 7.878906 3.855469 C 7.671875 4.367188 7.558594 4.914062 7.558594 5.496094 C 7.558594 8.726562 9.503906 11.445312 11.804688 11.445312 C 14.070312 11.445312 16.070312 8.667969 16.070312 5.496094 C 16.070312 3.136719 14.164062 1.230469 11.804688 1.230469 C 10.3125 1.230469 8.992188 2.003906 8.238281 3.175781 C 7.917969 3.0625 7.578125 3.007812 7.238281 3.007812 C 6.21875 3.007812 5.3125 3.554688 4.800781 4.367188 C 4.765625 4.328125 4.726562 4.308594 4.6875 4.289062 C 4.40625 4.140625 4.121094 4.082031 3.800781 4.082031 C 2.746094 4.0625 1.894531 4.914062 1.894531 5.96875 C 1.894531 6.574219 2.066406 7.140625 2.328125 7.59375 C 1.460938 7.820312 0.6875 8.160156 0.328125 9.3125 L 0.0273438 10.40625 C -0.03125 10.59375 0.0078125 10.800781 0.121094 10.953125 C 0.234375 11.125 0.441406 11.21875 0.648438 11.21875 L 2.101562 11.21875 C 2.082031 11.292969 2.046875 11.367188 2.027344 11.445312 L 1.535156 13.21875 C 1.460938 13.464844 1.515625 13.726562 1.6875 13.9375 C 1.839844 14.144531 2.066406 14.257812 2.328125 14.257812 L 4.328125 14.257812 C 4.273438 14.390625 4.234375 14.519531 4.199219 14.652344 L 3.40625 17.429688 C 3.328125 17.75 3.386719 18.089844 3.59375 18.351562 C 3.800781 18.617188 4.101562 18.769531 4.425781 18.769531 L 18.941406 18.769531 C 19.261719 18.769531 19.582031 18.617188 19.769531 18.351562 C 19.980469 18.089844 20.054688 17.75 19.960938 17.410156 Z M 8.691406 3.914062 C 8.710938 3.894531 8.726562 3.875 8.746094 3.835938 C 8.765625 3.816406 8.765625 3.78125 8.785156 3.761719 C 9.371094 2.703125 10.503906 1.988281 11.804688 1.988281 C 13.371094 1.988281 14.691406 3.023438 15.144531 4.441406 C 14.484375 4.574219 13.789062 4.308594 13.371094 3.742188 C 13.238281 3.574219 13.011719 3.535156 12.84375 3.667969 C 12.769531 3.722656 12.730469 3.78125 12.710938 3.855469 C 12.691406 3.875 12.691406 3.894531 12.671875 3.914062 C 12.144531 4.988281 10.371094 5.441406 8.351562 5.042969 C 8.40625 4.648438 8.519531 4.269531 8.691406 3.914062 Z M 9.746094 5.933594 C 11.257812 5.933594 12.503906 5.460938 13.144531 4.574219 C 13.617188 4.988281 14.203125 5.214844 14.824219 5.214844 C 14.976562 5.214844 15.144531 5.195312 15.296875 5.15625 C 15.316406 5.269531 15.316406 5.367188 15.316406 5.480469 C 15.316406 8.253906 13.675781 10.6875 11.804688 10.6875 C 10.011719 10.6875 8.445312 8.441406 8.3125 5.800781 C 8.804688 5.894531 9.292969 5.933594 9.746094 5.933594 Z M 0.800781 10.460938 L 1.0625 9.519531 C 1.289062 8.746094 1.761719 8.519531 2.707031 8.292969 C 2.761719 8.273438 2.820312 8.253906 2.859375 8.214844 C 2.953125 8.292969 3.027344 8.347656 3.140625 8.40625 C 3.199219 8.441406 3.253906 8.441406 3.3125 8.441406 C 3.441406 8.441406 3.574219 8.367188 3.648438 8.234375 C 3.746094 8.046875 3.667969 7.820312 3.5 7.726562 C 3.007812 7.460938 2.648438 6.726562 2.648438 5.96875 C 2.648438 5.328125 3.160156 4.816406 3.800781 4.816406 C 4.007812 4.816406 4.179688 4.855469 4.347656 4.949219 C 4.40625 4.96875 4.441406 4.988281 4.5 4.988281 C 4.40625 5.269531 4.347656 5.574219 4.347656 5.894531 C 4.347656 6.96875 4.707031 8.027344 5.273438 8.761719 C 4.140625 9.046875 3.140625 9.425781 2.480469 10.460938 Z M 19.1875 17.898438 C 19.148438 17.9375 19.074219 18.011719 18.941406 18.011719 L 4.425781 18.011719 C 4.292969 18.011719 4.214844 17.9375 4.179688 17.898438 C 4.121094 17.824219 4.101562 17.710938 4.121094 17.636719 L 4.914062 14.878906 C 5.292969 13.578125 6.332031 12.558594 7.652344 12.21875 L 7.878906 12.160156 C 7.933594 12.140625 8.03125 12.179688 8.085938 12.238281 C 9.125 13.425781 10.40625 13.519531 11.652344 13.519531 C 12.898438 13.519531 14.183594 13.425781 15.222656 12.238281 C 15.277344 12.179688 15.355469 12.140625 15.449219 12.160156 L 15.675781 12.21875 C 16.976562 12.558594 18.035156 13.578125 18.410156 14.878906 L 18.75 16.050781 C 18.769531 16.105469 18.789062 16.144531 18.828125 16.183594 L 19.242188 17.617188 C 19.261719 17.710938 19.242188 17.824219 19.1875 17.898438 Z M 19.1875 17.898438 "/>
</g>
</svg>
