<svg xmlns="http://www.w3.org/2000/svg" width="64" height="64"><path style="line-height:normal;font-variant-ligatures:normal;font-variant-position:normal;font-variant-caps:normal;font-variant-numeric:normal;font-variant-alternates:normal;font-variant-east-asian:normal;font-feature-settings:normal;font-variation-settings:normal;text-indent:0;text-align:start;text-decoration-line:none;text-decoration-style:solid;text-decoration-color:#000;text-transform:none;text-orientation:mixed;white-space:normal;shape-padding:0;shape-margin:0;inline-size:0;isolation:auto;mix-blend-mode:normal;solid-color:#000;solid-opacity:1" d="M16 4C6.429 4 0 12.232 0 21c0 10.517 7.992 20.163 15.83 27.242 7.838 7.08 15.668 11.623 15.668 11.623l.502.291.502-.29s7.83-4.544 15.668-11.624C56.008 41.162 64 31.517 64 21c0-8.768-6.429-17-16-17-7 0-13.61 3.944-16 10.07C29.61 7.944 23 4 16 4zm0 2c7.825 0 15 5.336 15 13h2c0-7.664 7.175-13 15-13 8.429 0 14 7.198 14 15 0 9.483-7.508 18.837-15.17 25.758C39.57 53.316 32.741 57.373 32 57.81c-.741-.438-7.57-4.495-14.83-11.053C9.508 39.838 2 30.483 2 21 2 13.198 7.571 6 16 6z" color="#000" font-weight="400" font-family="sans-serif" overflow="visible"/></svg>