<svg xmlns="http://www.w3.org/2000/svg" width="64mm" height="64mm" viewBox="0 0 64 64"><path d="M57.245.248a6.523 6.514 0 00-6.524 6.514 6.523 6.514 0 00.208 1.63L11.882 27.874a6.523 6.514 0 00-5.049-2.39A6.523 6.514 0 00.31 32a6.523 6.514 0 006.523 6.514 6.523 6.514 0 004.928-2.245l39.077 19.818a6.523 6.514 0 00-.117 1.228 6.523 6.514 0 006.524 6.514 6.523 6.514 0 006.523-6.514 6.523 6.514 0 00-6.523-6.514 6.523 6.514 0 00-5.25 2.648L13.12 33.735A6.523 6.514 0 0013.356 32a6.523 6.514 0 00-.188-1.552l39.077-19.501a6.523 6.514 0 005 2.33 6.523 6.514 0 006.523-6.515A6.523 6.514 0 0057.245.248z" paint-order="stroke fill markers"/></svg>