<svg viewBox="0 0 64 64" xmlns="http://www.w3.org/2000/svg" fill-rule="evenodd" clip-rule="evenodd" stroke-miterlimit="2"><path fill="none" d="M.222 0h64v64h-64z"/><path d="M2.998 24.786C.943 10.223 17.381.657 34.071 3.338 46.754 6.14 53.937 13.463 56.373 18.325c5.017 11.419 5.009 25.28-1.615 43.787C19.56 47.335 3.966 34.232 2.998 24.786z" fill="#7ed56f" stroke="#000" stroke-width=".23"/><path d="M34.975 29.182a.467.467 0 01-.189.613c-.844.462-1.735.434-2.528 0a.467.467 0 01-.189-.613.415.415 0 01.574-.201c.583.316 1.175.316 1.758 0a.415.415 0 01.574.201zm-3.969-6.432a.48.48 0 01.06.645c-.613.795-1.389.795-2.001 0a.478.478 0 01.06-.645.41.41 0 01.604.064c.069.092.184.22.291.252.03.013.056.013.09 0 .108-.032.223-.16.292-.252a.41.41 0 01.604-.064zm6.913 0c.185.16.21.448.06.645-.613.795-1.388.795-2.001 0a.478.478 0 01.06-.645.41.41 0 01.604.064c.069.092.184.22.292.252.03.013.055.013.09 0 .107-.032.222-.16.291-.252a.41.41 0 01.604-.064zm-3.51.448c-.004-1.513 1.149-2.743 2.572-2.743 1.418 0 2.571 1.23 2.571 2.743 0 1.129-.643 2.108-1.573 2.528-1.693.764-3.574-.567-3.57-2.528zm1.033 8.224c-1.41.869-3.532.631-4.534-.599-1.038-1.28-.382-3.04 1.448-3.62a3.915 3.915 0 012.657.123c1.989.855 2.152 3.031.429 4.096zm-7.745-7.154c-.715-1.806.528-3.813 2.366-3.813 1.423 0 2.576 1.23 2.572 2.743.004 1.513-1.149 2.743-2.572 2.743-1.058 0-1.976-.686-2.366-1.673zm-.021 7.543c-1.667-.622-3.84-4.233-5.156-7.324-.253-.599-.364-1.184-.321-1.741l.334-4.705v-.068l-.14-2.033c.733-.742 1.841-.737 2.672-.014-.088.375-.18.743-.278 1.114 0 .137-.033.285.069.393 1.153 1.697 1.277 5.299 1.363 7.686.008.292.017.561.03.813.004.123.004.53-.21.585-.189.046-.566-.128-.789-.654-.176-.416-.291-1.06-.398-1.682-.138-.795-.258-1.477-.528-1.851a.41.41 0 00-.6-.078.475.475 0 00-.077.64c.142.196.266.896.36 1.454.12.676.24 1.376.463 1.897.249.594.694 1.006 1.166 1.143.523 1.591 1.329 3.172 2.34 4.498a1.736 1.736 0 01-.3-.073zm5.846-19.695c3.965.001 6.244 2.452 7.218 6.441-.219.713-.366 1.51-.475 2.327-.794-2.213-2.845-4.282-6.743-4.283-3.898.001-5.948 2.07-6.743 4.283-.109-.817-.256-1.614-.475-2.327.974-3.987 3.255-6.44 7.218-6.441zm7.273 13.816c.013-.252.022-.521.03-.813.086-2.387.21-5.989 1.363-7.686.104-.11.069-.271.069-.393-.098-.371-.19-.739-.277-1.114.83-.723 1.938-.728 2.671.014l-.14 2.033v.068l.334 4.705c.043.557-.068 1.142-.321 1.741-1.316 3.091-3.489 6.702-5.156 7.324a1.736 1.736 0 01-.3.073c1.011-1.326 1.817-2.907 2.34-4.498.472-.137.917-.549 1.166-1.143.223-.521.343-1.221.463-1.897.094-.558.218-1.258.36-1.454a.476.476 0 00-.077-.64.41.41 0 00-.6.078c-.27.374-.39 1.056-.528 1.851-.107.622-.222 1.266-.398 1.682-.223.526-.6.7-.789.654-.214-.055-.214-.462-.21-.585zm7.479 14.341c-1.114-.549-2.379-.814-3.604-1.07-3.249-.686-6.065-1.275-6.288-6.473.172.055.347.087.532.087.235 0 .484-.051.737-.142 2.044-.764 4.324-4.686 5.653-7.813.313-.736.45-1.472.399-2.185l-.335-4.672.575-8.371c.017-.251-.159-.47-.395-.489h-4.946c-.235.023-.411.243-.394.494.266 3.41.647 5.408 1.17 7.447-.039.065-.069.141-.105.208-1.284-3.988-3.941-6.092-7.751-6.092-3.81 0-6.467 2.104-7.75 6.092-.037-.068-.068-.144-.106-.208.523-2.039.904-4.037 1.17-7.447.017-.251-.159-.471-.394-.494h-4.946c-.236.019-.412.238-.395.489l.575 8.371-.335 4.672c-.051.713.086 1.449.399 2.185 1.329 3.127 3.609 7.049 5.653 7.813.253.091.502.142.737.142.185 0 .36-.032.532-.087-.223 5.198-3.039 5.787-6.288 6.473-1.225.256-2.49.521-3.604 1.07a.473.473 0 00-.21.608.425.425 0 00.39.265c.06 0 .12-.014.18-.041 1.02-.503 2.233-.759 3.411-1.006 3.013-.635 6.408-1.349 6.926-6.587 1.213 1.074 2.593 1.746 4.055 1.746 1.461 0 2.842-.672 4.054-1.746.519 5.238 3.913 5.952 6.926 6.587 1.179.247 2.392.503 3.412 1.006a.42.42 0 00.57-.224.473.473 0 00-.21-.608z" fill="#303030" fill-rule="nonzero"/></svg>