<svg xmlns="http://www.w3.org/2000/svg" height="64" width="64" clip-rule="evenodd" fill-rule="evenodd" stroke-linejoin="round" stroke-miterlimit="2"><g fill-rule="nonzero" color="#000" font-weight="400" font-family="sans-serif" clip-rule="nonzero"><path style="line-height:normal;font-variant-ligatures:normal;font-variant-position:normal;font-variant-caps:normal;font-variant-numeric:normal;font-variant-alternates:normal;font-variant-east-asian:normal;font-feature-settings:normal;font-variation-settings:normal;text-indent:0;text-align:start;text-decoration-line:none;text-decoration-style:solid;text-decoration-color:#000;text-transform:none;text-orientation:mixed;white-space:normal;shape-padding:0;shape-margin:0;inline-size:0;isolation:auto;mix-blend-mode:normal;solid-color:#000;solid-opacity:1" d="M63.938 32.195C63.938 14.45 49.638.063 32 .063 14.361.063.062 14.449.062 32.195c0 16.038 11.68 29.332 26.948 31.742V41.483H18.9v-9.288h8.11v-7.079c0-8.053 4.768-12.502 12.063-12.502 3.494 0 7.15.628 7.15.628v7.908h-4.028c-3.967 0-5.205 2.476-5.205 5.018v6.027h8.858l-1.416 9.288H36.99v22.454c15.269-2.41 26.948-15.704 26.948-31.742z" overflow="visible"/><path style="line-height:normal;font-variant-ligatures:normal;font-variant-position:normal;font-variant-caps:normal;font-variant-numeric:normal;font-variant-alternates:normal;font-variant-east-asian:normal;font-feature-settings:normal;font-variation-settings:normal;text-indent:0;text-align:start;text-decoration-line:none;text-decoration-style:solid;text-decoration-color:#000;text-transform:none;text-orientation:mixed;white-space:normal;shape-padding:0;shape-margin:0;inline-size:0;isolation:auto;mix-blend-mode:normal;solid-color:#000;solid-opacity:1" d="M32 0C14.328 0 0 14.415 0 32.195 0 48.264 11.702 61.584 27 64a.062.063 0 00.072-.062V41.483a.062.063 0 00-.062-.062h-8.047v-9.163h8.047a.062.063 0 00.062-.063v-7.08c0-4.013 1.187-7.12 3.278-9.225 2.09-2.106 5.088-3.213 8.723-3.213 3.447 0 7.005.606 7.087.62v7.79h-3.965c-1.997 0-3.32.626-4.137 1.578-.818.951-1.13 2.222-1.13 3.503v6.027a.062.063 0 00.062.063h8.785l-1.397 9.163H36.99a.062.063 0 00-.062.062v22.454A.062.063 0 0037 64c15.298-2.415 27-15.735 27-31.804C64 14.415 49.672 0 32 0zm0 .126c17.605 0 31.875 14.357 31.875 32.07 0 15.981-11.62 29.23-26.822 31.666V41.546h7.379a.062.063 0 00.062-.053l1.416-9.288a.062.063 0 00-.062-.073h-8.795v-5.964c0-1.26.307-2.5 1.099-3.421.792-.922 2.072-1.535 4.043-1.535h4.027a.062.063 0 00.063-.062v-7.908a.062.063 0 00-.052-.062s-3.658-.628-7.16-.628c-3.66 0-6.694 1.117-8.812 3.249-2.117 2.132-3.314 5.276-3.314 9.315v7.016h-8.046a.062.063 0 00-.063.063v9.288a.062.063 0 00.063.063h8.046v22.316C11.745 61.426.125 48.177.125 32.195.125 14.483 14.395.125 32 .125z" overflow="visible"/></g><path d="M355.65 330L367 256h-71v-48.022c0-20.245 9.917-39.978 41.719-39.978H370v-63s-29.297-5-57.305-5C254.219 100 216 135.44 216 199.6V256h-65v74h65v178.89a257.912 257.912 0 0040 3.11c13.608 0 26.966-1.065 40-3.11V330z" fill="none"/></svg>