<svg xmlns="http://www.w3.org/2000/svg" width="64" height="64" clip-rule="evenodd" fill-rule="evenodd" stroke-linejoin="round" stroke-miterlimit="2"><g fill-rule="nonzero" color="#000" font-weight="400" font-family="sans-serif" clip-rule="nonzero"><path style="line-height:normal;font-variant-ligatures:normal;font-variant-position:normal;font-variant-caps:normal;font-variant-numeric:normal;font-variant-alternates:normal;font-variant-east-asian:normal;font-feature-settings:normal;font-variation-settings:normal;text-indent:0;text-align:start;text-decoration-line:none;text-decoration-style:solid;text-decoration-color:#000;text-transform:none;text-orientation:mixed;white-space:normal;shape-padding:0;shape-margin:0;inline-size:0;isolation:auto;mix-blend-mode:normal;solid-color:#000;solid-opacity:1" d="M7.666 10.656a7.399 7.399 0 015.508-2.472c1.842 0 3.609.69 4.977 1.942l3.196 2.925a7.502 7.502 0 012.434 5.197 7.52 7.52 0 01-1.908 5.42l-1.894 2.118a7.402 7.402 0 01-3.359 2.155l-.576.175c-.362.11-.658.376-.808.728-.15.352-.141.752.028 1.096l.268.546c4.193 8.526 11.319 15.146 20.066 18.643l.498.198c.327.131.693.119 1.012-.031.32-.151.563-.428.675-.767l.168-.509a7.5 7.5 0 011.532-2.643l1.894-2.12a7.403 7.403 0 015.508-2.476c1.84 0 3.607.69 4.977 1.943l3.196 2.927c3.035 2.78 3.27 7.541.526 10.615l-1.895 2.122a7.557 7.557 0 01-1.845 1.499c-1.816 1.129-4.194 1.626-6.7 1.395-20.928-1.9-38.312-17.817-42.274-38.71-.838-4.38.737-7.597 2-8.69.042-.036.08-.075.117-.116l.088-.097a1.35 1.35 0 00.105-.134c.18-.265.38-.52.593-.758zm-3.799.377a9.946 9.946 0 00-.742.94C1.03 13.849-.625 17.977.348 23.064 4.524 45.09 22.851 61.87 44.913 63.872c.475.044.948.065 1.416.065 2.535 0 4.926-.632 6.83-1.817.92-.538 1.74-1.208 2.435-1.99l1.895-2.12c3.695-4.137 3.377-10.546-.708-14.287l-3.197-2.927a9.903 9.903 0 00-6.7-2.615 9.961 9.961 0 00-7.412 3.331l-1.894 2.12a10.07 10.07 0 00-1.765 2.778c-7.552-3.216-13.747-8.957-17.58-16.29a10.001 10.001 0 003.651-2.59l1.894-2.118a10.126 10.126 0 002.568-7.294 10.098 10.098 0 00-3.276-6.997l-3.196-2.923a9.905 9.905 0 00-6.7-2.615 9.958 9.958 0 00-7.413 3.328z" overflow="visible"/><path style="line-height:normal;font-variant-ligatures:normal;font-variant-position:normal;font-variant-caps:normal;font-variant-numeric:normal;font-variant-alternates:normal;font-variant-east-asian:normal;font-feature-settings:normal;font-variation-settings:normal;text-indent:0;text-align:start;text-decoration-line:none;text-decoration-style:solid;text-decoration-color:#000;text-transform:none;text-orientation:mixed;white-space:normal;shape-padding:0;shape-margin:0;inline-size:0;isolation:auto;mix-blend-mode:normal;solid-color:#000;solid-opacity:1" d="M13.174 5.52a10.02 10.02 0 00-7.46 3.35l-1.893 2.12c-.265.297-.515.614-.745.944C.965 13.832-.688 17.976.287 23.077c4.182 22.051 22.53 38.852 44.62 40.858.478.043.952.065 1.422.065 2.544 0 4.946-.635 6.862-1.826a10.089 10.089 0 002.45-2.001l1.895-2.121c3.716-4.162 3.397-10.612-.713-14.376l-3.197-2.927a9.965 9.965 0 00-6.741-2.631 10.023 10.023 0 00-7.46 3.352l-1.893 2.12a10.13 10.13 0 00-1.75 2.738c-7.493-3.206-13.643-8.906-17.462-16.18a10.063 10.063 0 003.61-2.575l1.894-2.118a10.19 10.19 0 002.584-7.34 10.162 10.162 0 00-3.296-7.04L19.916 8.15a9.967 9.967 0 00-6.742-2.63zm0 .126c2.464 0 4.828.923 6.659 2.598l3.195 2.924a10.034 10.034 0 013.256 6.953 10.061 10.061 0 01-2.552 7.25l-1.894 2.117a9.938 9.938 0 01-3.628 2.574.062.063 0 00-.031.087c3.839 7.346 10.044 13.097 17.61 16.319a.062.063 0 00.08-.033 10.004 10.004 0 011.755-2.761l1.894-2.12a9.9 9.9 0 017.367-3.31 9.84 9.84 0 016.657 2.598l3.197 2.927c4.06 3.718 4.376 10.087.704 14.199l-1.895 2.12a9.965 9.965 0 01-2.42 1.978.062.063 0 00-.001 0c-1.894 1.178-4.273 1.808-6.798 1.808-.466 0-.937-.021-1.41-.064C22.884 61.809 4.58 45.05.409 23.053c-.97-5.068.685-9.176 2.757-11.033a.062.063 0 00.01-.01c.226-.327.475-.64.737-.935l1.894-2.122a9.896 9.896 0 017.367-3.307zm0 2.475a7.46 7.46 0 00-5.554 2.492l-1.893 2.122c-.215.24-.416.497-.598.764a1.375 1.375 0 01-.1.128l-.088.097a1.269 1.269 0 01-.11.11c-1.29 1.116-2.863 4.35-2.022 8.75 3.968 20.92 21.373 36.858 42.329 38.76 2.517.232 4.907-.266 6.737-1.403a7.62 7.62 0 001.86-1.511l1.895-2.122c2.767-3.099 2.53-7.901-.53-10.703l-3.197-2.927a7.425 7.425 0 00-5.018-1.96c-2.112 0-4.136.91-5.554 2.496l-1.894 2.12A7.564 7.564 0 0037.892 48l-.168.51a1.235 1.235 0 01-.642.729 1.211 1.211 0 01-.964.03l-.498-.199c-8.732-3.49-15.846-10.1-20.033-18.612l-.268-.546a1.25 1.25 0 01-.026-1.043c.143-.335.425-.588.77-.693l.575-.175a7.464 7.464 0 003.387-2.173.062.063 0 00.016-.04v.022l1.878-2.1a7.583 7.583 0 001.924-5.465 7.567 7.567 0 00-2.454-5.241l-3.196-2.924a7.42 7.42 0 00-5.019-1.959zm0 .126c1.827 0 3.579.684 4.936 1.926l3.196 2.924a7.438 7.438 0 012.413 5.154 7.455 7.455 0 01-1.892 5.374l-1.894 2.118a.062.063 0 00-.002.004 7.34 7.34 0 01-3.329 2.134l-.575.175a1.35 1.35 0 00-.848.763c-.158.369-.148.789.029 1.149l.268.546c4.2 8.54 11.338 15.17 20.099 18.673l.498.199c.343.137.727.124 1.062-.033a1.36 1.36 0 00.707-.804l.168-.508a7.437 7.437 0 011.52-2.622l1.893-2.12a7.342 7.342 0 015.462-2.455c1.824 0 3.577.685 4.935 1.927l3.196 2.927c3.01 2.756 3.244 7.477.522 10.526l-1.895 2.122a7.492 7.492 0 01-1.83 1.487.062.063 0 00-.002 0c-1.802 1.12-4.167 1.616-6.662 1.386-20.9-1.897-38.26-17.794-42.218-38.658-.834-4.36.743-7.561 1.98-8.632a1.26 1.26 0 00.122-.12l.088-.098c.04-.045.076-.091.11-.14a7.27 7.27 0 01.588-.752l1.893-2.121a7.337 7.337 0 015.462-2.451zm48.093 24.104c-.765 0-1.388-.63-1.388-1.404 0-14.763-11.863-26.774-26.445-26.774-.765 0-1.389-.63-1.389-1.404a1.4 1.4 0 011.389-1.406c16.112 0 29.22 13.271 29.22 29.584 0 .775-.622 1.404-1.387 1.404zm2.67-1.404c0-17.03-13.683-30.884-30.503-30.884-1.474 0-2.673 1.214-2.673 2.706 0 1.491 1.2 2.704 2.673 2.704 13.874 0 25.16 11.428 25.16 25.474 0 1.491 1.2 2.705 2.673 2.705s2.67-1.214 2.67-2.705z" overflow="visible"/><path style="line-height:normal;font-variant-ligatures:normal;font-variant-position:normal;font-variant-caps:normal;font-variant-numeric:normal;font-variant-alternates:normal;font-variant-east-asian:normal;font-feature-settings:normal;font-variation-settings:normal;text-indent:0;text-align:start;text-decoration-line:none;text-decoration-style:solid;text-decoration-color:#000;text-transform:none;text-orientation:mixed;white-space:normal;shape-padding:0;shape-margin:0;inline-size:0;isolation:auto;mix-blend-mode:normal;solid-color:#000;solid-opacity:1" d="M33.434 0c-1.507 0-2.735 1.243-2.735 2.769 0 1.525 1.228 2.767 2.735 2.767 13.84 0 25.099 11.4 25.099 25.411 0 1.525 1.227 2.767 2.734 2.767 1.506 0 2.733-1.242 2.733-2.767C64 13.883 50.287 0 33.434 0zm0 .126c16.786 0 30.442 13.826 30.442 30.821 0 1.457-1.17 2.642-2.609 2.642-1.44 0-2.61-1.185-2.61-2.642 0-14.08-11.315-25.537-25.223-25.537-1.44 0-2.611-1.184-2.611-2.641 0-1.458 1.171-2.643 2.611-2.643zm0 1.174c-.799 0-1.45.66-1.45 1.469 0 .808.651 1.467 1.45 1.467 14.548 0 26.383 11.982 26.383 26.711a1.46 1.46 0 001.45 1.467 1.46 1.46 0 001.45-1.467C62.716 14.6 49.578 1.3 33.433 1.3zm0 .126c16.078 0 29.158 13.242 29.158 29.521 0 .74-.594 1.342-1.325 1.342a1.334 1.334 0 01-1.326-1.342C59.941 16.15 48.05 4.11 33.434 4.11a1.336 1.336 0 01-1.326-1.341c0-.741.595-1.343 1.326-1.343z" overflow="visible"/><path style="line-height:normal;font-variant-ligatures:normal;font-variant-position:normal;font-variant-caps:normal;font-variant-numeric:normal;font-variant-alternates:normal;font-variant-east-asian:normal;font-feature-settings:normal;font-variation-settings:normal;text-indent:0;text-align:start;text-decoration-line:none;text-decoration-style:solid;text-decoration-color:#000;text-transform:none;text-orientation:mixed;white-space:normal;shape-padding:0;shape-margin:0;inline-size:0;isolation:auto;mix-blend-mode:normal;solid-color:#000;solid-opacity:1" d="M51.334 32.683c-.765 0-1.387-.63-1.387-1.405 0-9.4-7.555-17.05-16.842-17.05a1.397 1.397 0 01-1.386-1.405c0-.773.622-1.403 1.386-1.403 10.817 0 19.616 8.909 19.616 19.858 0 .776-.622 1.405-1.387 1.405zM33.105 10.12c-1.472 0-2.67 1.213-2.67 2.704 0 1.492 1.198 2.706 2.67 2.706 8.578 0 15.557 7.065 15.557 15.75 0 1.491 1.198 2.705 2.672 2.705 1.473 0 2.672-1.214 2.672-2.706 0-11.667-9.376-21.159-20.9-21.159z" overflow="visible"/><path style="line-height:normal;font-variant-ligatures:normal;font-variant-position:normal;font-variant-caps:normal;font-variant-numeric:normal;font-variant-alternates:normal;font-variant-east-asian:normal;font-feature-settings:normal;font-variation-settings:normal;text-indent:0;text-align:start;text-decoration-line:none;text-decoration-style:solid;text-decoration-color:#000;text-transform:none;text-orientation:mixed;white-space:normal;shape-padding:0;shape-margin:0;inline-size:0;isolation:auto;mix-blend-mode:normal;solid-color:#000;solid-opacity:1" d="M33.105 10.057c-1.505 0-2.732 1.241-2.732 2.766 0 1.526 1.227 2.769 2.732 2.769 8.544 0 15.494 7.036 15.494 15.686 0 1.526 1.227 2.768 2.735 2.768 1.507 0 2.734-1.242 2.734-2.768 0-11.7-9.404-21.221-20.963-21.221zm0 .125c11.492 0 20.839 9.463 20.839 21.096 0 1.458-1.17 2.643-2.61 2.643s-2.61-1.185-2.61-2.643c0-8.718-7.007-15.812-15.619-15.812-1.438 0-2.608-1.185-2.608-2.643 0-1.457 1.17-2.64 2.608-2.64zm0 1.176a1.46 1.46 0 00-1.448 1.465c0 .81.65 1.468 1.448 1.468 9.253 0 16.78 7.62 16.78 16.987 0 .81.65 1.468 1.449 1.468s1.45-.658 1.45-1.468c0-10.983-8.829-19.92-19.679-19.92zm0 .125c10.783 0 19.554 8.88 19.554 19.795 0 .742-.593 1.342-1.325 1.342s-1.325-.6-1.325-1.342c0-9.434-7.584-17.112-16.904-17.112-.73 0-1.324-.6-1.324-1.343 0-.74.594-1.34 1.324-1.34z" overflow="visible"/></g></svg>