<svg xmlns="http://www.w3.org/2000/svg" width="64" height="64" clip-rule="evenodd" fill-rule="evenodd" stroke-linejoin="round" stroke-miterlimit="2"><path style="line-height:normal;font-variant-ligatures:normal;font-variant-position:normal;font-variant-caps:normal;font-variant-numeric:normal;font-variant-alternates:normal;font-variant-east-asian:normal;font-feature-settings:normal;font-variation-settings:normal;text-indent:0;text-align:start;text-decoration-line:none;text-decoration-style:solid;text-decoration-color:#000;text-transform:none;text-orientation:mixed;white-space:normal;shape-padding:0;shape-margin:0;inline-size:0;isolation:auto;mix-blend-mode:normal;solid-color:#000;solid-opacity:1" d="M2.635 30.506c0-.456.13-.884.341-1.269l19.326 17.134L5.267 61.475c-1.5-.272-2.632-1.452-2.632-2.861zM32 3.36l26.874 23.828-6.886 6.105v-7.714c0-.463-.423-.839-.946-.839H13.486c-.522 0-.946.376-.946.839v8.184l-7.416-6.575zm29.364 27.147v28.108c0 1.409-1.132 2.589-2.632 2.86L41.697 46.372l19.326-17.134c.212.385.34.813.34 1.27zM14.432 36.23v-9.813h35.664v9.344L32 51.806zM9.66 61.534L24.532 48.35l6.353 5.631c.295.263.697.41 1.115.41.418 0 .819-.147 1.114-.41l6.353-5.631L54.34 61.534zM1.32 27.207c-.824.902-1.32 2.05-1.32 3.3v28.107c0 2.898 2.66 5.257 5.93 5.257h.805L6.88 64l.144-.129h49.951l.144.129.145-.129h.805c3.27 0 5.931-2.359 5.931-5.257V30.506c0-1.249-.497-2.397-1.32-3.3a1.311 1.311 0 00-.46-1.007L33.114.393c-.59-.524-1.638-.524-2.23 0L1.78 26.2a1.312 1.312 0 00-.46 1.008z" color="#000" font-weight="400" font-family="sans-serif" clip-rule="nonzero" overflow="visible" fill-rule="nonzero"/></svg>