<svg viewBox="0 0 317 344" xmlns="http://www.w3.org/2000/svg" fill-rule="evenodd" clip-rule="evenodd" stroke-linejoin="round" stroke-miterlimit="2"><g fill-rule="nonzero"><path d="M98.062 38.108c3.285-.961 6.785-1.266 10.168-.662 9.116 1.746 17.618 6.213 24.498 12.41 8.342 7.462 14.472 17.054 19.34 27.05 3.326 6.877 6.117 14.002 8.559 21.235 4.206-12.374 8.632-24.929 16.24-35.688a85.37 85.37 0 0112.225-13.802c4.665-4.159 9.914-7.803 15.831-9.923 6.136-2.229 13.089-2.178 19.175.213 4.902 1.86 9.191 5.036 12.965 8.632 2.115 2.028 4.235 4.162 5.507 6.842 2.305 4.791 2.579 10.257 2.191 15.477-.519 5.898-1.803 11.723-3.723 17.322-1.918 5.427-4.477 10.683-8.057 15.216-4.165 5.218-8.912 9.923-13.675 14.588-8.931 8.568-17.881 17.121-26.983 25.508-9.252 8.588-18.689 16.975-28.157 25.321 3.634.324 7.312.839 10.673 2.334 4.149 1.783 7.532 4.985 10.146 8.616 3.411 4.645 5.983 10.047 10.545 13.738 2.554 2.032 5.545 3.828 7.018 6.874 1.338 3.043 1.573 6.476 1.154 9.745 4.158.719 8.177 2.063 12.059 3.694 2.245.967 4.483 2.261 5.847 4.356.356.9-.025 1.87-.114 2.789-2.28-3.278-6.207-4.76-9.86-5.921-2.807-.82-5.646-1.589-8.546-1.987-.378 1.577-.947 3.097-1.609 4.575 3.603 1.307 7.021 3.056 10.321 4.995 2.174 1.333 4.362 2.941 5.503 5.297.48.919.115 1.975-.063 2.929-1.247-2.566-3.615-4.318-6-5.749-3.488-1.996-7.211-3.567-11.004-4.877-2.302 4.05-4.642 8.254-8.231 11.322-3.444 2.922-8.092 4.308-12.572 3.831-5.243-.499-10.11-3.008-14.107-6.349-1.729-1.476-3.494-2.909-5.1-4.518-3.332 4.267-7.586 7.983-12.685 9.942-4.426 1.717-9.529 1.561-13.809-.515-5.729-2.757-9.967-7.869-13.029-13.322-2.992 1.129-5.879 2.528-8.689 4.051-2.703 1.465-5.383 3.357-6.782 6.187-.051-1.008-.512-2.099.016-3.049.948-1.927 2.623-3.377 4.362-4.579 3.071-2.076 6.486-3.586 9.91-4.975-.632-1.4-1.144-2.849-1.602-4.315-2.741.664-5.424 1.558-8.076 2.518-2.721 1.056-5.618 2.394-7.198 4.985-.07-.912-.423-1.856-.168-2.756.893-1.552 2.365-2.667 3.885-3.558 3.392-1.908 7.198-2.88 10.937-3.86-.677-3.558-.55-7.408 1.125-10.682 1.606-3.024 4.293-5.237 6.766-7.526 3.962-3.526 6.82-8.044 10.031-12.215 3.161-4.146 6.985-7.917 11.64-10.349 2.594-1.387 5.58-1.752 8.486-1.638-9.179-8.009-18.269-16.126-27.219-24.396-10.117-9.369-20.173-18.815-29.95-28.544-6.766-6.938-13.258-14.378-17.525-23.159-3.179-6.305-5.004-13.255-5.558-20.285-.489-5.491-.419-11.265 1.873-16.38.995-2.232 2.48-4.21 4.203-5.927 4.722-4.855 10.33-9.122 16.892-11.086zm102.219 8.406c-9.911 5.59-18.155 13.866-24.266 23.42-7.439 11.573-12.266 24.561-16.666 37.523.028-1.828-.706-3.704-.045-5.487.137-.5.49-1.012.217-1.533-3.456-9.754-7.437-19.394-12.877-28.227-5.806-9.564-13.595-18.145-23.356-23.766-5.92-3.351-12.505-6.216-19.452-5.869-7.341.289-14.256 3.78-19.569 8.73-2.941 2.725-6.14 5.507-7.554 9.373-1.835 5.329-1.075 11.147.473 16.444 1.323 4.442 3.04 8.775 5.256 12.848 4.397 8.082 10.543 15.042 17.051 21.477 5.351 5.243 10.95 10.219 16.374 15.382a1549.642 1549.642 0 0043.806 39.711c9.977-8.594 19.795-17.369 29.489-26.274 8.798-8.041 17.379-16.311 26.138-24.39 7.892-7.408 15.707-15.169 21.153-24.621 3.125-5.291 5.154-11.151 6.721-17.07 1.259-5.065 1.777-10.826-.995-15.503-2.553-3.943-6.028-7.221-9.777-10.015-5.853-4.328-13.178-7.106-20.532-6.315-4.149.388-8.044 2.051-11.589 4.162zM157.174 173.03c-4.613.508-9.576.715-13.484 3.538-6.804 4.896-10.565 12.676-16.361 18.558-2.518 2.471-5.497 4.55-7.45 7.542-1.405 2.146-1.716 4.839-1.192 7.316a70.95 70.95 0 0118.393-1.294c.038.95.029 1.904-.041 2.858-5.784-.251-11.665-.175-17.334 1.091.356 1.408 1.29 2.591 2.003 3.843 5.214-1.806 10.654-2.953 16.148-3.481.134.951.156 1.914.07 2.874-4.941.49-9.859 1.374-14.6 2.871 3.268 4.067 6.902 8.152 11.808 10.238 3.027 1.332 6.506 1.491 9.656.502 5.691-1.529 10.41-5.351 14.273-9.675-1.129-2.015-1.256-4.378-1.453-6.626-1.399-.896-2.839-1.79-3.949-3.045-.54-.627-1.065-1.396-.957-2.267.092-1.253 1.453-2.102 2.642-1.816 2.044.385 3.628 1.876 5.166 3.173 1.638-1.504 3.371-3.198 5.619-3.659 1.64-.217 2.479 1.872 1.72 3.131-1.05 1.933-2.932 3.221-4.738 4.388-.162 2.245-.187 4.642-1.373 6.636 3.751 3.891 8.228 7.239 13.36 9.055 4.225 1.506 9.064 1.281 13.064-.783 4.092-2.092 7.115-5.739 9.548-9.547a73.761 73.761 0 00-13.084-2.518 12.177 12.177 0 01.048-2.862 74.669 74.669 0 0114.578 2.836c.833-1.329 1.589-2.703 2.327-4.086-4.791-.785-9.669-.902-14.511-.674a23.797 23.797 0 01-.013-2.864c5.177-.236 10.394-.172 15.516.69.436-1.797.321-3.774-.674-5.37-1.86-2.932-5.049-4.579-7.621-6.788-3.587-2.871-5.707-7.046-8.085-10.877-2.703-4.461-6.423-8.508-11.23-10.702-3.66-1.695-7.732-2.175-11.719-2.353-2.025-.067-4.07-.267-6.07.147zm-11.032 12.014c.896-.438 1.882.245 2.324 1.015.988 1.678 1.062 3.72.912 5.611-.181 1.371-.524 2.916-1.697 3.79-.751.579-1.838.29-2.36-.451-1.246-1.657-1.364-3.882-1.198-5.873.191-1.503.543-3.332 2.019-4.092zm24.011 1.078c.422-.766 1.319-1.421 2.225-1.081 1.078.417 1.561 1.58 1.844 2.617.487 2.016.464 4.194-.226 6.161-.346.999-1.122 1.848-2.178 2.086-1.704-.486-2.33-2.333-2.524-3.917-.191-1.971-.178-4.111.859-5.866zm-54.871 83.171c2.674-1.921 6.191-2.538 9.38-1.781 2.311.601 4.466 2.124 5.452 4.35.636 1.357.696 2.925.34 4.371-.607.131-1.22.248-1.844.239-4.343 0-8.686-.019-13.029 0-.534.073-1.504-.076-1.536.699-.365 4.204 1.329 8.868 5.138 11.02 1.882 1.017 4.114 1.409 6.225 1.068 1.756-.302 3.148-1.551 4.201-2.918.511.019.947.263 1.233.686-2.203 4.9-8.409 6.903-13.334 5.313-3.326-.9-5.943-3.637-6.995-6.877-1.879-5.64-.149-12.613 4.769-16.17zm-.674 5.208c1.688.101 3.383.044 5.078.057 1.876-.016 3.79.102 5.624-.391.461-.134.696-.665.674-1.113.076-1.393-.734-2.773-1.99-3.377-3.679-1.809-8.623.89-9.386 4.824zm18.508-23.264c2.343-.782 4.67-1.616 6.912-2.665.12.067.368.194.493.258-.281 12.091-.096 24.195-.153 36.293.041 1.44-.083 2.947.397 4.33.75 1.094 2.293.964 3.463 1.135.27.509.143 1.069.031 1.609-4.076-.203-8.164-.245-12.24.013-.299-.83-.28-2.009 1.023-1.704a29.95 29.95 0 00-.763-.414c.461-.206.837.042 1.145.325.661-.137 1.52-.137 1.904-.808.551-.97.42-2.146.496-3.217.016-9.637-.006-19.274.01-28.911-.022-1.059.006-2.149-.305-3.17-.433-1.001-1.561-1.367-2.337-2.038a11.008 11.008 0 01-.076-1.036zm15.499 16.068c1.017-1.023 1.777-2.266 2.49-3.513.41.041.823.089 1.237.14.053 1.348-.058 2.706.152 4.047 2.591.178 5.195-.05 7.79.105.601.674.556 1.714.181 2.49-2.636.346-5.38-.232-7.974.289-.029.15-.086.445-.111.595-.029 4.337-.004 8.676-.019 13.016.054 1.355.181 2.782.887 3.975.788 1.319 2.48 1.809 3.933 1.64 1.09-.105 1.999-.756 2.928-1.275.229.423.68.897.311 1.399-1.615 1.733-4.009 2.712-6.378 2.639-1.716.016-3.631-.302-4.848-1.621-1.189-1.298-1.412-3.151-1.44-4.836.012-4.766-.007-9.535.012-14.301-.06-.445.118-1.17-.464-1.323-.912-.241-1.882-.026-2.814-.204.016-.409.035-.82.054-1.224 1.428-.505 2.944-.979 4.073-2.038zm-80.986-.858c.404-.33.798.207.725.594.022 1.272-.025 2.544-.003 3.816 1.815-1.402 3.596-3.049 5.894-3.58 1.266-.28 2.916.067 3.453 1.383.668 1.498-.244 3.446-1.882 3.777-1.552.41-2.617-1.167-4.082-1.291-1.304-.273-2.617.684-2.983 1.914-.394 1.234-.407 2.547-.4 3.828.016 3.599-.016 7.198.016 10.794.073.894.127 2.111 1.122 2.484 1.094.387 2.286.225 3.415.438.524.398.203 1.072.124 1.596-4.27-.171-8.553-.283-12.82.01-.152-.544-.273-1.11.013-1.628 1.316-.146 3.313-.254 3.396-1.987.257-5.075.054-10.171.108-15.255.14-1.31-1.011-2.111-1.968-2.744-.509-.229-.299-.83-.274-1.243 2.153-.734 4.13-1.876 6.146-2.906zm-25.496 2.804c3.819-2.19 8.562-2.591 12.766-1.386 1.885.308 2.299 2.808 1.564 4.283-.21.76-1.319 1.173-1.838.477-1.45-1.682-3.418-3.081-5.688-3.269-2.747-.172-5.51 1.224-7.033 3.51-3.023 4.572-2.022 11.446 2.429 14.753 3.05 2.209 7.764 2.553 10.696-.029.649-.597 1.18-1.3 1.726-1.98.414.216.792.486 1.126.816-.89 2.061-2.451 3.838-4.429 4.91-3.755 2.111-8.619 2.012-12.336-.127-2.712-1.587-4.515-4.445-5.125-7.491a16.527 16.527 0 01-.003-5.746c.696-3.596 2.934-6.908 6.145-8.721zm43.873-1.583c.747-.194 1.491-.468 2.277-.413-.245 5.325-.102 10.66-.144 15.989.051 1.962.226 4.216 1.787 5.615.849.642 1.94 1.119 3.021.976l.13-.083c1.529.566 3.173-.168 4.54-.861 1.31-.64 2.194-1.987 2.185-3.453.054-3.921.006-7.844.022-11.761-.07-.986-.022-2.137-.754-2.896-.712-.57-1.608-.818-2.448-1.132-.146-.48-.13-.954.127-1.386a26.787 26.787 0 007.338-1.037l.385.121c.239.801-.048 1.672-.016 2.502-.028 5.198-.009 10.394-.006 15.592.06 1.249.006 2.61.667 3.726.935.992 2.465.28 3.625.204.178.591.512 1.761-.391 1.885-2.737.531-5.462 1.164-8.041 2.232-1.246-.801.239-2.976-.915-3.745-2.099 1.243-4.229 2.581-6.687 2.969-2.349.337-4.985.204-6.937-1.297-1.561-1.265-2.121-3.37-2.159-5.307-.016-3.932.013-7.865-.013-11.798-.101-1.129.077-2.372-.502-3.393-.607-.671-1.494-.95-2.283-1.329.026-.426.054-.845.089-1.265 1.714-.083 3.437-.213 5.103-.655zm93.767.245c2.846.21 5.708.159 8.553-.026.652-.073.69.808.591 1.272-.254.439-.823.362-1.243.493-1.395.178-2.384 1.323-3.087 2.448-1.199 1.956-2.124 4.06-3.138 6.114-4.124 8.352-8.092 16.784-11.955 25.261-.489 1.112-1.004 2.308-2.047 3.017-.916.69-2.137.505-3.205.47-2.108-.423-2.378-3.91-.439-4.75 1.186-.556 2.706.197 3.761-.709.795-.82 1.285-1.876 1.876-2.842 1.03-1.946 2.137-3.898 2.642-6.06.391-1.501-.168-3.008-.648-4.416-1.825-5.068-3.692-10.12-5.526-15.182-.413-1.017-.83-2.162-1.812-2.769-.795-.544-1.812-.487-2.699-.789-.567-.34-.156-1.087-.083-1.574 3.628.185 7.265.267 10.889.016.887-.286.992.881.722 1.45-.951.417-2.048.423-3.005.865.207 1.774.916 3.437 1.469 5.125 1.307 3.58 2.385 7.256 3.959 10.734 2.162-4.019 3.847-8.273 5.557-12.495.29-1.046 1.04-2.156.658-3.246-.925-.763-2.244-.601-3.351-.888-.025-.48-.21-1.001.058-1.44.47-.213 1.001-.076 1.503-.079z" fill="#403f41"/><path d="M204.64 54.361c3.548-1.984 7.608-3.256 11.706-2.944 3.126.2 6.143 1.316 8.782 2.972 2.496 1.555 4.893 3.488 6.289 6.137 1.891 3.405 2.12 7.478 1.504 11.261-1.069 6.677-4.162 12.807-7.491 18.619-6.108 10.215-13.643 19.493-21.579 28.332-7.971 8.756-16.402 17.102-25.321 24.891-3.799 3.326-7.694 6.547-11.786 9.507-2.012 1.38-4 2.877-6.346 3.64-2.025-.502-3.713-1.787-5.421-2.925-5.217-3.726-10.091-7.904-14.86-12.177-5.44-4.839-10.686-9.894-15.799-15.077-10.448-10.613-20.45-21.757-28.869-34.07-3.485-5.208-6.737-10.648-8.813-16.584-1.167-3.355-1.873-6.992-1.199-10.527.512-2.509 2.105-4.725 4.235-6.121 4.814-3.427 10.638-5.828 16.641-5.414 6.302.308 12.034 3.542 16.746 7.548 6.33 5.449 11.265 12.307 15.608 19.391 8.896 14.857 15.255 31.085 20.517 47.536 4.514-12.674 9.805-25.077 15.989-37.025 5.202-9.789 10.931-19.426 18.38-27.696 3.253-3.567 6.88-6.867 11.087-9.274zm-4.865 198.284c1.93-2.403 4.941-3.714 7.965-3.984 2.034-.248 4.152.007 6.009.9 1.739.865 3.166 2.757 2.715 4.782-.35 2.464-3.733 3.342-5.548 1.914-1.437-1.421-2.42-3.361-4.248-4.346-1.056-.407-1.974.598-2.264 1.523-.969 2.829-.62 5.872-.69 8.81.067 1.78-.193 3.596.22 5.348 2.438.245 4.893.079 7.341.117.302 1.062.404 2.487-.524 3.259-2.302.359-4.741-.346-6.982.372-.125 4.496-.023 8.995-.055 13.49.035 1.418-.079 2.903.436 4.258.871 1.3 2.683.559 3.901 1.157.509.55.191 1.332.054 1.968-5.204-.219-10.428-.312-15.63-.01-.617-.397-.62-1.596-.105-2.091 1.034-.242 2.531-.02 3.024-1.212.407-1.319.35-2.728.385-4.092-.01-4.028-.019-8.056.009-12.085-.057-.585.076-1.555-.718-1.644-1.069-.117-2.143-.031-3.212-.012-.124-.534-.388-1.104-.143-1.638 1.145-.836 2.585-1.179 3.679-2.095.528-.626.324-1.504.404-2.251.171-4.378.998-9.039 3.977-12.438zm21.436 13.519c.457-.391 1.084-.143 1.411.293.086 1.093-.381 2.2-.063 3.274.626.271 1.055-.432 1.542-.709 1.637-1.316 3.694-2.68 5.895-2.028 2.155.674 2.851 3.472 1.923 5.367-.639 1.558-2.515 2.295-4.101 2.028-1.533-.28-2.356-1.895-3.854-2.222-.747-.181-1.094.591-1.189 1.192-.331 2.21-.184 4.451-.216 6.68.019 2.655-.083 5.319.162 7.971.079.636.204 1.453.922 1.682 1.065.337 2.21.289 3.313.426.197.709.181 1.44-.016 2.149-5.262-.035-10.53-.219-15.792.044-.344-.712-.394-1.478-.032-2.193 1.119-.191 2.817.044 3.211-1.345.458-1.924.188-3.927.261-5.885-.054-3.065.121-6.14-.076-9.198-.048-1.237-1.351-1.679-2.105-2.429-.159-.553-.251-1.523.47-1.698 2.868-.894 5.692-1.962 8.334-3.399zm47.894.849c2.7-.369 5.612-.216 7.987 1.24 2.833 1.58 4.413 4.988 3.981 8.174-.096.83-1.04 1.212-1.774 1.231-4.467.102-8.947-.131-13.408.117-.42 3.221.967 6.712 3.723 8.515 1.844 1.278 4.203 1.491 6.372 1.167 1.57-.286 2.811-1.402 3.726-2.652.671-.986 2.165.305 1.755 1.243-1.529 3.533-4.979 6.168-8.804 6.69-4.184.591-8.829-.713-11.589-4.042-3.475-4.209-3.682-10.53-1.084-15.229 1.819-3.415 5.288-5.882 9.115-6.454zm-2.88 7.306c.909.763 2.143.477 3.23.525 1.396-.051 2.894.2 4.194-.442.722-.56.512-1.615.381-2.394-.264-1.504-1.866-2.451-3.319-2.309-2.333.239-4.34 2.268-4.486 4.62zm-28.329-4.848c3.094-2.423 7.31-3.142 11.103-2.286 2.709.632 5.179 2.566 6.111 5.236.467 1.329.776 2.808.435 4.203-.156.668-.89.922-1.491 1.011-4.54.159-9.099-.13-13.633.153-.401 3.144.877 6.55 3.519 8.384 1.943 1.367 4.455 1.66 6.75 1.24 1.498-.308 2.671-1.389 3.545-2.591.668-.979 2.194.264 1.781 1.224-.789 1.905-2.248 3.466-3.863 4.709-5.313 3.751-13.7 2.451-17.312-3.068-3.688-5.676-2.362-14.085 3.055-18.215zm2.97 5.103c1.335.413 2.741.225 4.117.27 1.002-.006 2.073.108 2.995-.382.865-.356.712-1.472.63-2.222-.191-1.475-1.568-2.563-3.027-2.55-2.48.067-5.014 2.267-4.715 4.884z" fill="#f178af"/></g></svg>