<svg xmlns="http://www.w3.org/2000/svg" id="Layer_1" x="0" y="0" viewBox="0 0 150 150" xml:space="preserve"><style>.st0{fill:#006b36}</style><path class="st0" d="M140.19 95.39h1.19c.59 0 .65.35.65.65 0 .31.03.61.09.91h.6v-.08c-.15-.09-.17-.17-.18-.37v-.66c0-.51-.22-.6-.43-.69.33-.16.53-.51.51-.88 0-.77-.6-.98-1.2-.98h-1.69v3.65h.5v-1.53l-.04-.02zm0-1.66h1.23c.24 0 .66 0 .66.6s-.38.63-.77.63h-1.14l.02-1.23z"/><path class="st0" d="M143.11 97.34h-1.29l-.07-.3c-.07-.33-.1-.66-.1-1 0-.21 0-.26-.27-.26h-.77v1.56h-1.26v-4.42h2.07c.99 0 1.58.51 1.58 1.36.02.31-.08.62-.27.86.11.15.2.37.2.71v.66c0 .05.01.07.01.08l.18.11-.01.64zm-2.54-2.76h.75c.38 0 .38-.01.38-.25 0-.22-.02-.22-.28-.22h-.85v.47zM71.68 29.39c.09.1.16.22.18.36-.99.64-1.89 2.89-2.17 4.26 2.44-.18 3.98-2.35 6.06-3.17-1.72 1.17-2.72 2.98-3.34 6.6 2.89-.45 2.53-1.09 7.31-.99-1.71.77-4.52 2.34-4.78 4.25.99 0 3.53-.64 4.16-1.63-1.81 2.53-3.34 3.83-6.68 5.24.27.54 1.45 1.26 4.69 3.25-3.25 1.08-4.52.81-7.23.81.45 1.81 1.9 2.26 3.61 3.61-2.44-.45-3.97-.27-6.68.18L66 58.84c-1-2.62-.18-4.59-2.17-4.88-.9 2.71-1.26 3.7-.82 5.51-.71-1.09-2.16-2.8-3.06-2.98 0 0 .54 8.67-.81 13.65-.77 2.62-1 2.26-2.81 6.69-5.24 11.56-.99 15.26-.99 27.19.64-.08.91-.99 1.18-1.53.36-.81.63-1.44.63-1.44 1.02-2.55 2.33-4.97 3.89-7.23 1.93-2.98 4.07-5.82 6.41-8.49 2.08-2.71 3.7-2.89 4.25-4.88-6.33.55-8.42 3.83-9.67 9.67-.36-1.53-.99-3.25-.99-4.78a7.97 7.97 0 013.52-7.23c3.17-2.25 8.68-1.62 10.39-2.07 2.42-.94 4.6-2.39 6.41-4.25-.72 2.35-2.17 3.16-3.25 5.87-1.27 3.17-.37 5.42-1.99 8.86-.48.97-1.2 1.81-2.07 2.44-.64.63-1.18.9-2.81 1.35-1.63.45-2.89.81-4.42.18-.18.45-.81.77-1.26 1.28-.79 1.1-1.51 2.25-2.17 3.43a49.22 49.22 0 00-2.98 6.32 46.864 46.864 0 00-2.63 16.26h-7.32c0-.72-.18-1.8-.27-2.71-.27-2.71-.99-5.69-1.53-8.42-1.89-7.65-3.61-11.84-8.49-19.13-.82-1.26-1.81-3.16-6.69-8.22-1.09-1.21-2.82-2.17-3.71-3.51 1.35.18 10.12 2.35 17.89 15.54 1.53 2.89 2.17 3.98 2.8 6.32.45 1.45.54 1.99 1 3.25.35.77.44.36.63.36.99.37-1.18-12.38-.36-16.35.51-3.33 1.45-6.58 2.79-9.67.77-1.81 1.9-3.83 2.63-6.05.73-2.23.99-4.97.99-8.68-.39-.26-.81-.47-1.26-.62-.45-.15-.91-.27-1.37-.37-1.44 3.7-1.89 3.61-4.59 6.05.18-2.17.77-3.43.18-5.69-.64.36-2.07 2.35-3.44 6.68-.27-1.62-.81-2.35-1.17-3.83-2.3.45-2.63 3.52-6.69 4.42.54-.27 1.27-1.45 1.63-4.7-2.53.46-6.69 2.53-7.95 5.06-.63-2.35 2.17-5.87 2.3-7.05-3.06.18-4.97.82-8.04 2.63l6.41-7.05c-6.89 0-3.79.64-7.65 1.81l5.88-5.88c-1.18.09-3.98.09-5.24-.45 2.07-.54 4.33-2.08 7.04-2.98 1-.39 2.02-.73 3.06-1-.81-2.43-2.17-3.61-1.62-6.05 1.08 2.43 3.88 2.53 6.89 2.43-.77-2.89-1.09-4.59-.45-7.49.81 1.98 2.35 2.98 4.7 3.43.63-2.07.18-3.53 1.62-4.78-.35 1.47.53 2.95 1.99 3.34.63-1.9-.09-3.43-.46-5.14.91 1.17 2.72 2.62 4.34 2.79.64-1.8 1.26-4.16.36-5.69.77.09 1.27 0 1.81.45 1.53.99 3.43 3.98 3.43 3.98.36-1.09 2.89-4.25 4.25-4.88-1.09 1.53-.81 2.53-.81 4.34.26.43.63.78 1.06 1.03.26.08-.77.13-.77.13l-1.33.99-.41-1.06s-1.73 1.58-2.97 1.71a7.085 7.085 0 00-2.62-4.24c-.64 2.52-1.26 3.61-1.26 5.24-.81-.09-2.8-.9-3.16-1.62.06 1.1-.09 2.2-.45 3.25-1.27 0-1.81-.54-2.98-.99-.25 1.04-.4 2.1-.45 3.17-2.17-.45-2.35-1.53-4.59-1.71-.54 1.53.37 2.43.63 4.16-2.11.89-4.47 1.05-6.68.45a4.286 4.286 0 002.62 3.06c-1.35.54-1.89.54-2.98.99A47.46 47.46 0 0032.61 51c1.8.03 3.59-.12 5.36-.44l-6.89 4.33h5.59c-.09.54-.36.81-1.44 1.98a11.43 11.43 0 01-2.47 2.85l5.87-.99c-.18.81-1.45 2.3-2.3 4.25l6.41-3.06c0 2.44.18 3.44-.18 4.06 3.44-1.62 3.06-4.33 4.43-4.88.08 1.44.63 1.9.81 3.25.36-.64.45-.18 1.27-1.63.71-1.81 1.44-2.89 3.25-3.61.28 1.53 0 2.53 0 5.07 1.45-1.72 2.17-2.3 2.53-4.59.7.11 1.37.35 1.99.69.44.21.87.45 1.26.67.27-1.53.18-3.7.81-4.59 1.26.18 1.81.9 3.06 1.45.28-1.45-.64-1.99-.81-2.89 1.53-.27 2.44-.54 3.83 0 .81-1.26.27-1.53 0-2.98 1.98.27 2.71 1.09 4.88.73-1.53-1.27-2.3-2.35-2.43-3.98 2.34.27 2.89.9 6.05.36-2.98-2.3-4.16-2.3-4.79-2.8 1.81-.73 2.44-.81 4.97-1.81-1.9 0-3.52.36-3.97-.63 2.3-.46 4.16-2.17 5.42-3.83l-5.24 1.63c.82-2.07 1.71-3.17 1.99-5.24a45.57 45.57 0 01-4.42 2.98c0-1.08.63-3.89 1.26-4.59-.18-.18.15-.2 0-.2l-6.28 4.59c-.18-1.35 9.31-7.65 9.31-7.65"/><path class="st0" d="M46.6 113.32C21.37 108.49 5.7 90.49 5.7 66.34c0-26.12 21.34-47.38 47.56-47.38 26.05.07 47.33 21.32 47.45 47.37 0 10.64-2.71 17.47-7.7 26.35l-4-2.25c4.72-8.39 7.11-14.42 7.11-24.09-.11-23.52-19.34-42.72-42.87-42.78-23.69 0-42.96 19.19-42.96 42.78 0 21.81 14.24 38.08 37.17 42.47l-.86 4.51zm40-7.71c0 2.53-.36 5.36 1.99 6.34.52.21 1.07.33 1.62.35.5-.02.99-.14 1.45-.35 2.35-.99 1.98-3.83 1.98-6.34 0-2.25.54-4.78-1.35-5.86a4.03 4.03 0 00-2.07-.64c-.65.06-1.27.28-1.81.64-1.99 1.17-1.81 3.51-1.81 5.86l-4.87 5.24c-.8-1.09-1.41-2.31-1.81-3.6a9.19 9.19 0 011.17-6.42c1.36-2.03 3.37-3.52 5.69-4.25 1.32-.4 2.69-.62 4.07-.64 1.53.1 2.35.46 4.25.64.36-.9 1.8-2.8 2.79-2.98 2.53-.64 5.43 2.3 8.5-.45.18.99-.28 1.9-.99 2.98-.46.97-1.37 1.65-2.43 1.81-1.91.36-4.59-2.89-5.88-.99-.45.72 0 1.17.64 1.62 1.42.83 2.6 2.02 3.43 3.44.9 2.07 1 3.25.64 4.78-.27.97-.7 1.88-1.26 2.71-.46.62-.97 1.19-1.53 1.72-.66.38-1.29.79-1.9 1.26-.43.31-.67.83-.63 1.36 0 .46.72.72 1.44.81 1.15.3 2.16.97 2.89 1.9.8 1.05 1.27 2.3 1.36 3.61.12 1.12-.11 2.26-.64 3.25-.52 1.36-1.32 2.59-2.35 3.61-3.7 3.62-7.13 4.59-11.83 3.62-2-.55-3.84-1.57-5.36-2.98a8.552 8.552 0 01-2.08-4.25c-.2-1.73.08-3.48.82-5.06a8.336 8.336 0 013.43-3.43c2.53-1.27 7.41.08 8.13 3.06.18.83-.63 2.53-1.44 2.72-.64.37-1.44.37-2.08 0-.72-.45-1.18-1.63-2.35-1.53-.99.06-1.86.64-2.3 1.53-.99 2.08 1.26 5.42 4.43 5.96 2.16.27 4.31-.47 5.86-1.99 1.91-1.81 2.81-3.97 1.45-6.32-1.27-1.81-3.7-2.98-5.88-3.7-2.98-.81-5.95-1.08-8.3-3.83l4.92-5.21z"/><path class="st0" d="M43.84 59.4c-1.13 0-2.24-.19-3.31-.56l-.27-.09c-.77-.26-2.06-.7-2.81-2.23-1.75-3.68.77-6.85 2.43-8.95l.31-.39c2.18-2.65 4.76-4.83 7.69-6.53 2.54-1.57 5.34-2.83 8.25-3.7l.11-.03c1.23-.29 4.54-.82 4.68-.84l.17-.02c1.52-.1 3.04-.01 4.53.27l.31.08a5.5 5.5 0 013.61 4.83c.29 2.78-2.48 6.07-4.32 7.5l-2.08 1.74-1.05.75c-2.99 2.14-6.38 4.57-9.62 5.94-2.69 1.1-5.5 1.84-8.36 2.21l-.24.02h-.03zm13.33-18.76c-2.57.78-5.04 1.89-7.32 3.3-2.58 1.5-4.81 3.39-6.67 5.64l-.29.37c-1.58 1.99-2.65 3.51-1.98 4.91.09.1.39.2.59.27l.31.11c.62.21 1.28.33 1.95.34 2.49-.33 4.93-.98 7.25-1.93 2.82-1.2 6.03-3.49 8.86-5.52l1-.71 1.95-1.64c1.8-1.41 2.97-3.53 2.92-4.13l-.01-.14c-.03-.63-.41-1.18-.98-1.44-1.09-.19-2.21-.25-3.31-.18-.97.14-3.35.54-4.27.75z"/><path class="st0" d="M65.26 38.3h-.02v-.17zm75.81 60.69a3.703 3.703 0 01-3.64-3.75v-.02c.07-1.96 1.69-3.5 3.63-3.5h.14c2 .07 3.57 1.77 3.5 3.77a3.623 3.623 0 01-3.63 3.5zm-2.49-3.74a2.553 2.553 0 002.5 2.59c1.33 0 2.42-1.05 2.47-2.39a2.49 2.49 0 00-2.39-2.58c-.66-.02-1.3.21-1.78.66-.49.45-.77 1.06-.8 1.72zm-69.3 12.47h9.45c1.62-3.52-.54-8.76-3.61-10.57a9.594 9.594 0 00-4.7-1.35c-1.25.02-2.48.3-3.61.81-2.26.9-3.98 2.81-5.24 5.43-.91 2.33-1.1 4.88-.54 7.32a12.79 12.79 0 002.35 5.36c5.24 6.24 12.74 4.7 15.36-2.17.09-.27-.36-.72-.81-.8-1.81-.18-3.34 2.44-5.06 2.98-.66.37-1.44.47-2.17.28-3.7-.91-4.07-3.44-4.07-7.23h2.66v-.06zm-2.48-3.07c-.18-2.17.72-5.88 3.25-5.88s3.97 3.44 3.16 5.88H66.8zm74.44 11.75c-.36-.99-2.26-.63-2.53-1.71-.28-1.09 0-2.07 0-3.34.09-3.06.28-5.78.18-8.31.04-1.15-.08-2.31-.36-3.43a6.289 6.289 0 00-2.44-2.44 6.7 6.7 0 00-4.25-.54c-1.71.45-2.08 1.53-3.43 2.35.07-.71-.06-1.43-.37-2.07-.34-.32-.8-.49-1.26-.46-1.02-.07-2.03.18-2.89.73-2.08.77-3.44 1.44-3.83 2.62-.46 1.81 2.17 1.9 2.53 2.71.18.64 0 8.49-.27 11.48-.05.41-.18.8-.37 1.17-3.6 1.45-4.15-.72-4.06-4.06.09-2.53.36-5.51.36-7.78.14-.74.14-1.51 0-2.25a6.12 6.12 0 00-4.59-3.89c-2.71-.63-6.12-.27-8.04.81-4.59 2.71-3.25 8.42-.45 8.49.74-.02 1.45-.23 2.07-.63.37-.18.45-.81.64-.99.77-1.26-2.71-3.7.36-5.42 3.16-1.9 6.42 2.71 3.34 5.05-1.8 1.53-4.23 2.43-6.21 3.33-.42.19-.82.38-1.2.58h-.04c-2.41 1.26-4.01 2.7-3.4 5.57.55 2.3 2.08 3.43 4.25 4.24 2.89.99 7.05-1.53 8.31-1.17.64.18.73.64 1.81.99.81.18 1.71.18 4.78.18 2.26-.08 6.33 0 10.94 0 .14-.59.14-1.21 0-1.81-.23-.26-.5-.48-.82-.63-.72-.36-1.81-.54-2.08-1.09-.54-1.36-.18-3.7-.18-7.23 0-2.99 0-5.79 3.06-6.41.63-.23 1.35-.06 1.8.44 1.09.82 1.18 2.8.99 5.61-.18 2.81-.09 3.34-.18 5.41-.04.54-.04 1.09 0 1.63v.54c0 .22-.06.44-.18.64-.54.45-1.45.64-1.62 1.26-.05.51-.05 1.02 0 1.53h9.76a6.93 6.93 0 00-.13-1.7zm-29.85-3.06a3.065 3.065 0 01-3.18 1.38c-.68-.01-1.31-.35-1.68-.91-.13-.24-.21-.5-.24-.77-.05-.32.01-.66.18-.94.4-.68.92-1.29 1.53-1.78.96-.59 1.96-1.12 2.98-1.58.64-.16 1.22-.52 1.65-1.01.05 1.9-.21 4.34-1.21 5.59l-.03.02zm-46.61-78.5l-2.41 2.22-.21-.64.7-1.28z"/></svg>