<svg viewBox="0 0 64 64" xmlns="http://www.w3.org/2000/svg" fill-rule="evenodd" clip-rule="evenodd" stroke-miterlimit="2"><path fill="none" d="M.671.486h64v64h-64z"/><path d="M3.447 25.272C1.391 10.708 17.829 1.143 34.52 3.823 47.203 6.626 54.386 13.949 56.822 18.81c5.017 11.419 5.009 25.28-1.616 43.788C20.009 47.821 4.415 34.718 3.447 25.272z" fill="#7ed56f" stroke="#000" stroke-width=".23"/><path d="M15.944 15.437c-.007-.006 10.487 7.384 11.846 8.346h8.334L18.517 11.377c-.532-.374-1.249-.225-1.605.337l-1.287 2.029c-.352.557-.217 1.315.319 1.694zm17.292 12.618h-.579c-.32 0-.579-.273-.579-.61 0-.338.259-.61.579-.61h.579c.319 0 .579.272.579.61 0 .337-.26.61-.579.61zm-2.38 0H18.035c-.321 0-.579-.273-.579-.61 0-.338.258-.61.579-.61h12.821c.319 0 .579.272.579.61 0 .337-.26.61-.579.61zm21.882-3.052c-.529 1.622-2.508 2.634-4.168 3.082.197 2.038-.069 4.868-1.957 5.574a2.236 2.236 0 01-.763.134c-1.613 0-3.147-1.692-4.071-3.233-.986.457-2.195.824-3.247.824-1.331 0-2.03-.577-2.382-1.062-1.091-1.542-.154-3.744.951-5.319H15.73c.125 4.086 1.518 8.036 4.302 10.867 3.831 3.895 9.486 5.004 14.789 5.004 5.141 0 10.648-1.042 14.483-4.703 3.03-2.894 4.48-7.005 4.608-11.168h-1.174z" fill="#303030" fill-rule="nonzero"/><path d="M46.844 25.918c-.442-.938-1.144-1.623-2.125-1.698.112-2.809 5.471-.957 5.818.034-.063.361-1.721 1.54-3.693 1.664zm-.924 5.342a.515.515 0 01-.071.091l-.003.001c-.011 0-.041 0-.1-.02-.14-.042-.377-.179-.632-.395-.691-.58-1.497-1.655-1.914-2.782.713-.737 1.111-1.615.874-2.643 2.414-.716 2.599 4.582 1.846 5.748zm-7.926-2.418c-.049-.138.034-.494.075-.636.254-.893 1.024-2.169 1.99-3.004.89.489 1.793.614 2.655.053.235.372.345.74.223 1.172-.453 1.613-3.897 2.872-4.943 2.415zm-.161-8.651c.54-.465 2.808.195 3.918.945-.164 1.022.005 1.99.772 2.678-1.673 2.234-5.004-2.695-4.69-3.623zm7.752-2.835c.519.423.731 2.715.358 4.221-.994.152-1.798.636-2.176 1.598-2.435-.959.651-5.617 1.818-5.819zm1.546 4.189c.39-1.983.103-4.938-1.209-5.361-1.353-.429-3.172 2.007-3.838 3.739-1.602-.961-4.396-1.635-5.203-.433-.829 1.253.899 3.858 2.187 5.004-1.328 1.277-2.847 3.887-2 5.086.899 1.236 3.791.263 5.184-.651.713 1.666 2.614 4.067 3.974 3.58 1.419-.531 1.383-3.84 1.018-5.4 1.609-.188 3.993-1.172 4.403-2.507.473-1.643-2.476-2.906-4.516-3.057z" fill="#303030" fill-rule="nonzero"/></svg>