<svg xmlns="http://www.w3.org/2000/svg" height="64" version="1.0" viewBox="0 0 64 64" width="64"><g color="#000" font-weight="400" font-family="sans-serif"><path style="line-height:normal;font-variant-ligatures:normal;font-variant-position:normal;font-variant-caps:normal;font-variant-numeric:normal;font-variant-alternates:normal;font-variant-east-asian:normal;font-feature-settings:normal;font-variation-settings:normal;text-indent:0;text-align:start;text-decoration-line:none;text-decoration-style:solid;text-decoration-color:#000;text-transform:none;text-orientation:mixed;white-space:normal;shape-padding:0;shape-margin:0;inline-size:0;isolation:auto;mix-blend-mode:normal;solid-color:#000;solid-opacity:1" d="M61.07 16a27.991 27.991 0 01-7.124 1.665c2.56-1.31 4.527-3.383 5.455-5.853a27.562 27.562 0 01-7.876 2.567c-2.264-2.056-5.488-3.341-9.058-3.341-6.85 0-12.4 4.737-12.4 10.582 0 .83.108 1.639.32 2.413-10.31-.442-19.448-4.656-25.567-11.059-1.066 1.564-1.678 3.382-1.678 5.321 0 3.674 2.19 6.912 5.516 8.811a14.022 14.022 0 01-5.616-1.324c-.002.044-.002.09-.002.132 0 5.13 4.275 9.408 9.95 10.38a14.509 14.509 0 01-5.6.182c1.576 4.202 6.159 7.263 11.584 7.35-4.242 2.838-9.59 4.533-15.401 4.533-1.002 0-1.99-.05-2.96-.149 5.488 3 12.008 4.752 19.013 4.752 22.813 0 35.29-16.126 35.29-30.113 0-.458-.014-.916-.037-1.37 2.425-1.492 4.526-3.354 6.19-5.48z" overflow="visible"/><path style="line-height:normal;font-variant-ligatures:normal;font-variant-position:normal;font-variant-caps:normal;font-variant-numeric:normal;font-variant-alternates:normal;font-variant-east-asian:normal;font-feature-settings:normal;font-variation-settings:normal;text-indent:0;text-align:start;text-decoration-line:none;text-decoration-style:solid;text-decoration-color:#000;text-transform:none;text-orientation:mixed;white-space:normal;shape-padding:0;shape-margin:0;inline-size:0;isolation:auto;mix-blend-mode:normal;solid-color:#000;solid-opacity:1" d="M60.989 10.016l-1.952.986c-2.252 1.137-4.749 1.961-7.399 2.43-2.402-2.013-5.6-3.293-9.171-3.293-7.22 0-13.249 5.035-13.249 11.482 0 .47.12.916.183 1.375-9.679-.665-18.24-4.65-23.985-10.66l-.705-.738-.579.851c-1.158 1.7-1.838 3.706-1.838 5.846 0 2.853 1.244 5.412 3.19 7.402-.727-.2-1.442-.424-2.096-.734l-1.136-.54-.057 1.317a3.952 3.952 0 00-.004.174c0 4.178 2.566 7.748 6.312 9.754-.327-.03-.664-.028-.984-.08l-1.463-.236.546 1.457c1.452 3.869 5.18 6.624 9.7 7.51a27.175 27.175 0 01-12.73 3.141c-.975 0-1.936-.049-2.878-.145l-.47 1.692c5.61 3.067 12.262 4.853 19.401 4.853 23.19 0 36.14-16.46 36.14-31.011 0-.31-.015-.612-.026-.916 2.311-1.49 4.357-3.286 5.983-5.362L63.7 14.05l-2.917 1.105c-.918.348-1.97.439-2.943.688 1.02-1.08 1.832-2.323 2.349-3.7zm-18.522 1.92c3.377 0 6.41 1.223 8.505 3.125l.297.27.388-.065c1.958-.328 3.799-.91 5.573-1.596-.95 1.259-2.112 2.398-3.653 3.185l.449 1.704a29.182 29.182 0 004.13-.739c-1.125 1.057-2.34 2.043-3.702 2.881l-.449.278.026.546c.022.444.037.888.037 1.325 0 13.421-12.007 29.214-34.442 29.214A39.297 39.297 0 014.765 49.17c5.499-.218 10.575-1.85 14.662-4.584l2.41-1.611-2.85-.047c-4.472-.072-8.16-2.349-10.005-5.426.25.012.486.06.74.06 1.194 0 2.35-.136 3.449-.39l-.047-1.764c-4.869-.834-8.363-4.237-8.985-8.3 1.412.493 2.9.852 4.497.896l.426-1.688C5.953 24.541 3.99 21.59 3.99 18.295c0-1.415.441-2.723 1.1-3.943 6.265 6.124 15.19 10.146 25.263 10.578l1.175.05-.327-1.197a8.18 8.18 0 01-.286-2.162c0-5.243 5.071-9.685 11.552-9.685z" overflow="visible"/></g></svg>