<svg xmlns="http://www.w3.org/2000/svg" height="64" viewBox="0 0 64 64" width="64" clip-rule="evenodd" fill-rule="evenodd" stroke-linejoin="round" stroke-miterlimit="2"><path style="line-height:normal;font-variant-ligatures:normal;font-variant-position:normal;font-variant-caps:normal;font-variant-numeric:normal;font-variant-alternates:normal;font-variant-east-asian:normal;font-feature-settings:normal;font-variation-settings:normal;text-indent:0;text-align:start;text-decoration-line:none;text-decoration-style:solid;text-decoration-color:#000;text-transform:none;text-orientation:mixed;white-space:normal;shape-padding:0;shape-margin:0;inline-size:0;isolation:auto;mix-blend-mode:normal;solid-color:#000;solid-opacity:1" d="M8 0a8.119 8.119 0 00-1.998.252 7.938 7.938 0 00-3.09 1.576A8.056 8.056 0 00.36 5.622 7.94 7.94 0 000 8v48a8.119 8.119 0 00.252 1.998 7.94 7.94 0 001.576 3.09 8.06 8.06 0 003.794 2.552A7.948 7.948 0 008 64h48a8.133 8.133 0 001.998-.252 7.945 7.945 0 003.38-1.827 8.056 8.056 0 002.136-3.171A7.94 7.94 0 0064 56V8a8.133 8.133 0 00-.252-1.998 7.945 7.945 0 00-1.827-3.38A8.055 8.055 0 0058.75.486 7.935 7.935 0 0056 0H9.5zm5.45 6.089h.003a8.232 8.232 0 011.152.084 7.016 7.016 0 01.901.2 6.228 6.228 0 01.82.31 5.696 5.696 0 01.732.41 5.33 5.33 0 011.018.887 5.177 5.177 0 01.809 1.229 5.474 5.474 0 01.403 1.167 6.003 6.003 0 01.152 1.137c.003.049.004.098.005.148a6.457 6.457 0 01-.042.713 5.834 5.834 0 01-.16.818 5.476 5.476 0 01-.33.891 5.292 5.292 0 01-.816 1.23 5.222 5.222 0 01-.92.817 5.456 5.456 0 01-.733.433 5.84 5.84 0 01-.968.378 6.484 6.484 0 01-.92.205 7.369 7.369 0 01-1.001.084 8.366 8.366 0 01-.174.002h-.074a8.105 8.105 0 01-.82-.044 7.195 7.195 0 01-.77-.13 6.436 6.436 0 01-.854-.261 5.897 5.897 0 01-1.127-.588 5.46 5.46 0 01-.74-.602 5.25 5.25 0 01-1.333-2.153 5.498 5.498 0 01-.252-1.221 5.976 5.976 0 01.017-1.299 5.796 5.796 0 01.244-1.093 5.379 5.379 0 01.589-1.22A5.166 5.166 0 019.35 7.42a5.398 5.398 0 011.066-.675 5.91 5.91 0 01.819-.327 6.465 6.465 0 01.9-.22 7.21 7.21 0 01.972-.102 8.173 8.173 0 01.34-.007zm31.906 15.409a15.662 15.662 0 011.619.085 14.092 14.092 0 011.241.19 12.85 12.85 0 011.478.393 11.588 11.588 0 011.384.568 10.802 10.802 0 011.281.744 10.406 10.406 0 012.595 2.516 11.343 11.343 0 01.857 1.358 12.631 12.631 0 01.579 1.219 14.147 14.147 0 01.48 1.339 16.05 16.05 0 01.375 1.459 18.464 18.464 0 01.266 1.58 21.53 21.53 0 01.124 1.266 24.217 24.217 0 01.06 1.795v18.491H46.979V37.248a19.35 19.35 0 00-.018-.795 15.911 15.911 0 00-.056-.762 13.587 13.587 0 00-.095-.724 10.761 10.761 0 00-.174-.85 8.905 8.905 0 00-.239-.785 7.204 7.204 0 00-.305-.714 5.99 5.99 0 00-.293-.518 5.155 5.155 0 00-.526-.682 4.497 4.497 0 00-.746-.642 4.3 4.3 0 00-1.037-.517 4.84 4.84 0 00-.594-.166 5.537 5.537 0 00-.647-.1 6.411 6.411 0 00-.837-.034 6.744 6.744 0 00-.664.05 6.188 6.188 0 00-.5.087 5.823 5.823 0 00-.698.203 5.4 5.4 0 00-1.484.828 5.697 5.697 0 00-.858.824 6.404 6.404 0 00-.616.85 6.899 6.899 0 00-.385.715 7.262 7.262 0 00-.17.393l-.013.033a4.532 4.532 0 00-.036.101l-.012.035a4.405 4.405 0 00-.022.07l-.01.035-.011.036a2.697 2.697 0 00-.03.11l-.01.036a2.258 2.258 0 00-.009.038l-.008.038a4.253 4.253 0 00-.017.076l-.008.039-.008.039-.008.039a4.644 4.644 0 00-.028.16l-.006.04a5.115 5.115 0 00-.006.04l-.006.042-.006.041-.005.041-.005.042-.006.042-.004.042a5.625 5.625 0 00-.005.042l-.004.042-.005.043-.004.043-.004.043-.003.043a6.044 6.044 0 00-.004.043c0 .015-.002.03-.003.044a6.19 6.19 0 00-.003.043l-.003.044-.003.044c0 .015-.002.03-.003.044l-.002.044-.002.044-.002.045-.002.044-.002.044-.002.045-.002.045v.045l-.002.044-.001.045-.001.045-.001.045-.001.045v.045l-.001.045v.136l-.001.045v18.008H24.979v-.084l.001-.103v-.142l.001-.18.001-.216.001-.251.002-.285.001-.318.002-.35.001-.38.002-.407.002-.436a1875.65 1875.65 0 01.006-1.46l.002-.534.002-.555.003-.575.002-.593.002-.611.002-.627.002-.642.003-.656.002-.668.002-.679.002-.689.002-.697a2410.324 2410.324 0 01.004-1.416l.002-.715a1354.215 1354.215 0 00.003-1.44l.002-.722.001-.722.001-.72.001-.718.001-.713.001-.708.001-.701V32.41a2224.057 2224.057 0 000-1.335v-1.284l-.002-.618v-.603l-.002-.584-.002-.565c0-.185 0-.366-.002-.544l-.002-.522-.002-.5-.003-.474-.003-.449-.004-.422-.003-.394-.005-.364-.004-.334-.005-.301-.005-.269a36.645 36.645 0 00-.019-.592h10.718v4.566l.067-.104.07-.105.07-.106a19.07 19.07 0 01.384-.545 15.12 15.12 0 01.622-.786 12.183 12.183 0 01.737-.785 10.58 10.58 0 011.14-.955 9.765 9.765 0 013.267-1.532 11.106 11.106 0 011.313-.268 12.59 12.59 0 011.21-.118 14.078 14.078 0 01.78-.02zm-37.028.758h10.72v32.245H8.328V22.76z" color="#000" font-weight="400" font-family="sans-serif" clip-rule="nonzero" overflow="visible" fill-rule="nonzero"/></svg>