<svg xmlns="http://www.w3.org/2000/svg" width="64" height="64" viewBox="0 0 64 64"><g color="#000" font-weight="400" font-family="sans-serif" paint-order="fill markers stroke"><path style="line-height:normal;font-variant-ligatures:normal;font-variant-position:normal;font-variant-caps:normal;font-variant-numeric:normal;font-variant-alternates:normal;font-variant-east-asian:normal;font-feature-settings:normal;font-variation-settings:normal;text-indent:0;text-align:start;text-decoration-line:none;text-decoration-style:solid;text-decoration-color:#000;text-transform:none;text-orientation:mixed;white-space:normal;shape-padding:0;shape-margin:0;inline-size:0;isolation:auto;mix-blend-mode:normal;solid-color:#000;solid-opacity:1" d="M4.068.885a2.94 2.94 0 00-2.082.861 2.94 2.94 0 000 4.158C30.082 34 44.09 48.085 51.07 55.141a892.854 892.854 0 016.07 6.175 52.832 52.832 0 01.709.745c-.005-.006.012.011.002 0a2.94 2.94 0 00.176.193 2.94 2.94 0 004.158 0l.69-1.09-.124-2.271s-.199-.349-.248-.418c-.098-.14-.132-.175-.166-.215a4.38 4.38 0 00-.178-.197 45.36 45.36 0 00-.795-.834 884.092 884.092 0 00-6.115-6.223c-6.993-7.071-21.005-21.16-49.105-49.26A2.94 2.94 0 004.068.885zm53.109 59.054a2.94 2.94 0 00-.002.016v-.008l.002-.008zm.033.737a2.94 2.94 0 00.002.021l-.002-.01v-.011z" overflow="visible"/><path style="line-height:normal;font-variant-ligatures:normal;font-variant-position:normal;font-variant-caps:normal;font-variant-numeric:normal;font-variant-alternates:normal;font-variant-east-asian:normal;font-feature-settings:normal;font-variation-settings:normal;text-indent:0;text-align:start;text-decoration-line:none;text-decoration-style:solid;text-decoration-color:#000;text-transform:none;text-orientation:mixed;white-space:normal;shape-padding:0;shape-margin:0;inline-size:0;isolation:auto;mix-blend-mode:normal;solid-color:#000;solid-opacity:1" d="M59.78 1.545a2.895 2.895 0 00-2.033.848c-27.67 27.67-41.543 41.467-48.492 48.34a883.209 883.209 0 01-6.082 5.978c-.432.418-.647.622-.728.697a2.895 2.895 0 00-.002.002c-.003.002-.027.023-.002.002a2.895 2.895 0 00-.192.174 2.895 2.895 0 000 4.096l1.074.68 2.237-.124s.343-.193.412-.242c.137-.097.173-.132.213-.166.079-.067.121-.107.193-.174.144-.133.373-.35.82-.783.895-.865 2.647-2.58 6.13-6.023 6.963-6.888 20.84-20.687 48.515-48.362a2.895 2.895 0 000-4.095 2.895 2.895 0 00-2.062-.848zM4.524 56.746l.015.004a2.895 2.895 0 00-.035-.002l.02-.002z" overflow="visible"/></g></svg>