<svg xmlns="http://www.w3.org/2000/svg" width="64" height="64" viewBox="0 0 64 64" clip-rule="evenodd" fill-rule="evenodd" stroke-linejoin="round" stroke-miterlimit="2"><g color="#000" font-weight="400" font-family="sans-serif" clip-rule="nonzero" fill-rule="nonzero"><path style="line-height:normal;font-variant-ligatures:normal;font-variant-position:normal;font-variant-caps:normal;font-variant-numeric:normal;font-variant-alternates:normal;font-variant-east-asian:normal;font-feature-settings:normal;font-variation-settings:normal;text-indent:0;text-align:start;text-decoration-line:none;text-decoration-style:solid;text-decoration-color:#000;text-transform:none;text-orientation:mixed;white-space:normal;shape-padding:0;shape-margin:0;inline-size:0;isolation:auto;mix-blend-mode:normal;solid-color:#000;solid-opacity:1" d="M52.192 23.16a1.347 1.347 0 00-.03.115c-.599 2.819-1.43 5.142-2.401 6.718-2.466 3.992-13.713 18.24-17.965 23.594-4.252-5.354-15.5-19.602-17.965-23.594-.973-1.576-1.802-3.9-2.401-6.717a1.108 1.108 0 00-.03-.115 12.735 12.735 0 01-.611-3.881c0-8.933 9.423-16.202 21.007-16.202 11.583 0 21.008 7.269 21.008 16.202 0 1.304-.206 2.61-.612 3.88zM41.286 58.956c-.26.561-3.467 1.966-9.49 1.966-6.095 0-9.307-1.438-9.498-1.946.173-.492 2.79-1.7 7.74-1.94l.125.156c.348.437.967.703 1.633.703.665 0 1.284-.266 1.633-.703l.125-.156c4.885.237 7.5 1.418 7.732 1.92zm14.65-35.144c.467-1.485.705-3.009.705-4.531C56.64 8.716 45.495.12 31.796.12c-13.7 0-24.845 8.596-24.845 19.16 0 1.522.237 3.046.705 4.53.664 3.108 1.576 5.616 2.71 7.454 2.442 3.955 12.717 17.01 17.433 22.957-6.376.627-9.336 2.741-9.336 4.734 0 2.372 4.172 4.925 13.333 4.925 9.16 0 13.332-2.553 13.332-4.925 0-1.993-2.96-4.107-9.335-4.734 4.717-5.947 14.99-19.002 17.432-22.957 1.134-1.838 2.047-4.346 2.711-7.453z" overflow="visible"/><path style="line-height:normal;font-variant-ligatures:normal;font-variant-position:normal;font-variant-caps:normal;font-variant-numeric:normal;font-variant-alternates:normal;font-variant-east-asian:normal;font-feature-settings:normal;font-variation-settings:normal;text-indent:0;text-align:start;text-decoration-line:none;text-decoration-style:solid;text-decoration-color:#000;text-transform:none;text-orientation:mixed;white-space:normal;shape-padding:0;shape-margin:0;inline-size:0;isolation:auto;mix-blend-mode:normal;solid-color:#000;solid-opacity:1" d="M31.796 26.113c-5.236 0-9.496-3.285-9.496-7.324 0-4.037 4.26-7.323 9.496-7.323 5.236 0 9.496 3.286 9.496 7.323 0 4.039-4.26 7.324-9.496 7.324zm0-17.606c-7.352 0-13.333 4.612-13.333 10.282s5.981 10.282 13.333 10.282S45.128 24.46 45.128 18.79 39.148 8.507 31.796 8.507z" overflow="visible"/><path style="line-height:normal;font-variant-ligatures:normal;font-variant-position:normal;font-variant-caps:normal;font-variant-numeric:normal;font-variant-alternates:normal;font-variant-east-asian:normal;font-feature-settings:normal;font-variation-settings:normal;text-indent:0;text-align:start;text-decoration-line:none;text-decoration-style:solid;text-decoration-color:#000;text-transform:none;text-orientation:mixed;white-space:normal;shape-padding:0;shape-margin:0;inline-size:0;isolation:auto;mix-blend-mode:normal;solid-color:#000;solid-opacity:1" d="M31.797 8.387c-7.437 0-13.489 4.667-13.489 10.402 0 5.735 6.052 10.402 13.489 10.402 7.436 0 13.486-4.667 13.486-10.402 0-5.735-6.05-10.402-13.486-10.402zm0 .24c7.267 0 13.176 4.557 13.176 10.162s-5.909 10.163-13.176 10.163c-7.268 0-13.179-4.558-13.179-10.163s5.91-10.163 13.179-10.163zm0 2.72c-5.32 0-9.652 3.34-9.652 7.442 0 4.103 4.331 7.443 9.652 7.443 5.32 0 9.65-3.34 9.65-7.443 0-4.102-4.33-7.443-9.65-7.443zm0 .238c5.151 0 9.34 3.232 9.34 7.204 0 3.974-4.189 7.204-9.34 7.204-5.152 0-9.342-3.23-9.342-7.204 0-3.972 4.19-7.204 9.342-7.204z" overflow="visible"/></g></svg>