<svg viewBox="0 0 64 64" xmlns="http://www.w3.org/2000/svg" fill-rule="evenodd" clip-rule="evenodd" stroke-miterlimit="2"><path fill="none" d="M0 .671h64v64H0z"/><path d="M2.776 25.457C.72 10.893 17.159 1.328 33.849 4.008c12.683 2.803 19.866 10.126 22.302 14.987 5.017 11.419 5.009 25.28-1.616 43.788C19.338 48.006 3.744 34.903 2.776 25.457z" fill="#7ed56f" stroke="#000" stroke-width=".23"/><path d="M21.842 13.609c2.427-1.438 8.732-1.33 8.732-1.33a.634.634 0 010 1.268c-2.101 0-5.899.13-7.806 1.007-.131.06-.367.181-.475.28a.635.635 0 01-1.222-.234c.001-.441.389-.764.771-.991zm10.633-1.33h.634a.633.633 0 010 1.268h-.634a.633.633 0 010-1.268zm-10.353 5.776c2.575-.265 5.565-.261 8.531-.26 2.574 0 5.677-.013 8.368.262 1.497-.67 2.324-1.757 2.324-3.457-.005-2.545-4.345-3.213-6.882-3.436-3.298-.289-12.922-.52-14.447 2.507a2.032 2.032 0 00-.213.929c.001 1.594.725 2.739 2.319 3.455zm-2.192 2.888c2.975-.593 7.828-.614 10.724-.614a.633.633 0 010 1.267c-2.208 0-9.971-.014-11.918 1.028a.944.944 0 00-.203.138.634.634 0 01-1.264-.06c-.001-1.125 1.561-1.54 2.661-1.759zm12.545-.615h.634a.633.633 0 010 1.267h-.634a.633.633 0 010-1.267zm-12.924 6.626c3.453-.327 7.392-.29 11.023-.289 1.762-.001 3.635 0 5.474.034-1.151-1.233-1.984-2.779-1.354-4.219.276-.623.937-1.427 2.522-1.741.988-.198 2.233-.173 3.42.043.125-.374.28-.759.458-1.14a22.602 22.602 0 00-2.074-.314c-2.824-.307-6.088-.266-8.525-.266-3.092 0-7.301-.026-10.261.541-1.601.305-3.765.932-4.162 2.503-.143.569-.078 1.523.275 2.303.589 1.294 1.872 2.065 3.204 2.545zm13.558 3.505h-.634a.633.633 0 110-1.267h.634a.633.633 0 010 1.267zm-2.427.008c-3.42 0-13.25-.166-16.238 1.467-.266.145-.659.404-.66.707a.633.633 0 11-1.267 0c-.001-1.464 1.775-2.144 3.188-2.504 4.157-1.06 11.526-.938 14.977-.938a.634.634 0 010 1.268zm17.7 5.163c-1.733.344-3.723-1.049-5.022-2.419-.972.672-2.195 1.309-3.326 1.534-1.423.283-2.292-.158-2.769-.573-1.635-1.48-.79-4.294.217-6.168-2.292-.071-4.707-.072-6.908-.072-3.381 0-7.631-.013-10.968.301a.597.597 0 01-.084.008c-2.09.201-4.267.566-5.831 1.268-1.434.642-2.441 1.572-2.441 3.132.006 5.058 8.178 6.228 13.26 6.553 2.353.151 4.266.142 6.064.142 2.219 0 4.158-.002 6.531-.173 3.548-.256 9.258-1.005 11.663-3.643a2.61 2.61 0 01-.386.11z" fill="#303030" fill-rule="nonzero"/><path d="M47.853 27.402c-.663-.86-1.556-1.407-2.624-1.275-.45-2.883 5.679-2.142 6.252-1.207.006.381-1.536 1.935-3.628 2.482zm.09 5.636a.511.511 0 01-.058.108l-.002.002a.352.352 0 01-.113.001c-.158-.014-.44-.102-.758-.267-.859-.444-1.942-1.366-2.618-2.424.617-.902.866-1.881.403-2.877 2.446-1.245 3.718 4.108 3.146 5.457zm-3.949-7.771c-2.808-.457-.438-5.858.774-6.313.643.32 1.335 2.608 1.239 4.221-1.037.367-1.802 1.032-2.013 2.092zm-5.049 7.002c-.081-.13-.064-.509-.048-.664.091-.962.659-2.426 1.527-3.482 1.054.307 2.049.242 2.86-.513.33.328.521.679.479 1.145-.16 1.738-3.602 3.756-4.818 3.514zm-1.925-8.772c.485-.589 3.053-.402 4.398.126.03 1.075.408 2.024 1.369 2.561-1.342 2.63-5.917-1.676-5.767-2.687zm15.724 1.54c.175-1.774-3.248-2.43-5.469-2.148.019-2.101-.889-5.048-2.382-5.199-1.54-.148-3 2.72-3.365 4.626-1.914-.637-5.049-.725-5.673.671-.635 1.451 1.747 3.735 3.362 4.627-1.167 1.583-2.27 4.565-1.117 5.604 1.215 1.066 4.122-.541 5.433-1.769 1.103 1.543 3.63 3.581 4.992 2.796 1.416-.845.707-4.205-.001-5.715 1.69-.536 4.05-2.045 4.22-3.493z" fill="#303030" fill-rule="nonzero"/></svg>