<svg xmlns="http://www.w3.org/2000/svg" height="64" viewBox="0 0 64 64" width="64" clip-rule="evenodd" fill-rule="evenodd" stroke-linejoin="round" stroke-miterlimit="2"><g fill-rule="nonzero" color="#000" font-weight="400" font-family="sans-serif" clip-rule="nonzero"><path style="line-height:normal;font-variant-ligatures:normal;font-variant-position:normal;font-variant-caps:normal;font-variant-numeric:normal;font-variant-alternates:normal;font-variant-east-asian:normal;font-feature-settings:normal;font-variation-settings:normal;text-indent:0;text-align:start;text-decoration-line:none;text-decoration-style:solid;text-decoration-color:#000;text-transform:none;text-orientation:mixed;white-space:normal;shape-padding:0;shape-margin:0;inline-size:0;isolation:auto;mix-blend-mode:normal;solid-color:#000;solid-opacity:1" d="M32 .062c-8.674 0-9.761.037-13.168.193-3.4.155-5.72.695-7.752 1.484-2.1.816-3.882 1.908-5.657 3.684-1.776 1.775-2.868 3.556-3.684 5.657-.79 2.031-1.33 4.353-1.484 7.752C.099 22.24.062 23.326.062 32S.1 41.761.255 45.168c.155 3.4.694 5.72 1.484 7.752.816 2.1 1.908 3.882 3.684 5.657 1.775 1.776 3.556 2.868 5.657 3.684 2.031.79 4.353 1.33 7.752 1.484 3.407.156 4.494.193 13.168.193s9.761-.037 13.168-.193c3.4-.155 5.72-.695 7.752-1.484 2.1-.816 3.882-1.908 5.657-3.684 1.776-1.775 2.868-3.557 3.684-5.657.79-2.031 1.33-4.353 1.484-7.752.156-3.407.193-4.494.193-13.168s-.037-9.761-.193-13.168c-.155-3.4-.695-5.72-1.484-7.752-.816-2.1-1.908-3.882-3.684-5.657-1.775-1.776-3.557-2.868-5.657-3.684C50.89.95 48.567.41 45.168.255 41.76.099 40.674.062 32 .062zm0 5.755c8.528 0 9.538.032 12.906.186 3.113.142 4.804.663 5.93 1.1 1.49.58 2.555 1.271 3.672 2.389 1.118 1.117 1.81 2.181 2.39 3.672.437 1.126.957 2.817 1.099 5.93.154 3.368.186 4.378.186 12.906s-.032 9.538-.186 12.906c-.142 3.113-.662 4.804-1.1 5.93-.58 1.49-1.271 2.555-2.389 3.672-1.117 1.118-2.181 1.81-3.672 2.39-1.126.437-2.817.957-5.93 1.099-3.368.154-4.378.186-12.906.186s-9.538-.032-12.906-.186c-3.113-.142-4.804-.662-5.93-1.1-1.49-.58-2.555-1.271-3.672-2.389-1.118-1.117-1.81-2.181-2.39-3.672-.437-1.126-.957-2.817-1.099-5.93-.154-3.368-.186-4.378-.186-12.906s.032-9.538.186-12.906c.142-3.113.662-4.804 1.1-5.93.579-1.49 1.271-2.555 2.389-3.672 1.117-1.118 2.181-1.81 3.672-2.39 1.126-.436 2.817-.957 5.93-1.099 3.368-.154 4.378-.186 12.906-.186z" overflow="visible"/><path style="line-height:normal;font-variant-ligatures:normal;font-variant-position:normal;font-variant-caps:normal;font-variant-numeric:normal;font-variant-alternates:normal;font-variant-east-asian:normal;font-feature-settings:normal;font-variation-settings:normal;text-indent:0;text-align:start;text-decoration-line:none;text-decoration-style:solid;text-decoration-color:#000;text-transform:none;text-orientation:mixed;white-space:normal;shape-padding:0;shape-margin:0;inline-size:0;isolation:auto;mix-blend-mode:normal;solid-color:#000;solid-opacity:1" d="M32 0c-8.674 0-9.764.037-13.17.192-3.405.156-5.736.697-7.773 1.489C8.95 2.5 7.16 3.598 5.379 5.379 3.597 7.16 2.499 8.95 1.68 11.057.889 13.094.348 15.425.192 18.83.037 22.236 0 23.326 0 32s.037 9.764.192 13.17c.156 3.405.697 5.736 1.489 7.773.818 2.107 1.916 3.897 3.698 5.678 1.78 1.781 3.571 2.88 5.678 3.698 2.037.792 4.368 1.333 7.772 1.489C22.236 63.963 23.326 64 32 64s9.764-.037 13.17-.192c3.405-.156 5.736-.697 7.773-1.489 2.107-.818 3.897-1.917 5.678-3.698 1.781-1.781 2.88-3.571 3.698-5.678.792-2.037 1.333-4.368 1.489-7.772.155-3.407.192-4.497.192-13.17 0-8.675-.037-9.765-.192-13.172-.156-3.404-.697-5.735-1.489-7.772-.818-2.107-1.917-3.897-3.698-5.678-1.781-1.781-3.571-2.88-5.678-3.698C50.906.889 48.575.348 45.17.192 41.764.037 40.674 0 32 0zm0 .125c8.674 0 9.759.037 13.165.192 3.394.155 5.707.693 7.733 1.48 2.094.814 3.865 1.9 5.635 3.67 1.77 1.77 2.856 3.541 3.67 5.635.787 2.026 1.325 4.339 1.48 7.733.156 3.406.192 4.491.192 13.165s-.036 9.759-.192 13.165c-.155 3.394-.693 5.707-1.48 7.733-.814 2.094-1.9 3.865-3.67 5.635-1.77 1.77-3.541 2.856-5.635 3.67-2.026.787-4.339 1.325-7.733 1.48-3.406.156-4.491.192-13.165.192s-9.759-.036-13.165-.192c-3.394-.155-5.707-.693-7.733-1.48-2.094-.814-3.865-1.9-5.635-3.67-1.77-1.77-2.856-3.541-3.67-5.635-.787-2.026-1.325-4.339-1.48-7.733C.16 41.759.125 40.674.125 32s.036-9.759.192-13.165c.155-3.394.693-5.707 1.48-7.733.814-2.094 1.9-3.865 3.67-5.635 1.77-1.77 3.541-2.856 5.635-3.67 2.026-.787 4.339-1.325 7.733-1.48C22.241.162 23.326.125 32 .125zm0 5.63c-8.528 0-9.54.032-12.909.186-3.12.142-4.82.665-5.95 1.104-1.497.581-2.57 1.28-3.693 2.403-1.123 1.122-1.822 2.196-2.403 3.693-.44 1.13-.962 2.83-1.104 5.95-.154 3.368-.186 4.381-.186 12.91 0 8.527.032 9.54.186 12.908.142 3.12.665 4.82 1.104 5.95.581 1.496 1.28 2.57 2.403 3.693 1.122 1.123 2.196 1.822 3.693 2.403 1.13.44 2.83.962 5.95 1.104 3.368.154 4.38.186 12.91.186 8.528 0 9.54-.032 12.908-.186 3.12-.142 4.82-.665 5.95-1.104 1.496-.581 2.57-1.28 3.693-2.403 1.123-1.122 1.822-2.197 2.403-3.694.44-1.13.962-2.83 1.104-5.95.154-3.367.186-4.38.186-12.908 0-8.528-.032-9.54-.186-12.909-.142-3.12-.665-4.82-1.104-5.95-.581-1.497-1.28-2.57-2.403-3.693-1.122-1.123-2.197-1.822-3.694-2.403-1.13-.44-2.83-.962-5.95-1.104-3.367-.154-4.38-.186-12.908-.186zm0 .124c8.528 0 9.535.033 12.903.187 3.108.141 4.789.66 5.91 1.095 1.485.577 2.538 1.262 3.65 2.375 1.114 1.113 1.8 2.166 2.376 3.65.436 1.122.954 2.803 1.096 5.911.153 3.368.186 4.376.186 12.903 0 8.528-.033 9.535-.186 12.903-.142 3.108-.66 4.789-1.096 5.91-.577 1.485-1.262 2.538-2.375 3.65-1.113 1.114-2.166 1.8-3.65 2.376-1.122.436-2.803.954-5.911 1.095-3.367.154-4.375.187-12.903.187s-9.535-.033-12.903-.187c-3.108-.141-4.789-.659-5.91-1.095-1.485-.577-2.538-1.262-3.651-2.375s-1.798-2.166-2.375-3.65c-.436-1.122-.954-2.803-1.096-5.911C5.912 41.535 5.88 40.528 5.88 32c0-8.527.033-9.535.186-12.903.142-3.108.66-4.789 1.096-5.91.577-1.485 1.262-2.538 2.375-3.65 1.113-1.114 2.166-1.8 3.65-2.376 1.122-.436 2.803-.954 5.911-1.095 3.368-.154 4.376-.187 12.903-.187z" overflow="visible"/><path style="line-height:normal;font-variant-ligatures:normal;font-variant-position:normal;font-variant-caps:normal;font-variant-numeric:normal;font-variant-alternates:normal;font-variant-east-asian:normal;font-feature-settings:normal;font-variation-settings:normal;text-indent:0;text-align:start;text-decoration-line:none;text-decoration-style:solid;text-decoration-color:#000;text-transform:none;text-orientation:mixed;white-space:normal;shape-padding:0;shape-margin:0;inline-size:0;isolation:auto;mix-blend-mode:normal;solid-color:#000;solid-opacity:1" d="M32 42.646c-5.88 0-10.646-4.766-10.646-10.646 0-5.88 4.766-10.646 10.646-10.646 5.88 0 10.646 4.766 10.646 10.646 0 5.88-4.766 10.646-10.646 10.646zM32 15.6c-9.058 0-16.4 7.342-16.4 16.4S22.942 48.4 32 48.4 48.4 41.058 48.4 32 41.058 15.6 32 15.6z" overflow="visible"/><path style="line-height:normal;font-variant-ligatures:normal;font-variant-position:normal;font-variant-caps:normal;font-variant-numeric:normal;font-variant-alternates:normal;font-variant-east-asian:normal;font-feature-settings:normal;font-variation-settings:normal;text-indent:0;text-align:start;text-decoration-line:none;text-decoration-style:solid;text-decoration-color:#000;text-transform:none;text-orientation:mixed;white-space:normal;shape-padding:0;shape-margin:0;inline-size:0;isolation:auto;mix-blend-mode:normal;solid-color:#000;solid-opacity:1" d="M32 15.537c-9.091 0-16.463 7.372-16.463 16.463 0 9.091 7.372 16.463 16.463 16.463 9.091 0 16.463-7.372 16.463-16.463 0-9.091-7.372-16.463-16.463-16.463zm0 .125c9.024 0 16.338 7.314 16.338 16.338 0 9.024-7.314 16.338-16.338 16.338-9.024 0-16.338-7.314-16.338-16.338 0-9.024 7.314-16.338 16.338-16.338zm0 5.63c-5.913 0-10.708 4.795-10.708 10.708S26.087 42.708 32 42.708 42.708 37.913 42.708 32 37.913 21.292 32 21.292zm0 .125c5.846 0 10.583 4.737 10.583 10.583S37.846 42.583 32 42.583 21.417 37.846 21.417 32 26.154 21.417 32 21.417zm20.88-6.465a3.832 3.832 0 11-7.664 0 3.832 3.832 0 017.665 0z" overflow="visible"/><path style="line-height:normal;font-variant-ligatures:normal;font-variant-position:normal;font-variant-caps:normal;font-variant-numeric:normal;font-variant-alternates:normal;font-variant-east-asian:normal;font-feature-settings:normal;font-variation-settings:normal;text-indent:0;text-align:start;text-decoration-line:none;text-decoration-style:solid;text-decoration-color:#000;text-transform:none;text-orientation:mixed;white-space:normal;shape-padding:0;shape-margin:0;inline-size:0;isolation:auto;mix-blend-mode:normal;solid-color:#000;solid-opacity:1" d="M49.048 11.057a3.896 3.896 0 000 7.79 3.896 3.896 0 000-7.79zm0 .125a3.769 3.769 0 013.77 3.77 3.77 3.77 0 11-3.77-3.77z" overflow="visible"/></g><defs id="defs37"><linearGradient gradientTransform="rotate(106.84 160.59 98.117) scale(516.448)" gradientUnits="userSpaceOnUse" id="_Linear1" x1="0" x2="1" y1="0" y2="0"><stop offset="0" id="stop10" stop-color="#515bd4" stop-opacity="1"/><stop offset=".26" id="stop12" stop-color="#9510b8" stop-opacity="1"/><stop offset=".66" id="stop14" stop-color="#e51804" stop-opacity="1"/><stop offset="1" id="stop16" stop-color="#feda77" stop-opacity="1"/></linearGradient><linearGradient gradientTransform="rotate(106.84 160.59 98.117) scale(516.448)" gradientUnits="userSpaceOnUse" id="_Linear2" x1="0" x2="1" y1="0" y2="0"><stop offset="0" id="stop19" stop-color="#515bd4" stop-opacity="1"/><stop offset=".26" id="stop21" stop-color="#9510b8" stop-opacity="1"/><stop offset=".66" id="stop23" stop-color="#e51804" stop-opacity="1"/><stop offset="1" id="stop25" stop-color="#ffbf00" stop-opacity="1"/></linearGradient><linearGradient gradientTransform="rotate(106.84 160.59 98.117) scale(516.448)" gradientUnits="userSpaceOnUse" id="_Linear3" x1="0" x2="1" y1="0" y2="0"><stop offset="0" id="stop28" stop-color="#515bd4" stop-opacity="1"/><stop offset=".26" id="stop30" stop-color="#9510b8" stop-opacity="1"/><stop offset=".66" id="stop32" stop-color="#e51804" stop-opacity="1"/><stop offset="1" id="stop34" stop-color="#ffbf00" stop-opacity="1"/></linearGradient></defs></svg>