<svg xmlns="http://www.w3.org/2000/svg" width="2426.49" height="1695.984" viewBox="0 0 187.088 130.764"><path fill-rule="evenodd" clip-rule="evenodd" fill="#fff" d="M-374.365-57h192.756v192.756h-192.756z"/><path style="line-height:normal;font-variant-ligatures:normal;font-variant-position:normal;font-variant-caps:normal;font-variant-numeric:normal;font-variant-alternates:normal;font-variant-east-asian:normal;font-feature-settings:normal;font-variation-settings:normal;text-indent:0;text-align:start;text-decoration-line:none;text-decoration-style:solid;text-decoration-color:#000;text-transform:none;text-orientation:mixed;white-space:normal;shape-padding:0;shape-margin:0;inline-size:0;isolation:auto;mix-blend-mode:normal;solid-color:#000;solid-opacity:1" d="M92.44 1.17c-20.761-.098-39.58 4.95-55.835 13.725C13.842 27.18.845 46.153.845 67.09c0 18.061 10.434 34.229 26.856 45.707 16.422 11.478 38.902 18.445 63.733 18.445 20.825 0 41.583-3.613 58.148-12.678 22.619-12.379 35.535-32.232 36.799-52.878v-.002c.467-7.636-1.94-14.468-5.176-20.946C167.225 16.74 132.986 1.361 92.44 1.17zm-.026 5.404c39.195.185 71.207 15.045 83.957 40.578 3.037 6.08 5.003 11.89 4.617 18.203-1.14 18.622-12.748 36.838-34 48.47-15.418 8.437-35.36 12.013-55.554 12.013-23.816 0-45.277-6.735-60.637-17.47C15.437 97.63 6.25 83.074 6.25 67.09c0-18.718 11.43-35.841 32.922-47.442C54.656 11.29 72.542 6.481 92.414 6.574z" color="#000" font-weight="400" font-family="sans-serif" clip-rule="evenodd" overflow="visible" fill="green" fill-rule="evenodd"/><path style="line-height:normal;font-variant-ligatures:normal;font-variant-position:normal;font-variant-caps:normal;font-variant-numeric:normal;font-variant-alternates:normal;font-variant-east-asian:normal;font-feature-settings:normal;font-variation-settings:normal;text-indent:0;text-align:start;text-decoration-line:none;text-decoration-style:solid;text-decoration-color:#000;text-transform:none;text-orientation:mixed;white-space:normal;shape-padding:0;shape-margin:0;inline-size:0;isolation:auto;mix-blend-mode:normal;solid-color:#000;solid-opacity:1" d="M48.66 18.26L34.553 64.29h28.42l.928-4.634H40.526l5.766-17.506h20.905l.823-3.192H47.425l4.942-16.682h21.11l1.443-4.017zM2.046 60.273L.879 64.42h28.319l1.27-4.146z" color="#000" font-weight="400" font-family="sans-serif" clip-rule="evenodd" overflow="visible" fill="green" fill-rule="evenodd"/><g fill="green" stroke-width="3.855" color="#000" font-weight="400" font-family="sans-serif" clip-rule="evenodd" fill-rule="evenodd"><path style="line-height:normal;font-variant-ligatures:normal;font-variant-position:normal;font-variant-caps:normal;font-variant-numeric:normal;font-variant-alternates:normal;font-variant-east-asian:normal;font-feature-settings:normal;font-variation-settings:normal;text-indent:0;text-align:start;text-decoration-line:none;text-decoration-style:solid;text-decoration-color:#000;text-transform:none;text-orientation:mixed;white-space:normal;shape-padding:0;shape-margin:0;inline-size:0;isolation:auto;mix-blend-mode:normal;solid-color:#000;solid-opacity:1" d="M129.205 21.118c-3.814.055-6.647.848-8.98 2.314-2.338 1.47-4.157 3.588-6.026 6.237-3.14 4.45-4.918 12.119-4.918 12.119l.002-.002c-1.87 7.793-.528 12.847-.517 12.886.007.047.294 1.88 1.82 3.67 1.545 1.813 4.38 3.56 9.287 3.42 11.079-.316 16.05-10.297 16.076-10.351.015-.025 5.53-9.261 4.903-20.041-.318-5.468-3.273-8.13-6.102-9.301-2.818-1.167-5.523-.953-5.545-.951zm.031.998h.034s2.522-.19 5.1.877c2.576 1.067 5.183 3.297 5.482 8.435.606 10.42-4.77 19.487-4.77 19.487l-.01.017-.01.016s-4.702 9.514-15.217 9.814c-4.664.133-7.132-1.466-8.498-3.068-1.365-1.602-1.601-3.197-1.601-3.197l-.004-.03-.008-.029s-1.31-4.794.52-12.418v-.002h.001s1.836-7.625 4.762-11.771c1.837-2.604 3.57-4.605 5.738-5.967 2.168-1.363 4.787-2.114 8.48-2.164z" overflow="visible"/><path style="line-height:normal;font-variant-ligatures:normal;font-variant-position:normal;font-variant-caps:normal;font-variant-numeric:normal;font-variant-alternates:normal;font-variant-east-asian:normal;font-feature-settings:normal;font-variation-settings:normal;text-indent:0;text-align:start;text-decoration-line:none;text-decoration-style:solid;text-decoration-color:#000;text-transform:none;text-orientation:mixed;white-space:normal;shape-padding:0;shape-margin:0;inline-size:0;isolation:auto;mix-blend-mode:normal;solid-color:#000;solid-opacity:1" d="M129.178 19.19c-.02 0-.035.008-.055.008l-.072-.002-.795.064-.045.053c-3.582.184-6.582.959-9.012 2.486-2.662 1.674-4.645 4.024-6.574 6.758-3.538 5.014-5.211 12.753-5.217 12.78v.003l-.004.012-1.521 6.56.603-.603c-.342 4.652.342 7.522.405 7.762.064.403.422 2.402 2.228 4.521 1.904 2.234 5.423 4.25 10.809 4.096 6.109-.175 10.6-3.044 13.466-5.814 2.843-2.746 4.165-5.38 4.262-5.575.22-.368 5.779-9.708 5.12-21.04-.357-6.123-3.944-9.586-7.288-10.971-3.208-1.33-6.016-1.115-6.326-1.09zm.002 1.002l-.022.002h-.033zm.234 3.846s2.125-.13 4.217.736c2.125.88 4.034 2.244 4.297 6.766.564 9.695-4.504 18.392-4.504 18.392l-.008.014-.035.053-.047.095s-4.173 8.473-13.543 8.74c-4.205.12-5.944-1.179-6.977-2.39-1.023-1.2-1.159-2.22-1.16-2.227l-.002-.004-.017-.132-.041-.15s-1.199-4.21.529-11.434l.006-.028s1.96-7.564 4.463-11.111c1.776-2.517 3.35-4.289 5.19-5.445 1.843-1.16 4.032-1.821 7.472-1.87h.088zM107.842 54.79l.025.09.008.066-.025-.092z" overflow="visible"/></g><path style="line-height:normal;font-variant-ligatures:normal;font-variant-position:normal;font-variant-caps:normal;font-variant-numeric:normal;font-variant-alternates:normal;font-variant-east-asian:normal;font-feature-settings:normal;font-variation-settings:normal;text-indent:0;text-align:start;text-decoration-line:none;text-decoration-style:solid;text-decoration-color:#000;text-transform:none;text-orientation:mixed;white-space:normal;shape-padding:0;shape-margin:0;inline-size:0;isolation:auto;mix-blend-mode:normal;solid-color:#000;solid-opacity:1" d="M82.47 66.143h26.155l-1.44 4.07h-20.75l-5.15 15.702h20.7l-1.186 4.018H79.946l-5.12 17.402h23.811l-1.545 4.84h-28.73zm102.153 3.784l.961-4.71h-9.062l-1.27 4.71zm-44.152-4.71l-1.569 4.585h14.168l-12.728 42.27 4.943-.102 12.461-42.147h12.047l1.477-4.606zm-40.805 46.958l14.006-46.03h16.477s8.443.206 8.855 9.474c.357 8.023-10.916 12.15-10.916 12.15s4.531.412 3.707 10.504c-.824 10.092-.412 13.594-.412 13.594h-5.354l1.146-15.859s.58-3.71-2.196-5.102c-3.43-1.719-11.96-.98-14.442-.918l.763-3.979c.037-.195 7.84-.037 11.999-.153 6.15-.17 12.602-5.952 12.576-9.91-.032-4.847-.978-6.702-10.3-6.74l-8.877-.035-5.39 16.825-.772 3.995-6.284 22.185h-4.586z" color="#000" font-weight="400" font-family="sans-serif" clip-rule="evenodd" overflow="visible" fill-rule="evenodd" fill="green"/><g fill="green" color="#000" font-weight="400" font-family="sans-serif" clip-rule="evenodd" fill-rule="evenodd"><path style="line-height:normal;font-variant-ligatures:normal;font-variant-position:normal;font-variant-caps:normal;font-variant-numeric:normal;font-variant-alternates:normal;font-variant-east-asian:normal;font-feature-settings:normal;font-variation-settings:normal;text-indent:0;text-align:start;text-decoration-line:none;text-decoration-style:solid;text-decoration-color:#000;text-transform:none;text-orientation:mixed;white-space:normal;shape-padding:0;shape-margin:0;inline-size:0;isolation:auto;mix-blend-mode:normal;solid-color:#000;solid-opacity:1" d="M68.329 78.688s2.472-10.092-8.96-9.783c0 0-3.706-.412-7.05 1.76-2.986 1.939-5.512 4.418-7.572 8.125 0 0-2.677 2.678-4.84 10.916 0 0-.926 4.53-.823 9.062.09 4.02.618 9.68 10.297 9.783 9.68.104 11.946-7.414 11.946-7.414h5.767s-3.09 11.533-17.712 11.533c0 0-12.482.047-14.417-9.166-2.163-10.297 1.854-19.564 1.854-19.564s4.84-11.533 11.842-15.14c0 0 5.458-3.088 11.019-3.088 5.56 0 14.829 1.854 13.696 12.976zm34.6-48.606s2.472-10.091-8.958-9.782c0 0-3.708-.412-7.05 1.759-2.987 1.939-5.514 4.419-7.573 8.127 0 0-2.677 2.677-4.84 10.915 0 0-.926 4.53-.823 9.062.09 4.02.617 9.68 10.297 9.783 9.679.103 11.946-7.415 11.946-7.415h5.766s-3.09 11.534-17.712 11.534c0 0-12.482.047-14.417-9.165-2.163-10.298 1.853-19.566 1.853-19.566S76.258 23.8 83.26 20.197c0 0 5.458-3.09 11.019-3.09 5.56 0 14.828 1.855 13.695 12.976h-5.045zm69.01 89.082v-5.184h.524c.742 0 1.605-.035 2.28.285.91.406 1.35 1.352 1.35 2.297 0 .762-.286 1.52-.894 2.01-.643.559-1.436.592-2.23.592zm1.319.76c2.109.035 3.646-1.113 3.646-3.326 0-1.082-.371-2.096-1.283-2.736-.861-.625-1.875-.643-2.904-.643h-1.588v12.734h.81v-6.03h.407l4.154 6.03h.928z" overflow="visible"/><path style="line-height:normal;font-variant-ligatures:normal;font-variant-position:normal;font-variant-caps:normal;font-variant-numeric:normal;font-variant-alternates:normal;font-variant-east-asian:normal;font-feature-settings:normal;font-variation-settings:normal;text-indent:0;text-align:start;text-decoration-line:none;text-decoration-style:solid;text-decoration-color:#000;text-transform:none;text-orientation:mixed;white-space:normal;shape-padding:0;shape-margin:0;inline-size:0;isolation:auto;mix-blend-mode:normal;solid-color:#000;solid-opacity:1" d="M94.28 16.609c-5.739 0-11.241 3.14-11.257 3.148-3.648 1.882-6.628 5.727-8.734 9.094-2.106 3.367-3.328 6.278-3.33 6.283 0 0-4.084 9.39-1.883 19.87 1.012 4.817 4.81 7.235 8.262 8.405 3.452 1.17 6.646 1.157 6.646 1.157 7.442 0 12.03-2.964 14.707-5.934 2.679-2.97 3.485-5.973 3.485-5.973l.17-.628h-6.79l-.107.355s-.529 1.763-2.226 3.547c-1.698 1.784-4.527 3.564-9.237 3.514-4.742-.05-7.09-1.427-8.34-3.211-1.25-1.785-1.415-4.09-1.46-6.084-.101-4.442.804-8.906.81-8.934 1.071-4.076 2.263-6.764 3.18-8.422.918-1.66 1.525-2.256 1.525-2.256l.049-.05.035-.061c2.02-3.639 4.477-6.048 7.408-7.951 3.176-2.063 6.723-1.682 6.723-1.682l.033.004h.035c2.785-.075 4.662.482 5.934 1.317 1.272.834 1.965 1.954 2.344 3.113.757 2.318.181 4.732.181 4.732l-.013.059v.562h5.996l.047-.449c.58-5.7-1.562-9.19-4.565-11.129-3.003-1.94-6.793-2.396-9.629-2.396zm0 1c2.724 0 6.35.468 9.087 2.236 2.653 1.713 4.496 4.63 4.108 9.738H103.5a9.29 9.29 0 00-.289-4.664c-.433-1.325-1.265-2.668-2.744-3.638-1.473-.967-3.566-1.55-6.477-1.477-.056-.006-3.86-.426-7.342 1.836-3.042 1.975-5.64 4.526-7.738 8.303l.084-.112s-.732.743-1.693 2.48c-.962 1.74-2.187 4.508-3.278 8.663l-.002.014-.003.013s-.937 4.567-.832 9.174c.045 2.027.187 4.558 1.642 6.635 1.455 2.076 4.211 3.584 9.149 3.637 4.969.052 8.115-1.875 9.97-3.825 1.59-1.67 2.147-3.138 2.307-3.591h4.709c-.248.747-.95 2.642-3.014 4.931-2.522 2.797-6.787 5.604-13.967 5.604h-.002s-3.048.007-6.32-1.102c-3.272-1.109-6.682-3.274-7.605-7.668-2.125-10.117 1.822-19.263 1.822-19.263v-.002l.002-.004s1.195-2.847 3.258-6.145c2.062-3.297 5.003-7.016 8.353-8.74l.008-.006.01-.004s5.395-3.023 10.771-3.023zm-34.6 47.603c-5.739 0-11.241 3.142-11.256 3.15-3.648 1.883-6.628 5.729-8.735 9.096-2.107 3.37-3.332 6.287-3.332 6.287-.002.007-4.083 9.387-1.882 19.862 1.012 4.818 4.81 7.238 8.263 8.408 3.453 1.17 6.645 1.154 6.645 1.154 7.442 0 12.03-2.962 14.709-5.931 2.678-2.97 3.484-5.971 3.484-5.971l.17-.63h-6.79l-.108.356s-.53 1.762-2.227 3.545c-1.697 1.784-4.524 3.563-9.234 3.512-4.742-.05-7.09-1.425-8.34-3.209s-1.418-4.09-1.463-6.084c-.101-4.45.813-8.936.814-8.945v-.006c1.07-4.065 2.263-6.75 3.178-8.406.918-1.66 1.524-2.256 1.524-2.256l.05-.051.034-.06c2.021-3.639 4.476-6.047 7.408-7.95 3.177-2.064 6.722-1.681 6.722-1.681l.036.004h.033c2.785-.076 4.663.481 5.935 1.316 1.272.835 1.964 1.954 2.342 3.113.757 2.318.184 4.735.184 4.735l-.153.619h6.137l.045-.451c.58-5.7-1.561-9.19-4.564-11.13-3.004-1.939-6.793-2.396-9.63-2.396zm0 1c2.725 0 6.35.469 9.088 2.237 2.653 1.713 4.495 4.63 4.107 9.74h-3.977c.14-.727.416-2.51-.287-4.664-.432-1.326-1.264-2.67-2.744-3.64-1.473-.967-3.568-1.549-6.478-1.476-.06-.006-3.86-.425-7.342 1.836-3.042 1.975-5.638 4.525-7.736 8.301l.082-.11s-.73.743-1.692 2.481c-.961 1.739-2.187 4.507-3.277 8.662l-.004.014-.002.012s-.939 4.567-.834 9.174c.046 2.026.187 4.56 1.643 6.636 1.455 2.077 4.211 3.583 9.148 3.635 4.97.054 8.115-1.873 9.97-3.822 1.59-1.67 2.148-3.138 2.307-3.592h4.711c-.247.748-.949 2.642-3.013 4.932-2.522 2.796-6.79 5.601-13.97 5.601h-.001s-3.048.008-6.32-1.101c-3.273-1.11-6.683-3.272-7.606-7.666-2.125-10.116 1.824-19.264 1.824-19.264l.002-.002v-.002s1.195-2.849 3.258-6.146c2.063-3.298 5.004-7.018 8.354-8.743l.007-.004.008-.005s5.398-3.024 10.774-3.024zm110.949 46.506v13.734h1.81v-5.513l3.797 5.513h2.145l-4.25-6.146c.783-.116 1.514-.346 2.068-.824.762-.657 1.205-1.663 1.205-2.885 0-1.195-.432-2.396-1.494-3.143-1.007-.729-2.16-.736-3.193-.736zm4.318 1.09l.01.006h-.004c-.003-.001-.003-.005-.006-.006zm-2.508.672h.024c.758 0 1.552-.007 2.066.236l.006.004.004.002c.701.313 1.055 1.05 1.055 1.84 0 .636-.238 1.242-.709 1.621l-.008.006-.006.006c-.497.432-1.121.469-1.9.469h-.532zm3.088 4.469l-.015.013c.003-.003.004-.007.008-.01l.008-.004z" overflow="visible"/></g><path style="line-height:normal;font-variant-ligatures:normal;font-variant-position:normal;font-variant-caps:normal;font-variant-numeric:normal;font-variant-alternates:normal;font-variant-east-asian:normal;font-feature-settings:normal;font-variation-settings:normal;text-indent:0;text-align:start;text-decoration-line:none;text-decoration-style:solid;text-decoration-color:#000;text-transform:none;text-orientation:mixed;white-space:normal;shape-padding:0;shape-margin:0;inline-size:0;isolation:auto;mix-blend-mode:normal;solid-color:#000;solid-opacity:1" d="M173.568 110.217c-5.235.078-9.447 4.352-9.447 9.588 0 5.236 4.212 9.51 9.447 9.588l.006-.412v.412c5.29 0 9.587-4.298 9.586-9.588 0-5.288-4.296-9.588-9.586-9.588h-.004zm.01.825a8.757 8.757 0 018.758 8.763 8.756 8.756 0 01-8.758 8.764 8.76 8.76 0 01-8.634-8.764 8.76 8.76 0 018.634-8.763z" color="#000" font-weight="400" font-family="sans-serif" overflow="visible"/></svg>