<svg xmlns="http://www.w3.org/2000/svg" width="499.484" height="346.403" viewBox="0 0 132.155 91.652"><path d="M63.684 91.608c-11.447-.973-19.824-3.07-28.565-7.148-3.104-1.448-2.987-1.807.254-.783 5.286 1.67 12.4 3.183 19.58 4.165 3.978.544 17.576.458 21.563-.137 9.24-1.377 16.576-3.605 23.813-7.232 5.684-2.85 10.365-6.35 15.371-11.496 7.068-7.265 10.506-14.455 10.865-22.722.37-8.537-2.92-17.201-9.48-24.967-3.365-3.982-3.483-4.137-3.306-4.314.46-.46 5.737 4.075 8.513 7.318 13.234 15.46 12.687 34.522-1.395 48.605-7.097 7.096-17.66 12.863-28.968 15.812-7.68 2.004-13.357 2.772-21.498 2.908-3.056.05-6.092.047-6.747-.008zm-.712-8.318c-2.36-.479-3.392-1.92-3.206-4.478.138-1.92.877-2.994 2.48-3.606.946-.361 1.468-.408 2.445-.22 1.135.22 1.249.312 1.322 1.063l.08.823-1.325-.128c-1.205-.116-1.397-.054-2.13.679-1.016 1.016-1.092 2.336-.195 3.38.474.55.918.739 1.984.841 1.306.126 1.374.17 1.374.892 0 .43-.144.762-.331.764a5.936 5.936 0 00-.86.11c-.291.057-1.028.003-1.638-.12zm6.782-.973c-2.2-1.852-2.06-5.334.28-6.91 1.237-.834 3.364-.718 4.402.239 1.384 1.276 1.862 3.909 1.01 5.559-.977 1.888-4.055 2.49-5.692 1.112zm3.303-1.023c.565-.565.774-1.527.605-2.786-.287-2.141-1.62-3.02-2.727-1.798-.679.75-.7 3.269-.035 4.283.533.814 1.508.95 2.157.3zm-23.122.253c-1.87-.41-2.134-.568-2.191-1.323-.033-.437 1.123-6.702 1.279-6.934.031-.046 1.14.115 2.464.359 2.377.437 2.407.452 2.407 1.208 0 .854-.233.915-1.977.51-1.22-.283-1.106-.331-1.332.568-.17.674-.12.716 1.04.89 1.36.204 1.588.408 1.338 1.198-.173.543-.597.558-2.3.08-.325-.092-.507.077-.635.59-.219.87.252 1.29 1.71 1.524.944.15 1 .211.89.959-.133.906-.2.916-2.693.37zm29.095-.5c0-.575.116-.66.897-.66.493 0 1.162-.216 1.487-.48.551-.445.561-.507.15-.918-.243-.243-.918-.57-1.502-.727-1.332-.358-2.09-1.102-2.09-2.05 0-1.5 1.512-2.705 3.395-2.705.856 0 1.07.106 1.2.595.238.889.234.894-.693.79-.51-.058-1.075.071-1.389.318-.526.411-.525.418.096.943.343.29.855.529 1.137.529.724 0 1.98.694 2.175 1.202.794 2.07-.887 3.825-3.664 3.825-1.103 0-1.2-.053-1.2-.661zm8.596-1.41c-.553-1.388-2.506-7.012-2.448-7.047.038-.023.57-.231 1.183-.463l1.114-.421 1.003 1.197c.551.658 1.214 1.45 1.471 1.76.454.547.467.494.424-1.805l-.044-2.368 1.114-.371c.612-.204 1.144-.33 1.181-.278.542.75 3.015 7.006 2.84 7.182-.13.13-.62.255-1.089.278-.817.04-.88-.03-1.548-1.744-.383-.982-.767-1.785-.853-1.785-.086 0-.056.736.067 1.637.245 1.791.212 1.864-1.029 2.278-.827.276-.876.247-1.818-1.035-.532-.725-1.007-1.278-1.055-1.23-.049.049.203.893.56 1.877.357.984.65 1.89.65 2.015 0 .125-.349.348-.774.496-.638.223-.804.193-.95-.172zm-46.608-.72l-.838-.367 1.036-2.72c.57-1.495 1.037-2.849 1.037-3.008 0-.16-.477-.432-1.059-.607-1.185-.355-1.26-.522-.595-1.327l.463-.562 3.043 1.163c2.516.96 3.027 1.248 2.954 1.656-.145.813-.458.948-1.519.655-.554-.153-1.035-.252-1.067-.22-.033.033-.525 1.302-1.094 2.822-.569 1.52-1.144 2.79-1.279 2.821-.134.033-.621-.106-1.082-.307zm-6.162-2.746c-.547-.42-.638-.69-.577-1.696.04-.658-.069-1.464-.244-1.79l-.318-.594-.391.774c-.862 1.704-1.123 1.986-1.6 1.724-1.564-.86-1.583-.7.49-4.27a258.105 258.105 0 011.98-3.378c.037-.047.704.235 1.482.624 2.523 1.263 3.34 2.365 2.832 3.82-.303.872-.922 1.328-1.8 1.328-.491 0-.531.11-.382 1.046.207 1.292-.075 2.925-.503 2.917-.176-.003-.612-.23-.97-.505zm1.329-5.055c.683-.365.648-1.188-.072-1.692-.553-.387-.612-.365-1.106.416-.51.805-.51.835-.028 1.188.594.434.564.432 1.206.088zm-20.572 1.822c-2.65-2.087-6.724-6.193-8.46-8.53-6.629-8.918-8.68-18.784-6.03-29.001.851-3.281 3.542-8.689 5.86-11.774C16.138 11.438 33.145 2.875 52.693.616c12.54-1.45 24.554-.337 35.615 3.298 4.144 1.362 10.3 3.923 10.3 4.284 0 .3.177.337-3.485-.72a111.13 111.13 0 00-20.398-3.842c-4.371-.403-15.72-.173-19.509.397-13.95 2.096-25.48 6.83-33.999 13.956C8.838 28.347 3.46 39.593 5.342 51.195c1.121 6.914 4.705 13.88 10.165 19.76 1.323 1.424 2.529 2.82 2.679 3.1.522.975-.45.553-2.573-1.117zm82.558.503a514.67 514.67 0 00-1.856-2.913c-.63-.984-1.145-1.877-1.144-1.985 0-.107.886-.753 1.967-1.434 1.97-1.24 2.082-1.253 2.63-.293.113.199-.225.59-.885 1.028-1.186.784-1.206.829-.682 1.519.353.466.41.458 1.38-.202.938-.638 1.037-.655 1.343-.237.486.662.425.813-.592 1.472-1.053.682-1.064.711-.549 1.407.375.505.401.503 1.595-.123 1.186-.62 1.223-.624 1.595-.132.21.277.385.58.39.673.015.301-3.446 2.344-3.972 2.344-.313 0-.785-.435-1.22-1.124zm-71.636-2.17c-.733-.599-.753-.669-.416-1.483.343-.828.325-.88-.629-1.754l-.982-.9-.745.53-.745.53-.718-.748-.717-.748 3.605-2.031 3.605-2.03.898.738c.521.429.86.925.807 1.182-.146.706-2.916 7.353-3.062 7.348-.073-.002-.478-.288-.901-.634zm1.194-5.17c.547-1.222.462-1.265-.878-.44l-.983.604.571.571c.662.662.665.66 1.29-.734zm76.241.711l-2.443-2.698 1.438-1.365c.794-.754 1.804-1.445 2.256-1.545 1.146-.251 2.12.42 2.12 1.461 0 .701.087.788.805.788.945 0 2.105 1.02 2.105 1.853 0 .305-.175.892-.388 1.305-.435.841-2.702 2.935-3.155 2.913-.162-.008-1.393-1.228-2.738-2.712zm4.027.18c.973-.973-.082-2.349-1.301-1.696-.828.443-.847.721-.103 1.513.683.728.839.748 1.404.183zm-1.98-3.306c0-.81-.91-1.1-1.629-.516l-.62.502.641.684c.602.64.672.656 1.125.246.266-.24.483-.653.483-.916zm-87.651-.535c-.26-.456-.438-.852-.397-.882.04-.03.638-.435 1.328-.9l1.254-.848-.697-1.053c-.77-1.163-.5-1.18-2.593.171-.753.486-1.06.358-1.587-.661l-.381-.738 3.313-2.048c1.823-1.126 3.344-2.007 3.382-1.958.52.694.95 1.458.95 1.688 0 .16-.476.557-1.058.884-.582.328-1.059.658-1.059.736 0 .11.718 1.227 1.224 1.906.04.053.632-.216 1.316-.599.685-.383 1.266-.664 1.29-.626l.615.895.568.824-3.26 2.02c-1.794 1.111-3.369 2.02-3.5 2.018-.13 0-.449-.374-.708-.83zm91.885-2.245c-1.528-1.082-2.946-2.068-3.15-2.191-.307-.185-.266-.373.228-1.067.33-.464.746-.787.925-.719.178.068 1.657 1.04 3.287 2.16l2.963 2.034-.526.83c-.289.456-.62.85-.737.874-.117.025-1.462-.84-2.99-1.921zm-27.252-.459c-4.255-1.158-7.394-4.453-8.606-9.033-.55-2.076-.556-6.64-.011-8.667 1.422-5.295 5.238-8.733 10.469-9.429 8.579-1.142 14.79 4.738 14.812 14.019.006 2.412-.776 5.674-1.763 7.358-1.618 2.76-4.219 4.813-7.21 5.69-1.716.504-5.945.538-7.691.062zm6.488-5.05c1.808-1.38 2.767-4.435 2.77-8.825.003-4.45-1.336-7.807-3.507-8.792-1.474-.67-2.473-.65-3.906.074-2.597 1.314-3.56 4.12-3.38 9.853.098 3.098.214 3.924.706 5.027.66 1.476 1.373 2.343 2.548 3.096 1.194.764 3.47.557 4.769-.434zm-48.54 4.598c-1.664-.125-3.182-.288-3.374-.361-.28-.108-.347-2.632-.347-13.094V33.579l.992-.203c.546-.112 3.373-.207 6.284-.21 4.753-.008 5.48.052 7.143.581 4.54 1.445 6.739 5.012 5.19 8.422-.445.978-2.467 3.028-2.988 3.028-.46 0-.187.458.444.745 1.2.547 3.004 2.443 3.46 3.638.595 1.555.416 4.58-.36 6.093-1.809 3.529-7.406 5-16.444 4.322zm8.477-4.82c1.13-.76 1.647-1.82 1.624-3.325-.035-2.322-1.72-3.583-4.813-3.6l-1.998-.01-.073 3.77-.074 3.77h2.217c1.872 0 2.358-.094 3.117-.605zm-.99-11.402c1.326-.554 2.02-1.603 2.02-3.051 0-2.234-1.314-3.198-4.356-3.198h-1.729v3.156c0 3.063.018 3.16.596 3.271 1.26.243 2.631.173 3.47-.178zm14.123 2.861l.063-13.379h6.753l.068 13.379.069 13.38h-7.017zm49.5 9.154c-1.749-.952-2.56-2.69-2.083-4.462.545-2.024 2.6-3.149 4.835-2.647 3.264.733 4.41 4.107 2.21 6.507-.782.854-1.03.96-2.43 1.04-1.182.068-1.795-.038-2.531-.438zm4.213-1.925c.863-.69.165-2.177-1.344-2.862-1.964-.892-3.617-.453-3.617.96 0 .703 1.315 1.898 2.336 2.122.388.086.826.194.971.241.354.115 1.245-.133 1.654-.461zm-103.108-.927c-.573-2.065-.148-3.694 1.275-4.892 1.709-1.438 4.897-1.105 6.202.647.678.91.961 3.593.416 3.939-.83.526-1.292.274-1.292-.704 0-1.266-.403-1.941-1.41-2.362-2.16-.903-4.114.918-3.418 3.184.217.709.194.91-.118 1.03-.951.366-1.38.147-1.655-.842zm91.066-20.433c-.908-1-1.65-1.997-1.65-2.214 0-.359 5.457-5.73 5.821-5.73.086 0 .9.83 1.808 1.845l1.652 1.845-.462.707-.463.706-.973-1.096c-1.109-1.25-1.294-1.303-1.965-.56-.475.524-.465.557.495 1.54l.98 1.003-.543.492c-.534.483-.56.475-1.528-.458-.931-.896-1.019-.926-1.581-.544-.787.536-.759.714.327 2.04l.923 1.125-.596.56-.596.56zm-80.433-.708c-2.066-1.019-3.255-3.354-2.72-5.342.268-.997 2.092-3.23 2.623-3.211.091.003.444.22.783.48l.618.476-.933.932c-.512.513-1.01 1.247-1.107 1.63-.246.978.586 2.314 1.816 2.92.85.418 1.113.442 1.79.161.436-.18 1.124-.73 1.528-1.22l.735-.891.623.664.623.663-.789.992c-.92 1.157-2.774 2.186-3.923 2.177-.442-.003-1.192-.197-1.667-.431zm75.317-3.997a8.907 8.907 0 01-1.143-.924c-.251-.255-.642-.463-.869-.463-.732 0-2.124-1.04-2.453-1.835-.427-1.031-.26-1.454 1.901-4.811l1.851-2.876.833.574c.458.316.87.6.915.633.045.032-.64 1.183-1.522 2.559-.92 1.436-1.603 2.797-1.603 3.196 0 .815 1.045 1.631 1.772 1.384.262-.09 1.288-1.352 2.28-2.806l1.804-2.643.842.58c.463.32.882.61.93.646.117.084-4.547 7.248-4.718 7.248-.073 0-.442-.208-.82-.462zm-67.624-1.901c-2.248-1.021-3.4-4.272-2.255-6.365.6-1.097 2.23-2.106 3.411-2.112 2.517-.013 4.643 2.18 4.643 4.79 0 1.655-.8 2.94-2.272 3.653-1.391.674-2.102.68-3.527.034zm2.91-1.378c.74-.389.966-.738.972-1.494.01-1.444-2.001-4.022-3.136-4.022-.87 0-1.623.717-1.623 1.545 0 .974.978 2.838 1.893 3.608.897.755 1.083.79 1.895.363zm54.686.375c-.974-.179-1.238-.49-1.429-1.684-.131-.822-.45-1.33-1.357-2.154-1.904-1.733-2.128-3.558-.733-5.983 1.618-2.812 5.827-2.679 7.289.23.644 1.282.578 2.571-.21 4.155-.697 1.396-1.414 2.04-2.606 2.34-.81.203-.797.14-.293 1.347.425 1.016.524 1.966.199 1.907-.11-.02-.496-.09-.86-.158zm.714-5.161c.576-.527 1.403-2.524 1.403-3.388 0-.656-1.02-1.84-1.587-1.84-.821 0-2.047 1.261-2.49 2.564-.57 1.673-.533 2.11.245 2.888.747.747 1.437.683 2.43-.224zm-49.254 1.95c-.245-.771.02-1.093.901-1.093.971 0 2.012-.826 1.785-1.418-.202-.525-1.246-.963-2.297-.963-.428 0-1.11-.298-1.57-.685-1.845-1.552-.463-4.077 2.592-4.735.634-.137.959-.089 1.12.166.42.663.242.935-.818 1.253-1.13.338-1.695 1.024-1.33 1.614.125.204.954.448 1.892.559 1.784.21 2.448.698 2.786 2.044.39 1.556-1.501 3.361-3.852 3.676-.883.119-1.058.058-1.21-.419zm8.242-2.746c-.32-1.37-1.314-7.886-1.216-7.974.059-.052.659-.175 1.334-.272l1.226-.178 1.242 2.151c.682 1.184 1.304 2.089 1.382 2.011.078-.078.28-1.19.45-2.47l.308-2.33 1.184-.168c.65-.092 1.259-.092 1.351 0 .253.252 2.027 8.203 1.867 8.363-.077.077-.586.139-1.131.139-.976 0-.997-.022-1.275-1.317a56.32 56.32 0 01-.453-2.381c-.263-1.647-.549-1.264-.69.925-.07 1.094-.175 2.03-.233 2.08-.058.05-.593.153-1.188.229l-1.083.138-.848-1.72c-.467-.946-.902-1.667-.967-1.602-.066.065.002.824.15 1.685.62 3.627.658 3.286-.362 3.286-.725 0-.937-.12-1.048-.595zm30.708.263c-.83-.209-.969-.341-.858-.818.35-1.506 1.717-7.648 1.717-7.717 0-.078.225-.043 1.64.253.641.135.69.223.48.876-.127.4-.557 2.215-.955 4.034-.398 1.819-.793 3.378-.878 3.464-.085.087-.6.045-1.146-.092zm-7.493-1.179l-.81-.103.184-1.64c.102-.903.26-2.433.353-3.401l.168-1.76-1.288-.178c-1.188-.163-1.277-.227-1.163-.823.067-.355.215-.703.328-.773.113-.07 1.765.012 3.673.182l3.467.308v1.83l-1.292-.172-1.293-.171-.148.865c-.082.475-.29 2.025-.46 3.444-.195 1.61-.424 2.564-.61 2.538a112.97 112.97 0 00-1.109-.146zm-10.644-.672c-.172-.209-.323-1.916-.37-4.209l-.081-3.858 2.509-.15c1.38-.081 2.531-.126 2.558-.1.027.028.127.36.223.74.169.675.136.695-1.434.873-1.562.177-1.607.204-1.607.963 0 .77.02.78 1.455.78 1.44 0 1.455.008 1.455.794s-.014.794-1.455.794c-1.513 0-1.602.086-1.292 1.244.134.5.368.594 1.65.662 1.466.077 1.494.093 1.494.872v.794l-2.407.075c-1.75.055-2.487-.02-2.698-.274zm64.442-7.063c-2.336-.746-3.68-2.534-3.68-4.895 0-1.57.273-2.273 1.327-3.411 1.02-1.101 2.1-1.574 3.602-1.574 4.191 0 6.565 4.575 4.123 7.947-1.18 1.628-3.6 2.499-5.372 1.933zm3.136-1.238c1.286-.61 2.03-1.781 2.15-3.382.127-1.708-.523-2.976-1.944-3.79-2.662-1.526-5.829.173-6.119 3.283-.096 1.031.001 1.453.507 2.196 1.347 1.982 3.425 2.633 5.406 1.693zm-3.603-3.783V2.376l.772-.17c.99-.217 2.83.276 3.037.814.31.81.151 1.399-.523 1.929l-.682.537.815 1.183c.973 1.415.984 1.486.219 1.486-.439 0-.79-.348-1.338-1.323-.409-.728-.855-1.323-.992-1.323-.138 0-.25.595-.25 1.323 0 1.146-.07 1.323-.529 1.323-.497 0-.53-.177-.53-2.89zm2.322-.432c1.018-.714.6-1.97-.655-1.97-.53 0-.609.132-.609 1.014 0 1.448.27 1.652 1.264.956z" fill="#007a3b"/></svg>