<?xml version="1.0" encoding="UTF-8" standalone="no"?>
<!-- Created with Inkscape (http://www.inkscape.org/) -->

<svg
   width="512"
   height="512"
   viewBox="0 0 135.46666 135.46667"
   version="1.1"
   id="svg5"
   inkscape:version="1.1 (c68e22c387, 2021-05-23)"
   sodipodi:docname="logo.svg"
   xmlns:inkscape="http://www.inkscape.org/namespaces/inkscape"
   xmlns:sodipodi="http://sodipodi.sourceforge.net/DTD/sodipodi-0.dtd"
   xmlns:xlink="http://www.w3.org/1999/xlink"
   xmlns="http://www.w3.org/2000/svg"
   xmlns:svg="http://www.w3.org/2000/svg">
  <sodipodi:namedview
     id="namedview7"
     pagecolor="#ffffff"
     bordercolor="#666666"
     borderopacity="1.0"
     inkscape:pageshadow="2"
     inkscape:pageopacity="0.0"
     inkscape:pagecheckerboard="0"
     inkscape:document-units="mm"
     showgrid="false"
     units="px"
     width="512px"
     inkscape:zoom="1.2044332"
     inkscape:cx="100.46219"
     inkscape:cy="214.62377"
     inkscape:window-width="1920"
     inkscape:window-height="1017"
     inkscape:window-x="-8"
     inkscape:window-y="-8"
     inkscape:window-maximized="1"
     inkscape:current-layer="layer1" />
  <defs
     id="defs2">
    <linearGradient
       inkscape:collect="always"
       id="linearGradient3045">
      <stop
         style="stop-color:#53bef2;stop-opacity:1"
         offset="0"
         id="stop3041" />
      <stop
         style="stop-color:#3737cf;stop-opacity:0"
         offset="1"
         id="stop3043" />
    </linearGradient>
    <radialGradient
       inkscape:collect="always"
       xlink:href="#linearGradient3045"
       id="radialGradient3047"
       cx="340.24991"
       cy="295.25009"
       fx="340.24991"
       fy="295.25009"
       r="129.52148"
       gradientUnits="userSpaceOnUse"
       gradientTransform="matrix(0.41577752,0.39286296,-0.40332833,0.42687927,32.294567,-224.76466)" />
  </defs>
  <g
     inkscape:label="Calque 1"
     inkscape:groupmode="layer"
     id="layer1">
    <g
       id="g13803">
      <ellipse
         style="fill:#483737;fill-opacity:1;stroke:#ffffff;stroke-width:6.14104;stroke-linecap:round;stroke-linejoin:round;stroke-miterlimit:4;stroke-dasharray:none;stroke-opacity:1;paint-order:stroke fill markers"
         id="path10782"
         cx="67.73333"
         cy="67.73333"
         rx="64.662811"
         ry="64.662819" />
      <path
         id="path990"
         style="fill:url(#radialGradient3047);fill-opacity:1;stroke-width:2.0619;stroke-linecap:round;stroke-linejoin:round;paint-order:stroke fill markers"
         d="m 67.733331,15.89764 c -0.57614,0 -1.14909,0.0145 -1.71806,0.0433 -0.56897,0.0288 -1.13379,0.0719 -1.6949,0.12887 -0.56111,0.057 -1.1182,0.128 -1.670736,0.21243 -0.552536,0.0844 -1.100784,0.18231 -1.644058,0.29349 -0.543271,0.11117 -1.081553,0.2353 -1.61486,0.37251 -0.533309,0.13722 -1.061508,0.28748 -1.584155,0.45004 -0.522645,0.16257 -1.039648,0.33784 -1.550932,0.52505 -0.511281,0.18721 -1.016975,0.38638 -1.516197,0.59754 -0.499219,0.21116 -0.991982,0.43411 -1.478443,0.66851 -0.486459,0.234413 -0.966681,0.480533 -1.439681,0.737493 -0.473003,0.25696 -0.93906,0.52462 -1.397902,0.80342 -0.458843,0.27881 -0.910124,0.56841 -1.354109,0.86837 -0.443981,0.29996 -0.880376,0.61038 -1.308801,0.93079 -0.428427,0.32041 -0.849314,0.65103 -1.261484,0.9912 -0.41217,0.34016 -0.815932,0.68987 -1.211146,1.04908 -0.395216,0.35922 -0.781739,0.7279 -1.159297,1.10547 -0.377559,0.37757 -0.746229,0.76411 -1.105434,1.15934 -0.359206,0.39522 -0.708904,0.799 -1.049055,1.21118 -0.340154,0.41218 -0.670767,0.83258 -0.991168,1.26102 -0.320402,0.42844 -0.630305,0.86484 -0.930256,1.30884 -0.29995,0.44399 -0.589542,0.89579 -0.868339,1.35465 -0.278798,0.45886 -0.546957,0.92493 -0.803907,1.39795 -0.25695,0.47301 -0.50306,0.95274 -0.73746,1.43922 -0.234401,0.48647 -0.457343,0.97976 -0.668496,1.47899 -0.211154,0.49924 -0.410315,1.00444 -0.597519,1.51574 -0.187208,0.5113 -0.362471,1.02882 -0.525032,1.55148 -0.16256,0.52267 -0.312308,1.05088 -0.449523,1.58421 -0.137214,0.53332 -0.261839,1.07162 -0.37301,1.61491 -0.11117,0.54328 -0.209047,1.09155 -0.293473,1.6441 -0.08443,0.55256 -0.155444,1.10917 -0.212429,1.67029 -0.05698,0.56112 -0.100024,1.12646 -0.128867,1.69545 -0.02884,0.56899 -0.04329,1.14196 -0.04329,1.71811 0,0.57616 0.01446,1.14862 0.04329,1.7176 0.02884,0.56899 0.07188,1.13434 0.128867,1.69546 0.05698,0.56112 0.128003,1.11823 0.212429,1.67079 0.08443,0.55255 0.182305,1.10031 0.293473,1.6436 0.111171,0.54329 0.235796,1.08209 0.37301,1.61541 0.137215,0.53333 0.286963,1.06154 0.449523,1.58421 0.162561,0.52266 0.337824,1.03967 0.525032,1.55097 0.187204,0.5113 0.386365,1.01651 0.597519,1.51574 0.21115,0.49924 0.434095,0.99252 0.668496,1.479 0.2344,0.48647 0.48051,0.96621 0.73746,1.43922 0.256947,0.47301 0.525106,0.93909 0.803907,1.39794 0.278797,0.45886 0.568389,0.91066 0.868339,1.35466 0.299948,0.44399 0.609854,0.8804 0.930256,1.30884 0.320401,0.42844 0.651014,0.84884 0.991168,1.26102 0.340151,0.41219 0.689849,0.81596 1.049055,1.21118 0.359205,0.39523 0.727872,0.78177 1.105434,1.15933 0.377558,0.37758 0.764081,0.74626 1.159297,1.10547 0.395214,0.35922 0.798976,0.70943 1.211146,1.04959 0.41217,0.34017 0.833057,0.67028 1.261484,0.9907 0.428425,0.3204 0.86482,0.63083 1.308801,0.93078 0.443985,0.29996 0.895266,0.58956 1.354109,0.86837 0.458842,0.27881 0.924899,0.54697 1.397902,0.80393 0.473,0.25696 0.953222,0.50257 1.439681,0.73698 0.486461,0.23441 0.979224,0.45736 1.478443,0.66852 0.499222,0.21116 1.004916,0.41083 1.516197,0.59804 0.511284,0.18721 1.028287,0.36198 1.550932,0.52454 0.522644,0.16257 1.050846,0.31282 1.584155,0.45004 0.533307,0.13722 1.071589,0.26135 1.61486,0.37252 0.543274,0.11118 1.091522,0.20953 1.644058,0.29399 0.552536,0.0844 1.109626,0.15494 1.670736,0.21193 0.56111,0.057 1.12593,0.10003 1.6949,0.12887 0.56897,0.0288 1.14192,0.0438 1.71806,0.0438 0.57613,0 1.14908,-0.0149 1.71805,-0.0438 0.56897,-0.0288 1.13379,-0.0719 1.6949,-0.12887 0.56111,-0.057 1.11819,-0.12748 1.67074,-0.21193 0.55253,-0.0844 1.10077,-0.18281 1.64405,-0.29399 0.54327,-0.11117 1.08155,-0.2353 1.61486,-0.37252 0.53331,-0.13722 1.06152,-0.28747 1.58416,-0.45004 0.52265,-0.16256 1.03965,-0.33733 1.55093,-0.52454 0.51128,-0.18721 1.01697,-0.38688 1.5162,-0.59804 0.49922,-0.21116 0.99198,-0.43411 1.47844,-0.66852 0.48646,-0.23441 0.96668,-0.48002 1.43968,-0.73698 0.473,-0.25696 0.93907,-0.52512 1.39791,-0.80393 0.45884,-0.27881 0.91012,-0.56841 1.3541,-0.86837 0.44399,-0.29995 0.88038,-0.61038 1.3088,-0.93078 0.42843,-0.32042 0.84882,-0.65053 1.26099,-0.9907 0.41217,-0.34016 0.81643,-0.69037 1.21164,-1.04959 0.39522,-0.35921 0.78174,-0.72789 1.1593,-1.10547 0.37755,-0.37756 0.74622,-0.7641 1.10544,-1.15933 0.3592,-0.39522 0.70889,-0.79899 1.04905,-1.21118 0.34015,-0.41218 0.67076,-0.83258 0.99117,-1.26102 0.3204,-0.42844 0.6303,-0.86485 0.93025,-1.30884 0.29995,-0.444 0.58954,-0.8958 0.86834,-1.35466 0.2788,-0.45885 0.54696,-0.92493 0.80391,-1.39794 0.25695,-0.47301 0.50306,-0.95275 0.73746,-1.43922 0.2344,-0.48648 0.45734,-0.97976 0.6685,-1.479 0.21114,-0.49923 0.41031,-1.00444 0.59752,-1.51574 0.1872,-0.5113 0.36247,-1.02831 0.52503,-1.55098 0.16255,-0.52266 0.3123,-1.05087 0.449519,-1.5842 0.13722,-0.53332 0.26184,-1.07212 0.37301,-1.61541 0.11117,-0.54329 0.20902,-1.09105 0.29347,-1.6436 0.0844,-0.55256 0.15545,-1.10967 0.21243,-1.67079 0.057,-0.56112 0.10003,-1.12647 0.12887,-1.69546 0.0288,-0.56898 0.0433,-1.14144 0.0433,-1.7176 0,-0.57615 -0.0145,-1.14912 -0.0433,-1.71811 -0.0289,-0.56899 -0.0719,-1.13433 -0.12887,-1.69545 -0.057,-0.56112 -0.12797,-1.11773 -0.21243,-1.67029 -0.0497,-0.32537 -0.10557,-0.64885 -0.1646,-0.97106 a 3.5361039,3.536212 0 0 1 -1.404959,0.30255 l -3.84888,-0.008 -3.84889,-0.005 -3.84888,-0.008 -3.84687,-0.006 -3.84889,-0.006 -3.84889,-0.008 -3.84888,-0.006 -2.81393,-0.004 c -0.0838,0.0665 -0.15589,0.11562 -0.2532,0.20539 -0.17725,0.16347 -0.37333,0.36785 -0.57235,0.61666 -0.19901,0.24881 -0.40108,0.54302 -0.5955,0.89404 -0.19442,0.351 -0.38145,0.75886 -0.54416,1.23887 -0.16272,0.48001 -0.30153,1.03187 -0.39768,1.67431 -0.0962,0.64252 -0.14879,1.37562 -0.1334,2.21245 0.015,0.81817 0.0992,1.53065 0.22653,2.15556 0.12729,0.62495 0.29656,1.16094 0.4908,1.63052 0.19423,0.46958 0.41275,0.87195 0.64131,1.22175 0.22855,0.34978 0.46742,0.64746 0.70373,0.90159 0.23632,0.25414 0.47041,0.46584 0.68511,0.63731 0.1953,0.15597 0.36829,0.26993 0.51748,0.36346 l 0.94939,0.0211 1.77141,0.0362 1.7689,0.0377 1.77141,0.0362 1.77142,0.0383 1.7694,0.0362 1.77141,0.0357 1.7694,0.0383 a 3.5361039,3.536212 0 0 1 3.46229,3.60938 3.5361039,3.536212 0 0 1 -3.60878,3.46088 l -1.77141,-0.0362 -1.7694,-0.0383 -1.77141,-0.0362 -1.77142,-0.0357 -1.7694,-0.0383 -1.77091,-0.0362 -1.7694,-0.0383 -1.77141,-0.0357 a 3.5364575,3.5365657 0 0 1 -1.17793,-0.22854 c 0,0 -0.26613,-0.10357 -0.52301,-0.22653 -0.25714,-0.1231 -0.58933,-0.29697 -0.97405,-0.5326 -0.38472,-0.23564 -0.82108,-0.53421 -1.28615,-0.90562 -0.46507,-0.37141 -0.95924,-0.81541 -1.45177,-1.34509 -0.49253,-0.52967 -0.98308,-1.14453 -1.443708,-1.84949 -0.460603,-0.70494 -0.891456,-1.50157 -1.25796,-2.38763 -0.366515,-0.88607 -0.670213,-1.86064 -0.886462,-2.92225 -0.216266,-1.06163 -0.344378,-2.20896 -0.366968,-3.43822 -0.02224,-1.21061 0.05402,-2.34001 0.210918,-3.3884 0.156934,-1.04846 0.395312,-2.01648 0.694672,-2.89959 0.299362,-0.8831 0.659127,-1.68059 1.054091,-2.39367 0.394935,-0.71305 0.823577,-1.34078 1.259467,-1.88574 a 3.5364575,3.5365657 0 0 1 0.001,0 c 0.43591,-0.54495 0.87823,-1.00769 1.29974,-1.39643 0.42148,-0.38872 0.82143,-0.70371 1.17742,-0.95495 0.35598,-0.25124 0.66718,-0.43941 0.91163,-0.57438 0.24439,-0.13493 0.51346,-0.25724 0.51346,-0.25724 a 3.5364575,3.5365657 0 0 1 1.42307,-0.2965 l 3.84888,0.008 3.84688,0.005 3.84888,0.006 3.84889,0.008 3.84738,0.006 3.84888,0.008 3.84889,0.006 3.23677,0.005 c -0.0231,-0.0555 -0.045,-0.11175 -0.0685,-0.16713 -0.21115,-0.49924 -0.4341,-0.99252 -0.6685,-1.479 -0.2344,-0.48647 -0.48051,-0.9662 -0.73746,-1.43922 -0.2569,-0.47301 -0.52506,-0.93908 -0.80386,-1.39793 -0.2788,-0.45886 -0.56839,-0.91066 -0.86834,-1.35466 -0.29995,-0.44399 -0.60986,-0.8804 -0.93026,-1.30884 -0.3204,-0.42844 -0.651,-0.84883 -0.99116,-1.26102 -0.34015,-0.41218 -0.68985,-0.81595 -1.04906,-1.21118 -0.3592,-0.39523 -0.72787,-0.78176 -1.10544,-1.15933 -0.37755,-0.37757 -0.76408,-0.74625 -1.15929,-1.10547 -0.39522,-0.35922 -0.79947,-0.70893 -1.21165,-1.04909 -0.41217,-0.34016 -0.83256,-0.67078 -1.26098,-0.9912 -0.42843,-0.3204 -0.86481,-0.63083 -1.3088,-0.93078 -0.44398,-0.29996 -0.89526,-0.58956 -1.35411,-0.86837 -0.45883,-0.27881 -0.9249,-0.54647 -1.3979,-0.80343 -0.473,-0.25696 -0.95322,-0.50307 -1.43968,-0.737483 -0.48647,-0.23441 -0.97923,-0.45736 -1.47845,-0.66852 -0.49922,-0.21116 -1.00491,-0.41032 -1.51619,-0.59753 -0.51129,-0.18721 -1.02829,-0.36249 -1.55094,-0.52505 -0.52265,-0.16257 -1.05083,-0.31282 -1.58415,-0.45004 -0.53331,-0.13722 -1.07159,-0.26135 -1.61486,-0.37252 -0.54328,-0.11117 -1.09152,-0.20905 -1.64406,-0.29348 -0.55254,-0.0844 -1.10963,-0.15545 -1.67073,-0.21244 -0.56111,-0.057 -1.12594,-0.10002 -1.6949,-0.12887 -0.56897,-0.0288 -1.14192,-0.0433 -1.71806,-0.0433 z" />
      <g
         id="g10936"
         transform="translate(-36.937161,-78.789596)">
        <text
           xml:space="preserve"
           style="font-style:normal;font-variant:normal;font-weight:normal;font-stretch:normal;font-size:24.9813px;line-height:1.25;font-family:'Bauhaus 93';-inkscape-font-specification:'Bauhaus 93, Normal';font-variant-ligatures:normal;font-variant-caps:normal;font-variant-numeric:normal;font-variant-east-asian:normal;text-align:start;letter-spacing:0px;word-spacing:0px;writing-mode:lr-tb;text-anchor:start;fill:#24221c;fill-opacity:1;stroke:none;stroke-width:0.292749"
           x="65.96273"
           y="188.17204"
           id="text10876"
           transform="scale(1.0196426,0.9807358)"><tspan
             sodipodi:role="line"
             id="tspan10874"
             style="font-style:normal;font-variant:normal;font-weight:normal;font-stretch:normal;font-size:24.9813px;font-family:'Bauhaus 93';-inkscape-font-specification:'Bauhaus 93, Normal';font-variant-ligatures:normal;font-variant-caps:normal;font-variant-numeric:normal;font-variant-east-asian:normal;fill:#24221c;stroke-width:0.292749"
             x="65.96273"
             y="188.17204">BALL-IT</tspan></text>
        <text
           xml:space="preserve"
           style="font-style:normal;font-variant:normal;font-weight:normal;font-stretch:normal;font-size:24.9813px;line-height:1.25;font-family:'Bauhaus 93';-inkscape-font-specification:'Bauhaus 93, Normal';font-variant-ligatures:normal;font-variant-caps:normal;font-variant-numeric:normal;font-variant-east-asian:normal;text-align:start;letter-spacing:0px;word-spacing:0px;writing-mode:lr-tb;text-anchor:start;fill:#ffe680;fill-opacity:1;stroke:none;stroke-width:0.292749"
           x="65.316406"
           y="187.05209"
           id="text8893"
           transform="scale(1.0196426,0.9807358)"><tspan
             sodipodi:role="line"
             id="tspan8891"
             style="font-style:normal;font-variant:normal;font-weight:normal;font-stretch:normal;font-size:24.9813px;font-family:'Bauhaus 93';-inkscape-font-specification:'Bauhaus 93, Normal';font-variant-ligatures:normal;font-variant-caps:normal;font-variant-numeric:normal;font-variant-east-asian:normal;fill:#ffe680;stroke-width:0.292749"
             x="65.316406"
             y="187.05209">BALL-IT</tspan></text>
      </g>
      <text
         xml:space="preserve"
         style="font-style:normal;font-variant:normal;font-weight:normal;font-stretch:normal;font-size:4.99648px;line-height:1.25;font-family:Vision;-inkscape-font-specification:'Vision, Normal';font-variant-ligatures:normal;font-variant-caps:normal;font-variant-numeric:normal;text-align:start;letter-spacing:0px;word-spacing:0px;writing-mode:lr-tb;text-anchor:start;fill:#000000;fill-opacity:1;stroke:none;stroke-width:0.0585523"
         x="61.542625"
         y="111.66688"
         id="text11711"><tspan
           sodipodi:role="line"
           id="tspan11709"
           style="font-style:normal;font-variant:normal;font-weight:normal;font-stretch:normal;font-size:4.99648px;font-family:'Bauhaus 93';-inkscape-font-specification:'Bauhaus 93, Normal';font-variant-ligatures:normal;font-variant-caps:normal;font-variant-numeric:normal;font-variant-east-asian:normal;fill:#d7eef4;stroke-width:0.0585523"
           x="61.542625"
           y="111.66688">GAME</tspan></text>
    </g>
  </g>
</svg>
